<?xml version="1.0" encoding="UTF-8"?>
<!-- Generator: visioncortex VTracer 0.6.3 -->
<svg version="1.1" xmlns="http://www.w3.org/2000/svg" width="1280" height="1280">
<path d="M0 0 C422.4 0 844.8 0 1280 0 C1280 422.4 1280 844.8 1280 1280 C857.6 1280 435.2 1280 0 1280 C0 857.6 0 435.2 0 0 Z " fill="#010103" transform="translate(0,0)"/>
<path d="M0 0 C37.14 -0.01 74.27 -0.02 111.41 -0.03 C112.14 -0.03 112.86 -0.03 113.61 -0.03 C191.45 -0.05 269.29 -0.07 347.13 -0.08 C348.86 -0.08 350.59 -0.09 352.32 -0.09 C388.6 -0.09 424.87 -0.1 461.15 -0.1 C479.37 -0.1 497.6 -0.11 515.82 -0.11 C518.57 -0.11 521.32 -0.11 524.07 -0.11 C566.41 -0.12 608.75 -0.12 651.1 -0.14 C652.46 -0.14 652.46 -0.14 653.86 -0.14 C668.55 -0.14 683.23 -0.15 697.92 -0.15 C740.21 -0.16 782.49 -0.18 824.78 -0.18 C826.09 -0.18 826.09 -0.18 827.42 -0.18 C846.49 -0.18 865.56 -0.19 884.64 -0.19 C892.31 -0.19 899.99 -0.19 907.66 -0.19 C908.92 -0.19 908.92 -0.19 910.21 -0.19 C937.3 -0.19 964.39 -0.2 991.48 -0.21 C1018.76 -0.22 1046.03 -0.23 1073.31 -0.23 C1077.07 -0.23 1080.84 -0.23 1084.6 -0.23 C1085.34 -0.23 1086.08 -0.23 1086.84 -0.23 C1098.55 -0.23 1110.27 -0.23 1121.98 -0.24 C1133.48 -0.25 1144.98 -0.25 1156.48 -0.24 C1162.64 -0.24 1168.8 -0.24 1174.96 -0.25 C1180.55 -0.26 1186.14 -0.26 1191.73 -0.25 C1193.75 -0.25 1195.77 -0.25 1197.8 -0.25 C1200.52 -0.26 1203.24 -0.26 1205.97 -0.25 C1206.76 -0.25 1207.56 -0.26 1208.38 -0.26 C1213.77 -0.23 1213.77 -0.23 1216 2 C1216.2 4.55 1216.27 7 1216.25 9.56 C1216.25 10.35 1216.26 11.14 1216.26 11.96 C1216.27 14.64 1216.26 17.33 1216.25 20.01 C1216.26 21.94 1216.26 23.87 1216.26 25.81 C1216.27 31.14 1216.27 36.47 1216.26 41.81 C1216.26 47.55 1216.26 53.29 1216.27 59.04 C1216.28 70.3 1216.28 81.56 1216.27 92.82 C1216.27 101.98 1216.27 111.13 1216.27 120.29 C1216.27 122.24 1216.27 122.24 1216.27 124.23 C1216.27 126.87 1216.27 129.51 1216.27 132.16 C1216.28 156.26 1216.27 180.37 1216.26 204.48 C1216.25 226.47 1216.25 248.47 1216.26 270.47 C1216.27 295.18 1216.28 319.89 1216.27 344.6 C1216.27 347.24 1216.27 349.87 1216.27 352.51 C1216.27 353.81 1216.27 355.1 1216.27 356.44 C1216.26 365.58 1216.27 374.72 1216.27 383.86 C1216.28 395 1216.28 406.15 1216.27 417.29 C1216.26 422.98 1216.26 428.66 1216.27 434.35 C1216.27 439.56 1216.27 444.77 1216.26 449.97 C1216.26 451.86 1216.26 453.74 1216.26 455.62 C1216.28 464.99 1216.09 473.82 1214 483 C1213.53 486.45 1213.08 489.89 1212.66 493.35 C1212 496 1212 496 1209 498 C1208.09 500.3 1207.49 502.61 1206.84 505 C1206.57 505.66 1206.29 506.32 1206 507 C1205.01 507.33 1204.02 507.66 1203 508 C1202.56 509.68 1202.12 511.37 1201.7 513.06 C1200.43 516.59 1197.84 518.99 1195.25 521.62 C1194.74 522.17 1194.22 522.72 1193.7 523.28 C1184.74 532.69 1184.74 532.69 1178 534 C1177.57 534.92 1177.57 534.92 1177.14 535.87 C1174.64 540.56 1168.26 542.18 1163.49 543.91 C1149.24 548.23 1134.11 548.3 1119.35 548.25 C1117.53 548.26 1115.7 548.26 1113.87 548.26 C1108.88 548.27 1103.88 548.27 1098.89 548.26 C1093.44 548.26 1088 548.27 1082.55 548.27 C1073.02 548.28 1063.49 548.28 1053.95 548.28 C1039.78 548.27 1025.6 548.28 1011.42 548.29 C985.37 548.3 959.31 548.3 933.25 548.3 C929.56 548.3 925.87 548.3 922.19 548.3 C921.09 548.3 921.09 548.3 919.97 548.3 C903.71 548.3 887.46 548.3 871.2 548.31 C867.49 548.31 863.78 548.31 860.06 548.31 C858.57 548.31 857.08 548.31 855.59 548.31 C854.85 548.31 854.11 548.31 853.35 548.31 C851.86 548.31 850.36 548.31 848.87 548.31 C806.48 548.32 764.08 548.32 721.69 548.32 C720.51 548.32 720.51 548.32 719.31 548.32 C710.56 548.32 701.82 548.32 693.07 548.32 C692.28 548.32 691.49 548.32 690.67 548.32 C684.11 548.32 684.11 548.32 681.09 548.32 C630.57 548.31 580.04 548.32 529.51 548.34 C516.78 548.34 504.04 548.35 491.31 548.35 C490.53 548.35 489.74 548.35 488.93 548.35 C464.76 548.36 440.59 548.36 416.42 548.36 C415.66 548.36 414.9 548.36 414.12 548.36 C397.46 548.37 380.8 548.36 364.13 548.36 C358.17 548.36 352.21 548.36 346.25 548.36 C344.76 548.36 343.28 548.36 341.8 548.36 C318.18 548.36 294.56 548.37 270.95 548.38 C246.5 548.39 222.05 548.39 197.6 548.38 C183.51 548.37 169.42 548.37 155.32 548.39 C145.91 548.4 136.5 548.39 127.08 548.38 C121.72 548.38 116.36 548.37 110.99 548.39 C106.11 548.4 101.22 548.39 96.34 548.38 C94.59 548.38 92.84 548.38 91.09 548.39 C75.9 548.45 61.08 547.15 47 541 C46.21 540.68 45.42 540.35 44.6 540.02 C29.56 533.28 13.44 519.21 7.11 503.84 C6.39 501.9 5.69 499.95 5 498 C4.01 496.51 4.01 496.51 3 495 C-2.99 473.87 -1.55 451.35 -1.48 429.62 C-1.46 423.88 -1.47 418.13 -1.48 412.38 C-1.48 401.16 -1.47 389.94 -1.45 378.72 C-1.42 365.64 -1.42 352.57 -1.42 339.5 C-1.41 316.19 -1.39 292.88 -1.36 269.57 C-1.32 246.94 -1.3 224.32 -1.3 201.69 C-1.29 200.65 -1.29 200.65 -1.29 199.58 C-1.29 196.06 -1.29 192.54 -1.29 189.02 C-1.29 188.33 -1.29 187.63 -1.29 186.92 C-1.29 185.52 -1.29 184.11 -1.29 182.71 C-1.28 160.44 -1.27 138.17 -1.25 115.9 C-1.24 109.39 -1.24 102.87 -1.23 96.35 C-1.22 82.66 -1.21 68.97 -1.19 55.28 C-1.18 49.62 -1.18 43.96 -1.17 38.3 C-1.17 33.12 -1.16 27.95 -1.15 22.77 C-1.15 20.9 -1.15 19.02 -1.15 17.14 C-1.15 14.6 -1.14 12.06 -1.13 9.52 C-1.14 8.78 -1.14 8.04 -1.14 7.27 C-1.11 2.23 -1.11 2.23 0 0 Z " fill="#FCFCFC" transform="translate(32,479)"/>
<path d="M0 0 C0.33 0 0.66 0 1 0 C1 108.24 1 216.48 1 328 C-421.4 328 -843.8 328 -1279 328 C-1279 220.42 -1279 112.84 -1279 2 C-1278.01 2.5 -1278.01 2.5 -1277 3 C-1277.04 4.09 -1277.07 5.18 -1277.11 6.3 C-1277.11 11.71 -1276.17 16.88 -1275.19 22.19 C-1275.02 23.16 -1274.86 24.13 -1274.69 25.13 C-1273.79 30.04 -1272.92 33.86 -1270 38 C-1269.59 39.18 -1269.17 40.35 -1268.75 41.56 C-1266.28 48.45 -1262.38 55.07 -1257.78 60.74 C-1256 63 -1256 63 -1256 65 C-1255.34 65 -1254.68 65 -1254 65 C-1252.88 66.43 -1252.88 66.43 -1251.56 68.44 C-1245.01 77.5 -1234.61 84.44 -1225 90 C-1224.17 90.52 -1223.35 91.03 -1222.5 91.56 C-1220.07 93.04 -1220.07 93.04 -1217.56 93.94 C-1215 95 -1215 95 -1212.56 96.94 C-1208.37 99.89 -1203.29 100.38 -1198.34 101.29 C-1195 102 -1195 102 -1192.58 103.01 C-1183.01 106.69 -1170.99 105.14 -1160.84 105.13 C-1158.99 105.13 -1157.14 105.13 -1155.3 105.13 C-1150.22 105.14 -1145.14 105.14 -1140.05 105.13 C-1134.53 105.13 -1129 105.14 -1123.48 105.14 C-1113.79 105.15 -1104.1 105.15 -1094.42 105.15 C-1080.69 105.14 -1066.96 105.15 -1053.23 105.15 C-1025.33 105.16 -997.43 105.17 -969.54 105.17 C-966.53 105.17 -963.53 105.17 -960.53 105.17 C-959.79 105.17 -959.04 105.17 -958.27 105.17 C-941.76 105.17 -925.25 105.17 -908.73 105.17 C-901.93 105.17 -895.13 105.17 -888.33 105.18 C-887.2 105.18 -887.2 105.18 -886.05 105.18 C-842.99 105.18 -799.93 105.19 -756.87 105.19 C-755.26 105.19 -753.65 105.19 -752.04 105.19 C-744.77 105.19 -737.49 105.19 -730.22 105.19 C-726.97 105.19 -723.73 105.19 -720.49 105.19 C-718.86 105.19 -717.24 105.19 -715.61 105.19 C-664.28 105.18 -612.94 105.19 -561.6 105.21 C-548.67 105.21 -535.73 105.21 -522.8 105.22 C-522 105.22 -521.2 105.22 -520.38 105.22 C-495.83 105.22 -471.28 105.23 -446.73 105.23 C-445.96 105.23 -445.19 105.23 -444.39 105.23 C-427.47 105.23 -410.55 105.23 -393.62 105.23 C-387.57 105.23 -381.51 105.23 -375.46 105.23 C-373.95 105.23 -372.44 105.23 -370.94 105.23 C-346.94 105.23 -322.95 105.23 -298.95 105.24 C-274.78 105.25 -250.61 105.25 -226.44 105.25 C-211.45 105.24 -196.46 105.24 -181.46 105.25 C-171.9 105.26 -162.33 105.26 -152.77 105.25 C-147.32 105.25 -141.87 105.25 -136.41 105.26 C-131.45 105.26 -126.49 105.26 -121.52 105.25 C-119.74 105.25 -117.97 105.25 -116.19 105.26 C-96.25 105.38 -96.25 105.38 -77.02 100.71 C-74.76 99.92 -72.54 99.49 -70.19 99.06 C-66.27 98.25 -64.71 96.98 -62 94 C-60.34 93.28 -58.68 92.57 -56.99 91.91 C-53.04 90.1 -49.56 87.47 -46 85 C-45.03 84.37 -44.05 83.74 -43.05 83.09 C-24.8 70.61 -8.75 47.63 -4.56 25.7 C-2.64 15.17 -2.64 15.17 -2.05 4.52 C-2 2 -2 2 0 0 Z " fill="#FCFCFC" transform="translate(1279,952)"/>
<path d="M0 0 C422.4 0 844.8 0 1280 0 C1280 104.94 1280 209.88 1280 318 C1279.67 317.34 1279.34 316.68 1279 316 C1278.34 315.67 1277.68 315.34 1277 315 C1276.79 312.91 1276.59 310.82 1276.4 308.73 C1275.19 300.49 1271.66 292.45 1268 285 C1267.56 284.08 1267.56 284.08 1267.11 283.15 C1262.11 272.92 1256.63 264.45 1249 256 C1247.78 254.49 1247.78 254.49 1246.53 252.95 C1238.39 243.46 1227.46 236.55 1215.91 231.96 C1214 231 1214 231 1212.6 229.45 C1210.32 227.39 1208.33 227.37 1205.31 227 C1201.62 226.47 1198.36 225.91 1194.94 224.44 C1184.87 220.33 1172.47 221.86 1161.77 221.87 C1159.91 221.87 1158.05 221.87 1156.2 221.87 C1151.1 221.86 1145.99 221.86 1140.89 221.87 C1135.34 221.87 1129.79 221.86 1124.24 221.86 C1114.51 221.85 1104.78 221.85 1095.05 221.85 C1081.26 221.86 1067.47 221.85 1053.68 221.85 C1025.67 221.84 997.65 221.83 969.63 221.83 C966.62 221.83 963.61 221.83 960.59 221.83 C959.84 221.83 959.09 221.83 958.32 221.83 C941.74 221.83 925.16 221.83 908.58 221.83 C901.75 221.83 894.92 221.83 888.09 221.82 C887.34 221.82 886.58 221.82 885.8 221.82 C842.57 221.82 799.34 221.81 756.1 221.81 C754.48 221.81 752.87 221.81 751.25 221.81 C743.94 221.81 736.64 221.81 729.34 221.81 C726.08 221.81 722.82 221.81 719.57 221.81 C717.94 221.81 716.31 221.81 714.68 221.81 C663.12 221.82 611.56 221.81 560.01 221.79 C547.02 221.79 534.02 221.79 521.03 221.78 C520.23 221.78 519.43 221.78 518.61 221.78 C493.95 221.78 469.3 221.77 444.65 221.77 C443.87 221.77 443.1 221.77 442.3 221.77 C425.31 221.77 408.32 221.77 391.33 221.77 C385.25 221.77 379.17 221.77 373.09 221.77 C371.58 221.77 370.07 221.77 368.56 221.77 C344.46 221.77 320.36 221.77 296.26 221.76 C271.99 221.75 247.72 221.75 223.45 221.75 C208.39 221.76 193.33 221.76 178.27 221.75 C168.67 221.74 159.07 221.74 149.47 221.75 C143.99 221.75 138.52 221.75 133.04 221.74 C128.06 221.74 123.08 221.74 118.1 221.75 C116.31 221.75 114.52 221.75 112.73 221.74 C96.39 221.36 96.39 221.36 81 226 C77.45 226.76 73.89 227.39 70.31 228.02 C66.68 229.09 65.49 230.26 63 233 C61 233.94 61 233.94 59 234.56 C55.79 235.57 53.66 236.96 51 239 C49.7 239.66 48.38 240.31 47.06 240.94 C29.5 250.61 18.44 268.49 10 286 C9.48 287.03 9.48 287.03 8.95 288.08 C5.93 294.36 4.56 300.74 3.25 307.56 C3.03 308.67 2.81 309.77 2.58 310.91 C2.05 313.6 1.52 316.3 1 319 C0.67 319 0.34 319 0 319 C0 213.73 0 108.46 0 0 Z " fill="#FCFCFC" transform="translate(0,0)"/>
<path d="M0 0 C1.83 -0 3.66 -0 5.49 -0.01 C10.52 -0.01 15.55 -0.01 20.58 -0.01 C26.05 -0 31.53 -0.01 37 -0.01 C46.59 -0.02 56.18 -0.02 65.77 -0.02 C80.03 -0.02 94.3 -0.02 108.56 -0.03 C135.51 -0.04 162.46 -0.04 189.41 -0.04 C192.39 -0.04 195.36 -0.04 198.33 -0.04 C199.07 -0.04 199.8 -0.04 200.56 -0.04 C216.91 -0.04 233.26 -0.04 249.61 -0.04 C256.34 -0.04 263.07 -0.05 269.81 -0.05 C270.55 -0.05 271.3 -0.05 272.06 -0.05 C314.69 -0.05 357.32 -0.06 399.94 -0.06 C401.54 -0.06 403.13 -0.06 404.73 -0.06 C411.93 -0.06 419.13 -0.06 426.33 -0.06 C429.54 -0.06 432.75 -0.06 435.96 -0.06 C437.57 -0.06 439.17 -0.06 440.78 -0.06 C491.61 -0.06 542.43 -0.06 593.26 -0.08 C606.07 -0.08 618.88 -0.08 631.68 -0.09 C632.47 -0.09 633.26 -0.09 634.07 -0.09 C658.38 -0.09 682.69 -0.1 706.99 -0.1 C707.76 -0.1 708.52 -0.1 709.31 -0.1 C726.06 -0.1 742.81 -0.1 759.56 -0.1 C765.56 -0.1 771.55 -0.1 777.55 -0.1 C779.04 -0.1 780.53 -0.1 782.02 -0.1 C805.78 -0.1 829.53 -0.11 853.29 -0.11 C877.88 -0.12 902.48 -0.12 927.07 -0.12 C941.25 -0.11 955.43 -0.12 969.61 -0.13 C979.07 -0.13 988.54 -0.13 998.01 -0.12 C1003.4 -0.12 1008.8 -0.12 1014.2 -0.13 C1019.11 -0.13 1024.02 -0.13 1028.93 -0.12 C1030.7 -0.12 1032.46 -0.12 1034.22 -0.13 C1056 -0.19 1075.76 2.85 1092.88 17.13 C1093.64 17.75 1094.39 18.37 1095.17 19.01 C1100.75 23.76 1105.86 28.96 1109.88 35.13 C1109.88 36.12 1109.88 37.11 1109.88 38.13 C1110.87 38.46 1111.86 38.79 1112.88 39.13 C1115.04 42.37 1115.97 45.28 1117.1 48.97 C1117.87 51.38 1117.87 51.38 1119.88 54.13 C1125.1 72.75 1124.37 91.87 1124.16 111.02 C1124.11 115.21 1124.1 119.41 1124.08 123.61 C1124.03 131.78 1123.97 139.96 1123.88 148.13 C1120.72 149.71 1117.33 149.26 1113.86 149.25 C1113.01 149.26 1112.17 149.26 1111.3 149.26 C1108.43 149.26 1105.56 149.26 1102.7 149.25 C1100.63 149.26 1098.56 149.26 1096.48 149.26 C1090.75 149.26 1085.01 149.26 1079.27 149.26 C1073.04 149.25 1066.82 149.26 1060.59 149.26 C1049.67 149.26 1038.74 149.26 1027.81 149.26 C1016.08 149.26 1004.35 149.26 992.63 149.26 C991.52 149.26 991.52 149.26 990.38 149.26 C987.37 149.26 984.36 149.26 981.35 149.26 C953.26 149.27 925.17 149.27 897.09 149.26 C896.25 149.26 895.42 149.26 894.56 149.26 C893.73 149.26 892.89 149.26 892.04 149.26 C866.65 149.26 841.26 149.26 815.87 149.26 C814.17 149.26 812.48 149.26 810.78 149.26 C803.95 149.26 797.13 149.26 790.31 149.26 C771.23 149.26 752.15 149.27 733.07 149.27 C732.21 149.27 731.34 149.27 730.44 149.27 C702.75 149.27 675.05 149.26 647.35 149.26 C646.01 149.26 646.01 149.26 644.63 149.26 C630.03 149.26 615.44 149.26 600.84 149.26 C542.95 149.25 485.06 149.25 427.17 149.26 C412.58 149.26 398 149.26 383.41 149.26 C382.51 149.26 381.61 149.26 380.69 149.26 C353.02 149.26 325.35 149.27 297.69 149.27 C296.82 149.27 295.95 149.27 295.06 149.27 C276 149.27 256.94 149.26 237.89 149.26 C231.07 149.26 224.25 149.26 217.43 149.26 C215.74 149.26 214.04 149.26 212.35 149.26 C186.96 149.26 161.58 149.26 136.2 149.26 C135.36 149.26 134.53 149.26 133.67 149.26 C132.84 149.27 132.01 149.27 131.15 149.27 C103.15 149.27 75.15 149.27 47.14 149.26 C44.14 149.26 41.14 149.26 38.13 149.26 C37.4 149.26 36.66 149.26 35.9 149.26 C24.2 149.26 12.5 149.26 0.8 149.26 C-10.69 149.26 -22.18 149.26 -33.66 149.26 C-39.82 149.26 -45.97 149.26 -52.12 149.26 C-57.7 149.26 -63.29 149.26 -68.87 149.26 C-70.89 149.25 -72.91 149.26 -74.93 149.26 C-77.65 149.26 -80.37 149.26 -83.1 149.25 C-83.89 149.26 -84.68 149.26 -85.5 149.26 C-90.89 149.24 -90.89 149.24 -93.12 148.13 C-93.21 139.27 -93.28 130.41 -93.33 121.55 C-93.35 117.43 -93.38 113.31 -93.42 109.2 C-93.94 61.22 -93.94 61.22 -85.12 47.13 C-84.67 46.01 -84.21 44.9 -83.74 43.75 C-77.96 30.84 -68.05 21.41 -56.84 13.16 C-54.14 11.25 -54.14 11.25 -52.12 9.13 C-50.41 8.38 -50.41 8.38 -48.38 7.69 C-47.64 7.44 -46.91 7.18 -46.15 6.92 C-45.37 6.66 -44.6 6.4 -43.81 6.13 C-42.29 5.61 -40.77 5.09 -39.26 4.57 C-38.58 4.34 -37.91 4.11 -37.22 3.87 C-35.73 3.34 -34.26 2.75 -32.81 2.12 C-22.86 -1.55 -10.52 -0.01 0 0 Z " fill="#FCFCFC" transform="translate(124.11961269378662,251.87136554718018)"/>
<path d="M0 0 C1.91 -0 3.82 -0.01 5.72 -0.01 C10.88 -0.02 16.03 -0.02 21.19 -0.01 C26.6 -0 32 -0.01 37.41 -0.01 C46.49 -0.02 55.57 -0.01 64.64 -0 C75.12 0.01 85.6 0.01 96.08 -0.01 C105.1 -0.01 114.12 -0.02 123.13 -0.01 C128.51 -0.01 133.89 -0.01 139.27 -0.01 C144.32 -0.02 149.37 -0.02 154.43 -0 C156.28 -0 158.13 -0 159.98 -0.01 C162.51 -0.01 165.05 -0.01 167.58 0 C168.31 0 169.03 -0 169.78 -0.01 C177.49 0.05 184.16 0.91 189.99 6.26 C190.82 6.69 191.64 7.13 192.49 7.57 C195.94 9.9 197.79 12.78 199.99 16.26 C200.57 17.13 200.57 17.13 201.16 18.02 C205.09 24.31 205.14 30.76 205.12 37.98 C205.13 39.09 205.13 39.09 205.13 40.21 C205.13 42.63 205.13 45.05 205.13 47.47 C205.13 49.16 205.13 50.86 205.13 52.55 C205.13 56.1 205.13 59.64 205.12 63.19 C205.12 67.71 205.12 72.24 205.13 76.76 C205.13 80.26 205.13 83.76 205.13 87.26 C205.13 88.93 205.13 90.59 205.13 92.26 C205.15 107.65 205.09 117.89 194.12 129.57 C186.61 136.78 179.13 138.41 168.92 138.4 C168.11 138.4 167.31 138.41 166.47 138.41 C163.77 138.42 161.07 138.42 158.36 138.42 C156.42 138.42 154.48 138.43 152.54 138.43 C147.27 138.45 142 138.45 136.74 138.46 C133.44 138.46 130.15 138.47 126.86 138.47 C116.56 138.48 106.26 138.49 95.96 138.5 C84.07 138.5 72.18 138.52 60.29 138.55 C51.1 138.57 41.91 138.58 32.72 138.58 C27.23 138.58 21.74 138.59 16.25 138.61 C11.09 138.62 5.92 138.63 0.76 138.62 C-1.13 138.62 -3.03 138.62 -4.92 138.63 C-7.51 138.64 -10.09 138.64 -12.68 138.63 C-13.43 138.63 -14.17 138.64 -14.94 138.65 C-24.3 138.56 -33.13 133.49 -40.1 127.44 C-49.46 117.64 -48.47 105.03 -48.44 92.33 C-48.44 90.49 -48.45 88.65 -48.46 86.81 C-48.46 82.96 -48.46 79.12 -48.45 75.27 C-48.44 70.38 -48.46 65.48 -48.49 60.58 C-48.51 56.79 -48.51 52.99 -48.5 49.19 C-48.5 47.39 -48.51 45.58 -48.52 43.78 C-48.65 22.87 -48.65 22.87 -44.01 15.26 C-41.92 14.6 -41.92 14.6 -40.01 14.26 C-39.72 13.5 -39.43 12.73 -39.13 11.95 C-37.61 8.31 -35.29 7.31 -32.01 5.26 C-31.35 4.27 -30.69 3.28 -30.01 2.26 C-20.84 -1.16 -9.63 -0.02 0 0 Z " fill="#FCFCFC" transform="translate(215.00634765625,691.7412109375)"/>
<path d="M0 0 C1.87 -0 3.75 -0.01 5.62 -0.01 C10.68 -0.02 15.74 -0.02 20.8 -0.01 C26.1 -0 31.41 -0.01 36.71 -0.01 C45.62 -0.02 54.52 -0.01 63.42 -0 C73.7 0.01 83.99 0.01 94.28 -0.01 C103.12 -0.01 111.97 -0.02 120.81 -0.01 C126.09 -0.01 131.37 -0.01 136.64 -0.01 C141.6 -0.02 146.56 -0.02 151.51 -0 C153.33 -0 155.15 -0 156.97 -0.01 C159.45 -0.01 161.93 -0.01 164.41 0 C165.13 0 165.85 -0 166.59 -0.01 C170.88 0.02 174.32 0.73 178.31 2.26 C179.91 2.6 181.52 2.92 183.13 3.2 C198.66 6.2 210.91 13.81 220.06 26.73 C227.17 37.39 230.77 47.24 231.95 59.89 C232.19 63.25 232.19 63.25 233.31 66.26 C233.42 68.56 233.46 70.87 233.47 73.18 C233.48 73.88 233.48 74.59 233.49 75.31 C233.5 77.64 233.51 79.96 233.52 82.29 C233.52 83.09 233.52 83.89 233.52 84.72 C233.54 88.97 233.55 93.23 233.55 97.48 C233.56 101.83 233.58 106.17 233.61 110.52 C233.63 113.9 233.64 117.28 233.64 120.66 C233.64 122.26 233.65 123.85 233.66 125.45 C233.73 134.22 233.32 142.77 232.04 151.46 C231.93 152.23 231.83 153.01 231.72 153.81 C230.85 159.08 229.15 162.74 226.31 167.26 C226.03 168.06 225.75 168.86 225.45 169.69 C223.66 173.73 220.85 176.92 218.06 180.32 C217.5 181.03 216.94 181.74 216.36 182.46 C213.04 186.55 209.92 189.56 205.31 192.26 C204.24 192.92 203.17 193.58 202.06 194.26 C179.02 207.04 149.14 203.41 123.58 203.39 C119.47 203.39 115.36 203.39 111.24 203.39 C104.33 203.4 97.42 203.39 90.51 203.39 C82.61 203.38 74.71 203.39 66.8 203.39 C59.94 203.4 53.08 203.4 46.22 203.39 C42.15 203.39 38.09 203.39 34.02 203.4 C18.24 203.41 2.47 203.32 -13.31 202.83 C-14.53 202.8 -15.74 202.76 -16.99 202.72 C-39.21 201.94 -39.21 201.94 -48.69 195.26 C-49.74 194.87 -50.79 194.48 -51.87 194.07 C-63.1 189.4 -72.91 178.1 -78.13 167.26 C-79.13 164.6 -79.96 162 -80.69 159.26 C-81.03 158.08 -81.37 156.9 -81.72 155.69 C-82.88 150.99 -82.96 146.51 -82.93 141.7 C-82.93 140.78 -82.93 139.85 -82.94 138.9 C-82.94 135.88 -82.93 132.85 -82.92 129.83 C-82.92 127.71 -82.92 125.6 -82.92 123.48 C-82.91 119.05 -82.91 114.62 -82.89 110.19 C-82.88 104.53 -82.87 98.87 -82.87 93.22 C-82.87 88.85 -82.87 84.48 -82.86 80.11 C-82.86 78.02 -82.85 75.94 -82.85 73.85 C-82.85 70.93 -82.84 68 -82.83 65.08 C-82.83 64.23 -82.83 63.38 -82.83 62.51 C-82.81 58.27 -82.67 54.06 -82.37 49.83 C-82.28 48.63 -82.28 48.63 -82.19 47.39 C-81.59 44.84 -80.62 43.98 -78.69 42.26 C-77.83 40.13 -77.83 40.13 -77.25 37.82 C-76.05 33.95 -74.77 31.96 -71.69 29.26 C-70.68 27.6 -69.68 25.93 -68.69 24.26 C-64.95 19.24 -60.81 15.82 -55.69 12.26 C-55.14 11.83 -54.59 11.39 -54.03 10.95 C-47.02 5.84 -38 4.2 -29.69 2.26 C-28.96 2.08 -28.23 1.9 -27.48 1.72 C-18.36 -0.23 -9.27 -0.02 0 0 Z M-36.56 37.57 C-37.61 38.9 -37.61 38.9 -38.69 40.26 C-39.61 41.15 -40.54 42.03 -41.5 42.95 C-43.92 44.97 -43.92 44.97 -43.69 47.26 C-44.61 47.36 -44.61 47.36 -45.55 47.46 C-47.86 48.07 -47.86 48.07 -48.93 50.3 C-52.31 60.08 -52.27 69.45 -52.22 79.67 C-52.22 81.54 -52.22 83.4 -52.23 85.27 C-52.24 89.15 -52.23 93.04 -52.21 96.93 C-52.19 101.89 -52.2 106.85 -52.22 111.81 C-52.24 115.65 -52.23 119.5 -52.22 123.34 C-52.22 125.17 -52.22 127 -52.23 128.83 C-52.28 141.3 -51.88 151.77 -42.89 161.37 C-34.78 168.34 -27.25 171.41 -16.75 171.4 C-15.54 171.4 -15.54 171.4 -14.31 171.41 C-11.61 171.42 -8.9 171.42 -6.2 171.42 C-4.26 171.42 -2.33 171.43 -0.39 171.43 C4.88 171.45 10.14 171.45 15.4 171.46 C18.69 171.46 21.98 171.47 25.27 171.47 C35.57 171.48 45.87 171.49 56.16 171.5 C68.04 171.5 79.92 171.52 91.8 171.55 C100.99 171.57 110.17 171.58 119.36 171.58 C124.85 171.58 130.33 171.59 135.82 171.61 C140.98 171.62 146.14 171.63 151.3 171.62 C153.19 171.62 155.08 171.62 156.97 171.63 C159.56 171.64 162.15 171.64 164.74 171.63 C165.48 171.63 166.22 171.64 166.99 171.65 C177.27 171.55 185.07 167.47 192.44 160.45 C202.9 149.61 201.47 136.93 201.45 122.78 C201.45 121.09 201.45 119.39 201.45 117.69 C201.45 114.15 201.45 110.61 201.44 107.07 C201.44 102.54 201.44 98.01 201.45 93.49 C201.45 89.99 201.45 86.49 201.45 82.99 C201.45 81.32 201.45 79.65 201.45 77.98 C201.45 75.65 201.45 73.31 201.44 70.98 C201.45 69.96 201.45 69.96 201.45 68.92 C201.42 61.36 200.55 55.61 196.38 49.26 C195.98 48.65 195.58 48.04 195.17 47.41 C189.87 39.72 183.82 35.62 174.74 33.68 C171.11 33.05 167.58 32.98 163.9 33 C163.11 33 162.31 33 161.49 33 C158.85 32.99 156.21 32.99 153.57 33 C151.66 33 149.76 32.99 147.85 32.99 C142.7 32.98 137.54 32.98 132.39 32.99 C126.98 33 121.57 32.99 116.17 32.99 C107.09 32.98 98.01 32.99 88.93 33 C78.45 33.01 67.97 33.01 57.49 32.99 C48.47 32.99 39.46 32.98 30.44 32.99 C25.07 32.99 19.69 32.99 14.31 32.99 C9.26 32.98 4.2 32.98 -0.86 33 C-2.71 33 -4.56 33 -6.41 32.99 C-22.36 32.14 -22.36 32.14 -36.56 37.57 Z " fill="#020204" transform="translate(218.686767578125,658.7412109375)"/>
<path d="M0 0 C0.9 -0 1.79 -0.01 2.71 -0.01 C5.72 -0.02 8.73 -0.02 11.74 -0.01 C13.92 -0.01 16.09 -0.02 18.27 -0.02 C24.26 -0.04 30.24 -0.04 36.23 -0.03 C42.69 -0.03 49.14 -0.04 55.59 -0.05 C68.24 -0.07 80.89 -0.08 93.54 -0.08 C103.82 -0.08 114.1 -0.08 124.38 -0.09 C127.33 -0.09 130.29 -0.09 133.25 -0.09 C133.99 -0.09 134.72 -0.09 135.48 -0.09 C156.17 -0.11 176.86 -0.12 197.55 -0.11 C198.33 -0.11 199.11 -0.11 199.91 -0.11 C203.86 -0.11 207.82 -0.11 211.77 -0.11 C212.95 -0.11 212.95 -0.11 214.15 -0.11 C215.74 -0.11 217.33 -0.11 218.92 -0.11 C243.62 -0.11 268.33 -0.13 293.03 -0.15 C320.79 -0.19 348.54 -0.2 376.3 -0.2 C379.26 -0.2 382.22 -0.2 385.18 -0.2 C386.27 -0.2 386.27 -0.2 387.38 -0.2 C399.11 -0.2 410.84 -0.21 422.56 -0.23 C434.35 -0.25 446.14 -0.25 457.92 -0.24 C464.31 -0.23 470.69 -0.23 477.08 -0.25 C482.92 -0.26 488.77 -0.26 494.61 -0.24 C496.73 -0.24 498.84 -0.24 500.96 -0.25 C521.94 -0.36 521.94 -0.36 529.04 4.26 C532.8 8.03 535.32 13.01 535.73 18.38 C534.89 23.12 533.39 26.75 530.04 30.26 C524.91 33.47 520.8 33.69 514.95 33.64 C514.04 33.65 513.13 33.65 512.19 33.66 C509.13 33.67 506.06 33.67 503 33.66 C500.79 33.66 498.58 33.67 496.36 33.68 C490.27 33.7 484.18 33.7 478.09 33.69 C472.2 33.69 466.31 33.71 460.42 33.72 C446.88 33.75 433.35 33.76 419.81 33.76 C409.35 33.76 398.9 33.77 388.44 33.78 C385.43 33.78 382.42 33.78 379.42 33.78 C378.29 33.78 378.29 33.78 377.15 33.79 C356.11 33.8 335.06 33.82 314.02 33.81 C313.23 33.81 312.43 33.81 311.62 33.81 C307.59 33.81 303.57 33.81 299.55 33.81 C298.35 33.81 298.35 33.81 297.13 33.81 C295.52 33.81 293.9 33.81 292.29 33.81 C267.16 33.81 242.03 33.83 216.9 33.87 C188.67 33.92 160.44 33.95 132.21 33.94 C129.2 33.94 126.19 33.94 123.18 33.94 C122.44 33.94 121.7 33.94 120.93 33.94 C109.01 33.94 97.08 33.96 85.15 33.99 C73.16 34.01 61.18 34.02 49.19 34 C42.69 33.99 36.2 33.99 29.71 34.01 C23.76 34.04 17.82 34.03 11.87 34.01 C9.72 34 7.57 34.01 5.42 34.02 C-15.84 34.18 -15.84 34.18 -22.96 27.26 C-26.08 22.58 -25.54 17.74 -24.96 12.26 C-22.28 6.49 -18.12 3.57 -12.32 1.16 C-8.13 0.03 -4.32 -0.02 0 0 Z " fill="#010103" transform="translate(611.9563255310059,658.7427310943604)"/>
<path d="M0 0 C1.61 -0.01 1.61 -0.01 3.25 -0.02 C6.83 -0.04 10.41 -0.03 13.99 -0.03 C16.56 -0.03 19.14 -0.04 21.71 -0.05 C27.96 -0.07 34.21 -0.08 40.47 -0.07 C45.55 -0.07 50.64 -0.08 55.72 -0.08 C57.19 -0.09 58.65 -0.09 60.12 -0.09 C60.85 -0.09 61.58 -0.09 62.33 -0.09 C76.12 -0.11 89.91 -0.11 103.7 -0.11 C116.31 -0.1 128.92 -0.12 141.53 -0.15 C154.49 -0.19 167.44 -0.2 180.4 -0.2 C187.67 -0.2 194.94 -0.2 202.21 -0.23 C209.05 -0.25 215.88 -0.25 222.72 -0.23 C225.23 -0.22 227.74 -0.23 230.25 -0.24 C233.67 -0.26 237.09 -0.25 240.52 -0.23 C241.51 -0.24 242.51 -0.25 243.53 -0.26 C250.07 -0.18 253.34 1.03 258.26 5.39 C261.07 9.08 262.5 12.82 263.26 17.39 C262.44 23.48 260.1 27.2 255.43 31.09 C251.35 33.54 247.1 33.21 242.45 33.15 C241.37 33.16 240.29 33.17 239.18 33.18 C235.57 33.2 231.97 33.18 228.36 33.15 C225.77 33.16 223.18 33.17 220.59 33.18 C214.29 33.2 207.99 33.2 201.69 33.17 C196.57 33.16 191.45 33.15 186.33 33.16 C185.24 33.16 185.24 33.16 184.12 33.16 C182.64 33.16 181.16 33.16 179.67 33.16 C165.78 33.18 151.89 33.15 138 33.12 C126.09 33.08 114.18 33.08 102.27 33.1 C88.43 33.12 74.59 33.13 60.75 33.11 C59.27 33.11 57.8 33.1 56.32 33.1 C55.59 33.1 54.87 33.1 54.12 33.1 C49.01 33.09 43.89 33.1 38.78 33.11 C31.9 33.12 25.01 33.1 18.13 33.07 C15.6 33.06 13.07 33.06 10.55 33.07 C7.1 33.08 3.65 33.06 0.2 33.04 C-0.8 33.05 -1.8 33.06 -2.83 33.07 C-10.78 32.95 -15.29 30.33 -21.24 25.27 C-23.63 20.7 -23.54 16.43 -22.74 11.39 C-21.03 6.78 -19.17 4.16 -14.8 1.82 C-9.95 -0.18 -5.18 -0.03 0 0 Z " fill="#000002" transform="translate(609.7412109375,786.6055908203125)"/>
<path d="M0 0 C399.96 0 799.92 0 1212 0 C1212.33 0.99 1212.66 1.98 1213 3 C812.38 3 411.76 3 -1 3 C-0.67 2.01 -0.34 1.02 0 0 Z " fill="#414141" transform="translate(34,400)"/>
<path d="M0 0 C349.47 0 698.94 0 1059 0 C1059.33 0.99 1059.66 1.98 1060 3 C709.87 3 359.74 3 -1 3 C-0.67 2.01 -0.34 1.02 0 0 Z " fill="#414141" transform="translate(111,1026)"/>
<path d="M0 0 C86.46 0 172.92 0 262 0 C262 0.99 262 1.98 262 3 C175.54 3 89.08 3 0 3 C0 2.01 0 1.02 0 0 Z " fill="#404141" transform="translate(599,787)"/>
<path d="M0 0 C0.33 0 0.66 0 1 0 C1.24 7.62 0.84 14.59 -1 22 C-1.33 22 -1.66 22 -2 22 C-2.06 18.71 -2.09 15.42 -2.12 12.12 C-2.14 11.19 -2.16 10.25 -2.18 9.29 C-2.19 7.94 -2.19 7.94 -2.2 6.57 C-2.21 5.74 -2.22 4.92 -2.23 4.06 C-2 2 -2 2 0 0 Z " fill="#A1A1A2" transform="translate(1279,952)"/>
<path d="M0 0 C2.54 0.39 3.73 0.7 5.48 2.63 C5.9 3.27 6.32 3.91 6.75 4.56 C7.18 5.2 7.61 5.84 8.05 6.5 C8.36 7 8.68 7.49 9 8 C8.01 8 7.02 8 6 8 C6 7.34 6 6.68 6 6 C5.38 5.75 4.76 5.5 4.12 5.25 C1.65 3.79 1.05 2.62 0 0 Z " fill="#BEBEBE" transform="translate(1246,245)"/>
</svg>
