<?xml version="1.0" encoding="UTF-8"?>
<!-- Generator: visioncortex VTracer 0.6.3 -->
<svg version="1.1" xmlns="http://www.w3.org/2000/svg" width="1280" height="1280">
<path d="M0 0 C422.4 0 844.8 0 1280 0 C1280 422.4 1280 844.8 1280 1280 C857.6 1280 435.2 1280 0 1280 C0 857.6 0 435.2 0 0 Z " fill="#FBFCFE" transform="translate(0,0)"/>
<path d="M0 0 C1.11 0.39 2.23 0.78 3.38 1.19 C9.84 5.65 13.46 12.4 15 20 C16.87 33.61 9.75 47.7 5.35 60.27 C3.01 66.97 0.82 73.68 -1.11 80.51 C-3.27 88.08 -5.71 95.57 -8.13 103.06 C-9.79 108.22 -11.44 113.37 -13 118.56 C-14.83 124.58 -16.82 130.54 -18.81 136.5 C-19.16 137.53 -19.5 138.57 -19.86 139.63 C-21.54 144.66 -23.23 149.68 -24.93 154.69 C-25.24 155.6 -25.55 156.5 -25.86 157.44 C-26.43 159.1 -26.99 160.77 -27.57 162.43 C-29.21 167.32 -30.61 172.23 -31.9 177.21 C-33.87 184.76 -36.29 192.12 -38.81 199.5 C-39.71 202.14 -40.59 204.77 -41.48 207.41 C-41.7 208.06 -41.92 208.71 -42.14 209.38 C-44.38 216.1 -46.43 222.86 -48.45 229.65 C-50.85 237.63 -53.48 245.52 -56.15 253.41 C-58.61 260.73 -60.85 268.09 -62.98 275.5 C-64.44 280.53 -66.05 285.48 -67.89 290.38 C-70.28 296.74 -72.26 303.15 -74.14 309.67 C-75.34 313.81 -76.61 317.92 -78 322 C-79.31 325.83 -80.5 329.68 -81.6 333.57 C-84.33 343.15 -87.55 352.53 -90.88 361.91 C-92.62 366.84 -94.24 371.69 -95.42 376.78 C-96.86 382.34 -98.78 387.78 -100.56 393.25 C-101.01 394.64 -101.46 396.02 -101.91 397.41 C-102.6 399.53 -103.29 401.66 -103.98 403.79 C-105.43 408.22 -106.85 412.66 -108.27 417.1 C-111.42 426.94 -114.57 436.77 -117.87 446.56 C-118.11 447.29 -118.36 448.02 -118.61 448.77 C-119.8 452.3 -120.99 455.84 -122.2 459.37 C-124.76 466.96 -126.98 474.55 -128.99 482.31 C-130.67 488.46 -132.75 494.47 -134.81 500.5 C-135.71 503.14 -136.59 505.77 -137.48 508.41 C-137.7 509.06 -137.92 509.71 -138.14 510.38 C-140.38 517.1 -142.43 523.86 -144.45 530.65 C-146.85 538.63 -149.48 546.52 -152.15 554.41 C-154.61 561.73 -156.85 569.09 -158.98 576.5 C-160.44 581.53 -162.05 586.48 -163.89 591.38 C-166.2 597.53 -168.12 603.73 -169.93 610.03 C-171.65 615.97 -173.58 621.83 -175.56 627.69 C-177.51 633.45 -179.39 639.19 -181 645.06 C-182.85 651.79 -185.16 658.34 -187.54 664.9 C-189.07 669.15 -190.36 673.33 -191.4 677.74 C-192.78 682.97 -194.64 688.07 -196.38 693.19 C-199.96 703.77 -203.37 714.39 -206.5 725.12 C-207.5 728.49 -208.64 731.77 -209.88 735.06 C-211.65 739.82 -213.06 744.62 -214.44 749.5 C-216.39 756.32 -218.72 762.69 -222 769 C-222.77 770.64 -222.77 770.64 -223.56 772.31 C-228.81 778.1 -236.18 781.3 -243.94 781.88 C-251.46 781.46 -257.29 777.69 -263 773 C-268.15 766.99 -269.35 761.24 -269.29 753.46 C-268.78 747.39 -266.91 741.76 -265 736 C-264.73 735.15 -264.45 734.3 -264.17 733.43 C-263.25 730.63 -262.29 727.84 -261.32 725.05 C-259.91 720.9 -258.62 716.74 -257.41 712.53 C-255.14 704.61 -252.63 696.8 -250 689 C-247.59 681.86 -245.24 674.73 -243.12 667.5 C-242.84 666.52 -242.84 666.52 -242.55 665.53 C-241.25 661.04 -240.11 656.53 -239 652 C-238.34 652 -237.68 652 -237 652 C-236.9 651.07 -236.79 650.14 -236.69 649.19 C-235.6 641.65 -233.46 634.77 -230 628 C-228.58 623.42 -227.71 618.74 -227 614 C-226.34 614 -225.68 614 -225 614 C-224.82 613.24 -224.64 612.48 -224.45 611.69 C-223.1 606.15 -221.64 600.75 -219.75 595.37 C-218.52 591.5 -217.65 587.55 -216.75 583.6 C-216 581 -216 581 -214 578 C-213.49 576.05 -212.98 574.1 -212.52 572.14 C-211.73 568.89 -210.7 565.74 -209.69 562.56 C-207.62 556.05 -205.66 549.51 -203.79 542.94 C-202.61 538.84 -201.23 534.88 -199.71 530.9 C-198.69 528.16 -197.84 525.37 -197 522.56 C-195.86 518.79 -194.7 515.04 -193.44 511.31 C-191.29 504.95 -189.24 498.6 -188 492 C-187.34 492 -186.68 492 -186 492 C-185.49 489.75 -185 487.5 -184.5 485.25 C-184.22 484 -183.94 482.74 -183.66 481.45 C-182.88 477.93 -182.88 477.93 -183 474 C-182.01 472.99 -181.01 471.99 -180 471 C-179.03 468.48 -179.03 468.48 -178.38 465.69 C-178.13 464.72 -177.88 463.74 -177.63 462.74 C-176.96 459.84 -176.4 456.95 -176 454 C-175.34 454 -174.68 454 -174 454 C-173.84 453.31 -173.68 452.63 -173.52 451.92 C-171.45 443.32 -168.82 434.95 -166.06 426.56 C-165.2 423.92 -164.33 421.27 -163.47 418.63 C-163.26 417.98 -163.05 417.34 -162.83 416.67 C-161.14 411.47 -159.52 406.25 -157.93 401.02 C-156.51 396.42 -155.04 391.83 -153.56 387.25 C-150.17 376.63 -146.93 365.97 -143.95 355.23 C-143 352 -143 352 -141.56 348.81 C-140.12 345.6 -139.31 342.37 -138.5 338.94 C-137.46 334.56 -136.09 330.99 -134 327 C-133.41 325 -132.93 322.99 -132.46 320.95 C-131.65 317.54 -130.66 314.23 -129 311.12 C-127.78 308.54 -127.22 305.89 -126.54 303.13 C-125.76 300.07 -124.83 297.07 -123.88 294.06 C-123.56 293.07 -123.56 293.07 -123.24 292.06 C-121.86 287.67 -120.45 283.28 -119.04 278.89 C-118.34 276.72 -117.64 274.55 -116.94 272.38 C-116.59 271.29 -116.24 270.21 -115.88 269.09 C-113.74 262.4 -111.74 255.69 -109.86 248.91 C-108.75 245.15 -107.38 241.52 -106 237.85 C-104.05 232.32 -102.57 226.65 -101 221 C-100.47 219.1 -99.92 217.21 -99.38 215.31 C-99.16 214.55 -98.94 213.78 -98.71 212.99 C-98 211 -98 211 -96 208 C-95.45 206.06 -94.95 204.09 -94.5 202.12 C-93.6 198.23 -92.5 194.69 -91 191 C-90.26 188.65 -89.56 186.3 -88.88 183.94 C-88.52 182.73 -88.17 181.52 -87.8 180.28 C-86.84 176.92 -86.84 176.92 -87 173 C-86.55 172.57 -86.1 172.13 -85.64 171.69 C-83.18 169.15 -82.73 166.37 -81.81 163 C-81.47 161.76 -81.12 160.52 -80.77 159.25 C-79.88 156.07 -79.88 156.07 -80 153 C-79.34 153 -78.68 153 -78 153 C-77.75 151.94 -77.75 151.94 -77.5 150.86 C-75.57 142.86 -73.19 135.07 -70.62 127.25 C-69.82 124.77 -69.02 122.29 -68.21 119.81 C-67.83 118.63 -67.44 117.45 -67.05 116.24 C-64.52 108.43 -62.03 100.61 -59.77 92.72 C-57.89 86.17 -55.99 79.76 -53.44 73.44 C-50.98 67.31 -49.45 61.15 -47.99 54.73 C-46.97 50.89 -45.6 47.62 -44 44 C-43.58 42.62 -43.19 41.22 -42.88 39.81 C-42.28 37.2 -41.66 34.6 -41 32 C-40.34 32 -39.68 32 -39 32 C-38.93 31.27 -38.85 30.55 -38.77 29.8 C-37.53 20.31 -34.44 9.8 -26.94 3.26 C-17.66 -2.76 -10.29 -4.02 0 0 Z " fill="#000204" transform="translate(760,228)"/>
<path d="M0 0 C0.96 0.54 1.91 1.09 2.89 1.64 C9.12 5.31 15.06 9.22 20.95 13.41 C24.73 16.01 28.64 18.39 32.57 20.77 C33.25 21.26 33.93 21.75 34.62 22.25 C34.62 22.91 34.62 23.57 34.62 24.25 C35.28 24.47 35.93 24.69 36.61 24.92 C40.68 26.71 44.23 29.11 47.94 31.56 C49.39 32.52 50.85 33.47 52.3 34.43 C53.37 35.13 53.37 35.13 54.45 35.85 C57.31 37.7 60.24 39.44 63.18 41.16 C63.9 41.7 63.9 41.7 64.62 42.25 C64.62 42.91 64.62 43.57 64.62 44.25 C65.8 44.53 65.8 44.53 67 44.81 C71.33 46.53 74.7 48.96 78.45 51.69 C80.53 53.27 80.53 53.27 82.62 54.25 C82.62 54.91 82.62 55.57 82.62 56.25 C83.33 56.5 84.03 56.75 84.75 57 C88.02 58.42 90.67 60.25 93.62 62.25 C96.01 63.8 98.41 65.34 100.81 66.88 C104.1 68.98 107.38 71.09 110.62 73.25 C110.62 73.91 110.62 74.57 110.62 75.25 C111.66 75.61 111.66 75.61 112.71 75.98 C116.16 77.48 119.19 79.43 122.31 81.5 C127.43 84.86 132.6 88.05 137.93 91.06 C138.49 91.45 139.05 91.84 139.62 92.25 C139.62 92.91 139.62 93.57 139.62 94.25 C140.35 94.52 141.08 94.79 141.83 95.06 C144.57 96.23 146.82 97.56 149.29 99.23 C150.59 100.1 150.59 100.1 151.92 101 C152.83 101.62 153.75 102.24 154.69 102.88 C156.1 103.82 156.1 103.82 157.54 104.79 C160.24 106.61 162.93 108.43 165.62 110.25 C167.83 111.73 170.04 113.21 172.25 114.69 C173.16 115.29 174.07 115.9 175 116.53 C177.71 118.31 180.44 120.03 183.19 121.75 C187.99 124.78 192.54 128.08 197.1 131.45 C200.17 133.64 203.3 135.48 206.62 137.25 C206.62 137.91 206.62 138.57 206.62 139.25 C207.66 139.61 207.66 139.61 208.71 139.98 C212.16 141.48 215.19 143.43 218.31 145.5 C223.43 148.86 228.6 152.05 233.93 155.06 C234.77 155.65 234.77 155.65 235.62 156.25 C235.62 156.91 235.62 157.57 235.62 158.25 C236.28 158.47 236.93 158.68 237.6 158.91 C241.72 160.74 245.28 163.21 249 165.75 C250.62 166.84 252.23 167.94 253.85 169.03 C254.65 169.58 255.46 170.12 256.29 170.68 C258.4 172.1 260.53 173.48 262.68 174.84 C284.17 188.54 300.78 207.78 306.62 233.25 C309.48 251.69 308.46 270.51 299.62 287.25 C299.22 288.03 298.82 288.81 298.4 289.61 C296.14 293.84 293.79 297.62 290.62 301.25 C290.11 301.87 289.6 302.48 289.07 303.12 C285.24 307.63 281.26 311.58 276.62 315.25 C276.07 315.7 275.51 316.14 274.93 316.6 C269.89 320.5 264.58 323.99 259.27 327.5 C255.57 329.94 251.92 332.43 248.31 335 C244.28 337.85 240.12 340.41 235.85 342.89 C233.62 344.2 233.62 344.2 231.65 345.73 C229.62 347.25 229.62 347.25 227.21 348.7 C224.44 350.36 221.9 352.2 219.31 354.12 C215.51 356.92 211.68 359.53 207.64 361.98 C205.28 363.47 203.02 365.07 200.75 366.69 C197.45 369.03 194.11 371.2 190.62 373.25 C181.42 378.04 181.42 378.04 174.62 385.25 C172.91 385.98 171.19 386.7 169.46 387.4 C166.84 388.61 164.83 390.4 162.62 392.25 C160.97 393.26 159.3 394.26 157.62 395.25 C156.96 395.75 156.31 396.24 155.62 396.75 C153.38 398.44 151.04 399.82 148.62 401.25 C144.03 404.04 139.57 406.95 135.23 410.12 C133.63 411.25 133.63 411.25 130.81 412.88 C128.36 414.21 128.36 414.21 126.62 417.25 C124.9 418 123.17 418.74 121.43 419.43 C118.81 420.62 116.81 422.41 114.62 424.25 C113.86 424.71 113.1 425.16 112.31 425.63 C109.51 427.32 106.93 429.18 104.31 431.12 C100.49 433.93 96.65 436.57 92.6 439.03 C88.14 441.78 83.73 444.65 79.55 447.82 C77.62 449.25 77.62 449.25 74.5 451 C70.64 453.16 67.1 455.7 63.5 458.26 C60.22 460.53 56.87 462.67 53.5 464.81 C48.96 467.69 44.59 470.7 40.34 473.99 C38.18 475.57 35.88 476.84 33.53 478.13 C30.28 480.04 27.24 482.27 24.17 484.46 C19.55 487.71 14.84 490.82 10.1 493.89 C9.28 494.42 8.47 494.95 7.62 495.5 C6.88 495.98 6.14 496.46 5.38 496.95 C3.49 498.15 3.49 498.15 2.62 500.25 C-5.49 503.12 -13.82 504.87 -22.06 501.94 C-23.16 501.38 -24.25 500.82 -25.38 500.25 C-27.05 499.54 -27.05 499.54 -28.75 498.81 C-31.38 497.25 -31.38 497.25 -32 495.19 C-32.12 494.55 -32.25 493.91 -32.38 493.25 C-33.01 492.99 -33.64 492.73 -34.29 492.46 C-36.38 491.25 -36.38 491.25 -37.42 488.86 C-39.78 479.26 -39.95 473.19 -35.38 464.25 C-32.16 459.33 -28.3 456.3 -23.26 453.37 C-20.77 451.89 -18.62 450.07 -16.38 448.25 C-14.72 447.22 -13.06 446.23 -11.38 445.25 C-7.69 443.03 -4.1 440.84 -0.75 438.12 C1.89 436.04 4.61 434.73 7.62 433.25 C8.97 432.27 10.31 431.27 11.62 430.25 C12.43 429.78 13.23 429.3 14.06 428.81 C16.65 427.31 16.65 427.31 18.88 425.44 C23.37 421.86 28.17 418.71 33.11 415.78 C35.64 414.24 38.03 412.59 40.44 410.88 C52.69 402.25 52.69 402.25 55.62 402.25 C55.62 401.59 55.62 400.93 55.62 400.25 C56.16 399.97 56.69 399.69 57.24 399.4 C63.86 395.84 70.9 392 76.23 386.63 C78.35 384.54 80.97 383.55 83.62 382.25 C84.97 381.27 86.31 380.27 87.62 379.25 C88.43 378.78 89.23 378.3 90.06 377.81 C92.66 376.31 92.66 376.31 94.94 374.38 C97.58 372.28 100.27 370.48 103.12 368.69 C104.5 367.82 104.5 367.82 105.91 366.93 C107.65 365.85 109.4 364.79 111.17 363.75 C113.67 362.22 116.05 360.58 118.44 358.88 C122.19 356.22 125.98 353.73 129.93 351.39 C131.73 350.18 133.1 348.78 134.62 347.25 C136.24 346.31 137.85 345.38 139.48 344.47 C146.68 340.37 153.51 335.68 160.27 330.88 C163.09 328.93 165.98 327.14 168.93 325.39 C170.69 324.29 170.69 324.29 172.16 322.7 C174.31 320.57 176.92 319.57 179.62 318.25 C180.97 317.27 182.31 316.27 183.62 315.25 C184.43 314.78 185.23 314.3 186.06 313.81 C188.65 312.31 188.65 312.31 190.88 310.44 C195.45 306.8 200.34 303.6 205.38 300.62 C207.69 299.28 207.69 299.28 209.81 297.44 C214.59 293.73 219.89 290.82 225.12 287.82 C227.8 286.14 230.16 284.22 232.62 282.25 C234.4 281.12 236.2 280.02 238 278.94 C245.39 274.27 250.92 269.23 254.62 261.25 C255.47 257.86 255.47 257.86 255.62 254.25 C255.69 253.56 255.75 252.87 255.82 252.16 C256.16 245.77 254.23 240.99 251.62 235.25 C251.33 234.37 251.04 233.49 250.74 232.58 C249.38 229.75 248.45 229.45 245.62 228.25 C244.17 227.13 242.76 225.96 241.38 224.75 C240.67 224.14 239.96 223.53 239.23 222.91 C237.62 221.25 237.62 221.25 237.62 219.25 C236.94 219.01 236.25 218.76 235.54 218.51 C232.12 217.03 229.1 215.11 226 213.06 C224.75 212.25 223.51 211.43 222.26 210.62 C221.34 210.02 221.34 210.02 220.4 209.4 C217.91 207.78 215.39 206.2 212.88 204.62 C208.49 201.84 204.23 198.9 200 195.89 C197.09 193.88 194.08 192.06 191.02 190.29 C190.33 189.78 190.33 189.78 189.62 189.25 C189.62 188.59 189.62 187.93 189.62 187.25 C188.94 187.01 188.25 186.76 187.54 186.51 C184.12 185.03 181.1 183.11 178 181.06 C176.75 180.25 175.51 179.44 174.26 178.62 C173.65 178.22 173.03 177.82 172.4 177.41 C169.89 175.77 167.35 174.17 164.81 172.56 C163.08 171.46 161.35 170.35 159.62 169.25 C158.74 168.69 157.86 168.13 156.95 167.55 C156.12 167.02 155.29 166.49 154.44 165.94 C153.7 165.47 152.97 165 152.21 164.51 C151.68 164.1 151.16 163.68 150.62 163.25 C150.62 162.59 150.62 161.93 150.62 161.25 C149.7 160.96 148.77 160.67 147.81 160.38 C144.62 159.25 144.62 159.25 141.62 157.25 C141.62 156.59 141.62 155.93 141.62 155.25 C140.89 154.97 140.15 154.7 139.39 154.41 C136.84 153.34 134.66 152.15 132.33 150.68 C131.54 150.18 130.75 149.68 129.94 149.16 C129.11 148.63 128.29 148.11 127.44 147.56 C126.59 147.02 125.74 146.48 124.87 145.93 C119.01 142.18 113.27 138.3 107.62 134.25 C104.94 132.43 102.27 130.63 99.48 128.97 C98.75 128.53 98.01 128.08 97.25 127.62 C96.56 127.22 95.87 126.82 95.16 126.4 C94.66 126.02 94.15 125.64 93.62 125.25 C93.62 124.59 93.62 123.93 93.62 123.25 C92.94 123.01 92.25 122.76 91.54 122.51 C88.14 121.04 85.14 119.15 82.06 117.12 C81.45 116.73 80.84 116.33 80.21 115.92 C75.28 112.71 70.4 109.44 65.51 106.16 C62.61 104.24 59.69 102.36 56.75 100.5 C55.86 99.93 54.97 99.37 54.05 98.79 C52.57 97.85 51.09 96.92 49.61 96 C48.24 95.13 46.93 94.2 45.62 93.25 C45.62 92.59 45.62 91.93 45.62 91.25 C44.96 91.02 44.3 90.8 43.62 90.57 C39.69 88.84 36.26 86.55 32.69 84.19 C31.18 83.2 29.66 82.21 28.15 81.22 C27.4 80.72 26.64 80.23 25.86 79.71 C22.51 77.52 19.13 75.35 15.75 73.19 C12.69 71.23 9.65 69.26 6.62 67.25 C6.62 66.59 6.62 65.93 6.62 65.25 C5.95 65.02 5.27 64.78 4.57 64.54 C0.9 62.93 -2.21 60.82 -5.5 58.56 C-6.84 57.65 -8.18 56.74 -9.52 55.84 C-10.18 55.39 -10.84 54.95 -11.51 54.49 C-14.01 52.83 -16.57 51.26 -19.12 49.69 C-34.93 39.69 -34.93 39.69 -37.38 33.25 C-38.97 25.28 -39.81 17.37 -35.64 10.14 C-31.87 4.52 -29.17 0.99 -22.38 -0.75 C-22.04 -1.41 -21.72 -2.07 -21.38 -2.75 C-19.3 -3.2 -19.3 -3.2 -16.69 -3.44 C-15.84 -3.52 -14.99 -3.61 -14.11 -3.7 C-8.69 -3.8 -4.7 -2.67 0 0 Z " fill="#000204" transform="translate(881.375,362.75)"/>
<path d="M0 0 C6.55 3.62 9.09 9.58 12 16.19 C12.8 19.88 12.92 23.32 12.62 27.06 C12.56 28.13 12.56 28.13 12.49 29.22 C11.49 36.57 7.05 41.28 1.62 46.06 C-0.99 47.7 -3.53 48.83 -6.38 50.06 C-7.38 51.06 -8.38 52.06 -9.38 53.06 C-12.56 54.25 -12.56 54.25 -15.38 55.06 C-15.38 55.72 -15.38 56.38 -15.38 57.06 C-17.14 58.3 -18.97 59.45 -20.81 60.56 C-24.75 62.68 -24.75 62.68 -27.38 66.06 C-29.07 66.76 -30.77 67.46 -32.47 68.14 C-35.55 69.63 -37.8 71.83 -40.38 74.06 C-42.01 75.11 -43.68 76.11 -45.38 77.06 C-45.97 77.42 -46.56 77.77 -47.17 78.13 C-52.13 81.06 -52.13 81.06 -54.38 81.06 C-54.7 82.05 -55.04 83.04 -55.38 84.06 C-57.27 85.31 -57.27 85.31 -59.62 86.5 C-63.22 88.4 -66.24 90.45 -69.38 93.06 C-71.04 94.06 -72.71 95.06 -74.38 96.06 C-75.99 97.17 -77.59 98.3 -79.19 99.44 C-82.84 102.02 -86.54 104.46 -90.36 106.8 C-93.46 108.75 -96.47 110.84 -99.49 112.93 C-101.38 114.06 -101.38 114.06 -103.38 114.06 C-103.38 114.72 -103.38 115.38 -103.38 116.06 C-109.12 119.06 -109.12 119.06 -111.38 119.06 C-111.38 119.72 -111.38 120.38 -111.38 121.06 C-113.14 122.3 -114.97 123.45 -116.81 124.56 C-120.75 126.68 -120.75 126.68 -123.38 130.06 C-125.07 130.76 -126.77 131.46 -128.47 132.14 C-131.55 133.63 -133.8 135.83 -136.38 138.06 C-138.02 139.1 -139.69 140.1 -141.38 141.06 C-143.34 142.28 -145.3 143.51 -147.26 144.74 C-148.65 145.61 -150.05 146.47 -151.46 147.32 C-154.66 149.27 -157.66 151.22 -160.5 153.69 C-163.35 156.05 -166.07 157.44 -169.38 159.06 C-171.06 160.37 -172.73 161.7 -174.38 163.06 C-177.57 165.26 -180.82 167.34 -184.12 169.38 C-187.31 171.35 -190.38 173.45 -193.44 175.62 C-203.98 183.06 -203.98 183.06 -207.38 183.06 C-207.38 183.72 -207.38 184.38 -207.38 185.06 C-209.14 186.3 -210.97 187.45 -212.81 188.56 C-216.75 190.68 -216.75 190.68 -219.38 194.06 C-221.07 194.76 -222.77 195.46 -224.47 196.14 C-227.55 197.63 -229.8 199.83 -232.38 202.06 C-234.02 203.1 -235.69 204.1 -237.38 205.06 C-238.65 205.85 -239.92 206.64 -241.19 207.44 C-242.21 208.07 -242.21 208.07 -243.25 208.72 C-244.7 209.64 -246.15 210.56 -247.6 211.5 C-248.31 211.95 -249.02 212.41 -249.75 212.88 C-250.4 213.29 -251.04 213.71 -251.71 214.14 C-253.38 215.06 -253.38 215.06 -255.38 215.06 C-255.38 215.72 -255.38 216.38 -255.38 217.06 C-256.99 218.29 -256.99 218.29 -259.25 219.69 C-273.59 229.03 -273.59 229.03 -281 243.97 C-281.99 252.18 -282.73 259.85 -278.03 267.02 C-272.19 274.23 -264.64 278.97 -256.86 283.84 C-253.7 285.82 -250.69 287.96 -247.69 290.19 C-242.41 294.09 -236.94 297.6 -231.38 301.06 C-225 305.06 -218.73 309.16 -212.58 313.51 C-209.88 315.41 -207.13 317.24 -204.38 319.06 C-202.94 320.02 -201.5 320.98 -200.06 321.94 C-199.29 322.45 -198.52 322.96 -197.73 323.49 C-194.3 325.78 -194.3 325.78 -190.88 328.06 C-190.13 328.56 -189.39 329.05 -188.62 329.56 C-187.13 330.56 -185.64 331.56 -184.16 332.56 C-179.3 335.84 -174.35 338.87 -169.25 341.77 C-168.63 342.19 -168.01 342.62 -167.38 343.06 C-167.38 343.72 -167.38 344.38 -167.38 345.06 C-166.67 345.31 -165.97 345.56 -165.25 345.81 C-161.99 347.23 -159.32 349.07 -156.38 351.06 C-154.71 352.13 -153.05 353.2 -151.38 354.26 C-145.78 357.82 -140.28 361.48 -134.86 365.32 C-128.3 369.92 -121.6 374.31 -114.81 378.56 C-111.18 380.85 -107.7 383.26 -104.25 385.81 C-98.95 389.72 -93.48 393.29 -87.94 396.84 C-80.69 401.49 -73.53 406.27 -66.38 411.06 C-63.17 413.2 -59.96 415.34 -56.75 417.46 C-55.48 418.31 -54.21 419.15 -52.94 420 C-52.31 420.42 -51.68 420.83 -51.03 421.26 C-47.88 423.35 -44.78 425.48 -41.71 427.69 C-39.01 429.64 -36.24 431.37 -33.38 433.06 C-30.88 434.68 -28.41 436.34 -25.94 438 C-25.29 438.43 -24.65 438.86 -23.99 439.3 C-21.12 441.22 -18.26 443.14 -15.39 445.06 C-13.13 446.56 -10.86 448.02 -8.57 449.47 C9.91 461.39 9.91 461.39 12.3 472.11 C13.12 479.61 13.55 486.98 8.96 493.39 C3.4 500.06 -1.39 502.85 -10.06 503.81 C-15.56 504.28 -19.36 503.16 -24.44 501.12 C-25.29 500.79 -26.15 500.45 -27.04 500.1 C-29.38 499.06 -29.38 499.06 -32.38 497.06 C-32.38 496.4 -32.38 495.74 -32.38 495.06 C-33.08 494.82 -33.78 494.57 -34.5 494.31 C-37.06 493.2 -39.22 491.92 -41.51 490.33 C-43.93 488.69 -46.4 487.13 -48.88 485.56 C-50.29 484.66 -50.29 484.66 -51.74 483.74 C-53.29 482.75 -54.85 481.77 -56.42 480.79 C-57.77 479.93 -59.08 479.01 -60.38 478.06 C-60.38 477.4 -60.38 476.74 -60.38 476.06 C-60.92 475.97 -61.47 475.87 -62.04 475.77 C-65.01 474.87 -67.22 473.39 -69.81 471.69 C-72.59 469.87 -75.33 468.09 -78.22 466.46 C-78.93 466 -79.64 465.54 -80.38 465.06 C-80.38 464.4 -80.38 463.74 -80.38 463.06 C-81.08 462.82 -81.78 462.57 -82.5 462.31 C-85.06 461.2 -87.21 459.92 -89.5 458.34 C-91.95 456.67 -94.44 455.09 -96.94 453.5 C-97.85 452.92 -98.76 452.34 -99.69 451.75 C-101.5 450.61 -103.35 449.52 -105.21 448.47 C-105.93 448.01 -106.64 447.54 -107.38 447.06 C-107.38 446.4 -107.38 445.74 -107.38 445.06 C-108.05 444.83 -108.73 444.6 -109.43 444.36 C-113.12 442.74 -116.25 440.59 -119.56 438.31 C-124.83 434.72 -130.14 431.33 -135.71 428.22 C-136.26 427.84 -136.81 427.46 -137.38 427.06 C-137.38 426.4 -137.38 425.74 -137.38 425.06 C-138.05 424.83 -138.72 424.59 -139.42 424.34 C-143.09 422.75 -146.33 420.73 -149.69 418.56 C-150.33 418.16 -150.98 417.76 -151.64 417.34 C-153.26 416.3 -154.82 415.19 -156.38 414.06 C-156.38 413.4 -156.38 412.74 -156.38 412.06 C-157.16 411.88 -157.94 411.69 -158.75 411.5 C-162.85 409.88 -165.91 407.7 -169.46 405.12 C-172.73 402.81 -176.07 400.65 -179.44 398.5 C-180.63 397.74 -181.82 396.97 -183.01 396.21 C-185.1 394.88 -187.18 393.55 -189.27 392.23 C-190.5 391.43 -190.5 391.43 -191.75 390.62 C-192.81 389.95 -192.81 389.95 -193.9 389.25 C-194.39 388.86 -194.87 388.47 -195.38 388.06 C-195.38 387.4 -195.38 386.74 -195.38 386.06 C-196.8 385.6 -196.8 385.6 -198.25 385.12 C-201.37 384.06 -201.37 384.06 -203.38 383.06 C-203.38 382.4 -203.38 381.74 -203.38 381.06 C-204.09 380.81 -204.81 380.55 -205.55 380.29 C-208.54 378.99 -210.88 377.42 -213.5 375.5 C-216.21 373.52 -218.18 372.13 -221.38 371.06 C-221.95 370.46 -222.53 369.87 -223.12 369.25 C-225.39 367.05 -227.68 365.72 -230.42 364.19 C-233.72 362.29 -236.85 360.14 -240 358 C-241.28 357.13 -242.57 356.27 -243.85 355.4 C-244.45 355 -245.05 354.59 -245.67 354.18 C-247.19 353.18 -248.76 352.28 -250.34 351.38 C-251.01 350.94 -251.68 350.51 -252.38 350.06 C-252.38 349.4 -252.38 348.74 -252.38 348.06 C-253.61 347.75 -253.61 347.75 -254.88 347.44 C-258.52 346 -260.87 344.29 -263.92 341.89 C-266.91 339.66 -270.03 337.68 -273.19 335.69 C-278.52 332.31 -283.65 328.73 -288.72 324.96 C-291.42 323.03 -294.18 321.26 -297 319.5 C-303.93 315.15 -310.52 310.76 -315.38 304.06 C-316.4 302.96 -317.42 301.85 -318.44 300.75 C-321.1 297.68 -322.48 294.83 -323.64 290.96 C-324.3 288.97 -324.3 288.97 -325.79 287.28 C-327.9 284.33 -328.9 281.16 -330 277.75 C-330.22 277.11 -330.43 276.47 -330.66 275.81 C-336.71 257.37 -334.92 234.56 -326.45 217.16 C-326.09 216.47 -325.74 215.77 -325.38 215.06 C-324.95 214.19 -324.52 213.31 -324.08 212.41 C-322.32 208.81 -320.6 205.4 -318.38 202.06 C-317.72 202.06 -317.06 202.06 -316.38 202.06 C-315.99 200.94 -315.99 200.94 -315.59 199.8 C-311.41 190.41 -299.41 182.26 -290.38 178.06 C-288.69 176.75 -287.03 175.42 -285.38 174.06 C-283.71 173.06 -282.04 172.06 -280.38 171.06 C-278.76 169.95 -277.16 168.83 -275.56 167.69 C-271.92 165.12 -268.24 162.7 -264.44 160.38 C-262.01 158.83 -259.66 157.17 -257.31 155.5 C-246.77 148.06 -246.77 148.06 -243.38 148.06 C-243.38 147.4 -243.38 146.74 -243.38 146.06 C-241.61 144.83 -239.78 143.67 -237.94 142.56 C-234 140.44 -234 140.44 -231.38 137.06 C-229.63 136.34 -227.89 135.62 -226.14 134.91 C-223.73 133.75 -222.23 131.97 -220.38 130.06 C-218.38 129.06 -216.38 128.06 -214.38 127.06 C-212.71 125.94 -211.07 124.79 -209.44 123.62 C-198.81 116.06 -198.81 116.06 -195.38 116.06 C-195.38 115.4 -195.38 114.74 -195.38 114.06 C-193.69 112.73 -193.69 112.73 -191.38 111.25 C-190.55 110.72 -189.72 110.18 -188.86 109.63 C-186.11 107.9 -183.35 106.18 -180.59 104.46 C-172.82 99.55 -165.3 94.32 -157.89 88.87 C-155.13 86.89 -152.3 85.1 -149.39 83.34 C-147.03 81.85 -144.77 80.24 -142.5 78.62 C-138.3 75.64 -133.98 72.98 -129.5 70.42 C-127.48 69.13 -126.05 67.76 -124.38 66.06 C-122.38 65.05 -120.38 64.05 -118.38 63.06 C-117.03 62.08 -115.69 61.08 -114.38 60.06 C-113.57 59.59 -112.77 59.11 -111.94 58.62 C-109.22 56.96 -106.86 55.06 -104.38 53.06 C-99.16 49.47 -93.78 46.13 -88.37 42.84 C-84.11 40.24 -80.13 37.42 -76.17 34.4 C-74 32.78 -71.72 31.43 -69.38 30.06 C-67.78 29.05 -66.2 28.03 -64.62 27 C-63.85 26.49 -63.07 25.99 -62.27 25.46 C-60.25 24.19 -60.25 24.19 -59.38 22.06 C-57.66 21.34 -55.94 20.61 -54.21 19.91 C-51.58 18.69 -49.58 16.93 -47.38 15.06 C-35.88 7.06 -35.88 7.06 -32.38 7.06 C-32.38 6.4 -32.38 5.74 -32.38 5.06 C-30.73 4.1 -29.08 3.15 -27.42 2.22 C-26.11 1.48 -24.81 0.7 -23.55 -0.13 C-16.03 -4.65 -7.83 -3.3 0 0 Z " fill="#000204" transform="translate(410.375,361.9375)"/>
</svg>
