<?xml version="1.0" encoding="UTF-8"?>
<!-- Generator: visioncortex VTracer 0.6.3 -->
<svg version="1.1" xmlns="http://www.w3.org/2000/svg" width="1280" height="1280">
<path d="M0 0 C422.4 0 844.8 0 1280 0 C1280 422.4 1280 844.8 1280 1280 C857.6 1280 435.2 1280 0 1280 C0 857.6 0 435.2 0 0 Z " fill="#FCFCFC" transform="translate(0,0)"/>
<path d="M0 0 C0.87 0.03 1.74 0.06 2.64 0.09 C7.85 0.33 12.75 1.01 17.84 2.11 C23.1 3.18 28.46 3.75 33.78 4.39 C39.19 5.11 43.43 6.36 48.38 8.62 C50.62 9.04 50.62 9.04 52.69 9.06 C57.02 9.44 60.42 10.69 64.4 12.4 C67.35 13.61 70.31 14.66 73.33 15.7 C80.04 17.99 86.62 20.47 93.12 23.31 C93.78 23.6 94.44 23.88 95.11 24.18 C98.7 25.77 102.05 27.54 105.38 29.62 C111.75 33.56 111.75 33.56 118.38 37.06 C125.21 40.62 131.34 45.53 137.46 50.18 C138.7 51.11 139.94 52.04 141.19 52.95 C158.73 65.76 175.32 81.24 188.38 98.62 C189.39 99.96 190.41 101.3 191.43 102.63 C194.44 106.61 197.45 110.59 200.38 114.62 C200.99 115.47 200.99 115.47 201.62 116.33 C203.5 119.01 204.38 120.27 204.38 123.62 C205.37 123.95 206.36 124.28 207.38 124.62 C209.85 127.3 211.01 130.17 212.36 133.52 C213.63 136.15 215.2 138.5 216.81 140.94 C219.62 145.25 221.7 149.42 223.48 154.23 C224.35 156.56 225.33 158.8 226.38 161.06 C228.19 165.11 229.75 169.21 231.23 173.4 C232.11 175.87 233.01 178.33 233.93 180.79 C238.64 193.55 238.64 193.55 239.06 198.88 C239.39 202.83 240.38 204.32 242.38 207.62 C242.42 209.96 242.42 212.29 242.38 214.62 C242.68 215.35 242.99 216.07 243.3 216.81 C244.73 220.56 245.04 224.21 245.44 228.19 C245.9 233.43 245.9 233.43 246.88 238.59 C247.42 240.8 247.58 242.85 247.69 245.12 C247.73 246 247.78 246.88 247.82 247.78 C247.88 249.19 247.88 249.19 247.94 250.62 C248 252.09 248 252.09 248.06 253.58 C249.59 292.11 249.59 292.11 245.38 304.62 C245.14 306.7 244.98 308.79 244.88 310.88 C244.56 315.89 243.87 320.58 242.77 325.48 C242.27 327.8 242.27 327.8 242.44 330.94 C242.38 333.62 242.38 333.62 240.93 335.92 C239.18 338.97 238.86 341.14 238.5 344.62 C237.7 350.59 236.05 355.65 233.69 361.16 C232.58 364.08 231.77 366.86 231.01 369.88 C229.5 375.57 227.28 380.67 224.69 385.94 C224.25 386.84 223.81 387.75 223.36 388.68 C220.18 395.18 216.76 401.49 213.07 407.71 C211.32 410.63 211.32 410.63 209.84 413.82 C208.51 416.36 207.45 417.73 205.38 419.62 C204.35 420.9 203.35 422.19 202.38 423.5 C201.88 424.16 201.38 424.81 200.88 425.49 C199.33 427.63 199.33 427.63 197.98 430.03 C196.13 433.02 194.02 435.58 191.75 438.25 C190.85 439.32 189.95 440.38 189.05 441.45 C188.6 441.98 188.15 442.51 187.68 443.06 C185.75 445.37 183.88 447.72 182 450.06 C177.6 455.46 172.9 460.55 168.15 465.63 C166 467.94 163.92 470.29 161.88 472.69 C158.39 476.73 154.58 480.44 150.79 484.19 C146.08 488.88 141.74 493.81 137.47 498.89 C136.84 499.63 136.21 500.37 135.56 501.12 C135 501.8 134.44 502.47 133.86 503.16 C132.38 504.62 132.38 504.62 130.38 504.62 C130.12 505.34 129.87 506.05 129.62 506.79 C128.25 509.92 126.55 512.33 124.5 515.06 C122.24 518.1 120.01 521.11 118 524.31 C117.46 525.08 116.93 525.84 116.38 526.62 C115.71 526.62 115.06 526.62 114.38 526.62 C114.09 527.86 113.8 529.1 113.5 530.38 C112.75 533.38 111.87 535.9 110.38 538.62 C104.25 551.94 102.45 565.75 101.07 580.21 C101 581 100.92 581.79 100.84 582.6 C100.77 583.3 100.71 584.01 100.64 584.73 C100.38 586.63 100.38 586.63 99.38 589.62 C99.12 593.27 98.93 596.9 98.77 600.55 C98.48 606.42 98.48 606.42 97.38 608.62 C97.27 610.06 97.22 611.5 97.2 612.94 C97.18 614.27 97.18 614.27 97.16 615.64 C97.15 616.6 97.14 617.56 97.13 618.56 C97.1 620.59 97.06 622.62 97.03 624.65 C96.98 627.86 96.94 631.07 96.9 634.28 C96.86 637.37 96.81 640.47 96.75 643.56 C96.75 644.52 96.74 645.48 96.73 646.48 C96.71 647.37 96.7 648.26 96.68 649.19 C96.67 649.97 96.66 650.76 96.65 651.57 C96.38 653.62 96.38 653.62 94.38 656.62 C93.71 656.62 93.06 656.62 92.38 656.62 C92.21 657.49 92.05 658.36 91.88 659.25 C89.83 663.85 86.68 666.13 82.38 668.62 C78.6 669.91 74.78 669.77 70.84 669.76 C69.7 669.76 69.7 669.76 68.53 669.77 C65.98 669.77 63.42 669.77 60.87 669.77 C59.03 669.77 57.2 669.78 55.37 669.78 C50.39 669.79 45.42 669.79 40.44 669.79 C36.28 669.79 32.13 669.8 27.97 669.8 C18.17 669.81 8.37 669.81 -1.44 669.81 C-11.55 669.81 -21.66 669.82 -31.77 669.84 C-40.46 669.85 -49.14 669.85 -57.82 669.85 C-63.01 669.85 -68.19 669.86 -73.38 669.87 C-78.25 669.88 -83.13 669.88 -88.01 669.87 C-89.8 669.87 -91.59 669.87 -93.38 669.88 C-95.82 669.88 -98.27 669.88 -100.71 669.87 C-101.77 669.88 -101.77 669.88 -102.85 669.89 C-110.2 669.84 -115.64 668.16 -121.38 663.56 C-122.3 662.85 -123.22 662.14 -124.17 661.4 C-130.7 654.01 -130.08 644.62 -130.16 635.27 C-130.2 631.27 -130.3 627.27 -130.39 623.27 C-130.4 622.46 -130.42 621.65 -130.44 620.82 C-130.62 612.91 -131 605.02 -131.5 597.12 C-131.57 595.94 -131.63 594.75 -131.7 593.52 C-132.14 586.91 -133.2 580.86 -134.94 574.47 C-136.19 569.3 -136.4 564.05 -136.71 558.76 C-137.16 552.97 -138.47 549.51 -141.62 544.62 C-142.28 542.79 -142.94 540.96 -143.59 539.12 C-152.14 518.51 -166.73 502.76 -181.77 486.7 C-183.96 484.36 -186.09 481.99 -188.19 479.56 C-194.62 472.13 -201.28 464.86 -208.31 458 C-217.11 449.32 -225.11 439.15 -231.62 428.62 C-231.62 427.96 -231.62 427.31 -231.62 426.62 C-232.62 426.3 -233.61 425.96 -234.62 425.62 C-235.66 423.98 -236.66 422.31 -237.62 420.62 C-238.28 420.3 -238.94 419.96 -239.62 419.62 C-240.34 417.92 -240.34 417.92 -241 415.81 C-242.29 412.15 -243.78 410.3 -246.62 407.62 C-249.44 403.1 -251.55 398.55 -253.62 393.62 C-254.24 392.39 -254.87 391.16 -255.5 389.94 C-257.68 385.64 -259.51 381.22 -261.33 376.76 C-262.18 374.71 -263.05 372.67 -263.95 370.64 C-266.73 364.32 -268.6 358.21 -269.95 351.44 C-270.57 348.86 -271.44 346.97 -272.62 344.62 C-272.93 342.69 -272.93 342.69 -273.06 340.62 C-273.38 336.97 -274.1 333.6 -275.06 330.06 C-276.61 323.97 -277.59 317.95 -278.29 311.71 C-278.48 310.04 -278.48 310.04 -278.68 308.34 C-279.93 296.23 -280.04 284.15 -279.96 271.98 C-279.94 268.23 -279.94 264.48 -279.95 260.73 C-279.93 241.91 -279.26 223.8 -274.17 205.6 C-273.21 202.1 -272.36 198.58 -271.5 195.06 C-268 180.92 -268 180.92 -265.75 176.94 C-264.01 173.6 -262.78 170.27 -261.62 166.69 C-257.49 153.88 -257.49 153.88 -253.56 149.12 C-251.68 146.69 -251.14 145.32 -250.31 142.44 C-248.84 137.56 -246.27 133.98 -243.26 129.92 C-241.47 127.53 -241.47 127.53 -239.94 124.25 C-238.52 121.42 -236.85 119.85 -234.62 117.62 C-234.19 116.74 -233.76 115.85 -233.31 114.94 C-230.98 110.35 -227.85 106.61 -224.62 102.62 C-224 101.82 -223.37 101.02 -222.73 100.2 C-209.87 84 -195.09 69.01 -178.77 56.3 C-176.92 54.86 -175.14 53.36 -173.38 51.81 C-170.58 49.59 -167.82 48.19 -164.62 46.62 C-164.11 46.11 -163.59 45.59 -163.06 45.06 C-161.62 43.62 -161.62 43.62 -159.06 42.62 C-156.31 41.76 -156.31 41.76 -154.62 38.62 C-153.49 38.32 -152.36 38.01 -151.19 37.69 C-147.59 37.01 -147.59 37.01 -146.19 34.62 C-144.03 31.87 -141.93 31.82 -138.56 31.31 C-136.44 30.77 -136.44 30.77 -135.2 28.64 C-133.14 26 -131.7 25.88 -128.44 25.38 C-127.09 25.15 -127.09 25.15 -125.71 24.92 C-124.68 24.77 -124.68 24.77 -123.62 24.62 C-123.29 23.63 -122.97 22.64 -122.62 21.62 C-120.66 21 -120.66 21 -118.25 20.62 C-114.85 20.17 -114.85 20.17 -112.23 18.16 C-109.86 15.89 -107.44 15.74 -104.25 15.12 C-99.68 14.24 -96.57 13.04 -92.62 10.62 C-90.16 10.02 -90.16 10.02 -87.62 9.62 C-85.79 9.18 -83.96 8.72 -82.12 8.25 C-79.96 7.71 -77.79 7.17 -75.62 6.62 C-74.54 6.35 -73.46 6.08 -72.34 5.8 C-66.36 4.34 -60.61 3.26 -54.45 2.93 C-52 2.67 -49.8 2.21 -47.41 1.64 C-42.54 0.52 -37.79 0.18 -32.81 0 C-31.93 -0.04 -31.05 -0.07 -30.14 -0.11 C-20.06 -0.51 -10.07 -0.41 0 0 Z " fill="#FCFCFC" transform="translate(648.625,297.375)"/>
<path d="M0 0 C0.82 -0 1.65 -0.01 2.5 -0.01 C5.83 -0 8.56 0.06 11.75 1.12 C14.25 1.28 16.75 1.4 19.25 1.5 C28.14 1.93 36.77 3.27 45.53 4.76 C49.89 5.48 54.28 6.03 58.67 6.6 C62.13 7.19 65.38 8.15 68.75 9.12 C71.64 9.81 74.54 10.44 77.44 11.06 C91.59 14.17 103.79 17.43 116.53 24.43 C119.98 26.25 123.45 27.66 127.09 29.04 C131.64 30.9 135.99 33.17 140.36 35.4 C143.21 36.85 146.07 38.24 148.94 39.62 C154.47 42.39 159.59 45.72 164.75 49.12 C165.67 49.73 166.6 50.34 167.55 50.96 C170.05 52.62 172.54 54.29 175.02 55.96 C176.26 56.79 177.49 57.62 178.73 58.44 C193.35 68.17 193.35 68.17 198.26 73.52 C199.93 75.32 201.71 76.9 203.56 78.5 C204.24 79.09 204.92 79.68 205.61 80.28 C207.04 81.52 208.48 82.74 209.92 83.97 C227.77 99.52 243.62 118.02 256.55 137.8 C257.77 139.65 259.02 141.49 260.36 143.26 C262 145.46 263.36 147.76 264.75 150.12 C266.77 153.38 268.79 156.62 270.81 159.87 C272.62 162.9 274.21 165.95 275.75 169.12 C276.36 170.32 276.97 171.52 277.58 172.72 C281.99 181.4 286.01 190.14 289.75 199.12 C290.38 200.53 290.38 200.53 291.02 201.96 C295.18 211.39 297.95 221.23 300.75 231.12 C300.96 231.87 301.17 232.61 301.39 233.38 C304.56 244.67 304.56 244.67 305.23 249.79 C305.55 252.98 305.55 252.98 306.75 255.06 C307.84 257.32 308.09 258.98 308.28 261.47 C308.35 262.3 308.41 263.13 308.48 263.98 C308.59 265.29 308.59 265.29 308.69 266.62 C309.46 275.45 310.94 283.7 313.75 292.12 C313.85 293.86 313.89 295.59 313.9 297.33 C313.9 298.92 313.9 298.92 313.91 300.54 C313.92 302.26 313.92 302.26 313.92 304.02 C313.92 305.2 313.92 306.38 313.93 307.6 C313.93 310.09 313.94 312.59 313.94 315.09 C313.94 318.91 313.96 322.73 313.97 326.55 C313.98 328.98 313.98 331.4 313.98 333.83 C313.99 334.97 313.99 336.11 314 337.29 C313.99 342.72 313.69 347 311.75 352.12 C311.27 354.95 311.01 357.78 310.75 360.63 C310.67 361.43 310.59 362.23 310.5 363.06 C310.16 366.46 309.83 369.86 309.5 373.27 C309.26 375.76 309 378.26 308.75 380.75 C308.68 381.52 308.61 382.28 308.54 383.07 C308.12 387.11 307.36 390.42 305.75 394.12 C305.37 395.85 305.04 397.58 304.75 399.32 C304.59 400.28 304.42 401.25 304.25 402.24 C303.92 404.25 303.58 406.27 303.25 408.29 C303.09 409.25 302.92 410.21 302.75 411.2 C302.61 412.07 302.46 412.94 302.31 413.84 C301.75 416.12 301.75 416.12 299.75 419.12 C299.26 421.09 298.83 423.07 298.44 425.06 C297.17 430.87 295.28 436.03 292.88 441.45 C291.92 443.72 291.18 445.87 290.56 448.25 C289.75 451.12 289.75 451.12 287.75 453.12 C287.21 454.59 286.72 456.07 286.25 457.56 C283.38 465.78 279.04 473.26 274.93 480.9 C273.35 483.87 271.9 486.9 270.44 489.94 C268.29 494.29 265.96 497.51 262.75 501.12 C260.36 504.68 258.19 508.35 256.06 512.06 C254.75 514.12 254.75 514.12 252.75 515.12 C251.63 516.78 251.63 516.78 250.62 518.69 C250.01 519.82 249.39 520.96 248.75 522.12 C248.09 522.12 247.43 522.12 246.75 522.12 C246.35 522.99 246.35 522.99 245.94 523.87 C242.21 530.93 236.27 536.87 230.93 542.73 C229.07 544.78 227.24 546.85 225.44 548.94 C219.17 556.13 212.74 563.24 205.94 569.94 C199.35 576.43 193.54 583.68 187.6 590.75 C185.74 592.96 183.86 595.14 181.96 597.31 C177.06 602.94 173.27 608.08 170.75 615.12 C170.38 616.1 170.38 616.1 170 617.09 C167.7 623.39 166.88 629.6 166.19 636.25 C165.96 638.34 165.73 640.42 165.5 642.51 C165.38 643.58 165.27 644.66 165.15 645.77 C164.88 648.04 164.57 650.31 164.23 652.57 C162.53 663.92 162.38 675.13 162.29 686.58 C162.17 701.33 161.43 716.11 155.75 729.94 C155.5 730.59 155.25 731.24 155 731.92 C153.64 735.39 152.08 738.22 149.75 741.12 C149.46 741.93 149.17 742.73 148.88 743.56 C147.42 746.88 145.36 748.61 142.75 751.12 C142.26 751.6 141.76 752.08 141.25 752.57 C128.52 764.79 128.52 764.79 121.75 768.12 C120.91 768.55 120.06 768.98 119.2 769.42 C104.65 776.14 89.13 776.57 73.4 776.5 C71.53 776.5 69.66 776.5 67.78 776.51 C62.75 776.52 57.72 776.51 52.68 776.5 C47.39 776.48 42.09 776.49 36.8 776.49 C27.92 776.49 19.03 776.48 10.15 776.46 C-0.09 776.44 -10.33 776.44 -20.57 776.44 C-30.47 776.45 -40.36 776.44 -50.26 776.43 C-54.45 776.43 -58.64 776.43 -62.84 776.43 C-67.78 776.43 -72.72 776.42 -77.66 776.41 C-79.47 776.4 -81.27 776.4 -83.07 776.4 C-97.21 776.42 -110 775.5 -123.25 770.12 C-124.19 769.78 -125.12 769.44 -126.09 769.08 C-126.99 768.75 -127.89 768.41 -128.81 768.06 C-129.62 767.76 -130.42 767.46 -131.25 767.15 C-133.25 766.12 -133.25 766.12 -135.25 763.12 C-136.22 762.61 -137.19 762.09 -138.19 761.56 C-147.16 756.64 -154.22 748.92 -159.25 740.12 C-159.94 738.96 -159.94 738.96 -160.65 737.77 C-163.03 733.65 -164.95 729.73 -166.25 725.12 C-167.47 720.52 -167.47 720.52 -169.25 716.12 C-169.25 714.15 -169.25 712.17 -169.19 710.2 C-169.17 708.14 -169.17 708.14 -169.74 706.25 C-170.25 704.11 -170.39 702.27 -170.41 700.08 C-170.42 699.28 -170.43 698.49 -170.44 697.68 C-170.45 696.4 -170.45 696.4 -170.46 695.09 C-170.49 693.24 -170.51 691.4 -170.54 689.55 C-170.55 688.58 -170.57 687.61 -170.58 686.62 C-170.79 672.41 -171.08 658.26 -172.62 644.12 C-172.74 643.06 -172.85 642 -172.97 640.9 C-174.55 627.8 -177.61 615.04 -185.25 604.12 C-185.25 603.47 -185.25 602.8 -185.25 602.12 C-185.91 602.12 -186.57 602.12 -187.25 602.12 C-187.8 601.09 -188.35 600.06 -188.92 599 C-191.03 595.3 -193.62 592.25 -196.56 589.19 C-199.63 585.93 -202.68 582.67 -205.56 579.25 C-208.93 575.35 -212.59 571.75 -216.25 568.12 C-220.42 563.99 -224.49 559.87 -228.28 555.38 C-230 553.41 -231.77 551.5 -233.57 549.59 C-234.18 548.94 -234.79 548.29 -235.43 547.62 C-236.65 546.33 -237.87 545.04 -239.1 543.75 C-243.18 539.44 -246.77 534.93 -250.25 530.12 C-251.06 529.02 -251.88 527.92 -252.7 526.82 C-254.2 524.8 -255.7 522.78 -257.2 520.76 C-259.06 518.23 -259.06 518.23 -260.77 516.67 C-263.9 513.39 -265.92 509.14 -268.21 505.25 C-270.04 502.45 -271.89 500.45 -274.25 498.12 C-275.32 496.18 -275.32 496.18 -276.25 494.12 C-277.22 492.49 -278.2 490.87 -279.19 489.25 C-281.39 485.61 -283.41 481.97 -285.25 478.12 C-285.86 476.92 -286.47 475.72 -287.08 474.51 C-289.3 470.09 -291.32 465.59 -293.31 461.06 C-293.65 460.3 -293.99 459.53 -294.34 458.75 C-295 457.24 -295.67 455.74 -296.32 454.23 C-297.17 452.32 -298.02 450.41 -298.88 448.5 C-300.26 445.11 -301.25 441.78 -302.19 438.25 C-303.32 434.14 -304.5 430.33 -306.38 426.5 C-308.47 422.13 -309.13 417.8 -309.76 413.02 C-310.29 409.9 -311.23 407.11 -312.25 404.12 C-319.29 376.32 -320.33 347.72 -320.94 319.19 C-320.97 317.51 -320.97 317.51 -321.01 315.79 C-321.08 312.58 -321.14 309.37 -321.2 306.16 C-321.22 305.18 -321.24 304.2 -321.26 303.18 C-321.28 302.28 -321.29 301.38 -321.3 300.45 C-321.32 299.66 -321.33 298.87 -321.35 298.06 C-321.25 296.12 -321.25 296.12 -320.25 294.12 C-320.06 292.56 -319.93 290.99 -319.82 289.43 C-319.75 288.47 -319.68 287.52 -319.6 286.53 C-319.53 285.51 -319.45 284.49 -319.38 283.44 C-318.73 275.36 -317.79 267.6 -316.04 259.69 C-315.47 257.1 -314.95 254.54 -314.5 251.94 C-314.37 251.23 -314.25 250.52 -314.12 249.79 C-313.77 247.82 -313.43 245.85 -313.09 243.88 C-312.33 240.46 -311.3 237.46 -310.03 234.22 C-308.36 229.72 -307.27 225.04 -306.06 220.4 C-305.85 219.63 -305.65 218.86 -305.43 218.07 C-305.25 217.39 -305.07 216.7 -304.89 215.99 C-304.25 214.12 -304.25 214.12 -302.25 211.12 C-301.77 209.83 -301.34 208.51 -300.94 207.19 C-296.94 194.8 -291.27 182.85 -285.27 171.32 C-284.18 169.21 -284.18 169.21 -283.86 167.09 C-283.01 164.37 -281.27 163.11 -279.25 161.12 C-278.17 159.35 -277.15 157.53 -276.19 155.69 C-271.09 145.96 -271.09 145.96 -267.25 142.12 C-265.84 139.92 -264.55 137.69 -263.31 135.39 C-262.98 134.78 -262.65 134.18 -262.31 133.56 C-262.01 133 -261.72 132.45 -261.41 131.87 C-260.25 130.12 -260.25 130.12 -258.51 128.42 C-255.33 125.19 -252.76 121.57 -250.06 117.94 C-245.76 112.23 -241.41 106.93 -236.21 102.01 C-234.35 100.22 -232.71 98.36 -231.06 96.38 C-223.84 87.97 -215.25 80.37 -206.39 73.73 C-203.95 71.9 -201.57 69.98 -199.19 68.06 C-193.04 63.14 -187.31 58.65 -180.25 55.12 C-179.57 54.44 -178.89 53.76 -178.19 53.06 C-175.99 50.86 -174.14 50.21 -171.25 49.12 C-170.26 48.38 -170.26 48.38 -169.25 47.62 C-167.25 46.12 -167.25 46.12 -164.69 45.19 C-162.13 44.34 -162.13 44.34 -160.94 42.12 C-158.65 39.41 -156.51 39.28 -153.09 38.71 C-150.86 38.21 -150.86 38.21 -149.25 35.12 C-145.9 33.45 -144.09 33.12 -140.25 33.12 C-139.24 31.8 -138.24 30.46 -137.25 29.12 C-134.95 28.18 -134.95 28.18 -132.38 27.56 C-128.53 26.54 -125.59 25.32 -122.25 23.12 C-120.59 22.44 -118.92 21.78 -117.25 21.12 C-116.33 20.72 -115.4 20.32 -114.45 19.91 C-109.19 17.62 -104.18 15.66 -98.54 14.59 C-95.85 14.04 -93.26 13.31 -90.62 12.56 C-87.49 11.69 -84.48 10.94 -81.25 10.56 C-78.08 10.32 -78.08 10.32 -75.25 8.12 C-73.58 8.12 -71.92 8.12 -70.25 8.12 C-69.37 7.66 -69.37 7.66 -68.47 7.18 C-65.67 5.85 -63.21 5.56 -60.12 5.19 C-59.49 5.11 -58.86 5.03 -58.21 4.95 C-56.75 4.77 -55.29 4.6 -53.82 4.43 C-50.88 4.08 -47.95 3.72 -45.01 3.37 C-29.99 1.56 -15.14 0.07 0 0 Z M-20.44 53.5 C-21.27 53.53 -22.1 53.56 -22.96 53.59 C-27.89 53.83 -32.47 54.52 -37.26 55.67 C-39.68 56.22 -42.03 56.43 -44.5 56.56 C-50.92 57.07 -57.01 58.55 -63.25 60.12 C-64.34 60.4 -65.44 60.67 -66.57 60.95 C-68.58 61.46 -70.59 61.96 -72.59 62.48 C-75.25 63.12 -75.25 63.12 -77.78 63.52 C-80.34 64.01 -80.34 64.01 -82.65 65.59 C-86.61 67.93 -90.82 68.42 -95.29 69.28 C-98.38 70.16 -99.13 70.89 -101.25 73.12 C-103.59 73.78 -105.89 74.13 -108.29 74.5 C-108.94 74.71 -109.58 74.91 -110.25 75.12 C-110.58 76.12 -110.91 77.11 -111.25 78.12 C-112.25 78.25 -112.25 78.25 -113.26 78.39 C-119.35 79.36 -121.99 80.52 -126.25 85.12 C-128.57 85.83 -130.9 86.51 -133.25 87.12 C-133.91 88.12 -134.57 89.11 -135.25 90.12 C-137.09 90.97 -137.09 90.97 -139.19 91.62 C-142.35 92.62 -143.99 93.7 -146.25 96.12 C-147.91 97.14 -149.57 98.14 -151.25 99.12 C-152.24 99.87 -152.24 99.87 -153.25 100.62 C-155.25 102.12 -155.25 102.12 -157.45 103.39 C-160.84 105.49 -163.93 107.85 -167.06 110.31 C-167.68 110.8 -168.3 111.29 -168.94 111.79 C-173 115.02 -176.76 118.4 -180.33 122.17 C-182.14 124.01 -184.01 125.67 -185.98 127.34 C-190.34 131.13 -194.31 135.21 -198.25 139.44 C-198.95 140.19 -199.65 140.93 -200.37 141.71 C-208.73 150.71 -216.53 160.21 -222.84 170.79 C-224.25 173.12 -224.25 173.12 -226.06 175.25 C-228.75 178.79 -230.72 182.56 -232.8 186.48 C-233.94 188.57 -235.12 190.5 -236.5 192.44 C-238.35 195.27 -239.21 197.92 -240.25 201.12 C-240.7 201.72 -241.16 202.32 -241.62 202.94 C-246.27 209.19 -248.49 217.28 -251.14 224.54 C-253.06 229.76 -253.06 229.76 -254.3 232.17 C-257.16 238.08 -258.2 245.01 -259.69 251.38 C-260.97 256.86 -262.26 262.31 -263.94 267.69 C-268.33 283.8 -267.59 301.45 -267.57 317.99 C-267.56 321.72 -267.59 325.46 -267.61 329.2 C-267.64 341.28 -267.28 353.2 -265.92 365.21 C-265.8 366.24 -265.69 367.26 -265.57 368.32 C-264.78 374.51 -263.52 380.45 -261.89 386.47 C-261.3 388.91 -260.98 391.19 -260.81 393.69 C-260.42 398.19 -258.96 402.07 -257.29 406.25 C-256.25 409.13 -255.54 412.03 -254.82 415 C-253.83 418.68 -252.46 422.2 -251.06 425.75 C-250.76 426.53 -250.45 427.32 -250.13 428.12 C-247.72 434.16 -245.01 439.95 -242.01 445.73 C-240.77 448.13 -239.56 450.53 -238.39 452.96 C-238.09 453.59 -237.78 454.23 -237.46 454.88 C-236.62 456.64 -235.77 458.4 -234.93 460.16 C-233.3 463.03 -231.6 464.86 -229.25 467.12 C-228.58 469.12 -227.92 471.12 -227.25 473.12 C-225.31 475.31 -225.31 475.31 -223.25 477.12 C-222.59 478.12 -221.93 479.11 -221.25 480.12 C-220.59 480.12 -219.93 480.12 -219.25 480.12 C-218.99 480.85 -218.73 481.57 -218.46 482.32 C-212.37 496.47 -198.54 509.05 -187.71 519.7 C-184.31 523.04 -181.08 526.46 -177.99 530.1 C-175.79 532.66 -173.52 535.14 -171.25 537.62 C-167.82 541.39 -164.43 545.18 -161.1 549.03 C-158.83 551.6 -156.51 554.11 -154.19 556.62 C-142.34 569.69 -134.06 584.9 -127.25 601.12 C-126.9 601.76 -126.56 602.39 -126.2 603.05 C-125.17 605.3 -124.9 607.01 -124.72 609.47 C-124.65 610.3 -124.58 611.14 -124.51 612 C-124.38 613.72 -124.25 615.44 -124.13 617.16 C-123.72 621.91 -123 626.32 -121.75 630.94 C-120.03 637.48 -119.5 643.88 -119.12 650.62 C-119.04 651.89 -118.96 653.16 -118.88 654.47 C-118.43 661.9 -118.17 669.33 -118.01 676.77 C-117.99 677.58 -117.98 678.38 -117.96 679.21 C-117.87 683.16 -117.8 687.11 -117.77 691.05 C-117.85 704.17 -117.85 704.17 -111.54 715.16 C-110.52 715.97 -109.49 716.79 -108.44 717.62 C-107.42 718.46 -106.4 719.3 -105.36 720.16 C-100.09 723.49 -94.56 723.27 -88.48 723.27 C-87.71 723.27 -86.95 723.27 -86.16 723.27 C-83.61 723.28 -81.06 723.28 -78.51 723.29 C-76.68 723.29 -74.85 723.3 -73.02 723.3 C-68.05 723.31 -63.08 723.32 -58.11 723.33 C-55.01 723.33 -51.9 723.33 -48.8 723.34 C-39.08 723.35 -29.36 723.36 -19.64 723.36 C-8.42 723.37 2.79 723.39 14.01 723.41 C22.68 723.44 31.35 723.45 40.03 723.45 C45.2 723.45 50.38 723.45 55.56 723.47 C60.43 723.49 65.3 723.49 70.17 723.48 C71.96 723.48 73.74 723.49 75.53 723.5 C77.97 723.51 80.41 723.5 82.85 723.49 C83.55 723.5 84.26 723.51 84.98 723.52 C92.66 723.44 98.39 720.48 103.75 715.12 C104.71 712.45 104.71 712.45 104.75 710.12 C105.74 709.79 106.73 709.47 107.75 709.12 C108.93 706.77 108.9 705.31 108.94 702.69 C108.96 701.77 108.97 700.86 108.99 699.91 C109 698.92 109.02 697.93 109.03 696.9 C109.05 695.89 109.07 694.87 109.09 693.82 C109.17 689.46 109.23 685.1 109.3 680.74 C109.35 677.57 109.41 674.39 109.47 671.21 C109.48 670.22 109.5 669.23 109.51 668.2 C109.53 667.29 109.54 666.37 109.56 665.43 C109.57 664.62 109.59 663.81 109.6 662.98 C109.75 661.12 109.75 661.12 110.75 660.12 C110.94 657.5 111.08 654.88 111.19 652.25 C111.48 646.36 112.03 640.72 113.21 634.94 C114.64 627.46 115.52 619.84 116.19 612.25 C117.21 602.82 121.72 593.73 125.5 585.12 C126.88 582.36 126.88 582.36 126.75 580.12 C127.36 579.87 127.97 579.61 128.61 579.34 C131.01 577.98 131.72 577 133.06 574.62 C135.6 570.3 138.45 566.28 141.39 562.23 C142.93 560.26 142.93 560.26 142.75 558.12 C143.58 557.8 143.58 557.8 144.42 557.48 C147.54 555.67 149.7 553.17 152.06 550.5 C152.55 549.96 153.04 549.41 153.55 548.86 C156.13 545.98 158.67 543.06 161.19 540.12 C164.7 536.06 168.52 532.33 172.34 528.55 C175.73 525.18 178.96 521.74 182.05 518.1 C184.01 515.83 186.03 513.64 188.06 511.44 C191.99 507.1 195.55 502.56 199.07 497.89 C202.2 493.77 205.52 489.9 209.06 486.12 C210.93 483.92 212.32 481.64 213.75 479.12 C214.56 477.77 215.37 476.41 216.19 475.06 C216.58 474.41 216.97 473.76 217.37 473.09 C218.75 471.12 218.75 471.12 220.68 469.33 C223.33 466.5 224.85 463.34 226.5 459.88 C227.2 458.44 227.9 457 228.6 455.56 C228.95 454.83 229.31 454.09 229.67 453.34 C230.72 451.19 231.79 449.06 232.87 446.94 C237.98 436.91 242.66 426.99 245.75 416.12 C246.6 413.68 247.45 411.25 248.31 408.81 C250.12 403.59 251.32 398.73 251.41 393.18 C251.75 391.12 251.75 391.12 253.23 389.3 C255.37 386.24 255.23 383.7 255.38 380 C255.67 373.29 255.67 373.29 256.75 371.12 C257.03 367.62 257.2 364.12 257.37 360.61 C257.73 357.32 258.53 355.15 259.75 352.12 C262.63 329.24 261.94 303.74 257.75 281.12 C257.39 278.9 257.04 276.67 256.69 274.44 C256.11 270.65 256.11 270.65 254.75 267.12 C254.79 266.22 254.83 265.31 254.88 264.38 C254.98 261.1 254.98 261.1 253.38 258.44 C251.88 255.39 251.38 253.42 250.88 250.12 C249.84 243.8 247.72 238.06 245.47 232.08 C244.7 230 243.98 227.91 243.27 225.8 C240.58 217.94 237.77 210.43 233.75 203.12 C233.25 202.19 232.76 201.25 232.25 200.29 C230.14 196.34 228.04 192.44 225.5 188.75 C223.83 186.25 222.85 183.91 221.75 181.12 C220.35 178.84 220.35 178.84 218.75 177.12 C218.09 177.12 217.43 177.12 216.75 177.12 C216.64 176.07 216.64 176.07 216.53 175 C215.55 171.38 213.63 168.98 211.31 166.12 C210.39 164.97 209.48 163.81 208.56 162.66 C208.09 162.07 207.62 161.48 207.14 160.88 C205.82 159.22 204.55 157.54 203.29 155.84 C197.27 147.78 190.74 140.36 183.75 133.12 C183.15 132.5 182.55 131.88 181.93 131.24 C174.26 123.33 166.51 115.83 157.75 109.12 C157.06 108.59 156.36 108.05 155.65 107.5 C130.95 88.65 103.51 74.18 73.87 64.82 C71.75 64.12 71.75 64.12 69.75 63.12 C66.45 62.6 63.13 62.16 59.82 61.72 C56.75 61.12 56.75 61.12 53.75 59.12 C51.14 58.5 51.14 58.5 48.2 58.09 C46.56 57.84 46.56 57.84 44.89 57.58 C43.75 57.41 42.61 57.24 41.44 57.06 C40.31 56.89 39.18 56.72 38.02 56.54 C35.91 56.21 33.79 55.89 31.68 55.57 C29.67 55.27 27.67 54.94 25.68 54.59 C23.09 54.18 20.6 53.93 17.99 53.81 C17.13 53.77 16.26 53.72 15.37 53.68 C14.46 53.64 13.56 53.6 12.62 53.56 C11.21 53.5 11.21 53.5 9.77 53.44 C-0.33 53.01 -10.34 53.07 -20.44 53.5 Z " fill="#000102" transform="translate(636.25,243.875)"/>
<path d="M0 0 C0.77 -0.01 1.54 -0.01 2.34 -0.02 C4.9 -0.03 7.46 -0.03 10.02 -0.03 C11.87 -0.03 13.71 -0.04 15.56 -0.05 C20.55 -0.07 25.55 -0.08 30.55 -0.07 C34.73 -0.07 38.91 -0.08 43.09 -0.09 C52.95 -0.11 62.82 -0.11 72.69 -0.11 C82.85 -0.1 93.01 -0.12 103.17 -0.16 C111.9 -0.19 120.64 -0.2 129.38 -0.2 C134.59 -0.2 139.8 -0.2 145.02 -0.23 C149.92 -0.25 154.82 -0.25 159.73 -0.23 C161.52 -0.22 163.32 -0.23 165.11 -0.24 C176.64 -0.33 184.83 0.81 194.75 7.21 C202.2 14.66 205.95 22.2 206.31 32.83 C206 42.14 203.82 50.8 196.94 57.39 C188.89 63.45 180.88 65.7 170.88 65.67 C170.11 65.67 169.34 65.68 168.55 65.68 C165.99 65.7 163.43 65.7 160.87 65.7 C159.03 65.71 157.18 65.72 155.34 65.73 C150.34 65.75 145.35 65.76 140.36 65.76 C137.23 65.77 134.11 65.77 130.98 65.78 C120.07 65.8 109.16 65.82 98.24 65.82 C88.09 65.82 77.94 65.85 67.79 65.9 C59.05 65.93 50.32 65.95 41.59 65.95 C36.38 65.95 31.17 65.96 25.96 65.98 C21.06 66.01 16.16 66.01 11.26 66 C9.47 65.99 7.67 66 5.88 66.02 C-7.1 66.13 -18.5 64.86 -28.38 55.41 C-31.43 51.76 -33.32 47.79 -35.06 43.39 C-35.33 42.76 -35.6 42.12 -35.88 41.47 C-38.07 35.05 -36.79 27.81 -35.06 21.39 C-34.07 20.73 -33.08 20.07 -32.06 19.39 C-31.63 17.72 -31.63 17.72 -31.19 16.02 C-29.88 11.8 -28.62 10.85 -25.06 8.39 C-24.4 7.67 -23.74 6.95 -23.06 6.21 C-20.64 4.01 -19.27 3.9 -16.06 3.39 C-14.85 2.9 -13.64 2.4 -12.4 1.89 C-8.26 0.32 -4.4 -0.03 0 0 Z " fill="#000102" transform="translate(547.0631866455078,1125.6055908203125)"/>
<path d="M0 0 C1.87 -0 3.73 -0.01 5.6 -0.02 C10.64 -0.03 15.69 -0.02 20.73 -0 C26.02 0.01 31.32 0 36.61 0 C45.49 -0 54.38 0.01 63.26 0.04 C73.52 0.06 83.77 0.06 94.03 0.05 C103.91 0.04 113.8 0.05 123.69 0.06 C127.89 0.07 132.09 0.07 136.28 0.06 C141.23 0.06 146.18 0.07 151.12 0.09 C152.93 0.09 154.74 0.1 156.55 0.09 C178.83 0.04 178.83 0.04 186.13 6.56 C193.8 15.13 197.8 23.91 197.56 35.39 C196.87 47.05 196.87 47.05 193.19 50.63 C192.26 51.25 191.33 51.86 190.38 52.5 C189.25 53.82 188.15 55.15 187.06 56.5 C182.44 61.91 177.34 64.36 170.38 65.5 C167.83 65.6 165.32 65.66 162.78 65.66 C162.02 65.67 161.26 65.67 160.48 65.68 C157.95 65.69 155.41 65.7 152.88 65.71 C151.06 65.72 149.24 65.73 147.42 65.74 C141.45 65.77 135.48 65.79 129.51 65.81 C127.98 65.82 127.98 65.82 126.43 65.82 C116.82 65.85 107.21 65.88 97.6 65.89 C85.33 65.92 73.07 65.96 60.81 66.03 C52.17 66.08 43.53 66.1 34.89 66.11 C29.74 66.11 24.59 66.13 19.44 66.17 C14.59 66.2 9.73 66.21 4.88 66.2 C3.11 66.2 1.34 66.21 -0.43 66.23 C-13.43 66.38 -25.35 64.84 -35.94 56.44 C-38.48 53.66 -39.56 52.03 -40.62 48.5 C-41.12 47.57 -41.61 46.65 -42.12 45.69 C-46.29 36.84 -45.83 29.78 -42.62 20.5 C-41.36 18.46 -40.02 16.45 -38.62 14.5 C-38.17 13.66 -37.72 12.81 -37.25 11.94 C-28.79 -0.75 -13.57 -0.08 0 0 Z " fill="#000102" transform="translate(555.623291015625,1042.498291015625)"/>
<path d="M0 0 C8.34 0.12 17.55 1.78 23.69 7.86 C24.72 9.07 25.72 10.29 26.69 11.54 C28.03 13.33 28.03 13.33 30.19 15 C36.61 22.75 35.84 34.69 35 44.19 C33.92 50.44 31.83 53.96 27 58.19 C26.44 58.95 25.89 59.71 25.31 60.5 C24.88 61.06 24.45 61.61 24 62.19 C23.34 62.19 22.68 62.19 22 62.19 C21.73 62.78 21.47 63.37 21.19 63.98 C19.98 66.23 18.75 67.69 16.95 69.48 C16.32 70.11 15.69 70.74 15.05 71.39 C14.36 72.07 13.67 72.75 12.97 73.45 C12.24 74.17 11.52 74.9 10.77 75.64 C8.38 78.04 5.98 80.42 3.57 82.81 C1.91 84.47 0.24 86.14 -1.43 87.8 C-5.82 92.18 -10.21 96.56 -14.61 100.94 C-19.08 105.38 -23.54 109.83 -28 114.28 C-35.21 121.48 -42.42 128.67 -49.64 135.85 C-50.28 136.48 -50.91 137.11 -51.56 137.77 C-52.16 138.35 -52.75 138.94 -53.35 139.54 C-54.41 140.6 -55.46 141.67 -56.5 142.75 C-57.63 143.93 -58.81 145.07 -60 146.19 C-60.66 146.19 -61.32 146.19 -62 146.19 C-62 145.53 -62 144.87 -62 144.19 C-62.57 143.96 -63.14 143.74 -63.73 143.51 C-66.67 141.8 -68.23 139.69 -70.31 137 C-73.47 133.02 -76.69 129.36 -80.34 125.84 C-82.04 124.15 -83.58 122.39 -85.12 120.56 C-89.46 115.53 -94.2 110.91 -98.91 106.24 C-99.43 105.72 -99.95 105.21 -100.49 104.67 C-101.91 103.27 -103.37 101.91 -104.84 100.54 C-107.01 98.18 -107.41 97.21 -108 94.19 C-107.34 93.6 -106.67 93.01 -105.99 92.4 C-97.29 84.57 -89.09 76.29 -80.9 67.92 C-76.7 63.63 -72.48 59.36 -68.26 55.09 C-62.92 49.69 -57.6 44.29 -52.29 38.86 C-47.98 34.44 -43.64 30.04 -39.28 25.65 C-37.64 23.99 -36 22.32 -34.37 20.64 C-25.22 11.2 -18.01 4.24 -5 1.19 C-3.48 -0.34 -2.12 0.02 0 0 Z " fill="#000102" transform="translate(974,169.8125)"/>
<path d="M0 0 C1.24 -0.03 2.49 -0.05 3.77 -0.08 C7.47 0.28 8.43 0.96 11.19 3.25 C12.41 3.47 12.41 3.47 13.65 3.69 C16.96 4.42 18.37 5.86 20.81 8.19 C21.68 9 22.54 9.81 23.43 10.65 C24.34 11.51 25.25 12.37 26.19 13.25 C28.94 15.7 31.69 18.15 34.45 20.6 C36.53 22.61 38.37 24.59 40.24 26.77 C44.88 32.16 49.93 37.14 54.96 42.15 C56.62 43.81 58.28 45.47 59.94 47.14 C64.99 52.19 70.05 57.19 75.54 61.78 C78.05 64.02 80.16 66.58 82.34 69.14 C87.34 74.85 92.82 80.05 98.62 84.91 C102.15 87.93 105.84 91.21 108.19 95.25 C107.86 99.34 105.47 101.3 102.62 104.06 C101.72 104.94 100.81 105.82 99.88 106.73 C97.01 109.41 94.08 111.99 91.11 114.55 C85.83 119.21 81.13 124.22 76.69 129.69 C75.94 130.61 75.19 131.53 74.41 132.48 C72.95 134.3 71.51 136.14 70.09 137.99 C69.42 138.82 68.75 139.65 68.06 140.5 C67.48 141.25 66.9 142 66.3 142.77 C64.19 144.25 64.19 144.25 60.86 144.15 C56.42 143.06 55.22 141.76 52.32 138.27 C51.37 137.16 50.41 136.06 49.45 134.96 C48.93 134.36 48.41 133.76 47.88 133.14 C44.78 129.67 41.47 126.4 38.18 123.11 C37.45 122.38 36.72 121.65 35.98 120.9 C33.65 118.58 31.32 116.25 29 113.93 C27.36 112.29 25.72 110.65 24.08 109.01 C20.67 105.6 17.26 102.19 13.85 98.78 C9.47 94.41 5.1 90.03 0.73 85.66 C-2.64 82.28 -6.02 78.91 -9.39 75.54 C-11 73.92 -12.62 72.31 -14.23 70.69 C-16.48 68.45 -18.72 66.21 -20.97 63.97 C-21.63 63.3 -22.3 62.63 -22.99 61.94 C-23.6 61.33 -24.21 60.72 -24.84 60.1 C-25.37 59.57 -25.9 59.04 -26.44 58.5 C-27.81 57.14 -27.81 57.14 -29.81 56.25 C-30.52 54.26 -31.18 52.26 -31.81 50.25 C-32.32 49.21 -32.83 48.18 -33.36 47.11 C-35.23 42.79 -35.22 38.77 -35.12 34.12 C-35.13 33.34 -35.13 32.55 -35.13 31.75 C-35.1 27.52 -34.9 24.04 -32.81 20.25 C-32.15 19.92 -31.49 19.59 -30.81 19.25 C-30.54 18.14 -30.28 17.02 -30 15.88 C-28.81 12.25 -28.81 12.25 -26.31 10.5 C-25.49 10.09 -24.66 9.68 -23.81 9.25 C-23.15 8.26 -22.49 7.27 -21.81 6.25 C-19.45 5.26 -17.18 4.41 -14.75 3.62 C-4.01 0.05 -4.01 0.05 0 0 Z " fill="#000102" transform="translate(289.8125,169.75)"/>
<path d="M0 0 C1.04 -0.01 2.09 -0.01 3.16 -0.02 C4.31 -0.02 5.47 -0.02 6.66 -0.02 C7.87 -0.03 9.07 -0.03 10.32 -0.04 C13.65 -0.05 16.97 -0.06 20.3 -0.06 C22.38 -0.06 24.46 -0.07 26.55 -0.07 C33.07 -0.08 39.6 -0.09 46.12 -0.1 C53.63 -0.1 61.15 -0.12 68.66 -0.15 C74.47 -0.17 80.29 -0.18 86.1 -0.18 C89.57 -0.18 93.04 -0.19 96.51 -0.21 C100.39 -0.23 104.27 -0.22 108.16 -0.22 C109.85 -0.23 109.85 -0.23 111.58 -0.24 C120.39 -0.2 129.92 0.38 137.47 5.27 C145.65 14.25 151.2 23.48 151.18 35.93 C150.54 45.74 147.38 53.48 141.18 61.14 C138.56 63.02 138.56 63.02 136.18 64.14 C135.58 64.64 134.97 65.13 134.34 65.64 C127.96 70.08 117.76 69.35 110.23 69.69 C109.27 69.73 108.31 69.77 107.32 69.82 C96.34 70.27 85.37 70.27 74.38 70.24 C72.19 70.24 70 70.23 67.81 70.23 C62.14 70.23 56.46 70.22 50.78 70.21 C44.95 70.2 39.13 70.19 33.3 70.19 C21.93 70.18 10.56 70.16 -0.82 70.14 C-4.1 62.9 -4.1 62.9 -2.82 58.14 C-2.72 55.42 -2.67 52.73 -2.69 50.02 C-2.69 49.23 -2.7 48.45 -2.7 47.64 C-2.8 35.56 -3.16 23.57 -5.4 11.67 C-5.99 8.09 -6.02 4.76 -5.82 1.14 C-4.17 -0.51 -2.27 0.01 0 0 Z " fill="#000102" transform="translate(1000.8162231445313,512.8595581054688)"/>
<path d="M0 0 C1.07 0.01 2.13 0.01 3.23 0.02 C4.39 0.03 5.56 0.05 6.76 0.07 C8.6 0.08 8.6 0.08 10.48 0.1 C13.85 0.12 17.22 0.16 20.58 0.2 C24.1 0.24 27.63 0.27 31.15 0.3 C37.81 0.36 44.48 0.43 51.14 0.5 C58.73 0.59 66.32 0.66 73.91 0.73 C89.52 0.87 105.13 1.03 120.74 1.2 C121.61 5.2 121.69 8.44 121.33 12.53 C120.8 19.24 120.58 25.93 120.45 32.66 C120.44 33.66 120.42 34.67 120.4 35.7 C120.32 39.87 120.25 44.05 120.18 48.22 C120.13 51.31 120.07 54.39 120.02 57.47 C120 58.42 119.99 59.37 119.98 60.35 C119.96 61.22 119.94 62.09 119.92 62.99 C119.91 63.76 119.9 64.53 119.89 65.32 C119.74 67.2 119.74 67.2 118.74 69.2 C117.95 69.19 117.17 69.18 116.36 69.17 C114.85 69.15 114.85 69.15 113.3 69.14 C112.29 69.13 111.28 69.12 110.24 69.1 C107.8 68.92 107.8 68.92 106.74 70.2 C104.68 70.3 102.62 70.33 100.56 70.33 C99.91 70.33 99.26 70.34 98.59 70.34 C96.42 70.34 94.25 70.34 92.08 70.34 C90.55 70.34 89.02 70.34 87.49 70.34 C83.4 70.34 79.3 70.34 75.21 70.33 C72.68 70.33 70.16 70.32 67.63 70.32 C29 70.27 29 70.27 12.24 69.94 C10.63 69.91 9.03 69.88 7.42 69.86 C-7.05 69.64 -17.49 67.55 -28.26 57.2 C-30.47 54.01 -31.98 50.85 -33.26 47.2 C-33.81 45.77 -33.81 45.77 -34.36 44.3 C-36.23 37.87 -36.09 30.9 -34.14 24.52 C-33.52 23.42 -32.9 22.33 -32.26 21.2 C-31.87 20.42 -31.48 19.65 -31.08 18.84 C-27.45 12.06 -22.88 7.2 -16.26 3.2 C-12.39 2.33 -12.39 2.33 -9.26 2.2 C-8.65 1.87 -8.03 1.55 -7.4 1.21 C-4.77 -0.03 -2.9 -0.03 0 0 Z " fill="#000102" transform="translate(147.26446533203125,512.7974548339844)"/>
<path d="M0 0 C4.53 3.83 7.62 7.52 10 13 C10.54 13.85 11.07 14.69 11.62 15.56 C13.92 19.63 14.12 23.63 14.12 28.23 C14.12 29.78 14.12 29.78 14.12 31.36 C14.12 33.05 14.12 33.05 14.11 34.77 C14.11 35.96 14.11 37.15 14.11 38.37 C14.11 41.63 14.11 44.89 14.1 48.14 C14.1 51.55 14.09 54.95 14.09 58.36 C14.09 64.81 14.08 71.25 14.07 77.7 C14.06 85.04 14.06 92.38 14.05 99.72 C14.04 114.81 14.02 129.91 14 145 C10.87 145.85 8.65 145.98 5.43 145.57 C-2.14 144.79 -9.7 144.85 -17.3 144.87 C-19.8 144.87 -22.3 144.87 -24.8 144.86 C-34.25 144.86 -43.58 145.15 -53 146 C-53 145.34 -53 144.68 -53 144 C-53.66 144 -54.32 144 -55 144 C-55.12 128.56 -55.21 113.12 -55.26 97.68 C-55.28 90.51 -55.32 83.34 -55.38 76.17 C-55.43 69.92 -55.46 63.67 -55.47 57.41 C-55.48 54.11 -55.49 50.8 -55.53 47.49 C-55.57 43.79 -55.57 40.08 -55.57 36.38 C-55.59 35.3 -55.6 34.22 -55.62 33.11 C-55.55 22.45 -52.12 13.32 -44.68 5.61 C-43.85 4.81 -43.85 4.81 -43 4 C-42.24 3.26 -41.47 2.52 -40.69 1.75 C-28.37 -6.27 -12.81 -7.91 0 0 Z " fill="#000102" transform="translate(652,33)"/>
<path d="M0 0 C4.54 1.85 7.81 5.01 10.31 9.2 C18.59 22.94 29.69 34.73 41 46 C43.3 48.46 43.94 49.64 44.5 53 C44 56 44 56 41.75 58.06 C40.84 58.7 39.94 59.34 39 60 C38.28 60.91 37.56 61.82 36.81 62.75 C36.21 63.49 35.62 64.24 35 65 C34.34 65 33.68 65 33 65 C32.76 65.57 32.52 66.13 32.27 66.71 C30.74 69.46 28.92 71.34 26.69 73.57 C25.8 74.46 24.91 75.36 23.99 76.29 C23.01 77.26 22.04 78.23 21.06 79.21 C20.05 80.22 19.04 81.22 18.04 82.23 C15.93 84.35 13.81 86.46 11.69 88.57 C9 91.25 6.31 93.94 3.63 96.64 C1.55 98.73 -0.54 100.81 -2.62 102.89 C-3.61 103.88 -4.6 104.87 -5.59 105.86 C-15.66 115.97 -26.35 126.59 -41.44 127.62 C-52.79 126.81 -63.34 121.28 -71 113 C-72.2 110.43 -72.2 110.43 -73 108 C-73.54 106.89 -74.07 105.77 -74.62 104.62 C-77.2 97.73 -77.63 87.93 -74.75 81.06 C-74.17 80.05 -73.6 79.04 -73 78 C-72.73 77.41 -72.46 76.81 -72.19 76.2 C-69.73 70.77 -66.56 67.02 -62.32 62.88 C-61.66 62.22 -61 61.56 -60.31 60.88 C-58.14 58.71 -55.96 56.56 -53.77 54.41 C-52.25 52.91 -50.74 51.4 -49.22 49.89 C-45.24 45.93 -41.25 41.99 -37.26 38.05 C-30.86 31.72 -24.47 25.37 -18.09 19.03 C-15.85 16.81 -13.62 14.6 -11.38 12.39 C-10.02 11.04 -8.65 9.69 -7.29 8.34 C-6.35 7.42 -6.35 7.42 -5.4 6.48 C-2.32 3.53 -2.32 3.53 0 0 Z " fill="#000102" transform="translate(331,799)"/>
<path d="M0 0 C5.11 1.31 7.4 3.23 11 7 C12.99 8.97 14.98 10.94 16.96 12.9 C22.82 18.7 28.67 24.5 34.52 30.31 C38.04 33.82 41.57 37.32 45.11 40.81 C48.55 44.2 51.98 47.61 55.4 51.02 C56.7 52.31 58 53.6 59.3 54.88 C69.99 65.4 80.79 76.32 81.05 92.27 C80.23 107.62 80.23 107.62 74.87 113.22 C73.3 114.61 71.7 115.97 70.06 117.27 C67.79 119.01 67.79 119.01 66 122 C64.12 122.91 64.12 122.91 62 123.62 C59.91 124.34 57.97 125.01 56 126 C45.58 127.01 34.91 127.42 26.37 120.72 C19.2 114.5 12.57 107.7 5.88 100.97 C4.52 99.61 3.16 98.26 1.81 96.9 C-1.74 93.35 -5.28 89.8 -8.83 86.24 C-12.45 82.61 -16.08 78.97 -19.71 75.34 C-26.81 68.23 -33.9 61.12 -41 54 C-39.21 50.17 -36.77 47.41 -33.88 44.38 C-29.69 39.9 -25.75 35.33 -21.96 30.5 C-19.83 27.78 -17.64 25.11 -15.44 22.44 C-13.96 20.63 -12.48 18.81 -11 17 C-10.33 16.19 -9.67 15.38 -8.98 14.55 C-5.45 10.18 -2.97 6.26 -1 1 C-0.67 0.67 -0.34 0.34 0 0 Z " fill="#000102" transform="translate(929,799)"/>
<path d="M0 0 C73.26 0.49 73.26 0.49 148 1 C149.15 5.59 148.83 8.72 147 13 C143.68 17.78 140.1 21.18 135 24 C134.36 24.79 133.71 25.57 133.05 26.38 C129.22 30.29 123.97 31.01 118.81 32.25 C116.82 32.75 114.83 33.26 112.83 33.77 C111.95 33.98 111.07 34.19 110.17 34.42 C107.97 34.93 107.97 34.93 106 36 C104.18 36.11 102.35 36.16 100.52 36.18 C98.79 36.2 98.79 36.2 97.04 36.22 C95.78 36.22 94.53 36.23 93.24 36.24 C91.95 36.25 90.66 36.25 89.33 36.26 C86.58 36.28 83.84 36.29 81.09 36.3 C78.31 36.3 75.52 36.32 72.73 36.36 C43.33 36.69 43.33 36.69 30 32 C28.91 31.65 27.82 31.29 26.7 30.93 C21.58 29.24 17.36 27.22 13 24 C12.2 23.59 11.39 23.17 10.56 22.75 C5.64 19.39 0.2 14.01 -1 8 C-0.67 5.36 -0.34 2.72 0 0 Z " fill="#000102" transform="translate(558,1210)"/>
<path d="M0 0 C32.34 0 64.68 0 98 0 C98 0.99 98 1.98 98 3 C65.33 3 32.66 3 -1 3 C-0.67 2.01 -0.34 1.02 0 0 Z " fill="#5A5B5C" transform="translate(1001,580)"/>
<path d="M0 0 C0.7 0 1.4 0.01 2.11 0.01 C3.21 0.01 3.21 0.01 4.33 0.01 C6.76 0.01 9.19 0.02 11.62 0.03 C13.3 0.03 14.98 0.03 16.66 0.03 C21.09 0.03 25.52 0.04 29.95 0.06 C34.47 0.07 38.99 0.07 43.5 0.08 C52.38 0.09 61.25 0.1 70.12 0.12 C70.12 1.11 70.12 2.1 70.12 3.12 C60.65 3.17 51.18 3.21 41.72 3.23 C37.32 3.24 32.93 3.25 28.53 3.28 C24.29 3.3 20.05 3.31 15.81 3.31 C14.19 3.32 12.57 3.33 10.95 3.34 C8.69 3.35 6.42 3.35 4.16 3.35 C2.87 3.36 1.58 3.36 0.25 3.36 C-2.88 3.12 -2.88 3.12 -5.88 1.12 C-4.22 -0.54 -2.22 0 0 0 Z " fill="#5A5B5C" transform="translate(183.88401794433594,579.8755798339844)"/>
<path d="M0 0 C0.66 0.33 1.32 0.66 2 1 C-13.06 17.46 -13.06 17.46 -20 23 C-20 20 -20 20 -18.16 17.82 C-17.33 17 -16.49 16.18 -15.62 15.33 C-14.72 14.44 -13.82 13.55 -12.89 12.63 C-11.93 11.69 -10.96 10.75 -10 9.81 C-9.04 8.86 -8.07 7.91 -7.11 6.96 C-4.75 4.64 -2.38 2.31 0 0 Z " fill="#B6B7B9" transform="translate(414,323)"/>
<path d="M0 0 C3.44 1.45 5.36 3.28 7.75 6.12 C8.36 6.85 8.98 7.57 9.61 8.32 C10.3 9.15 10.3 9.15 11 10 C8 10 8 10 5.96 8.32 C5.25 7.6 4.54 6.87 3.81 6.12 C2.74 5.05 2.74 5.05 1.64 3.95 C0 2 0 2 0 0 Z " fill="#B6B7B9" transform="translate(874,283)"/>
</svg>
