<?xml version="1.0" encoding="UTF-8"?>
<!-- Generator: visioncortex VTracer 0.6.3 -->
<svg version="1.1" xmlns="http://www.w3.org/2000/svg" width="1280" height="1280">
<path d="M0 0 C422.4 0 844.8 0 1280 0 C1280 422.4 1280 844.8 1280 1280 C857.6 1280 435.2 1280 0 1280 C0 857.6 0 435.2 0 0 Z " fill="#FCFCFC" transform="translate(0,0)"/>
<path d="M0 0 C3.81 0.01 7.62 0 11.44 -0 C25.96 -0.02 40.46 0.05 54.97 0.58 C56.58 0.63 56.58 0.63 58.23 0.69 C65.53 0.99 72.72 1.68 79.97 2.66 C85.42 3.32 90.87 3.56 96.35 3.79 C101.93 4.34 106.18 6.1 110.84 9.13 C111.87 9.73 112.9 10.33 113.97 10.94 C117.24 13.43 118.11 15.45 119.84 19.13 C121.47 20.84 123.13 22.51 124.84 24.13 C126.55 27.55 126.44 31.46 126.78 35.22 C126.86 36.13 126.95 37.03 127.04 37.96 C127.4 41.83 127.76 45.7 128.11 49.57 C128.37 52.39 128.64 55.22 128.9 58.04 C128.98 58.92 129.06 59.8 129.14 60.7 C129.45 65.05 129.45 65.05 130.84 69.13 C131.22 73.12 131.27 77.13 131.4 81.13 C131.45 82.42 131.49 83.71 131.53 85.04 C133.79 162.07 133.79 162.07 129.84 181.13 C129.67 183.19 129.52 185.25 129.4 187.32 C128.98 193.74 128.32 200.11 127.57 206.5 C126.93 212.07 126.48 217.64 126.18 223.24 C125.84 226.13 125.84 226.13 124.88 229.37 C123.87 233.01 123.3 236.46 122.84 240.2 C122.59 242.16 122.59 242.16 122.34 244.17 C122.09 246.22 121.84 248.27 121.59 250.32 C121.35 252.32 121.09 254.32 120.84 256.33 C120.7 257.51 120.55 258.7 120.4 259.92 C119.88 262.93 119 265.32 117.84 268.13 C117.48 269.88 117.17 271.64 116.91 273.41 C116.76 274.41 116.6 275.41 116.45 276.44 C116.29 277.5 116.13 278.55 115.97 279.63 C114.72 287.54 113.23 294.94 110.65 302.52 C109.67 305.69 109.37 308.71 109.11 312.01 C108.61 315.89 107.19 319.48 105.84 323.13 C104.57 326.6 103.74 329.66 103.4 333.32 C102.84 337.13 102.84 337.13 101.4 338.46 C99.09 340.93 98.99 343.4 98.4 346.69 C97.35 352.1 95.92 356.86 93.74 361.9 C92.9 363.98 92.33 365.95 91.84 368.13 C90.92 372.2 89.37 375.91 87.78 379.76 C86.73 382.29 86.73 382.29 85.84 385.69 C84.8 389.25 83.4 392.42 81.85 395.78 C80.52 398.88 79.52 402.05 78.55 405.28 C77.84 407.13 77.84 407.13 75.84 409.13 C75.26 411.39 74.89 413.64 74.5 415.94 C73.84 418.13 73.84 418.13 72.36 419.58 C70.29 421.69 70.04 423.58 69.4 426.44 C68.24 431.1 66.59 434.18 63.84 438.13 C63.01 440.43 62.3 442.73 61.65 445.08 C60.84 447.13 60.84 447.13 59.28 448.68 C57.47 450.21 57.47 450.21 57.4 453.63 C57.22 454.79 57.03 455.94 56.84 457.13 C56.18 457.6 55.52 458.08 54.84 458.57 C54.18 459.08 53.52 459.6 52.84 460.13 C52.62 462.16 52.39 464.19 52.25 466.22 C51.84 468.13 51.84 468.13 49.4 470.07 C46.03 472.78 46 474.94 45.49 479.11 C45.28 479.77 45.06 480.44 44.84 481.13 C43.51 481.8 42.18 482.47 40.84 483.13 C40.29 485.03 40.29 485.03 40.34 487.13 C40.18 489.32 40.18 489.32 39.84 491.13 C38.53 491.83 37.19 492.5 35.84 493.13 C34.91 495.11 34.24 497.11 33.55 499.19 C32.69 501.55 31.38 503.16 29.84 505.13 C28.03 508.47 26.41 511.91 24.8 515.36 C24.46 516.07 24.13 516.77 23.78 517.51 C23.33 518.48 23.33 518.48 22.87 519.47 C21.84 521.13 21.84 521.13 18.84 523.13 C18.2 525.02 18.2 525.02 17.9 527.13 C17.44 529.31 17.44 529.31 16.84 531.13 C14.84 532.26 14.84 532.26 12.84 533.13 C12.14 535.12 11.47 537.12 10.84 539.13 C9.85 539.79 8.86 540.45 7.84 541.13 C7.38 542.86 7.38 542.86 6.9 544.63 C6.38 546.36 6.38 546.36 5.84 548.13 C4.52 548.81 3.18 549.48 1.84 550.13 C0.79 552.44 -0.21 554.78 -1.16 557.13 C-2.14 558.15 -3.14 559.15 -4.16 560.13 C-4.45 560.91 -4.74 561.7 -5.03 562.51 C-6.46 565.83 -8.59 567.62 -11.16 570.13 C-12.6 572.32 -13.85 574.55 -15.09 576.86 C-17.1 580.52 -19.09 583.25 -22.16 586.13 C-24.24 588.59 -26.07 590.98 -27.72 593.76 C-29.16 596.13 -29.16 596.13 -30.66 597.57 C-32.37 599.19 -32.37 599.19 -33.53 602.01 C-35.33 605.46 -37.35 607.45 -40.16 610.13 C-43.61 613.99 -46.83 617.98 -50 622.06 C-54.75 628.18 -59.63 634.01 -64.9 639.69 C-66.82 641.77 -68.69 643.87 -70.53 646.01 C-74.09 650.1 -77.77 654.07 -81.46 658.04 C-83.68 660.44 -85.9 662.84 -88.07 665.29 C-94.12 672.12 -100.47 678.6 -106.93 685.04 C-108.73 686.82 -110.51 688.61 -112.3 690.41 C-118.08 696.19 -123.91 701.84 -130.16 707.13 C-131.68 708.5 -133.21 709.88 -134.72 711.26 C-144.36 719.93 -154.09 728.43 -164.36 736.37 C-168.26 739.39 -171.99 742.53 -175.61 745.89 C-177.16 747.13 -177.16 747.13 -180.16 748.13 C-180.94 756.76 -181.29 765.29 -181.23 773.95 C-181.22 775.16 -181.22 776.37 -181.21 777.62 C-181.2 780.89 -181.18 784.16 -181.16 787.43 C-181.14 790.87 -181.13 794.31 -181.13 797.76 C-181.09 809.45 -181.05 821.14 -180.99 832.84 C-180.95 839.32 -180.93 845.8 -180.92 852.28 C-180.91 855.7 -180.9 859.11 -180.87 862.53 C-180.85 866.34 -180.84 870.15 -180.83 873.95 C-180.82 875.63 -180.82 875.63 -180.8 877.35 C-180.81 883.7 -181.57 888.32 -184.16 894.13 C-184.64 896.02 -185.11 897.91 -185.53 899.82 C-186.78 904.58 -188.41 906.85 -192.16 910.13 C-193.95 913.3 -193.95 913.3 -195.16 916.13 C-195.82 916.13 -196.48 916.13 -197.16 916.13 C-197.42 916.87 -197.67 917.62 -197.94 918.38 C-199.22 921.27 -200.51 922.85 -202.73 925.07 C-203.84 926.19 -203.84 926.19 -204.97 927.34 C-205.78 928.14 -206.6 928.95 -207.43 929.78 C-208.29 930.64 -209.14 931.49 -210.02 932.38 C-212.37 934.73 -214.71 937.07 -217.07 939.41 C-219.53 941.86 -221.98 944.31 -224.43 946.77 C-228.55 950.88 -232.67 955 -236.8 959.11 C-241.57 963.86 -246.34 968.62 -251.1 973.39 C-255.68 977.98 -260.27 982.56 -264.86 987.13 C-266.81 989.08 -268.76 991.03 -270.71 992.99 C-273.43 995.71 -276.16 998.42 -278.89 1001.13 C-280.1 1002.35 -280.1 1002.35 -281.35 1003.6 C-282.46 1004.7 -282.46 1004.7 -283.59 1005.82 C-284.24 1006.47 -284.88 1007.11 -285.54 1007.77 C-287.16 1009.13 -287.16 1009.13 -289.16 1009.13 C-289.38 1009.68 -289.6 1010.22 -289.83 1010.78 C-291.59 1013.89 -293.97 1016.22 -296.5 1018.72 C-297.05 1019.27 -297.6 1019.83 -298.16 1020.4 C-300.01 1022.25 -301.86 1024.1 -303.71 1025.94 C-305.04 1027.27 -306.36 1028.6 -307.68 1029.92 C-311.28 1033.53 -314.89 1037.13 -318.5 1040.73 C-322.27 1044.51 -326.05 1048.29 -329.82 1052.06 C-336.17 1058.41 -342.51 1064.76 -348.87 1071.1 C-356.19 1078.42 -363.51 1085.74 -370.83 1093.07 C-377.12 1099.37 -383.41 1105.66 -389.71 1111.95 C-393.47 1115.71 -397.22 1119.46 -400.98 1123.22 C-404.51 1126.76 -408.05 1130.3 -411.59 1133.83 C-412.89 1135.12 -414.18 1136.41 -415.47 1137.71 C-421.77 1144.03 -428.04 1150.13 -435.14 1155.57 C-436.95 1156.97 -438.61 1158.45 -440.28 1160.01 C-442.99 1162 -444.26 1162.56 -447.41 1163.26 C-451.39 1163.73 -451.39 1163.73 -453.16 1167.13 C-460.14 1169.7 -467.96 1169.44 -475.28 1169.38 C-476.32 1169.39 -477.35 1169.4 -478.41 1169.4 C-493.74 1169.36 -508.23 1163.93 -519.19 1153.12 C-519.65 1152.66 -520.11 1152.19 -520.58 1151.71 C-522.77 1149.52 -524.97 1147.64 -527.41 1145.76 C-530.16 1143.13 -530.16 1143.13 -530.35 1140.51 C-530.28 1139.72 -530.22 1138.94 -530.16 1138.13 C-531.09 1137.23 -531.09 1137.23 -532.03 1136.32 C-535 1133.27 -535.39 1130.22 -536.16 1126.13 C-536.32 1125.33 -536.49 1124.52 -536.66 1123.69 C-536.82 1122.85 -536.99 1122 -537.16 1121.13 C-537.32 1120.5 -537.47 1119.87 -537.64 1119.22 C-538.95 1113.86 -539.44 1108.91 -539.39 1103.4 C-539.39 1102.57 -539.39 1101.74 -539.39 1100.88 C-539.39 1098.13 -539.37 1095.37 -539.35 1092.61 C-539.35 1090.63 -539.35 1088.64 -539.35 1086.65 C-539.34 1082.39 -539.33 1078.13 -539.31 1073.86 C-539.28 1067.12 -539.27 1060.38 -539.26 1053.64 C-539.24 1039.35 -539.2 1025.05 -539.16 1010.76 C-539.12 995.3 -539.07 979.85 -539.05 964.39 C-539.04 957.69 -539.02 950.98 -539 944.28 C-538.98 940.12 -538.97 935.96 -538.97 931.8 C-538.97 929.86 -538.96 927.93 -538.95 926 C-538.93 923.36 -538.93 920.73 -538.93 918.1 C-538.92 916.94 -538.92 916.94 -538.91 915.76 C-538.93 912 -539.02 910.34 -541.16 907.13 C-543.98 906.54 -546.76 906.31 -549.63 906.05 C-558.86 903.65 -565.66 897.2 -572.2 890.57 C-573.05 889.72 -573.9 888.87 -574.78 888 C-577.12 885.67 -579.45 883.32 -581.78 880.98 C-584.3 878.44 -586.83 875.92 -589.36 873.39 C-593.73 869.02 -598.1 864.64 -602.46 860.25 C-608.77 853.91 -615.09 847.58 -621.42 841.25 C-631.68 830.97 -641.94 820.69 -652.19 810.4 C-662.14 800.42 -672.09 790.44 -682.04 780.47 C-682.66 779.85 -683.27 779.24 -683.9 778.6 C-686.98 775.52 -690.06 772.43 -693.15 769.35 C-716.91 745.54 -740.66 721.73 -764.4 697.91 C-765.12 697.18 -765.84 696.46 -766.59 695.72 C-767.21 695.09 -767.83 694.47 -768.47 693.82 C-769.57 692.73 -770.68 691.65 -771.83 690.61 C-774.02 688.18 -774.14 685.35 -774.72 682.19 C-775.78 676.43 -775.78 676.43 -778.16 671.13 C-777.39 670.33 -777.39 670.33 -776.6 669.51 C-774.68 666.34 -775.43 664.65 -776.16 661.13 C-777.84 661.14 -777.84 661.14 -779.56 661.14 C-806.88 661.23 -834.19 661.3 -861.51 661.34 C-874.72 661.36 -887.93 661.39 -901.14 661.43 C-912.65 661.47 -924.16 661.5 -935.68 661.51 C-941.77 661.51 -947.87 661.52 -953.97 661.55 C-959.7 661.58 -965.44 661.59 -971.18 661.58 C-973.29 661.58 -975.39 661.59 -977.5 661.61 C-980.37 661.63 -983.25 661.62 -986.12 661.61 C-987.38 661.63 -987.38 661.63 -988.65 661.65 C-994.08 661.59 -996.92 660.56 -1001.16 657.13 C-1001.16 657.79 -1001.16 658.45 -1001.16 659.13 C-1001.82 659.13 -1002.48 659.13 -1003.16 659.13 C-1003.16 658.47 -1003.16 657.81 -1003.16 657.13 C-1003.75 657.03 -1004.34 656.93 -1004.95 656.83 C-1010.16 655.85 -1013.1 654.65 -1017.16 651.13 C-1018.24 650.71 -1019.31 650.29 -1020.42 649.86 C-1024.54 648.15 -1027.24 645.63 -1030.28 642.44 C-1031.06 641.64 -1031.06 641.64 -1031.86 640.82 C-1038.02 634.35 -1041.67 629.23 -1042.16 620.13 C-1042.82 620.13 -1043.48 620.13 -1044.16 620.13 C-1046.4 616.77 -1046.53 615.15 -1046.83 611.19 C-1046.92 610.03 -1047 608.87 -1047.09 607.67 C-1047.18 606.46 -1047.26 605.25 -1047.35 604.01 C-1047.49 602.18 -1047.49 602.18 -1047.63 600.31 C-1048.12 593.66 -1048.12 593.66 -1048.16 591.13 C-1047.83 590.8 -1047.5 590.47 -1047.16 590.13 C-1047 588.7 -1046.88 587.26 -1046.78 585.82 C-1046.41 582 -1045.75 580.04 -1043.16 577.13 C-1042.81 575.8 -1042.48 574.47 -1042.16 573.13 C-1037.22 561.08 -1027.84 552.54 -1018.8 543.54 C-1017.43 542.18 -1016.07 540.82 -1014.71 539.45 C-1011.03 535.77 -1007.34 532.09 -1003.65 528.42 C-999.78 524.56 -995.92 520.7 -992.06 516.84 C-984.74 509.53 -977.42 502.23 -970.1 494.93 C-961.79 486.63 -953.47 478.33 -945.16 470.03 C-930.96 455.85 -916.75 441.66 -902.54 427.48 C-901.94 426.89 -901.34 426.29 -900.72 425.67 C-899.62 424.57 -898.52 423.47 -897.41 422.38 C-894.33 419.3 -891.24 416.21 -888.16 413.13 C-887.18 412.15 -886.2 411.17 -885.21 410.19 C-884.42 409.4 -884.42 409.4 -883.62 408.6 C-883.06 408.04 -882.5 407.48 -881.92 406.91 C-875.77 400.77 -869.62 394.63 -863.47 388.49 C-859.76 384.79 -856.04 381.08 -852.33 377.38 C-848.72 373.78 -845.12 370.18 -841.52 366.58 C-840.15 365.22 -838.78 363.85 -837.41 362.49 C-828.15 353.32 -828.15 353.32 -819.44 343.64 C-817.48 341.33 -815.33 339.24 -813.16 337.13 C-812.4 336.37 -811.63 335.6 -810.85 334.82 C-809.96 333.93 -809.07 333.04 -808.16 332.13 C-807.56 331.52 -806.96 330.91 -806.35 330.28 C-802.35 326.23 -798.25 322.37 -793.92 318.67 C-792.15 317.17 -792.15 317.17 -790.6 315.52 C-788.43 313.43 -785.88 312.41 -783.16 311.13 C-781.71 310.39 -781.71 310.39 -780.22 309.63 C-775.27 307.2 -770.62 305.07 -765.16 304.13 C-764.5 303.8 -763.84 303.47 -763.16 303.13 C-761.15 303.04 -759.14 303.01 -757.14 303.01 C-755.85 303.01 -754.57 303.01 -753.25 303.01 C-751.81 303.01 -750.38 303.02 -748.95 303.02 C-747.45 303.02 -745.95 303.02 -744.45 303.02 C-741.21 303.02 -737.97 303.02 -734.74 303.02 C-729.62 303.03 -724.5 303.02 -719.38 303.01 C-718.52 303 -717.66 303 -716.77 303 C-715 302.99 -713.24 302.99 -711.47 302.99 C-699.55 302.96 -687.64 302.94 -675.72 302.96 C-667.69 302.97 -659.65 302.96 -651.62 302.92 C-647.36 302.91 -643.11 302.9 -638.86 302.92 C-634.86 302.94 -630.86 302.93 -626.85 302.9 C-625.39 302.89 -623.92 302.89 -622.45 302.91 C-620.44 302.93 -618.44 302.91 -616.44 302.88 C-615.31 302.88 -614.19 302.88 -613.04 302.88 C-609.86 302.36 -609.86 302.36 -607.86 299.2 C-607.3 298.19 -606.74 297.17 -606.16 296.13 C-605.23 294.95 -604.27 293.78 -603.28 292.65 C-602.75 292.05 -602.23 291.45 -601.69 290.83 C-601.15 290.21 -600.6 289.58 -600.03 288.94 C-599.46 288.29 -598.89 287.63 -598.3 286.96 C-594.05 282.1 -589.72 277.31 -585.36 272.54 C-583.41 270.41 -581.5 268.25 -579.6 266.07 C-573.15 258.67 -566.61 251.44 -559.58 244.59 C-556.85 241.91 -554.29 239.15 -551.8 236.24 C-548.14 232.03 -544.19 228.23 -540.1 224.44 C-539.36 223.75 -538.62 223.07 -537.86 222.36 C-536.35 220.95 -534.84 219.55 -533.33 218.15 C-531.32 216.28 -529.32 214.4 -527.33 212.52 C-521.33 206.87 -515.24 201.46 -508.81 196.31 C-505.98 193.98 -503.29 191.55 -500.6 189.07 C-494.03 183.04 -487.18 177.54 -479.91 172.38 C-474.68 168.63 -469.83 164.52 -465.02 160.25 C-461.88 157.5 -458.81 155.2 -455.16 153.13 C-454.33 152.47 -453.51 151.81 -452.66 151.13 C-450.25 149.2 -447.81 147.72 -445.16 146.13 C-443.5 145 -441.86 143.85 -440.22 142.69 C-430.96 136.17 -430.96 136.17 -426.66 133.69 C-423.99 132.11 -423.99 132.11 -421.22 129.63 C-418.29 127.24 -415.53 125.78 -412.16 124.13 C-411.66 123.64 -411.17 123.14 -410.66 122.63 C-408.49 120.46 -405.92 119.45 -403.16 118.13 C-401.49 117.14 -399.82 116.14 -398.16 115.13 C-397.44 114.8 -396.72 114.47 -395.97 114.13 C-393.82 113.13 -393.82 113.13 -392.16 110.13 C-390.32 109.29 -390.32 109.29 -388.22 108.63 C-385.03 107.63 -383.47 106.51 -381.16 104.13 C-378.84 103.1 -376.5 102.1 -374.16 101.13 C-373.03 100.45 -373.03 100.45 -371.88 99.76 C-368.1 97.49 -364.13 95.63 -360.16 93.74 C-356.97 92.18 -354.6 90.68 -352.16 88.13 C-350.26 87.29 -350.26 87.29 -348.22 86.63 C-345.83 85.8 -344.2 85.16 -342.16 83.63 C-339.68 81.77 -337.18 80.97 -334.28 79.94 C-332.28 79.17 -330.43 78.3 -328.53 77.32 C-323.65 74.8 -318.59 72.72 -313.53 70.6 C-307.38 68.07 -307.38 68.07 -302.16 64.13 C-300.9 64.03 -299.64 63.92 -298.35 63.82 C-294.86 63.48 -294.35 63.32 -291.72 60.69 C-288.64 57.61 -286.85 57.44 -282.7 56.73 C-278.78 55.81 -275.33 54.02 -271.74 52.25 C-269.16 51.13 -269.16 51.13 -266.39 50.6 C-265.66 50.45 -264.92 50.29 -264.16 50.13 C-263.83 49.47 -263.5 48.81 -263.16 48.13 C-260.83 47.35 -260.83 47.35 -257.91 46.63 C-254.18 45.7 -250.71 44.61 -247.16 43.13 C-242.86 41.54 -238.85 40.22 -234.28 39.63 C-231.19 39.46 -231.19 39.46 -229.76 37.66 C-227.69 35.68 -226.21 35.55 -223.41 35.13 C-220.24 34.65 -217.8 33.97 -214.83 32.69 C-210.98 31.05 -207.28 30.06 -203.22 29.13 C-196.91 27.63 -196.91 27.63 -190.78 25.51 C-187.15 24.13 -183.77 23.42 -179.96 22.72 C-176.8 22.05 -173.76 21.14 -170.66 20.19 C-164.32 18.32 -158 17.14 -151.46 16.17 C-146.89 15.48 -142.61 14.43 -138.16 13.13 C-135.6 12.6 -133.04 12.1 -130.47 11.63 C-129.78 11.5 -129.09 11.38 -128.38 11.24 C-123.1 10.28 -117.81 9.39 -112.51 8.56 C-110.02 8.16 -110.02 8.16 -107.16 7.13 C-105.48 6.93 -103.81 6.77 -102.12 6.63 C-101.15 6.55 -100.18 6.47 -99.17 6.38 C-97.12 6.21 -95.06 6.05 -93.01 5.88 C-92.04 5.8 -91.06 5.72 -90.06 5.63 C-89.17 5.56 -88.28 5.49 -87.36 5.41 C-85.12 5.25 -85.12 5.25 -83.16 4.13 C-80.83 4.13 -78.49 4.13 -76.16 4.13 C-74.16 3.81 -72.16 3.48 -70.16 3.13 C-46.9 -0.2 -23.44 -0.04 0 0 Z " fill="#000100" transform="translate(1097.1591796875,54.86962890625)"/>
<path d="M0 0 C2.27 -0.4 2.27 -0.4 5 0 C7.45 1.83 7.45 1.83 10.07 4.45 C10.55 4.93 11.04 5.42 11.54 5.91 C13.18 7.54 14.8 9.18 16.43 10.82 C17.6 12 18.79 13.18 19.97 14.35 C23.22 17.59 26.45 20.85 29.69 24.11 C33.17 27.61 36.67 31.11 40.17 34.6 C46.24 40.67 52.29 46.74 58.34 52.81 C67.09 61.61 75.86 70.38 84.63 79.16 C98.86 93.4 113.08 107.66 127.29 121.92 C141.09 135.76 154.9 149.6 168.71 163.43 C169.56 164.28 170.41 165.13 171.28 166.01 C175.55 170.28 179.81 174.55 184.08 178.83 C213.49 208.28 242.89 237.75 272.28 267.23 C272.91 267.86 273.54 268.49 274.18 269.13 C277.09 272.05 279.99 274.96 282.89 277.87 C283.41 278.39 283.92 278.9 284.46 279.44 C285.82 280.81 287.19 282.18 288.55 283.55 C290.26 285.26 292 286.96 293.75 288.63 C296 291 296 291 297 294 C296.01 294.66 295.02 295.32 294 296 C293.69 297.15 293.38 298.31 293.06 299.5 C292.71 300.65 292.36 301.81 292 303 C291.33 303.31 290.66 303.62 289.96 303.94 C288.99 304.46 288.99 304.46 288 305 C287.45 307.13 287.45 307.13 287.5 309.5 C287.47 311.91 287.47 311.91 287 314 C285.67 314.68 284.34 315.35 283 316 C282.23 318.04 282.23 318.04 282 320.38 C281.25 324.57 280.13 326.07 277 329 C276.67 330.2 276.34 331.39 276 332.62 C275.67 333.74 275.34 334.85 275 336 C274.34 336.31 273.68 336.62 273 336.94 C270.84 337.79 270.84 337.79 270.4 339.78 C270.09 341.22 269.79 342.67 269.49 344.12 C268.87 346.49 267.78 347.36 266 349 C265.51 350.18 265.01 351.35 264.5 352.56 C263 356 263 356 260 358 C259.69 359.11 259.38 360.23 259.06 361.38 C257.93 365.25 256.86 366.32 254 369 C253.31 370.66 252.64 372.32 252 374 C251 375 250 376 249 377 C248.53 377.95 248.05 378.9 247.56 379.88 C246 383 246 383 244.12 385.32 C241.2 389.01 239.06 393.05 236.78 397.16 C235.08 399.87 233.3 401.8 231 404 C229.99 405.66 228.99 407.33 228 409 C227.01 409.5 227.01 409.5 226 410 C225.41 411.24 225.41 411.24 224.81 412.5 C222.41 417.14 219.27 420.95 216 425 C215.37 425.8 214.73 426.59 214.08 427.41 C205.78 437.85 197.27 448.08 188.57 458.18 C186.46 460.63 184.35 463.1 182.24 465.56 C180.25 467.89 178.25 470.21 176.25 472.54 C175.23 473.73 174.21 474.93 173.18 476.13 C168.74 481.29 164.07 486.24 159.41 491.21 C155.6 495.28 151.82 499.38 148.06 503.5 C142.42 509.66 136.69 515.48 130.36 520.93 C127.98 523.01 125.67 525.16 123.36 527.31 C118.02 532.3 112.58 537.07 106.88 541.65 C103.51 544.4 100.23 547.22 96.94 550.06 C89.82 556.19 82.69 562.2 74.94 567.5 C70.67 570.43 66.88 573.67 63.11 577.2 C60.87 579.11 58.55 580.53 56 582 C55.32 582.52 54.64 583.03 53.94 583.56 C52 585 52 585 49.94 585.94 C47.87 586.89 47.87 586.89 46.62 588.94 C44.48 591.65 42.11 592.54 39 594 C38.3 594.56 37.6 595.11 36.88 595.69 C35 597 35 597 31 597 C30.81 597.76 30.63 598.53 30.44 599.31 C28.41 603.1 25.95 603.53 22 605 C20.32 605.98 18.65 606.97 17 608 C16.32 608.31 15.64 608.62 14.94 608.94 C12.86 609.94 12.86 609.94 11.19 611.94 C8.41 614.55 5.51 615.56 2 617 C0.64 617.96 -0.7 618.96 -2 620 C-11.25 626 -11.25 626 -16 626 C-16.16 626.62 -16.33 627.24 -16.5 627.88 C-18.54 630.77 -20.65 630.7 -23.98 631.38 C-27.11 632.35 -28.78 634.66 -31 637 C-34.44 638.63 -34.44 638.63 -38 640 C-39.03 640.52 -40.06 641.03 -41.12 641.56 C-44 643 -44 643 -46.62 644 C-49.02 644.88 -49.02 644.88 -50.81 646.44 C-53.46 648.33 -56.12 649.23 -59.2 650.25 C-61.21 650.95 -61.21 650.95 -63 653 C-65.06 653.49 -65.06 653.49 -67.44 653.88 C-71.04 654.47 -71.04 654.47 -73.5 657 C-75.72 659.97 -78.39 659.89 -81.94 660.41 C-84.38 660.87 -84.38 660.87 -86 664 C-88.25 664.81 -88.25 664.81 -91 665.44 C-95.79 666.63 -100.22 668.19 -104.77 670.09 C-106.65 670.86 -108.57 671.5 -110.5 672.12 C-113.13 672.84 -113.13 672.84 -115 675 C-117.04 675.71 -119.11 676.34 -121.19 676.94 C-126.57 678.52 -126.57 678.52 -131.75 680.62 C-135.04 682.02 -138.09 682.75 -141.59 683.38 C-144.2 684.05 -146.53 685.09 -148.99 686.18 C-152.84 687.75 -156.83 688.88 -160.81 690.06 C-161.65 690.32 -162.49 690.57 -163.35 690.84 C-168.47 692.37 -173.51 693.54 -178.78 694.37 C-181.37 695.1 -182.87 696.38 -185 698 C-188.57 698.61 -192.03 698.94 -195.64 699.17 C-196.96 699.27 -196.96 699.27 -198.31 699.38 C-199.13 699.42 -199.95 699.47 -200.8 699.52 C-203.43 700.09 -204.17 701.11 -206 703 C-208.33 703.04 -210.67 703.04 -213 703 C-213.78 703.33 -214.57 703.66 -215.38 704 C-218.68 705.26 -221.42 705.07 -224.91 704.88 C-227.31 704.84 -227.31 704.84 -230 707 C-233.96 704.41 -237.2 701.95 -240.24 698.32 C-244 693.94 -248.02 689.87 -252.12 685.81 C-252.81 685.13 -253.5 684.44 -254.21 683.74 C-255.55 682.41 -256.88 681.09 -258.21 679.77 C-260.48 677.52 -262.74 675.26 -265 673 C-265.61 672.39 -266.22 671.78 -266.84 671.16 C-268 670 -269.16 668.84 -270.32 667.68 C-271.68 666.32 -273.06 664.97 -274.44 663.62 C-276.66 661.35 -278.73 659.02 -280.81 656.62 C-283.97 653.03 -287.29 649.95 -290.95 646.87 C-293.26 644.76 -295.26 642.49 -297.31 640.12 C-300.34 636.69 -303.39 633.76 -307 630.94 C-314.66 624.89 -321.36 617.82 -328.17 610.85 C-329.75 609.25 -331.36 607.68 -332.97 606.12 C-335.1 603.89 -335.31 602.87 -336 600 C-337.33 599.33 -338.67 598.66 -340 598 C-341.52 596.6 -341.52 596.6 -342.95 594.99 C-343.49 594.4 -344.02 593.81 -344.57 593.2 C-345.12 592.58 -345.68 591.95 -346.25 591.31 C-350.37 586.77 -354.47 582.42 -359.22 578.53 C-361.61 576.48 -363.78 574.23 -366 572 C-367.39 570.61 -368.77 569.23 -370.16 567.84 C-401.84 536.16 -401.84 536.16 -404.04 533.96 C-405.23 532.76 -406.44 531.58 -407.65 530.42 C-410.95 527.25 -410.95 527.25 -411.5 524.5 C-411 522 -411 522 -409.54 519.85 C-407.61 516.28 -407.25 512.9 -406.88 508.94 C-405.85 499.11 -405.85 499.11 -405 497 C-404.01 496.67 -403.02 496.34 -402 496 C-401.88 494.91 -401.76 493.83 -401.63 492.71 C-401.46 491.27 -401.29 489.82 -401.12 488.38 C-401.05 487.66 -400.97 486.95 -400.89 486.21 C-400.37 481.91 -399.51 478.09 -398 474 C-397.49 472.38 -396.99 470.75 -396.5 469.12 C-396.26 468.34 -396.03 467.56 -395.78 466.76 C-395.16 464.56 -394.59 462.35 -394.05 460.14 C-392.36 453.33 -390.15 446.67 -388 440 C-387.75 439.21 -387.49 438.42 -387.23 437.61 C-386.45 435.19 -385.67 432.78 -384.88 430.38 C-384.63 429.63 -384.39 428.88 -384.14 428.12 C-383.06 424.85 -381.93 421.86 -380.38 418.77 C-378.76 415.53 -378.21 412.59 -377.62 409.05 C-376.89 406.63 -375.79 405.74 -374 404 C-373.53 402.15 -373.07 400.3 -372.65 398.44 C-370.85 391.69 -367.82 385.26 -364.31 379.25 C-362.64 376.38 -361.59 373.87 -360.88 370.62 C-360 367 -360 367 -358.54 365.55 C-356.64 363.64 -356.22 362.08 -355.5 359.5 C-354.54 356.06 -353.5 354.5 -351 352 C-350.83 350.85 -350.67 349.69 -350.5 348.5 C-350 345 -350 345 -348.56 343.06 C-347 342 -347 342 -345 342 C-344.97 341.39 -344.95 340.77 -344.92 340.14 C-344.75 337.7 -344.53 335.39 -344 333 C-342.7 331.95 -341.37 330.95 -340 330 C-339.38 327.95 -339 325.95 -338.69 323.84 C-338 322 -338 322 -336.04 321.03 C-333.83 320.18 -333.83 320.18 -333.06 317.98 C-332.85 317.2 -332.65 316.42 -332.44 315.62 C-331.41 312.14 -330.32 309.83 -328 307 C-327.5 305.76 -327.5 305.76 -327 304.5 C-325.97 301.93 -324.65 300.2 -323 298 C-322.69 297.15 -322.38 296.31 -322.06 295.44 C-321 293 -321 293 -319.06 291.62 C-316.11 289.3 -315.39 286.45 -314 283 C-313.01 281.66 -312.01 280.32 -311 279 C-310.69 278.15 -310.38 277.31 -310.06 276.44 C-309 274 -309 274 -307 272.56 C-304.3 270.45 -304.04 268.19 -303 265 C-302.01 264.67 -301.02 264.34 -300 264 C-299.94 263.11 -299.88 262.23 -299.81 261.31 C-298.8 257.2 -297.06 255.84 -294 253 C-292.99 251.34 -291.99 249.67 -291 248 C-289.27 245.72 -287.49 243.47 -285.71 241.22 C-284.28 239.36 -282.99 237.49 -281.75 235.5 C-280 233 -280 233 -277 232 C-276.33 230 -275.66 228 -275 226 C-272.98 223.18 -272.98 223.18 -270.62 220.44 C-269.85 219.53 -269.08 218.62 -268.29 217.68 C-267.53 216.8 -266.78 215.91 -266 215 C-265.29 214.06 -264.57 213.13 -263.84 212.16 C-263.23 211.45 -262.62 210.73 -262 210 C-261.34 210 -260.68 210 -260 210 C-259.74 209.27 -259.48 208.53 -259.21 207.78 C-257.07 202.87 -253.42 199.08 -250 195 C-249.53 194.44 -249.06 193.88 -248.58 193.3 C-243.25 186.94 -237.9 180.68 -231.92 174.92 C-230.13 173.13 -228.48 171.28 -226.84 169.35 C-222.71 164.6 -218.3 160.16 -213.85 155.71 C-212.99 154.85 -212.13 154 -211.24 153.11 C-209.44 151.3 -207.63 149.5 -205.82 147.69 C-203.07 144.95 -200.33 142.19 -197.58 139.44 C-195.82 137.68 -194.05 135.92 -192.29 134.15 C-191.47 133.34 -190.66 132.52 -189.83 131.69 C-185.58 127.46 -181.26 123.38 -176.71 119.48 C-175.12 118.11 -173.58 116.7 -172.05 115.26 C-166.58 110.12 -161.01 105.35 -155.01 100.85 C-150.76 97.64 -146.71 94.24 -142.69 90.75 C-136.41 85.31 -130.16 80.26 -123 76 C-120.26 73.89 -117.63 71.68 -115 69.44 C-110.81 66.03 -104.59 61 -99 61 C-98.69 59.86 -98.69 59.86 -98.38 58.69 C-96.57 55.16 -94.56 54.56 -91 53 C-90.34 52.34 -89.68 51.68 -89 51 C-88.05 50.73 -87.1 50.46 -86.12 50.19 C-82.43 48.78 -81.37 47.08 -79 44 C-77.68 43.63 -76.34 43.29 -75 43 C-74.38 42.36 -73.76 41.72 -73.12 41.06 C-70.57 38.59 -68.34 38.11 -65 37 C-64.32 36.3 -63.64 35.6 -62.94 34.88 C-61 33 -61 33 -58.25 32.75 C-57.51 32.83 -56.76 32.91 -56 33 C-55.65 32.06 -55.65 32.06 -55.29 31.1 C-53.63 28.4 -52.46 28.21 -49.44 27.44 C-47.04 26.88 -47.04 26.88 -45 26 C-44.67 25.01 -44.34 24.02 -44 23 C-42.02 22.54 -40.04 22.08 -38.05 21.67 C-35.67 21.06 -35.67 21.06 -33.38 18.38 C-31 16 -31 16 -27.69 15.69 C-26.8 15.79 -25.91 15.89 -25 16 C-24.54 15.04 -24.54 15.04 -24.06 14.06 C-23 12 -23 12 -22 11 C-20.91 10.92 -19.81 10.84 -18.69 10.75 C-14.87 10.39 -14.87 10.39 -13.06 7.5 C-11 5 -11 5 -9.09 4.59 C-8.38 4.54 -7.67 4.49 -6.94 4.44 C-2.98 4.46 -2.98 4.46 -1.31 1.94 C-0.88 1.3 -0.45 0.66 0 0 Z " fill="#FCFCFC" transform="translate(799,188)"/>
<path d="M0 0 C0.81 0.02 1.62 0.03 2.45 0.05 C6.44 0.28 8.42 0.52 11.56 3.12 C12.77 4.55 12.77 4.55 14 6 C15.08 6.96 16.19 7.9 17.3 8.83 C23.07 13.83 28.39 19.28 33.77 24.7 C35.73 26.67 37.69 28.64 39.65 30.6 C43.81 34.77 47.97 38.95 52.12 43.12 C56.95 47.97 61.78 52.82 66.61 57.67 C68.54 59.6 70.46 61.53 72.38 63.47 C73.56 64.66 74.75 65.85 75.94 67.04 C76.46 67.57 76.99 68.1 77.53 68.65 C80.87 71.98 84.36 75 88 78 C92.48 82.92 95.62 87.82 98 94 C98.84 95.18 98.84 95.18 99.69 96.38 C101.59 100.18 101.55 103.82 101 108 C100.7 108.76 100.39 109.52 100.08 110.3 C98.72 113.7 98.08 117.16 97.44 120.75 C97.24 121.81 97.24 121.81 97.04 122.9 C96.35 126.7 95.81 130.46 95.5 134.31 C95 138 95 138 93.56 139.32 C91.25 141.81 91.14 144.31 90.56 147.62 C89.55 152.82 88.24 157.18 85.91 161.9 C84.62 164.87 84.1 167.88 83.59 171.05 C82.87 173.41 81.74 174.29 80 176 C79.18 177.92 79.18 177.92 78.62 180.06 C77.29 184.35 75.53 188.19 73.46 192.17 C72.35 194.32 71.28 196.47 70.23 198.64 C69.92 199.27 69.61 199.9 69.3 200.54 C68.41 202.36 67.53 204.18 66.65 206 C65.24 208.57 64.08 210.03 62 212 C61.67 213.01 61.34 214.02 61 215.06 C60 218 60 218 57 220 C55.89 221.78 55.89 221.78 55 223.81 C54.66 224.53 54.32 225.24 53.96 225.98 C53.65 226.64 53.33 227.31 53 228 C50.84 232.04 48.23 234.77 45 238 C43.99 239.66 42.99 241.33 42 243 C37.56 249.18 32.55 254.8 27.39 260.39 C25.46 262.5 23.59 264.63 21.75 266.81 C13.9 275.84 5.18 284.33 -4 292 C-5.21 293.04 -6.42 294.08 -7.62 295.12 C-8.75 296.08 -9.87 297.04 -11 298 C-11.54 298.47 -12.08 298.93 -12.63 299.41 C-15.31 301.71 -17.83 303.47 -21 305 C-21.71 305.71 -21.71 305.71 -22.44 306.44 C-24 308 -24 308 -26.56 309.5 C-29.25 310.92 -29.25 310.92 -31 314 C-33.31 315.05 -35.65 316.04 -38 317 C-41.07 318.61 -43 320 -45.38 322.56 C-48.48 325.45 -50.96 325.9 -55 327 C-55.66 327.68 -56.32 328.36 -57 329.06 C-59 331 -59 331 -62.5 331.44 C-66.16 331.62 -66.16 331.62 -67.94 334.5 C-70 337 -70 337 -71.91 337.41 C-72.62 337.46 -73.33 337.51 -74.06 337.56 C-75.36 337.71 -76.66 337.85 -78 338 C-78.43 338.63 -78.86 339.25 -79.31 339.89 C-81.75 342.94 -84.26 343.2 -88 344.12 C-93.27 345.44 -93.27 345.44 -98 348 C-99.89 348.47 -101.78 348.94 -103.68 349.38 C-106.08 350.02 -108.31 350.85 -110.62 351.75 C-126.47 357.6 -142.91 361.01 -159.56 363.61 C-161.35 363.9 -163.14 364.2 -164.93 364.51 C-184.63 367.63 -204.8 367.54 -224.62 366.12 C-226.32 366.01 -226.32 366.01 -228.04 365.89 C-233.31 365.47 -238.07 365.05 -243 363 C-243.79 362.7 -244.57 362.41 -245.38 362.11 C-250.24 360.06 -253.46 358.02 -257 354 C-257.49 353.58 -257.97 353.16 -258.47 352.73 C-263 348.76 -264.13 345.45 -264.81 339.56 C-264.98 338.34 -264.98 338.34 -265.15 337.09 C-266.45 326.79 -266.82 316.38 -267 306 C-267.02 305.04 -267.04 304.09 -267.05 303.1 C-267.13 295.63 -266.65 288.26 -266 280.81 C-265.21 271.98 -265.21 271.98 -265.03 263.12 C-265.07 259.32 -264.51 255.95 -263.56 252.25 C-263.3 251.18 -263.03 250.12 -262.75 249.02 C-262.51 248.02 -262.26 247.03 -262 246 C-261.33 242.73 -260.71 239.45 -260.1 236.17 C-259.75 234.36 -259.41 232.56 -259.06 230.75 C-258.81 229.37 -258.81 229.37 -258.55 227.95 C-258.38 227.08 -258.21 226.2 -258.04 225.3 C-257.88 224.5 -257.73 223.7 -257.58 222.87 C-257.39 222.25 -257.2 221.64 -257 221 C-256.34 220.67 -255.68 220.34 -255 220 C-255.06 218.86 -255.06 218.86 -255.12 217.69 C-255 215 -255 215 -253 212 C-252.41 210.09 -252.41 210.09 -252 208.06 C-251.53 205.88 -251.06 204.11 -250.02 202.12 C-248.3 198.55 -247.77 194.65 -246.98 190.78 C-245.84 187.55 -244.7 186.95 -242 185 C-241.27 182.68 -241 180.47 -240.69 178.06 C-240.46 177.38 -240.23 176.7 -240 176 C-239.33 175.67 -238.66 175.34 -237.97 175 C-237.32 174.67 -236.67 174.34 -236 174 C-235.45 171.91 -235.45 171.91 -235.5 169.56 C-235.34 167.1 -235.34 167.1 -235 165 C-233.7 163.96 -232.36 162.96 -231 162 C-230.1 159.71 -229.44 157.43 -228.81 155.06 C-228 153 -228 153 -225 151 C-224.02 149.12 -224.02 149.12 -223.25 146.94 C-221.34 142.35 -218.73 138.95 -215.6 135.13 C-214.13 133.17 -213.24 131.52 -212.38 129.25 C-210.79 125.51 -208.88 123.84 -206 121 C-204.18 118.84 -202.47 116.61 -200.75 114.38 C-199.77 113.12 -198.8 111.87 -197.82 110.62 C-196.13 108.45 -194.43 106.27 -192.74 104.1 C-188.05 98.2 -183.01 92.83 -177.6 87.59 C-175.04 85.09 -172.62 82.6 -170.36 79.82 C-168.31 77.37 -166.49 75.62 -163.94 73.75 C-160.15 70.9 -156.49 67.93 -152.88 64.88 C-149.6 62.12 -146.33 59.44 -142.81 57 C-139.95 55.3 -139.95 55.3 -139 53 C-137 52 -135 51 -133 50 C-132.26 49.23 -132.26 49.23 -131.5 48.44 C-130 47 -130 47 -127.12 46.12 C-123.39 44.78 -121.74 42.81 -119 40 C-117.35 39.29 -115.68 38.62 -114 38 C-113.55 37.53 -113.09 37.05 -112.62 36.56 C-110.7 34.71 -108.68 33.93 -106.22 32.95 C-103.42 31.75 -100.72 30.38 -98 29 C-92.87 26.41 -87.75 24.05 -82.38 22 C-79.94 21.06 -79.94 21.06 -77.69 19.5 C-74.91 17.95 -72.32 17.29 -69.23 16.59 C-65.89 15.7 -62.78 14.33 -59.59 13.01 C-56.17 11.68 -52.7 10.66 -49.17 9.65 C-46.91 9.01 -46.91 9.01 -44.44 7.94 C-41.43 6.78 -38.42 6.17 -35.27 5.5 C-31.28 4.62 -27.38 3.59 -23.62 1.98 C-16.36 -0.73 -7.66 -0.26 0 0 Z " fill="#000100" transform="translate(337,846)"/>
<path d="M0 0 C3.01 0.01 6.03 0.01 9.04 0.01 C24.76 0.01 40.43 0.15 56.12 1.2 C61.45 13.75 60.59 27.92 60.81 41.32 C60.83 42.4 60.85 43.48 60.87 44.59 C61.12 58.59 61.19 72.57 60.75 86.57 C60.72 87.25 60.7 87.93 60.68 88.63 C59.96 110.52 59.96 110.52 58.12 114.2 C57.91 116.11 57.75 118.03 57.62 119.95 C57.54 121.11 57.46 122.28 57.37 123.48 C57.29 124.71 57.21 125.93 57.12 127.2 C55.56 149.78 55.56 149.78 54.18 156.32 C54.03 157.07 53.88 157.81 53.72 158.58 C53.23 160.71 52.68 162.83 52.12 164.94 C51.01 169.33 50.5 173.7 50.06 178.2 C49.82 180.46 49.59 182.72 49.35 184.99 C49.2 186.47 49.05 187.95 48.91 189.43 C48.53 193.07 48.19 195.1 46.12 198.2 C45.72 200.04 45.39 201.89 45.12 203.76 C44.5 207.73 43.88 211.69 43.12 215.63 C42.98 216.39 42.83 217.16 42.68 217.94 C42.12 220.2 42.12 220.2 41.11 222.55 C39.91 225.75 39.61 228.73 39.25 232.13 C38.52 237.73 37.23 240.52 34.12 245.2 C33.74 247.37 33.44 249.56 33.18 251.76 C32.31 259.16 29.97 265.36 27.12 272.2 C24.42 279.36 22.75 286.72 21.12 294.2 C15.04 294.2 9.78 287.95 5.56 283.88 C3.12 281.2 3.12 281.2 3.12 279.2 C2.26 278.82 2.26 278.82 1.38 278.44 C-1.19 277.02 -2.9 275.42 -4.97 273.34 C-6.19 272.13 -6.19 272.13 -7.43 270.9 C-8.32 270 -9.2 269.11 -10.12 268.19 C-11.07 267.24 -12.03 266.28 -12.98 265.33 C-15.61 262.71 -18.23 260.08 -20.84 257.45 C-23.67 254.61 -26.5 251.79 -29.33 248.96 C-34.23 244.05 -39.13 239.14 -44.02 234.23 C-51.1 227.13 -58.19 220.04 -65.28 212.95 C-76.78 201.44 -88.27 189.92 -99.77 178.41 C-100.45 177.72 -101.14 177.03 -101.85 176.32 C-102.54 175.63 -103.23 174.94 -103.94 174.22 C-113.71 164.43 -123.48 154.64 -133.25 144.86 C-133.94 144.17 -134.63 143.48 -135.34 142.77 C-146.79 131.29 -158.25 119.82 -169.71 108.35 C-176.78 101.28 -183.85 94.19 -190.92 87.11 C-195.75 82.26 -200.59 77.41 -205.44 72.56 C-208.23 69.77 -211.03 66.96 -213.82 64.16 C-216.38 61.6 -218.93 59.04 -221.49 56.48 C-222.86 55.11 -224.23 53.74 -225.59 52.36 C-226.8 51.15 -226.8 51.15 -228.04 49.92 C-228.74 49.22 -229.43 48.52 -230.15 47.8 C-231.8 46.12 -231.8 46.12 -233.88 45.2 C-233.88 43.55 -233.88 41.9 -233.88 40.2 C-229 38.33 -224.1 36.57 -219.14 34.94 C-217.71 34.47 -216.29 33.98 -214.87 33.48 C-209.25 31.5 -203.53 30.06 -197.73 28.73 C-194.42 27.94 -191.55 27.05 -188.41 25.67 C-184.46 24.02 -180.77 23.29 -176.57 22.63 C-171.24 22.02 -171.24 22.02 -166.88 19.2 C-164.23 18.63 -161.62 18.17 -158.94 17.76 C-154.04 16.96 -149.27 16.13 -144.5 14.7 C-138.77 13.02 -132.95 12.2 -127.05 11.32 C-122.35 10.62 -117.76 9.75 -113.13 8.63 C-106.04 7.04 -98.96 6.52 -91.74 5.96 C-86.38 5.54 -81.11 5 -75.81 4.11 C-50.74 -0.05 -25.34 -0.12 0 0 Z " fill="#FCFCFC" transform="translate(1103.8799438476563,118.80438232421875)"/>
<path d="M0 0 C0.83 -0 1.67 -0.01 2.53 -0.02 C5.29 -0.03 8.06 -0.04 10.83 -0.04 C12.75 -0.05 14.66 -0.05 16.58 -0.06 C20.61 -0.07 24.63 -0.08 28.66 -0.08 C33.82 -0.08 38.98 -0.11 44.14 -0.14 C48.11 -0.16 52.07 -0.16 56.03 -0.16 C57.94 -0.17 59.84 -0.17 61.74 -0.19 C64.4 -0.2 67.06 -0.2 69.72 -0.2 C70.51 -0.2 71.3 -0.21 72.12 -0.22 C77.42 -0.18 77.42 -0.18 79.95 1.52 C80.93 3.16 80.93 3.16 80.8 5.72 C79.93 8.16 79.93 8.16 76.93 10.16 C75.88 12.47 74.88 14.81 73.93 17.16 C71.81 21.19 69.23 24.04 65.93 27.16 C64.54 28.33 64.54 28.33 64.61 31.6 C64.39 32.77 64.16 33.95 63.93 35.16 C62.6 35.84 61.27 36.51 59.93 37.16 C59.21 39.48 58.54 41.81 57.93 44.16 C56.93 45.17 55.93 46.17 54.93 47.16 C53.86 49.19 53.86 49.19 52.99 51.41 C51.23 55.54 49.22 59.3 46.93 63.16 C43.96 68.19 41.37 73.3 38.93 78.6 C36.66 83.48 34.35 88.33 31.93 93.14 C30.18 96.66 28.53 100.22 26.86 103.79 C26.19 105.24 25.51 106.69 24.83 108.14 C24.51 108.82 24.19 109.51 23.86 110.22 C23.02 111.97 22.13 113.7 21.24 115.42 C20.09 117.83 19.42 119.81 18.93 122.41 C17.93 126.16 17.93 126.16 14.93 128.16 C14.08 130.47 14.08 130.47 13.55 133.16 C12.31 138.2 10.47 142.37 7.91 146.87 C6.79 149.47 6.74 151.36 6.93 154.16 C6.29 154.34 5.65 154.51 4.99 154.69 C2.54 156.08 2.54 156.08 2.2 159.57 C2.07 160.93 1.96 162.3 1.86 163.66 C1.67 166.22 1.37 168.62 0.93 171.16 C-0.06 171.82 -1.05 172.48 -2.07 173.16 C-3.06 175.9 -3.06 175.9 -3.7 179.04 C-3.94 180.09 -4.18 181.13 -4.43 182.22 C-4.64 183.19 -4.85 184.16 -5.07 185.16 C-5.4 186.5 -5.73 187.83 -6.07 189.16 C-6.73 189.16 -7.39 189.16 -8.07 189.16 C-8.18 189.95 -8.29 190.73 -8.41 191.54 C-9.32 197.57 -10.55 202.58 -13.07 208.16 C-13.64 210.32 -14.09 212.49 -14.54 214.68 C-15.15 217.51 -15.84 220.3 -16.57 223.1 C-16.81 224.02 -17.05 224.93 -17.29 225.88 C-18.07 228.16 -18.07 228.16 -20.07 230.16 C-22.91 230.35 -25.64 230.42 -28.48 230.4 C-29.36 230.4 -30.24 230.41 -31.14 230.41 C-34.11 230.41 -37.07 230.4 -40.04 230.39 C-42.16 230.39 -44.27 230.39 -46.39 230.39 C-52.16 230.39 -57.93 230.38 -63.69 230.36 C-69.71 230.35 -75.73 230.35 -81.75 230.35 C-93.16 230.34 -104.57 230.33 -115.98 230.31 C-128.96 230.28 -141.94 230.27 -154.93 230.26 C-181.64 230.24 -208.36 230.21 -235.07 230.16 C-235.4 229.17 -235.73 228.18 -236.07 227.16 C-173.83 164.91 -111.58 102.67 -16.98 8.07 C-15.81 6.9 -14.64 5.72 -13.48 4.53 C-9.07 0.03 -6.12 0.01 0 0 Z " fill="#FBFBFB" transform="translate(356.073974609375,421.8388671875)"/>
<path d="M0 0 C1.48 2.96 1.17 5.97 1.19 9.22 C1.21 10.33 1.21 10.33 1.22 11.47 C1.24 13.93 1.26 16.4 1.27 18.86 C1.28 19.7 1.28 20.55 1.29 21.41 C1.32 25.87 1.34 30.32 1.35 34.77 C1.37 39.37 1.41 43.97 1.46 48.57 C1.5 52.11 1.51 55.65 1.51 59.19 C1.52 60.88 1.54 62.58 1.56 64.27 C1.59 66.65 1.59 69.02 1.58 71.4 C1.6 72.09 1.62 72.79 1.63 73.51 C1.58 77.34 1.11 78.87 -1.38 81.85 C-3.9 83.92 -6.45 85.96 -9 88 C-10.68 89.66 -12.34 91.32 -14 93 C-15.17 94.17 -16.35 95.35 -17.52 96.52 C-18.51 97.51 -18.51 97.51 -19.52 98.51 C-20.23 99.22 -20.94 99.93 -21.67 100.66 C-23.26 102.25 -24.84 103.84 -26.43 105.42 C-27.28 106.27 -28.13 107.11 -29 107.98 C-47.88 126.85 -66.76 145.71 -85.63 164.58 C-88.42 167.37 -91.21 170.16 -94 172.94 C-94.55 173.5 -95.11 174.05 -95.68 174.62 C-104.68 183.62 -113.68 192.61 -122.68 201.61 C-131.93 210.84 -141.18 220.09 -150.42 229.33 C-156.12 235.03 -161.82 240.72 -167.53 246.42 C-171.9 250.78 -176.26 255.15 -180.63 259.52 C-182.42 261.31 -184.21 263.09 -186 264.88 C-188.45 267.32 -190.89 269.77 -193.33 272.21 C-194.4 273.27 -194.4 273.27 -195.48 274.35 C-199.21 278.09 -202.67 281.9 -206 286 C-208.87 289.03 -211.9 291.79 -215.06 294.5 C-217.42 296.53 -219.29 298.36 -221.25 300.81 C-223.08 303.1 -224.39 303.81 -227 305 C-228.11 294.7 -228.17 284.45 -228.21 274.11 C-228.22 272.22 -228.23 270.34 -228.24 268.46 C-228.27 262.32 -228.29 256.18 -228.31 250.04 C-228.31 248.99 -228.32 247.95 -228.32 246.87 C-228.35 236.99 -228.38 227.1 -228.39 217.22 C-228.41 204.61 -228.46 192 -228.53 179.39 C-228.57 170.5 -228.6 161.62 -228.61 152.73 C-228.61 147.43 -228.63 142.13 -228.66 136.83 C-228.7 131.85 -228.71 126.87 -228.7 121.89 C-228.7 120.06 -228.71 118.24 -228.73 116.41 C-228.76 113.92 -228.75 111.42 -228.73 108.93 C-228.75 108.21 -228.76 107.49 -228.78 106.74 C-228.7 102.65 -227.89 100.44 -225.1 97.57 C-222.71 95.41 -220.8 94.17 -217.58 93.61 C-216.8 93.46 -216.02 93.31 -215.22 93.15 C-214.03 92.95 -214.03 92.95 -212.81 92.75 C-211.21 92.46 -209.62 92.16 -208.02 91.86 C-207.32 91.74 -206.62 91.62 -205.9 91.5 C-203.69 91.03 -203.69 91.03 -201 89 C-199.15 88.45 -199.15 88.45 -197.09 88.04 C-195.98 87.79 -195.98 87.79 -194.84 87.55 C-193.28 87.22 -191.72 86.9 -190.16 86.59 C-189.42 86.43 -188.67 86.26 -187.91 86.1 C-187.23 85.96 -186.55 85.82 -185.85 85.68 C-183.64 84.87 -182.6 83.69 -181 82 C-178.98 81.59 -178.98 81.59 -176.75 81.5 C-173.04 81.34 -170.25 80.33 -166.87 78.81 C-163.14 77.2 -159.22 76.09 -155.34 74.89 C-151.67 73.72 -149.03 72.34 -146 70 C-143.85 69.38 -143.85 69.38 -141.62 69 C-138.7 68.43 -136.71 67.85 -134 66.5 C-131.27 65.13 -129.33 64.61 -126.38 64.06 C-122.82 63.38 -122.82 63.38 -120.06 61.06 C-117.25 58.25 -114.38 57.8 -110.59 56.79 C-107.44 55.83 -104.71 54.45 -101.81 52.91 C-100 52 -100 52 -96.75 50.94 C-93.98 50.17 -93.98 50.17 -92.06 48.44 C-90 47 -90 47 -86.44 46.56 C-85.3 46.38 -84.17 46.19 -83 46 C-82.53 45.34 -82.05 44.68 -81.56 44 C-81.05 43.34 -80.53 42.68 -80 42 C-77.97 41.77 -75.94 41.55 -73.91 41.41 C-71.68 41.14 -71.68 41.14 -70 38.5 C-68 36 -68 36 -66.12 35.62 C-65.42 35.58 -64.72 35.54 -64 35.5 C-61.91 35.43 -61.91 35.43 -60 35 C-58.64 33.35 -57.31 31.69 -56 30 C-53.67 29.63 -51.34 29.3 -49 29 C-47.99 27.68 -46.99 26.34 -46 25 C-44.01 24.11 -42.02 23.44 -39.94 22.81 C-37.73 21.89 -36.65 20.69 -35 19 C-34.03 18.69 -33.06 18.38 -32.06 18.06 C-28.92 17.22 -28.92 17.22 -26.94 14.94 C-25 13 -25 13 -22.44 12.5 C-19.85 12.26 -19.85 12.26 -18.62 10.06 C-17 8 -17 8 -13.62 7.06 C-9.45 5.84 -7.9 4.15 -5 1 C-2 0 -2 0 0 0 Z " fill="#FBFBFB" transform="translate(851,851)"/>
<path d="M0 0 C8.65 6.65 16.15 15.06 23.88 22.75 C24.38 23.25 24.88 23.75 25.4 24.27 C30.83 29.67 36.06 35.14 41 41 C41.95 41.8 42.9 42.61 43.88 43.44 C46.13 46.15 46.35 46.78 46.44 50.12 C46 54 46 54 44 57 C44 58.32 44 59.64 44 61 C43.01 61.5 43.01 61.5 42 62 C41.38 63.92 41.38 63.92 41 66.19 C39.97 71.24 38.89 75.66 36 80 C35.45 82.04 35.06 84.08 34.66 86.16 C34 88 34 88 31 90 C30.39 92.13 30.39 92.13 30.12 94.5 C29.67 96.93 29.67 96.93 29 99 C26.38 100.56 26.38 100.56 24 101 C23.92 102.22 23.84 103.43 23.75 104.69 C23.24 108.85 21.86 110.89 19 114 C17.99 115.66 16.99 117.33 16 119 C15 120.33 14 121.67 13 123 C12.57 123.74 12.13 124.48 11.69 125.25 C6.16 134.25 -1.07 142.07 -8 150 C-8.79 150.9 -9.58 151.81 -10.39 152.74 C-19.22 162.69 -28.52 171.79 -39 180 C-39.77 180.62 -40.54 181.23 -41.34 181.87 C-56.08 193.53 -56.08 193.53 -62 195 C-62.6 195.78 -63.2 196.57 -63.81 197.38 C-66.05 200.06 -67.68 200.91 -70.89 202.13 C-73.47 203.19 -75.82 204.51 -78.25 205.88 C-86.14 210.23 -94.28 213.82 -102.71 217.01 C-105.09 217.97 -105.09 217.97 -107.41 219.55 C-111.16 221.65 -114.85 221.86 -119.06 222.38 C-122.03 222.83 -122.03 222.83 -124.37 224.47 C-127.79 226.46 -131.21 226.93 -135.06 227.5 C-140.25 228.33 -145.3 229.26 -150.38 230.62 C-159.22 232.91 -167.97 233.1 -177.06 233.19 C-177.91 233.2 -178.76 233.21 -179.63 233.23 C-181.75 233.23 -183.88 233.12 -186 233 C-188 231 -188 231 -188.18 229.01 C-188.15 228.2 -188.12 227.38 -188.08 226.55 C-188.05 225.63 -188.01 224.71 -187.97 223.76 C-187.92 222.77 -187.87 221.77 -187.81 220.75 C-187.74 219.22 -187.74 219.22 -187.66 217.67 C-187.25 210.34 -186.53 203.08 -185.56 195.81 C-185.44 194.89 -185.32 193.96 -185.19 193.01 C-184.6 188.88 -183.93 185.72 -182 182 C-181.68 180.2 -181.41 178.38 -181.19 176.56 C-180.28 170.64 -178.43 165.47 -176.18 159.94 C-174.86 156.66 -173.87 153.42 -173 150 C-172.34 150 -171.68 150 -171 150 C-170.89 149.34 -170.78 148.67 -170.67 147.99 C-169.77 142.99 -168.82 139.28 -166 135 C-165.48 133.66 -164.98 132.3 -164.5 130.94 C-163.38 127.81 -162.04 125.63 -160 123 C-159.5 121.8 -159.01 120.61 -158.5 119.38 C-157 116 -157 116 -154 114 C-153.32 111.67 -152.66 109.34 -152 107 C-150.56 105.38 -150.56 105.38 -149 104 C-148.53 103.17 -148.05 102.35 -147.56 101.5 C-146 99 -146 99 -143.94 97.5 C-141.82 96.12 -141.82 96.12 -141.07 93.67 C-138.1 86.27 -131.5 80.21 -126.19 74.41 C-124.24 72.27 -122.37 70.08 -120.5 67.88 C-117.29 64.19 -113.75 61.01 -110.06 57.81 C-108.45 56.39 -106.9 54.9 -105.38 53.38 C-102.39 50.39 -99.23 47.7 -96 45 C-95.14 44.27 -94.28 43.54 -93.39 42.79 C-88.13 38.41 -82.91 34.44 -77 31 C-76.07 30.4 -75.14 29.8 -74.19 29.19 C-72 28 -72 28 -69 28 C-68.83 27.38 -68.67 26.76 -68.5 26.12 C-66.68 23.55 -65.99 23.6 -63 23 C-60.86 22.61 -60.86 22.61 -59 22 C-58.67 21.34 -58.34 20.68 -58 20 C-57.67 19.34 -57.34 18.68 -57 18 C-55.01 17.48 -53.02 16.97 -51.01 16.56 C-48.11 15.75 -46.31 13.9 -44 12 C-40.14 10.35 -36.26 9.08 -32.25 7.81 C-31.59 7.59 -30.92 7.38 -30.23 7.16 C-28.89 6.72 -27.54 6.3 -26.19 5.89 C-22.46 4.72 -22.46 4.72 -19.39 2.38 C-17.3 0.3 -15.39 0.52 -12.5 0.38 C-0.74 -0.29 -0.74 -0.29 0 0 Z " fill="#FCFCFC" transform="translate(323,915)"/>
<path d="M0 0 C0 32.01 0 64.02 0 97 C-0.99 96.67 -1.98 96.34 -3 96 C-3 64.65 -3 33.3 -3 1 C-1 0 -1 0 0 0 Z " fill="#B6B6B6" transform="translate(918,834)"/>
<path d="M0 0 C4.95 2.56 8.48 6.2 12.36 10.1 C13.08 10.82 13.81 11.54 14.55 12.28 C16.93 14.65 19.3 17.03 21.68 19.41 C23.33 21.06 24.98 22.71 26.63 24.36 C30.09 27.81 33.54 31.27 36.99 34.73 C41.43 39.18 45.87 43.61 50.31 48.05 C53.72 51.45 57.13 54.86 60.53 58.27 C62.17 59.9 63.81 61.54 65.45 63.18 C67.73 65.45 70.01 67.74 72.29 70.03 C72.97 70.71 73.65 71.39 74.36 72.09 C74.97 72.71 75.59 73.33 76.22 73.97 C76.76 74.51 77.3 75.05 77.86 75.61 C79 77 79 77 79 79 C76.04 77.67 73.96 76.21 71.67 73.93 C71.04 73.29 70.4 72.66 69.74 72.01 C69.06 71.32 68.37 70.63 67.66 69.92 C66.93 69.19 66.2 68.46 65.44 67.71 C63.02 65.3 60.61 62.89 58.2 60.47 C56.53 58.79 54.85 57.12 53.18 55.45 C49.67 51.94 46.16 48.43 42.65 44.92 C38.15 40.4 33.64 35.9 29.13 31.4 C25.67 27.94 22.21 24.49 18.76 21.03 C17.1 19.36 15.43 17.7 13.77 16.04 C11.45 13.72 9.13 11.4 6.82 9.08 C6.13 8.39 5.43 7.7 4.72 6.99 C4.09 6.36 3.46 5.72 2.82 5.07 C2.27 4.53 1.72 3.98 1.16 3.41 C0 2 0 2 0 0 Z " fill="#B6B6B6" transform="translate(487,805)"/>
<path d="M0 0 C4.7 3.93 9.16 8.01 13.49 12.34 C14.39 13.24 14.39 13.24 15.32 14.17 C17.3 16.13 19.27 18.11 21.25 20.08 C22.63 21.45 24.01 22.83 25.39 24.21 C28.27 27.08 31.14 29.96 34.02 32.83 C37.71 36.52 41.41 40.21 45.11 43.9 C47.96 46.73 50.8 49.57 53.64 52.41 C55 53.77 56.37 55.13 57.73 56.49 C59.63 58.38 61.53 60.28 63.42 62.18 C63.99 62.74 64.56 63.3 65.14 63.88 C69 67.77 69 67.77 69 70 C66.22 68.73 64.17 67.42 62.01 65.25 C61.45 64.7 60.89 64.14 60.31 63.56 C59.71 62.95 59.11 62.34 58.49 61.71 C57.84 61.07 57.2 60.43 56.53 59.76 C54.41 57.64 52.29 55.5 50.17 53.37 C48.7 51.89 47.22 50.41 45.75 48.94 C41.87 45.05 38 41.16 34.13 37.27 C30.18 33.3 26.22 29.33 22.27 25.36 C14.5 17.58 6.75 9.79 -1 2 C-0.67 1.34 -0.34 0.68 0 0 Z " fill="#B6B6B6" transform="translate(405,722)"/>
<path d="M0 0 C0.66 0.33 1.32 0.66 2 1 C1.43 1.56 0.86 2.11 0.28 2.69 C-0.49 3.45 -1.27 4.21 -2.06 5 C-2.82 5.74 -3.57 6.49 -4.35 7.25 C-6.39 9.37 -8.31 11.5 -10.23 13.72 C-13.69 17.69 -17.31 21.47 -21.04 25.2 C-21.68 25.85 -22.32 26.49 -22.98 27.16 C-24.32 28.51 -25.67 29.85 -27.02 31.2 C-29.07 33.25 -31.11 35.31 -33.15 37.38 C-34.47 38.69 -35.78 40.01 -37.1 41.33 C-38 42.24 -38 42.24 -38.93 43.18 C-42.4 46.63 -45.83 49.43 -50 52 C-48.45 48.3 -46.2 45.95 -43.37 43.14 C-42.9 42.67 -42.43 42.2 -41.95 41.72 C-40.4 40.18 -38.85 38.64 -37.3 37.11 C-36.23 36.04 -35.16 34.97 -34.08 33.9 C-31.26 31.09 -28.44 28.28 -25.61 25.47 C-22.73 22.61 -19.85 19.74 -16.96 16.87 C-11.32 11.24 -5.66 5.62 0 0 Z " fill="#B6B6B6" transform="translate(570,258)"/>
<path d="M0 0 C0.66 0.66 1.32 1.32 2 2 C-12.85 16.85 -27.7 31.7 -43 47 C-43.66 46.34 -44.32 45.68 -45 45 C-30.15 30.15 -15.3 15.3 0 0 Z " fill="#B6B6B6" transform="translate(618,319)"/>
<path d="M0 0 C0 7.28 -10.57 14.73 -15.55 19.78 C-18 22 -18 22 -21 23 C-19.49 19.43 -17.39 17.16 -14.65 14.45 C-13.8 13.61 -12.95 12.76 -12.07 11.89 C-11.18 11.02 -10.29 10.15 -9.38 9.25 C-8.48 8.36 -7.58 7.47 -6.66 6.56 C-4.44 4.37 -2.22 2.18 0 0 Z " fill="#B6B6B6" transform="translate(169,915)"/>
<path d="M0 0 C3.44 1.45 5.36 3.28 7.75 6.12 C8.36 6.85 8.98 7.57 9.61 8.32 C10.3 9.15 10.3 9.15 11 10 C10.67 10.66 10.34 11.32 10 12 C8.51 10.57 7.04 9.13 5.56 7.69 C4.74 6.89 3.92 6.09 3.07 5.26 C1 3 1 3 0 0 Z " fill="#515251" transform="translate(495,822)"/>
<path d="M0 0 C3.44 1.45 5.36 3.28 7.75 6.12 C8.36 6.85 8.98 7.57 9.61 8.32 C10.3 9.15 10.3 9.15 11 10 C10.67 10.66 10.34 11.32 10 12 C8.51 10.57 7.04 9.13 5.56 7.69 C4.74 6.89 3.92 6.09 3.07 5.26 C1 3 1 3 0 0 Z " fill="#515251" transform="translate(444,771)"/>
</svg>
