<svg xmlns="http://www.w3.org/2000/svg" width="1535" height="997" fill="none"><path fill="#243" d="M0 0h485v996H0z"/><path fill="#AEF900" d="M122.662 66.435h-3.188a3.954 3.954 0 0 0-.502-1.39 3.758 3.758 0 0 0-.912-1.04 3.806 3.806 0 0 0-1.245-.638 4.851 4.851 0 0 0-1.491-.222c-.949 0-1.79.238-2.523.716-.733.471-1.307 1.165-1.721 2.08-.415.908-.623 2.02-.623 3.332 0 1.335.208 2.46.623 3.375.42.909.994 1.596 1.721 2.062.733.46 1.571.69 2.514.69.523 0 1.012-.068 1.466-.204a4.02 4.02 0 0 0 1.236-.622 3.78 3.78 0 0 0 1.457-2.37l3.188.018a6.852 6.852 0 0 1-.776 2.335 6.889 6.889 0 0 1-1.542 1.926 7.125 7.125 0 0 1-2.233 1.295c-.852.307-1.798.46-2.838.46-1.534 0-2.904-.355-4.108-1.065-1.205-.71-2.154-1.736-2.847-3.076-.693-1.341-1.04-2.95-1.04-4.824 0-1.881.35-3.489 1.049-4.824.699-1.341 1.65-2.367 2.855-3.077 1.204-.71 2.568-1.065 4.091-1.065.971 0 1.875.136 2.71.409a6.94 6.94 0 0 1 2.233 1.202 6.41 6.41 0 0 1 1.611 1.926c.426.755.704 1.62.835 2.59zm8.469 11.82c-1.278 0-2.386-.28-3.323-.843-.938-.563-1.665-1.35-2.182-2.36-.512-1.012-.767-2.194-.767-3.546 0-1.353.255-2.537.767-3.554.517-1.017 1.244-1.807 2.182-2.37.937-.562 2.045-.843 3.323-.843 1.279 0 2.387.28 3.324.843.938.563 1.662 1.353 2.174 2.37.517 1.017.775 2.201.775 3.554 0 1.352-.258 2.534-.775 3.545-.512 1.011-1.236 1.798-2.174 2.36-.937.563-2.045.845-3.324.845zm.017-2.47c.694 0 1.273-.191 1.739-.572.466-.386.813-.903 1.04-1.551.233-.648.349-1.37.349-2.165 0-.801-.116-1.525-.349-2.173-.227-.653-.574-1.173-1.04-1.56-.466-.386-1.045-.58-1.739-.58-.71 0-1.301.194-1.772.58-.466.387-.816.907-1.049 1.56-.227.648-.34 1.372-.34 2.173 0 .796.113 1.517.34 2.165.233.648.583 1.165 1.049 1.551.471.38 1.062.571 1.772.571zm13.733 2.445c-1.029 0-1.949-.264-2.762-.793-.812-.528-1.454-1.295-1.926-2.3-.471-1.006-.707-2.228-.707-3.665 0-1.455.238-2.682.716-3.682.483-1.006 1.133-1.764 1.951-2.276a5.02 5.02 0 0 1 2.736-.775c.767 0 1.398.13 1.892.392.495.255.887.565 1.176.929.29.358.515.696.674 1.014h.128v-6.529h3.093V78h-3.034v-2.063h-.187a5.28 5.28 0 0 1-.691 1.015c-.301.352-.699.653-1.193.903-.494.25-1.116.375-1.866.375zm.86-2.531c.654 0 1.211-.176 1.671-.528.46-.359.81-.856 1.048-1.492.239-.636.358-1.378.358-2.225 0-.846-.119-1.582-.358-2.207-.233-.625-.579-1.11-1.04-1.457-.454-.347-1.014-.52-1.679-.52-.687 0-1.261.179-1.721.537-.46.358-.807.852-1.04 1.483-.233.63-.349 1.352-.349 2.164 0 .819.116 1.549.349 2.19.239.637.588 1.14 1.048 1.51.466.363 1.037.545 1.713.545zM155.14 78V64.91h3.085V78h-3.085zm1.551-14.949c-.489 0-.909-.162-1.261-.486-.353-.33-.529-.724-.529-1.184 0-.466.176-.861.529-1.185a1.78 1.78 0 0 1 1.261-.494c.494 0 .915.165 1.261.494.353.324.529.719.529 1.185 0 .46-.176.855-.529 1.184a1.779 1.779 0 0 1-1.261.486zm11.337 1.858v2.386h-7.738V64.91h7.738zM162.224 78V63.673c0-.88.182-1.613.546-2.199a3.452 3.452 0 0 1 1.483-1.312c.619-.29 1.307-.435 2.062-.435.534 0 1.009.043 1.424.128.414.085.721.162.92.23l-.614 2.387a5.24 5.24 0 0 0-.494-.12 2.985 2.985 0 0 0-.665-.068c-.574 0-.98.14-1.218.418-.233.272-.35.665-.35 1.176V78h-3.094zm10.138 4.91c-.42 0-.809-.035-1.167-.103a4.303 4.303 0 0 1-.844-.222l.716-2.403c.449.13.849.193 1.201.187.353-.005.662-.116.929-.332.273-.21.503-.563.691-1.057l.264-.707-4.747-13.364h3.273l3.017 9.886h.136l3.026-9.886h3.281l-5.242 14.676a5.88 5.88 0 0 1-.971 1.782c-.404.5-.898.88-1.483 1.141-.58.268-1.273.401-2.08.401zM280.506 302v-15.273h5.728c1.173 0 2.157.219 2.953.657.8.437 1.404 1.039 1.812 1.804.413.761.619 1.626.619 2.595 0 .98-.206 1.85-.619 2.61-.413.761-1.022 1.36-1.827 1.798-.806.432-1.797.648-2.976.648h-3.795v-2.274h3.423c.686 0 1.247-.119 1.685-.358a2.26 2.26 0 0 0 .969-.984c.214-.418.321-.898.321-1.44 0-.542-.107-1.019-.321-1.431a2.167 2.167 0 0 0-.977-.962c-.437-.234-1.001-.351-1.692-.351h-2.536V302h-2.767zm18.303.224c-1.149 0-2.141-.239-2.976-.716a4.846 4.846 0 0 1-1.916-2.044c-.448-.884-.672-1.926-.672-3.124 0-1.178.224-2.213.672-3.102.452-.895 1.083-1.591 1.894-2.088.81-.503 1.762-.754 2.856-.754.706 0 1.372.115 1.999.343a4.524 4.524 0 0 1 1.67 1.044c.487.473.87 1.074 1.148 1.805.279.726.418 1.591.418 2.595v.828h-9.389v-1.82h6.801a2.897 2.897 0 0 0-.335-1.379 2.44 2.44 0 0 0-.917-.962c-.388-.234-.841-.351-1.358-.351-.552 0-1.036.135-1.454.403a2.767 2.767 0 0 0-.977 1.044 3 3 0 0 0-.35 1.409v1.589c0 .666.121 1.238.365 1.715.244.472.584.835 1.022 1.089.437.248.949.373 1.536.373.393 0 .748-.055 1.066-.164a2.37 2.37 0 0 0 .828-.5c.234-.219.41-.49.53-.813l2.52.284a3.929 3.929 0 0 1-.91 1.745c-.442.492-1.009.875-1.7 1.148-.691.268-1.481.403-2.371.403zm7.377-.224v-11.455h2.617v1.91h.12c.209-.662.567-1.171 1.074-1.529a2.954 2.954 0 0 1 1.752-.545c.149 0 .316.008.5.023.189.01.345.027.47.052v2.483a2.935 2.935 0 0 0-.545-.104 4.974 4.974 0 0 0-.708-.052c-.492 0-.935.107-1.328.32-.387.209-.693.5-.917.873a2.457 2.457 0 0 0-.336 1.29V302h-2.699zm17.379-8.427-2.461.269a1.957 1.957 0 0 0-.365-.701 1.813 1.813 0 0 0-.686-.53c-.288-.134-.641-.201-1.059-.201-.562 0-1.034.122-1.417.365-.378.244-.564.56-.559.947a.993.993 0 0 0 .365.813c.254.209.671.38 1.253.515l1.954.417c1.084.234 1.889.604 2.416 1.111.532.508.8 1.171.805 1.992a3.12 3.12 0 0 1-.633 1.909c-.413.547-.987.974-1.723 1.282-.736.309-1.581.463-2.536.463-1.402 0-2.53-.294-3.385-.88-.855-.592-1.365-1.415-1.529-2.469l2.632-.253c.12.517.373.907.761 1.171.388.263.892.395 1.514.395.641 0 1.156-.132 1.544-.395.392-.264.589-.59.589-.977 0-.328-.127-.599-.381-.813-.248-.214-.636-.378-1.163-.492l-1.954-.411c-1.098-.228-1.911-.613-2.438-1.155-.527-.547-.788-1.238-.783-2.074-.005-.706.186-1.317.574-1.834.393-.522.937-.925 1.633-1.208.701-.289 1.509-.433 2.424-.433 1.342 0 2.398.286 3.169.858.776.572 1.255 1.345 1.439 2.319zm7.469 8.651c-1.119 0-2.088-.246-2.908-.739a5.012 5.012 0 0 1-1.91-2.065c-.447-.885-.671-1.919-.671-3.103 0-1.183.224-2.219.671-3.109.453-.89 1.089-1.581 1.91-2.073.82-.493 1.789-.739 2.908-.739s2.088.246 2.908.739c.821.492 1.454 1.183 1.902 2.073.452.89.679 1.926.679 3.109 0 1.184-.227 2.218-.679 3.103a4.96 4.96 0 0 1-1.902 2.065c-.82.493-1.789.739-2.908.739zm.015-2.163c.606 0 1.113-.166 1.521-.5.408-.338.711-.79.91-1.357a5.562 5.562 0 0 0 .306-1.894c0-.701-.102-1.335-.306-1.902-.199-.571-.502-1.026-.91-1.364-.408-.338-.915-.507-1.521-.507-.622 0-1.139.169-1.551.507-.408.338-.714.793-.918 1.364a5.742 5.742 0 0 0-.298 1.902c0 .696.1 1.327.298 1.894.204.567.51 1.019.918 1.357.412.334.929.5 1.551.5zm10.464-4.773V302h-2.699v-11.455h2.58v1.947h.134a3.275 3.275 0 0 1 1.261-1.529c.581-.378 1.3-.567 2.155-.567.79 0 1.479.169 2.065.507.592.338 1.05.828 1.373 1.47.328.641.489 1.419.484 2.334V302h-2.699v-6.876c0-.765-.199-1.364-.597-1.797-.393-.432-.937-.649-1.633-.649-.472 0-.892.105-1.26.313-.363.204-.649.5-.858.888-.204.388-.306.858-.306 1.409zm13.394 6.943c-.726 0-1.38-.129-1.961-.388a3.197 3.197 0 0 1-1.373-1.163c-.333-.512-.499-1.143-.499-1.894 0-.646.119-1.181.358-1.603.238-.423.564-.761.977-1.015a4.925 4.925 0 0 1 1.394-.574 11.439 11.439 0 0 1 1.618-.291 60.029 60.029 0 0 0 1.634-.186c.417-.06.72-.149.909-.269.194-.124.291-.315.291-.574v-.045c0-.561-.166-.996-.499-1.305-.334-.308-.813-.462-1.44-.462-.661 0-1.185.144-1.573.433-.383.288-.642.628-.776 1.021l-2.52-.358c.199-.696.527-1.277.984-1.745a4.288 4.288 0 0 1 1.678-1.059 6.432 6.432 0 0 1 2.192-.358 7.15 7.15 0 0 1 1.648.194 4.613 4.613 0 0 1 1.499.642 3.21 3.21 0 0 1 1.089 1.2c.279.507.418 1.141.418 1.902V302h-2.595v-1.574h-.09a3.28 3.28 0 0 1-.693.895 3.332 3.332 0 0 1-1.112.664c-.442.164-.962.246-1.558.246zm.701-1.983c.542 0 1.012-.107 1.409-.321.398-.219.704-.507.918-.865a2.21 2.21 0 0 0 .328-1.171v-1.35c-.085.07-.229.134-.433.194a6.08 6.08 0 0 1-.671.157c-.249.044-.495.084-.738.119-.244.035-.455.065-.634.089a4.735 4.735 0 0 0-1.081.269c-.319.124-.57.298-.754.522-.184.219-.276.502-.276.85 0 .497.182.873.545 1.126.363.254.825.381 1.387.381zm10.761-13.521V302h-2.7v-15.273h2.7zM369.145 302v-11.455h2.699V302h-2.699zm1.357-13.08a1.58 1.58 0 0 1-1.104-.425 1.372 1.372 0 0 1-.462-1.037c0-.408.154-.753.462-1.036a1.56 1.56 0 0 1 1.104-.433c.433 0 .801.144 1.104.433.308.283.462.628.462 1.036 0 .403-.154.748-.462 1.037a1.559 1.559 0 0 1-1.104.425zm3.969 13.08v-1.715l5.907-7.405v-.097h-5.713v-2.238h9.016v1.842l-5.623 7.279v.097h5.817V302h-9.404zm16.684.224c-1.148 0-2.14-.239-2.975-.716a4.855 4.855 0 0 1-1.917-2.044c-.447-.884-.671-1.926-.671-3.124 0-1.178.224-2.213.671-3.102.453-.895 1.084-1.591 1.894-2.088.811-.503 1.763-.754 2.857-.754.706 0 1.372.115 1.998.343a4.528 4.528 0 0 1 1.671 1.044c.487.473.87 1.074 1.148 1.805.279.726.418 1.591.418 2.595v.828h-9.389v-1.82h6.801a2.897 2.897 0 0 0-.336-1.379 2.426 2.426 0 0 0-.917-.962c-.388-.234-.84-.351-1.357-.351-.552 0-1.037.135-1.454.403a2.767 2.767 0 0 0-.977 1.044 3.001 3.001 0 0 0-.351 1.409v1.589c0 .666.122 1.238.366 1.715a2.61 2.61 0 0 0 1.021 1.089c.438.248.95.373 1.537.373.392 0 .748-.055 1.066-.164.318-.115.594-.281.828-.5.233-.219.41-.49.529-.813l2.521.284a3.929 3.929 0 0 1-.91 1.745c-.442.492-1.009.875-1.7 1.148-.691.268-1.482.403-2.372.403zm11.662-15.497h3.124l3.737 6.757h.149l3.736-6.757h3.125l-5.556 9.576V302h-2.759v-5.697l-5.556-9.576zm18.574 15.497c-1.118 0-2.088-.246-2.908-.739a5.01 5.01 0 0 1-1.909-2.065c-.448-.885-.671-1.919-.671-3.103 0-1.183.223-2.219.671-3.109a5 5 0 0 1 1.909-2.073c.82-.493 1.79-.739 2.908-.739 1.119 0 2.088.246 2.909.739a4.95 4.95 0 0 1 1.901 2.073c.453.89.679 1.926.679 3.109 0 1.184-.226 2.218-.679 3.103a4.959 4.959 0 0 1-1.901 2.065c-.821.493-1.79.739-2.909.739zm.015-2.163c.607 0 1.114-.166 1.522-.5.407-.338.71-.79.909-1.357a5.562 5.562 0 0 0 .306-1.894c0-.701-.102-1.335-.306-1.902-.199-.571-.502-1.026-.909-1.364-.408-.338-.915-.507-1.522-.507-.621 0-1.138.169-1.551.507-.408.338-.713.793-.917 1.364-.199.567-.298 1.201-.298 1.902 0 .696.099 1.327.298 1.894.204.567.509 1.019.917 1.357.413.334.93.5 1.551.5zm15.066-2.878v-6.638h2.7V302h-2.618v-2.036h-.119a3.456 3.456 0 0 1-1.275 1.574c-.587.407-1.31.611-2.171.611-.75 0-1.414-.166-1.991-.499-.571-.339-1.019-.828-1.342-1.47-.323-.646-.485-1.426-.485-2.341v-7.294h2.7v6.876c0 .726.199 1.303.596 1.73.398.428.92.642 1.566.642.398 0 .783-.097 1.156-.291.373-.194.679-.482.918-.865.243-.388.365-.873.365-1.454zm5.476 4.817v-11.455h2.617v1.91h.119c.209-.662.567-1.171 1.074-1.529a2.958 2.958 0 0 1 1.753-.545c.149 0 .316.008.499.023.189.01.346.027.47.052v2.483a2.92 2.92 0 0 0-.544-.104 4.987 4.987 0 0 0-.709-.052c-.492 0-.934.107-1.327.32-.388.209-.694.5-.917.873a2.457 2.457 0 0 0-.336 1.29V302h-2.699zm-156.266 28h-5.176v-15.273h5.28c1.517 0 2.819.306 3.908.918 1.094.606 1.934 1.479 2.52 2.617.587 1.139.88 2.501.88 4.087 0 1.591-.295 2.958-.887 4.101a6.134 6.134 0 0 1-2.543 2.633c-1.104.611-2.431.917-3.982.917zm-2.409-2.394h2.275c1.064 0 1.951-.194 2.662-.581.711-.393 1.245-.977 1.603-1.753.358-.781.537-1.755.537-2.923 0-1.169-.179-2.138-.537-2.909-.358-.775-.887-1.354-1.588-1.737-.696-.388-1.561-.582-2.595-.582h-2.357v10.485zm15.627 2.625c-.726 0-1.38-.129-1.961-.388a3.195 3.195 0 0 1-1.372-1.163c-.334-.512-.5-1.143-.5-1.894 0-.646.119-1.181.358-1.603.239-.423.564-.761.977-1.015a4.925 4.925 0 0 1 1.394-.574 11.427 11.427 0 0 1 1.619-.291 60.351 60.351 0 0 0 1.633-.186c.417-.06.721-.149.91-.269.193-.124.29-.315.29-.574v-.045c0-.561-.166-.996-.499-1.305-.333-.308-.813-.462-1.44-.462-.661 0-1.185.144-1.573.433-.383.288-.641.628-.776 1.021l-2.52-.358c.199-.696.527-1.277.984-1.745a4.296 4.296 0 0 1 1.678-1.059 6.434 6.434 0 0 1 2.193-.358c.551 0 1.101.065 1.648.194a4.622 4.622 0 0 1 1.499.642c.452.293.815.693 1.088 1.2.279.507.418 1.141.418 1.902V330h-2.595v-1.574h-.09a3.28 3.28 0 0 1-.693.895 3.337 3.337 0 0 1-1.111.664c-.443.164-.962.246-1.559.246zm.701-1.983c.542 0 1.012-.107 1.409-.321.398-.219.704-.507.918-.865a2.21 2.21 0 0 0 .328-1.171v-1.35c-.085.07-.229.134-.433.194a6.08 6.08 0 0 1-.671.157c-.248.044-.495.084-.738.119-.244.035-.455.065-.634.089a4.735 4.735 0 0 0-1.081.269c-.318.124-.57.298-.754.522-.183.219-.275.502-.275.85 0 .497.181.873.544 1.126.363.254.825.381 1.387.381zm8.061 1.752v-11.455h2.7V330h-2.7zm1.358-13.08c-.428 0-.796-.142-1.104-.425a1.372 1.372 0 0 1-.462-1.037c0-.408.154-.753.462-1.036a1.557 1.557 0 0 1 1.104-.433c.432 0 .8.144 1.103.433.309.283.463.628.463 1.036 0 .403-.154.748-.463 1.037a1.558 1.558 0 0 1-1.103.425zm6.818-2.193V330h-2.7v-15.273h2.7zm4.454 19.568a5.44 5.44 0 0 1-1.022-.089 3.777 3.777 0 0 1-.738-.194l.626-2.103c.393.114.743.169 1.052.164.308-.005.579-.102.812-.291.239-.184.44-.492.604-.924l.232-.619-4.154-11.694h2.863l2.64 8.651h.12l2.647-8.651h2.871l-4.586 12.842a5.15 5.15 0 0 1-.85 1.559c-.353.437-.786.77-1.298.999-.507.234-1.113.35-1.819.35zm15.75-4.295v-15.273h9.933v2.32h-7.167v4.146h6.652v2.319h-6.652v4.169h7.226V330h-9.992zm12.636 0v-11.455h2.58v1.947h.135a3.034 3.034 0 0 1 1.185-1.536c.552-.373 1.211-.56 1.977-.56.775 0 1.429.189 1.961.567a2.96 2.96 0 0 1 1.133 1.529h.12a3.123 3.123 0 0 1 1.282-1.521c.607-.383 1.325-.575 2.155-.575 1.054 0 1.915.333 2.581 1 .666.666.999 1.638.999 2.915V330h-2.707v-7.271c0-.711-.189-1.23-.567-1.559-.378-.333-.84-.499-1.387-.499-.651 0-1.161.204-1.529.611-.363.403-.544.928-.544 1.574V330h-2.647v-7.383c0-.591-.179-1.064-.537-1.417-.353-.353-.816-.529-1.387-.529-.388 0-.741.099-1.059.298-.318.194-.572.47-.761.828-.189.353-.283.765-.283 1.238V330h-2.7zm22.143.231c-.726 0-1.38-.129-1.961-.388a3.203 3.203 0 0 1-1.373-1.163c-.333-.512-.499-1.143-.499-1.894 0-.646.119-1.181.358-1.603.238-.423.564-.761.977-1.015a4.925 4.925 0 0 1 1.394-.574 11.439 11.439 0 0 1 1.618-.291 60.029 60.029 0 0 0 1.634-.186c.417-.06.721-.149.909-.269.194-.124.291-.315.291-.574v-.045c0-.561-.166-.996-.499-1.305-.333-.308-.813-.462-1.44-.462-.661 0-1.185.144-1.573.433-.383.288-.641.628-.776 1.021l-2.52-.358c.199-.696.527-1.277.984-1.745a4.288 4.288 0 0 1 1.678-1.059 6.432 6.432 0 0 1 2.192-.358c.552 0 1.102.065 1.649.194a4.617 4.617 0 0 1 1.498.642 3.21 3.21 0 0 1 1.089 1.2c.279.507.418 1.141.418 1.902V330h-2.595v-1.574h-.09a3.28 3.28 0 0 1-.693.895 3.337 3.337 0 0 1-1.111.664c-.443.164-.962.246-1.559.246zm.701-1.983c.542 0 1.012-.107 1.409-.321.398-.219.704-.507.918-.865a2.21 2.21 0 0 0 .328-1.171v-1.35c-.085.07-.229.134-.433.194a6.08 6.08 0 0 1-.671.157c-.249.044-.495.084-.738.119-.244.035-.455.065-.634.089a4.735 4.735 0 0 0-1.081.269c-.319.124-.57.298-.754.522-.184.219-.276.502-.276.85 0 .497.182.873.545 1.126.363.254.825.381 1.387.381zm8.061 1.752v-11.455h2.7V330h-2.7zm1.358-13.08c-.428 0-.796-.142-1.104-.425a1.372 1.372 0 0 1-.462-1.037c0-.408.154-.753.462-1.036a1.557 1.557 0 0 1 1.104-.433c.432 0 .8.144 1.103.433.309.283.463.628.463 1.036 0 .403-.154.748-.463 1.037a1.558 1.558 0 0 1-1.103.425zm6.818-2.193V330h-2.7v-15.273h2.7zm11.829 6.846-2.461.269a1.976 1.976 0 0 0-.366-.701 1.805 1.805 0 0 0-.686-.53c-.288-.134-.641-.201-1.059-.201-.561 0-1.034.122-1.416.365-.378.244-.565.56-.56.947a.99.99 0 0 0 .366.813c.253.209.671.38 1.252.515l1.954.417c1.084.234 1.89.604 2.416 1.111.532.508.801 1.171.806 1.992a3.115 3.115 0 0 1-.634 1.909c-.413.547-.987.974-1.723 1.282-.735.309-1.581.463-2.535.463-1.402 0-2.531-.294-3.386-.88-.855-.592-1.365-1.415-1.529-2.469l2.633-.253c.119.517.373.907.761 1.171.387.263.892.395 1.513.395.642 0 1.156-.132 1.544-.395.393-.264.589-.59.589-.977a1.02 1.02 0 0 0-.38-.813c-.249-.214-.636-.378-1.163-.492l-1.954-.411c-1.099-.228-1.912-.613-2.439-1.155-.527-.547-.788-1.238-.783-2.074-.005-.706.187-1.317.574-1.834.393-.522.937-.925 1.633-1.208.701-.289 1.509-.433 2.424-.433 1.342 0 2.399.286 3.17.858.775.572 1.255 1.345 1.439 2.319zM58.442 924.293h-4.51a4.406 4.406 0 0 0-.505-1.555 3.96 3.96 0 0 0-.978-1.174 4.307 4.307 0 0 0-1.38-.742 5.296 5.296 0 0 0-1.68-.257c-1.09 0-2.042.271-2.852.814-.81.535-1.438 1.318-1.884 2.348-.447 1.023-.67 2.265-.67 3.728 0 1.503.223 2.766.67 3.789.453 1.023 1.084 1.796 1.895 2.317.81.522 1.747.783 2.811.783a5.56 5.56 0 0 0 1.658-.237 4.36 4.36 0 0 0 1.37-.69 3.98 3.98 0 0 0 .988-1.122c.268-.44.453-.941.556-1.504l4.511.021a8.158 8.158 0 0 1-.875 2.801 8.422 8.422 0 0 1-1.864 2.399c-.776.701-1.703 1.257-2.78 1.669-1.072.405-2.284.607-3.636.607-1.881 0-3.563-.425-5.046-1.277-1.476-.851-2.644-2.083-3.502-3.697-.851-1.613-1.277-3.566-1.277-5.859 0-2.3.433-4.257 1.298-5.87.865-1.614 2.039-2.843 3.522-3.687 1.483-.852 3.151-1.277 5.005-1.277 1.222 0 2.355.171 3.398.515a8.616 8.616 0 0 1 2.791 1.503 7.73 7.73 0 0 1 1.977 2.4c.515.947.845 2.032.99 3.254zm13.26 6.972v-9.083h4.386V938h-4.212v-2.873h-.165a4.67 4.67 0 0 1-1.781 2.235c-.824.562-1.83.844-3.018.844-1.057 0-1.987-.24-2.79-.721-.804-.481-1.432-1.164-1.885-2.049-.446-.886-.673-1.947-.68-3.182v-10.072h4.387v9.289c.007.934.258 1.672.752 2.214.495.542 1.157.814 1.988.814a3.16 3.16 0 0 0 1.483-.361 2.83 2.83 0 0 0 1.112-1.091c.288-.481.429-1.075.422-1.782zm21.057-4.573-4.017.248a2.07 2.07 0 0 0-.443-.927 2.349 2.349 0 0 0-.896-.67c-.363-.171-.8-.257-1.307-.257-.68 0-1.253.144-1.72.432-.467.282-.7.66-.7 1.133 0 .378.15.697.453.958.302.261.82.47 1.555.628l2.863.577c1.538.316 2.684.824 3.44 1.524.754.7 1.132 1.62 1.132 2.76 0 1.037-.305 1.946-.916 2.729-.605.783-1.435 1.394-2.493 1.833-1.05.433-2.262.649-3.635.649-2.094 0-3.762-.436-5.005-1.308-1.236-.879-1.96-2.073-2.173-3.584l4.315-.226c.13.638.446 1.126.947 1.462.502.33 1.144.494 1.926.494.77 0 1.387-.147 1.854-.442.474-.303.714-.69.72-1.164-.006-.398-.174-.724-.504-.979-.33-.26-.837-.459-1.524-.597l-2.74-.546c-1.544-.309-2.694-.844-3.45-1.606-.748-.762-1.122-1.734-1.122-2.915 0-1.016.275-1.891.824-2.626.556-.734 1.335-1.301 2.338-1.699 1.01-.398 2.19-.597 3.543-.597 1.997 0 3.57.422 4.716 1.267 1.154.844 1.826 1.994 2.019 3.449zm11.536-4.51v3.295h-9.526v-3.295h9.526zm-7.363-3.79h4.387v14.747c0 .405.062.721.185.948.124.219.296.374.515.463.227.089.488.134.783.134.206 0 .412-.017.618-.052.206-.041.364-.072.474-.092l.69 3.264c-.22.069-.529.148-.927.237a7.391 7.391 0 0 1-1.452.175c-1.058.041-1.984-.099-2.78-.422-.79-.323-1.405-.824-1.844-1.504-.44-.679-.656-1.537-.649-2.574v-15.324zm17.198 19.917c-1.6 0-2.983-.34-4.15-1.02a6.972 6.972 0 0 1-2.688-2.863c-.632-1.228-.947-2.653-.947-4.273 0-1.634.315-3.062.947-4.284.632-1.229 1.528-2.184 2.688-2.863 1.167-.687 2.55-1.03 4.15-1.03 1.6 0 2.98.343 4.14 1.03a6.867 6.867 0 0 1 2.698 2.863c.632 1.222.948 2.65.948 4.284 0 1.62-.316 3.045-.948 4.273a6.944 6.944 0 0 1-2.698 2.863c-1.16.68-2.54 1.02-4.14 1.02zm.021-3.398c.727 0 1.335-.206 1.823-.618.487-.419.854-.989 1.101-1.71.254-.721.381-1.541.381-2.461 0-.92-.127-1.741-.381-2.461-.247-.721-.614-1.291-1.101-1.71-.488-.419-1.096-.628-1.823-.628-.735 0-1.353.209-1.854.628-.494.419-.868.989-1.122 1.71-.248.72-.371 1.541-.371 2.461 0 .92.123 1.74.371 2.461.254.721.628 1.291 1.122 1.71.501.412 1.119.618 1.854.618zM124.768 938v-15.818h4.181v2.791h.186c.329-.927.879-1.658 1.647-2.194.769-.535 1.689-.803 2.76-.803 1.085 0 2.009.271 2.771.813.762.536 1.27 1.264 1.524 2.184h.165c.322-.907.906-1.631 1.75-2.173.852-.55 1.857-.824 3.018-.824 1.476 0 2.674.47 3.594 1.411.927.933 1.39 2.258 1.39 3.975V938h-4.377v-9.773c0-.879-.233-1.538-.7-1.977-.467-.44-1.05-.659-1.751-.659-.796 0-1.417.254-1.864.762-.446.501-.669 1.163-.669 1.987V938h-4.253v-9.866c0-.776-.223-1.393-.67-1.853-.439-.46-1.019-.69-1.74-.69-.488 0-.927.123-1.318.37-.385.241-.69.58-.917 1.02-.226.432-.34.94-.34 1.524V938h-4.387zm26.451 0v-15.818h4.388V938h-4.388zm2.204-17.857a2.385 2.385 0 0 1-1.678-.649c-.46-.439-.69-.965-.69-1.576 0-.604.23-1.122.69-1.555a2.364 2.364 0 0 1 1.678-.659c.653 0 1.209.22 1.669.659.466.433.7.951.7 1.555 0 .611-.234 1.137-.7 1.576a2.35 2.35 0 0 1-1.669.649zM159.038 938v-2.616l7.745-9.587v-.114h-7.477v-3.501h12.76v2.852l-7.271 9.351v.114h7.539V938h-13.296zm23.406.309c-1.627 0-3.028-.33-4.202-.989a6.773 6.773 0 0 1-2.698-2.821c-.632-1.222-.947-2.668-.947-4.336 0-1.627.315-3.055.947-4.284.632-1.229 1.521-2.187 2.667-2.873 1.154-.687 2.506-1.03 4.058-1.03a8.26 8.26 0 0 1 2.914.504c.906.33 1.696.828 2.369 1.494.68.666 1.208 1.503 1.586 2.513.377 1.002.566 2.176.566 3.522v1.204h-13.357v-2.718h9.228c0-.632-.138-1.191-.412-1.679a2.961 2.961 0 0 0-1.143-1.143c-.481-.282-1.041-.422-1.679-.422-.666 0-1.256.154-1.771.463a3.248 3.248 0 0 0-1.195 1.226 3.465 3.465 0 0 0-.443 1.699v2.585c0 .782.144 1.459.433 2.028.295.57.71 1.01 1.246 1.319.535.309 1.17.463 1.905.463a4.16 4.16 0 0 0 1.339-.206 2.767 2.767 0 0 0 1.04-.618c.288-.274.508-.611.659-1.009l4.058.268a5.547 5.547 0 0 1-1.267 2.554c-.632.721-1.449 1.284-2.451 1.689-.996.398-2.146.597-3.45.597z"/><g clip-path="url(#a)"><g clip-path="url(#b)"><path fill="url(#c)" d="M66.462 99 43.203 83.43l20.7-12.78 24.888 14.175L66.462 99z"/><path fill="#B1FC03" d="m66.927 43 21.399 13.012-45.123 27.42V58.335L66.927 43z"/></g></g><path fill="#AEF900" d="M401.642 494.09v9.645h-30.415v-9.645h30.415zm-22.906-12.676h12.469v49.671c0 1.677.253 2.963.758 3.858.528.873 1.217 1.47 2.067 1.791.849.322 1.791.483 2.824.483.781 0 1.493-.058 2.136-.173a18.23 18.23 0 0 0 1.516-.31l2.101 9.749c-.666.229-1.619.482-2.859.757-1.217.276-2.71.437-4.478.483-3.123.092-5.936-.379-8.439-1.413-2.503-1.056-4.49-2.686-5.96-4.891-1.446-2.205-2.158-4.96-2.135-8.267v-51.738zm-36.419 66.619c-5.282 0-9.817-1.16-13.606-3.479-3.766-2.32-6.671-5.523-8.715-9.611-2.021-4.11-3.031-8.841-3.031-14.191 0-5.374 1.033-10.116 3.1-14.227 2.067-4.133 4.983-7.348 8.749-9.645 3.789-2.319 8.267-3.479 13.434-3.479 4.295 0 8.095.793 11.402 2.377 3.33 1.562 5.982 3.778 7.957 6.648 1.975 2.848 3.1 6.178 3.376 9.99h-11.919c-.482-2.549-1.63-4.674-3.444-6.373-1.792-1.722-4.191-2.583-7.2-2.583-2.549 0-4.788.689-6.717 2.066-1.928 1.355-3.433 3.307-4.512 5.856-1.056 2.549-1.584 5.603-1.584 9.163 0 3.605.528 6.705 1.584 9.3 1.056 2.572 2.538 4.559 4.444 5.959 1.929 1.378 4.191 2.067 6.785 2.067 1.838 0 3.48-.344 4.926-1.033a9.901 9.901 0 0 0 3.686-3.066c.987-1.332 1.665-2.951 2.032-4.857h11.919c-.299 3.743-1.401 7.062-3.307 9.955-1.906 2.871-4.501 5.121-7.785 6.752-3.284 1.607-7.142 2.411-11.574 2.411zm-48.372-23.285v-30.657h12.47V547h-12.091v-9.404h-.551c-1.194 2.962-3.157 5.385-5.89 7.268-2.71 1.883-6.051 2.825-10.024 2.825-3.468 0-6.533-.769-9.197-2.308-2.641-1.562-4.708-3.824-6.2-6.786-1.493-2.985-2.239-6.591-2.239-10.816v-33.688h12.469v31.759c0 3.353.919 6.017 2.756 7.992 1.837 1.974 4.248 2.962 7.233 2.962 1.838 0 3.617-.448 5.34-1.344 1.722-.895 3.134-2.227 4.236-3.995 1.126-1.791 1.688-4.03 1.688-6.717zm-75.184 23.182c-4.156 0-7.876-1.068-11.16-3.204s-5.879-5.236-7.785-9.3c-1.906-4.065-2.859-9.002-2.859-14.812 0-5.879.965-10.839 2.893-14.881 1.952-4.064 4.582-7.13 7.889-9.197 3.306-2.09 6.992-3.134 11.057-3.134 3.1 0 5.649.528 7.647 1.584 1.998 1.033 3.582 2.285 4.753 3.755 1.172 1.446 2.079 2.813 2.722 4.099h.516v-26.386h12.504V547h-12.263v-8.336h-.757c-.643 1.286-1.573 2.652-2.791 4.099-1.217 1.423-2.824 2.641-4.822 3.651-1.998 1.01-4.512 1.516-7.544 1.516zm3.479-10.231c2.641 0 4.892-.712 6.752-2.136 1.86-1.446 3.272-3.456 4.237-6.028.964-2.572 1.446-5.568 1.446-8.99 0-3.422-.482-6.395-1.446-8.922-.942-2.526-2.343-4.489-4.203-5.89-1.837-1.401-4.099-2.101-6.786-2.101-2.778 0-5.098.723-6.958 2.17-1.86 1.447-3.261 3.445-4.202 5.994-.942 2.549-1.412 5.465-1.412 8.749 0 3.307.47 6.258 1.412 8.853.964 2.572 2.377 4.604 4.237 6.097 1.883 1.469 4.191 2.204 6.923 2.204zm-59.052 10.334c-5.167 0-9.645-1.137-13.434-3.41-3.789-2.274-6.728-5.454-8.818-9.542-2.067-4.088-3.1-8.864-3.1-14.329 0-5.466 1.033-10.254 3.1-14.365 2.09-4.11 5.029-7.302 8.818-9.575 3.789-2.274 8.267-3.411 13.434-3.411s9.645 1.137 13.434 3.411c3.789 2.273 6.717 5.465 8.784 9.575 2.09 4.111 3.134 8.899 3.134 14.365 0 5.465-1.044 10.241-3.134 14.329-2.067 4.088-4.995 7.268-8.784 9.542-3.789 2.273-8.267 3.41-13.434 3.41zm.069-9.99c2.802 0 5.144-.769 7.027-2.307 1.883-1.562 3.284-3.652 4.203-6.27.941-2.618 1.412-5.534 1.412-8.749 0-3.238-.471-6.166-1.412-8.784-.919-2.641-2.32-4.742-4.203-6.303-1.883-1.562-4.225-2.343-7.027-2.343-2.87 0-5.259.781-7.165 2.343-1.883 1.561-3.295 3.662-4.237 6.303-.918 2.618-1.377 5.546-1.377 8.784 0 3.215.459 6.131 1.377 8.749.942 2.618 2.354 4.708 4.237 6.27 1.906 1.538 4.295 2.307 7.165 2.307zM103.832 547v-52.909h12.091v8.818h.551c.964-3.054 2.618-5.408 4.96-7.061 2.365-1.677 5.064-2.515 8.095-2.515.689 0 1.458.034 2.308.103.872.046 1.596.127 2.17.241v11.471c-.528-.184-1.367-.344-2.515-.482a23.096 23.096 0 0 0-3.272-.241c-2.274 0-4.317.493-6.132 1.481a10.834 10.834 0 0 0-4.236 4.03c-1.034 1.722-1.551 3.709-1.551 5.959V547h-12.469zm-61.875 0v-70.546h26.455c5.42 0 9.966 1.011 13.64 3.031 3.697 2.021 6.487 4.8 8.37 8.336 1.907 3.514 2.86 7.51 2.86 11.988 0 4.523-.953 8.542-2.86 12.056-1.905 3.513-4.718 6.28-8.439 8.301-3.72 1.998-8.301 2.997-13.744 2.997H50.706v-10.506h15.811c3.17 0 5.764-.551 7.785-1.654 2.02-1.102 3.513-2.617 4.478-4.546.987-1.929 1.481-4.145 1.481-6.648 0-2.504-.494-4.708-1.481-6.614-.965-1.906-2.469-3.387-4.513-4.444-2.02-1.079-4.627-1.619-7.819-1.619H54.737V547h-12.78zm381.092-157.91v9.645h-30.416v-9.645h30.416zm-22.907-12.676h12.47v49.671c0 1.677.252 2.963.757 3.858.528.873 1.217 1.47 2.067 1.791.85.322 1.791.483 2.825.483.78 0 1.492-.058 2.135-.173a18.23 18.23 0 0 0 1.516-.31l2.101 9.749c-.666.229-1.619.482-2.859.757-1.217.276-2.71.437-4.478.483-3.123.092-5.936-.379-8.439-1.413-2.503-1.056-4.49-2.686-5.959-4.891-1.447-2.205-2.159-4.96-2.136-8.267v-51.738zm-50.153 34.584v31.001H337.52V389.09h11.918v8.991h.62c1.217-2.963 3.157-5.316 5.821-7.062 2.687-1.745 6.005-2.618 9.955-2.618 3.651 0 6.832.781 9.542 2.343 2.732 1.561 4.845 3.823 6.338 6.786 1.515 2.962 2.262 6.556 2.239 10.781v33.688h-12.47V410.24c0-3.536-.918-6.303-2.755-8.301-1.815-1.998-4.329-2.997-7.544-2.997-2.182 0-4.122.482-5.821 1.447-1.677.941-2.997 2.307-3.962 4.099-.941 1.791-1.412 3.961-1.412 6.51zm-46.542 32.035c-5.305 0-9.886-1.103-13.744-3.307-3.835-2.228-6.786-5.374-8.853-9.438-2.067-4.088-3.1-8.899-3.1-14.433 0-5.443 1.033-10.219 3.1-14.33 2.09-4.133 5.006-7.348 8.749-9.645 3.744-2.319 8.141-3.479 13.193-3.479 3.261 0 6.338.529 9.232 1.585a20.874 20.874 0 0 1 7.716 4.822c2.25 2.182 4.018 4.961 5.304 8.336 1.286 3.353 1.929 7.349 1.929 11.987v3.824h-43.367v-8.405h31.415c-.023-2.388-.54-4.512-1.55-6.372-1.011-1.883-2.423-3.365-4.237-4.444-1.792-1.079-3.881-1.619-6.27-1.619-2.549 0-4.788.62-6.716 1.86a12.816 12.816 0 0 0-4.513 4.823c-1.056 1.975-1.596 4.145-1.619 6.51v7.337c0 3.077.563 5.718 1.688 7.923 1.125 2.181 2.698 3.858 4.719 5.029 2.021 1.148 4.386 1.722 7.096 1.722 1.814 0 3.456-.253 4.926-.758 1.469-.528 2.744-1.297 3.823-2.308 1.08-1.01 1.895-2.262 2.446-3.754l11.643 1.309c-.735 3.077-2.136 5.764-4.203 8.06-2.044 2.273-4.661 4.042-7.853 5.305-3.192 1.24-6.844 1.86-10.954 1.86zM254.73 442v-52.91h12.47V442h-12.47zm6.269-60.419c-1.975 0-3.674-.654-5.098-1.963-1.423-1.332-2.135-2.928-2.135-4.788 0-1.883.712-3.479 2.135-4.788 1.424-1.332 3.123-1.998 5.098-1.998 1.998 0 3.698.666 5.098 1.998 1.424 1.309 2.136 2.905 2.136 4.788 0 1.86-.712 3.456-2.136 4.788-1.4 1.309-3.1 1.963-5.098 1.963zm-39.174 61.452c-5.282 0-9.817-1.16-13.606-3.479-3.766-2.32-6.671-5.523-8.715-9.611-2.021-4.11-3.031-8.841-3.031-14.191 0-5.374 1.033-10.116 3.1-14.227 2.067-4.133 4.983-7.348 8.749-9.645 3.789-2.319 8.267-3.479 13.434-3.479 4.294 0 8.095.793 11.402 2.377 3.329 1.562 5.982 3.778 7.957 6.648 1.975 2.848 3.1 6.178 3.375 9.99h-11.918c-.482-2.549-1.63-4.674-3.445-6.373-1.791-1.722-4.19-2.583-7.199-2.583-2.549 0-4.788.689-6.717 2.066-1.929 1.355-3.433 3.307-4.512 5.856-1.056 2.549-1.585 5.603-1.585 9.163 0 3.605.529 6.705 1.585 9.3 1.056 2.572 2.537 4.559 4.443 5.959 1.929 1.378 4.191 2.067 6.786 2.067 1.837 0 3.479-.344 4.926-1.033a9.91 9.91 0 0 0 3.686-3.066c.987-1.332 1.665-2.951 2.032-4.857h11.918c-.298 3.743-1.4 7.062-3.306 9.955-1.906 2.871-4.501 5.121-7.785 6.752-3.284 1.607-7.142 2.411-11.574 2.411zM173.457 442v-52.91h12.469V442h-12.469zm6.269-60.419c-1.975 0-3.674-.654-5.098-1.963-1.424-1.332-2.136-2.928-2.136-4.788 0-1.883.712-3.479 2.136-4.788 1.424-1.332 3.123-1.998 5.098-1.998 1.998 0 3.697.666 5.098 1.998 1.424 1.309 2.136 2.905 2.136 4.788 0 1.86-.712 3.456-2.136 4.788-1.401 1.309-3.1 1.963-5.098 1.963zm-16.035 7.51v9.645h-31.277v-9.645h31.277zM140.233 442v-57.904c0-3.559.735-6.522 2.205-8.887 1.493-2.365 3.49-4.134 5.993-5.305 2.504-1.171 5.282-1.757 8.336-1.757 2.159 0 4.077.173 5.753.517 1.676.345 2.916.655 3.72.93l-2.48 9.645a21.559 21.559 0 0 0-1.998-.482c-.804-.184-1.699-.276-2.687-.276-2.319 0-3.961.563-4.925 1.688-.942 1.102-1.413 2.687-1.413 4.754V442h-12.504zm-13.108-52.909v9.645H95.848v-9.645h31.277zM103.667 442v-57.904c0-3.559.735-6.522 2.204-8.887 1.493-2.365 3.491-4.134 5.994-5.305 2.503-1.171 5.282-1.757 8.336-1.757 2.159 0 4.076.173 5.752.517 1.677.345 2.917.655 3.721.93l-2.48 9.645a21.72 21.72 0 0 0-1.998-.482c-.804-.184-1.7-.276-2.687-.276-2.319 0-3.961.563-4.926 1.688-.941 1.102-1.412 2.687-1.412 4.754V442h-12.504zm-61.71 0v-70.546h45.882v10.713H54.737v19.152h30.725v10.713H54.736v19.255h33.379V442H41.957zm191.166-157.91v9.645h-30.416v-9.645h30.416zm-22.907-12.676h12.47v49.671c0 1.677.252 2.963.758 3.858.528.873 1.217 1.47 2.066 1.791.85.322 1.791.483 2.825.483.781 0 1.493-.058 2.136-.173a18.188 18.188 0 0 0 1.515-.31l2.101 9.749c-.666.229-1.619.482-2.859.757-1.217.276-2.709.437-4.478.483-3.123.092-5.936-.379-8.439-1.413-2.503-1.056-4.489-2.686-5.959-4.891-1.447-2.205-2.159-4.96-2.136-8.267v-51.738zm-14.931 26.661-11.367 1.24c-.322-1.148-.885-2.227-1.688-3.237-.781-1.011-1.837-1.826-3.169-2.446-1.332-.62-2.963-.93-4.892-.93-2.595 0-4.776.562-6.544 1.688-1.746 1.125-2.607 2.583-2.584 4.374-.023 1.539.54 2.79 1.688 3.755 1.171.964 3.1 1.757 5.787 2.377l9.025 1.929c5.006 1.079 8.726 2.79 11.16 5.132 2.457 2.342 3.698 5.408 3.721 9.197-.023 3.33-.999 6.269-2.928 8.818-1.906 2.526-4.559 4.501-7.957 5.925-3.399 1.424-7.303 2.136-11.712 2.136-6.476 0-11.689-1.355-15.639-4.065-3.949-2.733-6.303-6.533-7.061-11.402l12.159-1.171c.552 2.389 1.723 4.191 3.514 5.408 1.791 1.217 4.122 1.826 6.992 1.826 2.963 0 5.34-.609 7.131-1.826 1.814-1.217 2.721-2.721 2.721-4.512 0-1.516-.586-2.767-1.757-3.755-1.148-.987-2.939-1.745-5.373-2.273l-9.025-1.895c-5.075-1.056-8.83-2.836-11.264-5.339-2.434-2.526-3.64-5.718-3.617-9.576-.023-3.261.861-6.085 2.653-8.474 1.814-2.411 4.328-4.271 7.543-5.58 3.238-1.332 6.97-1.998 11.195-1.998 6.2 0 11.08 1.321 14.64 3.962 3.582 2.641 5.798 6.211 6.648 10.712zm-82.291 39.992c-3.352 0-6.372-.597-9.059-1.791-2.664-1.217-4.776-3.008-6.338-5.374-1.539-2.365-2.308-5.281-2.308-8.749 0-2.985.551-5.454 1.653-7.406a12.791 12.791 0 0 1 4.513-4.684c1.906-1.172 4.053-2.056 6.441-2.653a52.33 52.33 0 0 1 7.475-1.343c3.1-.322 5.615-.609 7.544-.861 1.929-.276 3.33-.689 4.202-1.24.896-.574 1.344-1.459 1.344-2.653v-.206c0-2.595-.77-4.605-2.308-6.028-1.539-1.424-3.755-2.136-6.648-2.136-3.055 0-5.477.666-7.268 1.998-1.769 1.332-2.963 2.905-3.583 4.719l-11.643-1.654c.919-3.214 2.434-5.901 4.547-8.06 2.113-2.181 4.696-3.812 7.751-4.891 3.054-1.102 6.43-1.654 10.127-1.654 2.549 0 5.086.299 7.612.896s4.834 1.584 6.924 2.962c2.09 1.355 3.766 3.204 5.029 5.546 1.286 2.342 1.929 5.27 1.929 8.784v35.41h-11.987v-7.268h-.414c-.757 1.47-1.825 2.848-3.203 4.134-1.355 1.263-3.066 2.285-5.132 3.065-2.044.758-4.444 1.137-7.2 1.137zm3.238-9.162c2.503 0 4.673-.494 6.511-1.482 1.837-1.01 3.249-2.342 4.236-3.995a10.175 10.175 0 0 0 1.516-5.408v-6.235c-.39.321-1.056.62-1.998.895-.918.276-1.952.517-3.1.724-1.148.207-2.285.39-3.41.551-1.125.161-2.101.299-2.928.413-1.86.253-3.525.666-4.995 1.24-1.469.574-2.629 1.378-3.479 2.412-.849 1.01-1.274 2.319-1.274 3.926 0 2.297.838 4.031 2.514 5.202 1.677 1.171 3.812 1.757 6.407 1.757zM41.957 337v-70.546H87.15v10.713H54.736v19.152H84.05v10.713H54.737V337h-12.78z"/><path stroke="#AEF900" stroke-linecap="round" stroke-width="6" d="M49 660c37.333-25.5 114.7-70.9 125.5-48.5 13.5 28-66.5 52.5-94 127.5s126-90.5 162-109c28.8-14.8-2.333 20.833-21.5 40.5"/><path fill="#AEF900" d="m200.5 689 6-14 5.5 14 14.5 6.5-14.5 5-5.5 14.5-6-14.5-14.5-5 14.5-6.5zM38 867h409v1H38z"/><g clip-path="url(#d)"><path fill="#243" d="M525 1h485v996H525z"/><path fill="#AEF900" d="M647.662 67.435h-3.188a3.954 3.954 0 0 0-.502-1.39 3.758 3.758 0 0 0-.912-1.04 3.806 3.806 0 0 0-1.245-.638 4.851 4.851 0 0 0-1.491-.222c-.949 0-1.79.239-2.523.716-.733.471-1.307 1.165-1.721 2.08-.415.908-.623 2.02-.623 3.332 0 1.335.208 2.46.623 3.375.42.909.994 1.596 1.721 2.062.733.46 1.571.69 2.514.69.523 0 1.012-.068 1.466-.204a4.02 4.02 0 0 0 1.236-.622 3.78 3.78 0 0 0 1.457-2.37l3.188.018a6.852 6.852 0 0 1-.776 2.335 6.889 6.889 0 0 1-1.542 1.926 7.125 7.125 0 0 1-2.233 1.295c-.852.307-1.798.46-2.838.46-1.534 0-2.904-.355-4.108-1.065-1.205-.71-2.154-1.736-2.847-3.076-.693-1.341-1.04-2.95-1.04-4.824 0-1.881.35-3.489 1.049-4.824.699-1.341 1.65-2.367 2.855-3.077 1.204-.71 2.568-1.065 4.091-1.065.971 0 1.875.136 2.71.409a6.94 6.94 0 0 1 2.233 1.202 6.41 6.41 0 0 1 1.611 1.926c.426.755.704 1.62.835 2.59zm8.469 11.82c-1.278 0-2.386-.28-3.323-.843-.938-.563-1.665-1.35-2.182-2.36-.512-1.012-.767-2.194-.767-3.546 0-1.353.255-2.537.767-3.554.517-1.017 1.244-1.807 2.182-2.37.937-.562 2.045-.843 3.323-.843 1.279 0 2.387.28 3.324.843.938.563 1.662 1.353 2.174 2.37.517 1.017.775 2.201.775 3.554 0 1.352-.258 2.534-.775 3.545-.512 1.011-1.236 1.798-2.174 2.36-.937.563-2.045.845-3.324.845zm.017-2.47c.694 0 1.273-.191 1.739-.572.466-.386.813-.903 1.04-1.551.233-.648.349-1.37.349-2.165 0-.801-.116-1.525-.349-2.173-.227-.653-.574-1.173-1.04-1.56-.466-.386-1.045-.58-1.739-.58-.71 0-1.301.194-1.772.58-.466.387-.816.907-1.049 1.56-.227.648-.34 1.372-.34 2.173 0 .796.113 1.517.34 2.165.233.648.583 1.165 1.049 1.551.471.38 1.062.571 1.772.571zm13.733 2.445c-1.029 0-1.949-.264-2.762-.793-.812-.528-1.454-1.295-1.926-2.3-.471-1.006-.707-2.228-.707-3.665 0-1.455.238-2.682.716-3.682.483-1.006 1.133-1.764 1.951-2.276a5.02 5.02 0 0 1 2.736-.775c.767 0 1.398.13 1.892.392.495.255.887.565 1.176.929.29.358.515.696.674 1.014h.128v-6.529h3.093V79h-3.034v-2.063h-.187a5.28 5.28 0 0 1-.691 1.015c-.301.352-.699.653-1.193.903-.494.25-1.116.375-1.866.375zm.86-2.531c.654 0 1.211-.176 1.671-.528.46-.359.81-.856 1.048-1.492.239-.636.358-1.378.358-2.225 0-.846-.119-1.582-.358-2.207-.233-.625-.579-1.11-1.04-1.457-.454-.347-1.014-.52-1.679-.52-.687 0-1.261.179-1.721.537-.46.358-.807.852-1.04 1.483-.233.63-.349 1.352-.349 2.164 0 .819.116 1.549.349 2.19.239.637.588 1.14 1.048 1.51.466.363 1.037.545 1.713.545zM680.14 79V65.91h3.085V79h-3.085zm1.551-14.949c-.489 0-.909-.162-1.261-.486-.353-.33-.529-.724-.529-1.184 0-.466.176-.861.529-1.185a1.78 1.78 0 0 1 1.261-.494c.494 0 .915.165 1.261.494.353.324.529.719.529 1.185 0 .46-.176.855-.529 1.184a1.779 1.779 0 0 1-1.261.486zm11.337 1.858v2.386h-7.738V65.91h7.738zM687.224 79V64.673c0-.88.182-1.613.546-2.199a3.452 3.452 0 0 1 1.483-1.312c.619-.29 1.307-.435 2.062-.435.534 0 1.009.043 1.424.128.414.085.721.162.92.23l-.614 2.387a5.24 5.24 0 0 0-.494-.12 2.985 2.985 0 0 0-.665-.068c-.574 0-.98.14-1.218.418-.233.272-.35.665-.35 1.176V79h-3.094zm10.138 4.91c-.42 0-.809-.035-1.167-.103a4.303 4.303 0 0 1-.844-.222l.716-2.403c.449.13.849.193 1.201.187.353-.005.662-.116.929-.332.273-.21.503-.563.691-1.057l.264-.707-4.747-13.364h3.273l3.017 9.886h.136l3.026-9.886h3.281l-5.242 14.676a5.88 5.88 0 0 1-.971 1.782c-.404.5-.898.88-1.483 1.141-.58.268-1.273.401-2.08.401zM572.468 778h-2.953l5.376-15.273h3.416L583.691 778h-2.953l-4.079-12.141h-.12L572.468 778zm.097-5.988h8.054v2.222h-8.054v-2.222zm17.666 6.212c-1.143 0-2.125-.251-2.945-.753a5.029 5.029 0 0 1-1.887-2.081c-.438-.89-.656-1.914-.656-3.073 0-1.163.223-2.19.671-3.079.447-.895 1.079-1.591 1.894-2.088.82-.503 1.79-.754 2.908-.754.93 0 1.753.172 2.469.515a4.213 4.213 0 0 1 1.722 1.439c.428.617.671 1.337.731 2.163h-2.58a2.47 2.47 0 0 0-.746-1.38c-.388-.373-.907-.559-1.558-.559-.552 0-1.037.149-1.455.447-.417.294-.743.716-.977 1.268-.228.552-.343 1.213-.343 1.984 0 .78.115 1.451.343 2.013.229.557.55.987.962 1.29.418.299.908.448 1.47.448.397 0 .753-.075 1.066-.224.318-.154.584-.375.798-.664.214-.288.36-.638.44-1.051h2.58c-.064.81-.303 1.529-.716 2.155a4.23 4.23 0 0 1-1.685 1.462c-.711.348-1.546.522-2.506.522zm12.844-11.679v2.089h-6.585v-2.089h6.585zm-4.959-2.744h2.699v10.754c0 .363.055.641.164.835a.887.887 0 0 0 .448.388c.184.069.387.104.611.104.169 0 .323-.012.462-.037.145-.025.254-.047.329-.067l.454 2.11c-.144.05-.35.105-.618.164a5.05 5.05 0 0 1-.97.105c-.676.019-1.285-.082-1.827-.306a2.844 2.844 0 0 1-1.29-1.059c-.313-.477-.467-1.074-.462-1.79v-11.201zM605.332 778v-11.455h2.7V778h-2.7zm1.358-13.08c-.428 0-.796-.142-1.104-.425a1.372 1.372 0 0 1-.462-1.037c0-.408.154-.753.462-1.036a1.557 1.557 0 0 1 1.104-.433c.432 0 .8.144 1.103.433.309.283.463.628.463 1.036 0 .403-.154.748-.463 1.037a1.558 1.558 0 0 1-1.103.425zm14.35 1.625L616.96 778h-2.983l-4.079-11.455h2.879l2.632 8.509h.119l2.64-8.509h2.872zm6.549 11.679c-1.148 0-2.14-.239-2.976-.716a4.846 4.846 0 0 1-1.916-2.044c-.448-.884-.671-1.926-.671-3.124 0-1.178.223-2.213.671-3.102.452-.895 1.084-1.591 1.894-2.088.81-.503 1.763-.754 2.856-.754.706 0 1.372.115 1.999.343a4.524 4.524 0 0 1 1.67 1.044c.488.473.87 1.074 1.149 1.805.278.726.417 1.591.417 2.595v.828h-9.388v-1.82h6.801a2.897 2.897 0 0 0-.336-1.379 2.433 2.433 0 0 0-.917-.962c-.388-.234-.84-.351-1.357-.351-.552 0-1.037.135-1.455.403a2.775 2.775 0 0 0-.977 1.044 3.012 3.012 0 0 0-.35 1.409v1.589c0 .666.122 1.238.365 1.715.244.472.585.835 1.022 1.089.438.248.95.373 1.536.373.393 0 .748-.055 1.067-.164.318-.115.594-.281.827-.5.234-.219.411-.49.53-.813l2.52.284a3.937 3.937 0 0 1-.909 1.745c-.443.492-1.01.875-1.701 1.148-.691.268-1.481.403-2.371.403zm22.333-15.497h2.767v9.978c0 1.094-.259 2.056-.776 2.886-.512.831-1.233 1.479-2.163 1.947-.929.462-2.016.693-3.258.693-1.248 0-2.337-.231-3.267-.693-.929-.468-1.65-1.116-2.162-1.947-.512-.83-.769-1.792-.769-2.886v-9.978h2.767v9.747c0 .636.139 1.203.418 1.7.283.498.681.888 1.193 1.171.512.279 1.119.418 1.82.418.701 0 1.307-.139 1.819-.418a2.963 2.963 0 0 0 1.193-1.171c.279-.497.418-1.064.418-1.7v-9.747zm14.708 6.846-2.461.269a1.976 1.976 0 0 0-.366-.701 1.805 1.805 0 0 0-.686-.53c-.288-.134-.641-.201-1.059-.201-.561 0-1.034.122-1.416.365-.378.244-.565.56-.56.947a.99.99 0 0 0 .366.813c.253.209.671.38 1.252.515l1.954.417c1.084.234 1.89.604 2.416 1.111.532.508.801 1.171.806 1.992a3.115 3.115 0 0 1-.634 1.909c-.413.547-.987.974-1.723 1.282-.735.309-1.581.463-2.535.463-1.402 0-2.531-.294-3.386-.88-.855-.592-1.365-1.415-1.529-2.469l2.633-.253c.119.517.373.907.761 1.171.387.263.892.395 1.513.395.642 0 1.156-.132 1.544-.395.393-.264.589-.59.589-.977a1.02 1.02 0 0 0-.38-.813c-.249-.214-.636-.378-1.163-.492l-1.954-.411c-1.099-.228-1.912-.613-2.439-1.155-.527-.547-.788-1.238-.783-2.074-.005-.706.187-1.317.574-1.834.393-.522.937-.925 1.633-1.208.701-.289 1.509-.433 2.424-.433 1.342 0 2.399.286 3.17.858.775.572 1.255 1.345 1.439 2.319zm7.543 8.651c-1.148 0-2.14-.239-2.976-.716a4.846 4.846 0 0 1-1.916-2.044c-.448-.884-.671-1.926-.671-3.124 0-1.178.223-2.213.671-3.102.452-.895 1.084-1.591 1.894-2.088.81-.503 1.763-.754 2.856-.754.706 0 1.372.115 1.999.343a4.524 4.524 0 0 1 1.67 1.044c.488.473.87 1.074 1.149 1.805.278.726.417 1.591.417 2.595v.828h-9.389v-1.82h6.802a2.897 2.897 0 0 0-.336-1.379 2.433 2.433 0 0 0-.917-.962c-.388-.234-.84-.351-1.357-.351-.552 0-1.037.135-1.455.403a2.775 2.775 0 0 0-.977 1.044 3.012 3.012 0 0 0-.35 1.409v1.589c0 .666.122 1.238.365 1.715.244.472.585.835 1.022 1.089.438.248.95.373 1.536.373.393 0 .748-.055 1.067-.164.318-.115.594-.281.827-.5.234-.219.411-.49.53-.813l2.52.284a3.937 3.937 0 0 1-.909 1.745c-.443.492-1.01.875-1.701 1.148-.691.268-1.481.403-2.371.403zm7.377-.224v-11.455h2.618v1.91h.119c.209-.662.567-1.171 1.074-1.529a2.954 2.954 0 0 1 1.752-.545c.15 0 .316.008.5.023.189.01.346.027.47.052v2.483a2.935 2.935 0 0 0-.545-.104 4.963 4.963 0 0 0-.708-.052c-.492 0-.935.107-1.327.32a2.35 2.35 0 0 0-.918.873 2.465 2.465 0 0 0-.335 1.29V778h-2.7zm27.302-7.636c0 1.645-.309 3.055-.925 4.228-.612 1.168-1.447 2.063-2.506 2.685-1.054.621-2.249.932-3.587.932-1.337 0-2.535-.311-3.594-.932-1.054-.627-1.889-1.524-2.506-2.692-.611-1.174-.917-2.581-.917-4.221 0-1.646.306-3.053.917-4.221.617-1.174 1.452-2.071 2.506-2.692 1.059-.622 2.257-.933 3.594-.933 1.338 0 2.533.311 3.587.933 1.059.621 1.894 1.518 2.506 2.692.616 1.168.925 2.575.925 4.221zm-2.782 0c0-1.159-.181-2.136-.544-2.931-.358-.801-.855-1.405-1.492-1.812-.636-.413-1.369-.619-2.2-.619-.83 0-1.563.206-2.2.619-.636.407-1.136 1.011-1.499 1.812-.358.795-.537 1.772-.537 2.931 0 1.158.179 2.137.537 2.938.363.795.863 1.399 1.499 1.812.637.408 1.37.611 2.2.611.831 0 1.564-.203 2.2-.611.637-.413 1.134-1.017 1.492-1.812.363-.801.544-1.78.544-2.938zm7.978.924V778h-2.7v-11.455h2.58v1.947h.134a3.275 3.275 0 0 1 1.261-1.529c.581-.378 1.3-.567 2.155-.567.79 0 1.479.169 2.066.507a3.416 3.416 0 0 1 1.372 1.47c.328.641.49 1.419.485 2.334V778h-2.7v-6.876c0-.765-.199-1.364-.597-1.797-.392-.432-.937-.649-1.633-.649-.472 0-.892.105-1.26.313-.363.204-.649.5-.858.888-.203.388-.305.858-.305 1.409zM727.473 778v-15.273h5.727c1.174 0 2.158.219 2.954.657.8.437 1.404 1.039 1.812 1.804.412.761.619 1.626.619 2.595 0 .98-.207 1.85-.619 2.61-.413.761-1.022 1.36-1.827 1.798-.806.432-1.798.648-2.976.648h-3.796v-2.274h3.423c.686 0 1.248-.119 1.686-.358.437-.239.76-.567.969-.984.214-.418.321-.898.321-1.44 0-.542-.107-1.019-.321-1.431a2.172 2.172 0 0 0-.977-.962c-.437-.234-1.002-.351-1.693-.351h-2.535V778h-2.767zm16.095-15.273V778h-2.699v-15.273h2.699zm6.072 15.504c-.726 0-1.379-.129-1.961-.388a3.195 3.195 0 0 1-1.372-1.163c-.333-.512-.5-1.143-.5-1.894 0-.646.119-1.181.358-1.603.239-.423.564-.761.977-1.015a4.944 4.944 0 0 1 1.395-.574 11.413 11.413 0 0 1 1.618-.291 60.351 60.351 0 0 0 1.633-.186c.418-.06.721-.149.91-.269.194-.124.291-.315.291-.574v-.045c0-.561-.167-.996-.5-1.305-.333-.308-.813-.462-1.439-.462-.662 0-1.186.144-1.574.433-.383.288-.641.628-.775 1.021l-2.521-.358c.199-.696.527-1.277.984-1.745a4.296 4.296 0 0 1 1.678-1.059 6.438 6.438 0 0 1 2.193-.358c.552 0 1.101.065 1.648.194a4.622 4.622 0 0 1 1.499.642c.452.293.815.693 1.089 1.2.278.507.417 1.141.417 1.902V778h-2.595v-1.574h-.089a3.304 3.304 0 0 1-.694.895 3.327 3.327 0 0 1-1.111.664c-.443.164-.962.246-1.559.246zm.701-1.983c.542 0 1.012-.107 1.41-.321.397-.219.703-.507.917-.865a2.2 2.2 0 0 0 .328-1.171v-1.35c-.084.07-.229.134-.432.194a6.1 6.1 0 0 1-.672.157c-.248.044-.494.084-.738.119-.243.035-.455.065-.634.089a4.749 4.749 0 0 0-1.081.269 1.792 1.792 0 0 0-.753.522c-.184.219-.276.502-.276.85 0 .497.181.873.544 1.126.363.254.825.381 1.387.381zm13.782-9.703v2.089h-6.585v-2.089h6.585zm-4.96-2.744h2.7v10.754c0 .363.055.641.164.835a.885.885 0 0 0 .447.388c.184.069.388.104.612.104.169 0 .323-.012.462-.037.144-.025.254-.047.328-.067l.455 2.11c-.144.05-.35.105-.619.164-.263.06-.586.095-.969.105-.676.019-1.285-.082-1.827-.306a2.844 2.844 0 0 1-1.29-1.059c-.313-.477-.468-1.074-.463-1.79v-11.201zm13.019 2.744v2.089h-6.771v-2.089h6.771zM767.104 778v-12.536c0-.77.159-1.412.477-1.924a3.018 3.018 0 0 1 1.297-1.148 4.202 4.202 0 0 1 1.805-.381c.467 0 .883.038 1.246.112.362.075.631.142.805.202l-.537 2.088a4.637 4.637 0 0 0-.433-.105 2.596 2.596 0 0 0-.581-.059c-.502 0-.858.121-1.067.365-.203.239-.305.582-.305 1.029V778h-2.707zm11.758.224c-1.119 0-2.088-.246-2.908-.739a5.003 5.003 0 0 1-1.909-2.065c-.448-.885-.672-1.919-.672-3.103 0-1.183.224-2.219.672-3.109.452-.89 1.088-1.581 1.909-2.073.82-.493 1.789-.739 2.908-.739s2.088.246 2.908.739a4.946 4.946 0 0 1 1.902 2.073c.452.89.679 1.926.679 3.109 0 1.184-.227 2.218-.679 3.103a4.954 4.954 0 0 1-1.902 2.065c-.82.493-1.789.739-2.908.739zm.015-2.163c.606 0 1.114-.166 1.521-.5.408-.338.711-.79.91-1.357a5.562 5.562 0 0 0 .306-1.894c0-.701-.102-1.335-.306-1.902-.199-.571-.502-1.026-.91-1.364-.407-.338-.915-.507-1.521-.507-.621 0-1.139.169-1.551.507-.408.338-.714.793-.917 1.364a5.716 5.716 0 0 0-.299 1.902c0 .696.1 1.327.299 1.894.203.567.509 1.019.917 1.357.412.334.93.5 1.551.5zm7.765 1.939v-11.455h2.617v1.91h.12c.209-.662.567-1.171 1.074-1.529a2.954 2.954 0 0 1 1.752-.545c.149 0 .316.008.5.023.189.01.345.027.47.052v2.483a2.935 2.935 0 0 0-.545-.104 4.974 4.974 0 0 0-.708-.052c-.492 0-.935.107-1.328.32-.387.209-.693.5-.917.873a2.456 2.456 0 0 0-.335 1.29V778h-2.7zm8.326 0v-11.455h2.58v1.947h.135a3.034 3.034 0 0 1 1.185-1.536c.552-.373 1.211-.56 1.977-.56.775 0 1.429.189 1.961.567a2.96 2.96 0 0 1 1.133 1.529h.12a3.123 3.123 0 0 1 1.282-1.521c.607-.383 1.325-.575 2.156-.575 1.054 0 1.914.333 2.58 1 .666.666.999 1.638.999 2.915V778h-2.707v-7.271c0-.711-.189-1.23-.567-1.559-.378-.333-.84-.499-1.387-.499-.651 0-1.161.204-1.529.611-.362.403-.544.928-.544 1.574V778h-2.647v-7.383c0-.591-.179-1.064-.537-1.417-.353-.353-.816-.529-1.387-.529-.388 0-.741.099-1.059.298-.318.194-.572.47-.761.828-.189.353-.283.765-.283 1.238V778h-2.7zm27.389 0-4.31-15.273h2.975l2.752 11.224h.142l2.938-11.224h2.707l2.946 11.231h.134l2.752-11.231h2.975L834.058 778h-2.73l-3.057-10.716h-.119L825.087 778h-2.73zm20.51-6.712V778h-2.7v-15.273h2.64v5.765h.134a3.32 3.32 0 0 1 1.246-1.529c.567-.378 1.288-.567 2.163-.567.795 0 1.489.167 2.08.5.592.333 1.049.82 1.372 1.462.328.641.492 1.424.492 2.349V778h-2.699v-6.876c0-.77-.199-1.369-.597-1.797-.392-.432-.944-.649-1.655-.649-.477 0-.905.105-1.283.313-.373.204-.666.5-.88.888-.209.388-.313.858-.313 1.409zm15.176 6.936c-1.119 0-2.088-.246-2.909-.739a5.016 5.016 0 0 1-1.909-2.065c-.447-.885-.671-1.919-.671-3.103 0-1.183.224-2.219.671-3.109.453-.89 1.089-1.581 1.909-2.073.821-.493 1.79-.739 2.909-.739 1.118 0 2.088.246 2.908.739a4.958 4.958 0 0 1 1.902 2.073c.452.89.678 1.926.678 3.109 0 1.184-.226 2.218-.678 3.103a4.967 4.967 0 0 1-1.902 2.065c-.82.493-1.79.739-2.908.739zm.015-2.163c.606 0 1.113-.166 1.521-.5.408-.338.711-.79.91-1.357.204-.567.305-1.198.305-1.894 0-.701-.101-1.335-.305-1.902-.199-.571-.502-1.026-.91-1.364-.408-.338-.915-.507-1.521-.507-.622 0-1.139.169-1.552.507-.407.338-.713.793-.917 1.364-.199.567-.298 1.201-.298 1.902 0 .696.099 1.327.298 1.894.204.567.51 1.019.917 1.357.413.334.93.5 1.552.5zm22.72-13.334h2.767v9.978c0 1.094-.258 2.056-.775 2.886-.513.831-1.233 1.479-2.163 1.947-.93.462-2.016.693-3.259.693-1.248 0-2.337-.231-3.266-.693-.93-.468-1.651-1.116-2.163-1.947-.512-.83-.768-1.792-.768-2.886v-9.978h2.767v9.747c0 .636.139 1.203.417 1.7.284.498.681.888 1.193 1.171.512.279 1.119.418 1.82.418.701 0 1.308-.139 1.82-.418a2.97 2.97 0 0 0 1.193-1.171c.278-.497.417-1.064.417-1.7v-9.747zm14.708 6.846-2.461.269a1.957 1.957 0 0 0-.365-.701 1.813 1.813 0 0 0-.686-.53c-.289-.134-.642-.201-1.059-.201-.562 0-1.034.122-1.417.365-.378.244-.564.56-.559.947a.99.99 0 0 0 .365.813c.254.209.671.38 1.253.515l1.954.417c1.084.234 1.889.604 2.416 1.111.532.508.8 1.171.805 1.992a3.115 3.115 0 0 1-.634 1.909c-.412.547-.986.974-1.722 1.282-.736.309-1.581.463-2.536.463-1.402 0-2.53-.294-3.385-.88-.855-.592-1.365-1.415-1.529-2.469l2.632-.253c.12.517.373.907.761 1.171.388.263.892.395 1.514.395.641 0 1.156-.132 1.544-.395.392-.264.589-.59.589-.977 0-.328-.127-.599-.381-.813-.248-.214-.636-.378-1.163-.492l-1.954-.411c-1.099-.228-1.911-.613-2.438-1.155-.527-.547-.788-1.238-.783-2.074-.005-.706.186-1.317.574-1.834.393-.522.937-.925 1.633-1.208.701-.289 1.509-.433 2.424-.433 1.342 0 2.398.286 3.169.858.776.572 1.255 1.345 1.439 2.319zm7.543 8.651c-1.148 0-2.14-.239-2.975-.716a4.855 4.855 0 0 1-1.917-2.044c-.447-.884-.671-1.926-.671-3.124 0-1.178.224-2.213.671-3.102.453-.895 1.084-1.591 1.895-2.088.81-.503 1.762-.754 2.856-.754.706 0 1.372.115 1.998.343a4.528 4.528 0 0 1 1.671 1.044c.487.473.87 1.074 1.148 1.805.279.726.418 1.591.418 2.595v.828h-9.389v-1.82h6.801a2.897 2.897 0 0 0-.336-1.379 2.426 2.426 0 0 0-.917-.962c-.388-.234-.84-.351-1.357-.351-.552 0-1.037.135-1.454.403a2.767 2.767 0 0 0-.977 1.044 3.001 3.001 0 0 0-.351 1.409v1.589c0 .666.122 1.238.366 1.715a2.61 2.61 0 0 0 1.021 1.089c.438.248.95.373 1.537.373.392 0 .748-.055 1.066-.164.318-.115.594-.281.828-.5.234-.219.41-.49.529-.813l2.521.284a3.929 3.929 0 0 1-.91 1.745c-.442.492-1.009.875-1.7 1.148-.691.268-1.482.403-2.372.403zm-319.45 17.656h-2.789a3.456 3.456 0 0 0-.44-1.215 3.282 3.282 0 0 0-.798-.91 3.307 3.307 0 0 0-1.089-.559 4.219 4.219 0 0 0-1.305-.194c-.83 0-1.566.209-2.207.626-.641.413-1.143 1.019-1.506 1.82-.363.795-.545 1.767-.545 2.916 0 1.168.182 2.152.545 2.953.368.795.87 1.397 1.506 1.804.641.403 1.375.604 2.2.604a4.46 4.46 0 0 0 1.283-.178 3.525 3.525 0 0 0 1.081-.545 3.328 3.328 0 0 0 1.275-2.073l2.789.015a5.99 5.99 0 0 1-.678 2.043 6.025 6.025 0 0 1-1.35 1.686 6.22 6.22 0 0 1-1.954 1.133c-.746.269-1.574.403-2.483.403-1.343 0-2.541-.311-3.595-.932-1.054-.622-1.884-1.519-2.491-2.692-.606-1.174-.909-2.581-.909-4.221 0-1.646.305-3.053.917-4.221.611-1.174 1.444-2.071 2.498-2.692 1.054-.622 2.247-.933 3.58-.933.85 0 1.64.12 2.371.358.731.239 1.382.59 1.954 1.052a5.589 5.589 0 0 1 1.409 1.685c.373.662.617 1.417.731 2.267zm7.411 10.344c-1.119 0-2.088-.246-2.908-.739a5.012 5.012 0 0 1-1.91-2.065c-.447-.885-.671-1.919-.671-3.103 0-1.183.224-2.219.671-3.109.453-.89 1.089-1.581 1.91-2.073.82-.493 1.789-.739 2.908-.739s2.088.246 2.908.739a4.946 4.946 0 0 1 1.902 2.073c.452.89.679 1.926.679 3.109 0 1.184-.227 2.218-.679 3.103a4.954 4.954 0 0 1-1.902 2.065c-.82.493-1.789.739-2.908.739zm.015-2.163c.606 0 1.114-.166 1.521-.5.408-.338.711-.79.91-1.357a5.562 5.562 0 0 0 .306-1.894c0-.701-.102-1.335-.306-1.902-.199-.571-.502-1.026-.91-1.364-.407-.338-.915-.507-1.521-.507-.622 0-1.139.169-1.551.507-.408.338-.714.793-.918 1.364a5.742 5.742 0 0 0-.298 1.902c0 .696.1 1.327.298 1.894.204.567.51 1.019.918 1.357.412.334.929.5 1.551.5zm12.016 2.14c-.9 0-1.706-.231-2.417-.693-.711-.463-1.272-1.134-1.685-2.014-.413-.88-.619-1.949-.619-3.206 0-1.273.209-2.347.626-3.222.423-.88.992-1.544 1.708-1.991a4.393 4.393 0 0 1 2.394-.679c.671 0 1.223.115 1.656.343.432.224.775.495 1.029.813.253.313.45.609.589.888h.112v-5.713h2.707V806h-2.655v-1.805h-.164a4.604 4.604 0 0 1-.604.888 3.34 3.34 0 0 1-1.044.79c-.433.219-.977.328-1.633.328zm.753-2.214c.572 0 1.059-.155 1.461-.463.403-.313.709-.748.918-1.305.209-.557.313-1.206.313-1.946 0-.741-.104-1.385-.313-1.932-.204-.547-.507-.972-.91-1.275-.398-.303-.888-.455-1.469-.455-.602 0-1.104.157-1.507.47-.402.313-.706.746-.909 1.298-.204.551-.306 1.183-.306 1.894 0 .716.102 1.354.306 1.916.208.557.514.997.917 1.32.408.318.907.478 1.499.478zm8.223 2.013v-11.455h2.7V806h-2.7zm1.358-13.08c-.428 0-.796-.142-1.104-.425a1.372 1.372 0 0 1-.462-1.037c0-.408.154-.753.462-1.036a1.557 1.557 0 0 1 1.104-.433c.432 0 .8.144 1.103.433.309.283.463.628.463 1.036 0 .403-.154.748-.463 1.037a1.558 1.558 0 0 1-1.103.425zm9.92 1.625v2.089h-6.771v-2.089h6.771zM618.196 806v-12.536c0-.77.159-1.412.478-1.924a3.013 3.013 0 0 1 1.297-1.148 4.202 4.202 0 0 1 1.805-.381c.467 0 .882.038 1.245.112.363.075.632.142.806.202l-.537 2.088a4.717 4.717 0 0 0-.433-.105 2.602 2.602 0 0 0-.581-.059c-.503 0-.858.121-1.067.365-.204.239-.306.582-.306 1.029V806h-2.707zm8.871 4.295a5.44 5.44 0 0 1-1.022-.089 3.777 3.777 0 0 1-.738-.194l.626-2.103c.393.114.744.169 1.052.164.308-.005.579-.102.813-.291.238-.184.44-.492.604-.924l.231-.619-4.154-11.694h2.864l2.64 8.651h.119l2.647-8.651h2.872l-4.587 12.842a5.15 5.15 0 0 1-.85 1.559c-.353.437-.785.77-1.297.999-.508.234-1.114.35-1.82.35zm21.432-15.75v2.089h-6.771v-2.089h6.771zM643.421 806v-12.536c0-.77.159-1.412.477-1.924a3.015 3.015 0 0 1 1.298-1.148 4.199 4.199 0 0 1 1.805-.381c.467 0 .882.038 1.245.112.363.075.631.142.805.202l-.537 2.088a4.607 4.607 0 0 0-.432-.105 2.605 2.605 0 0 0-.582-.059c-.502 0-.857.121-1.066.365-.204.239-.306.582-.306 1.029V806h-2.707zm11.758.224c-1.118 0-2.088-.246-2.908-.739a5.01 5.01 0 0 1-1.909-2.065c-.447-.885-.671-1.919-.671-3.103 0-1.183.224-2.219.671-3.109a5 5 0 0 1 1.909-2.073c.82-.493 1.79-.739 2.908-.739 1.119 0 2.088.246 2.909.739a4.95 4.95 0 0 1 1.901 2.073c.453.89.679 1.926.679 3.109 0 1.184-.226 2.218-.679 3.103a4.959 4.959 0 0 1-1.901 2.065c-.821.493-1.79.739-2.909.739zm.015-2.163c.607 0 1.114-.166 1.522-.5.407-.338.711-.79.909-1.357a5.562 5.562 0 0 0 .306-1.894c0-.701-.102-1.335-.306-1.902-.198-.571-.502-1.026-.909-1.364-.408-.338-.915-.507-1.522-.507-.621 0-1.138.169-1.551.507-.407.338-.713.793-.917 1.364-.199.567-.298 1.201-.298 1.902 0 .696.099 1.327.298 1.894.204.567.51 1.019.917 1.357.413.334.93.5 1.551.5zm7.765 1.939v-11.455h2.618v1.91h.119c.209-.662.567-1.171 1.074-1.529a2.955 2.955 0 0 1 1.753-.545c.149 0 .315.008.499.023.189.01.346.027.47.052v2.483a2.92 2.92 0 0 0-.544-.104 4.987 4.987 0 0 0-.709-.052c-.492 0-.934.107-1.327.32a2.35 2.35 0 0 0-.918.873 2.465 2.465 0 0 0-.335 1.29V806h-2.7zm13.655 0v-15.273h5.846c1.104 0 2.021.174 2.752.522.736.343 1.285.813 1.648 1.41.368.596.552 1.272.552 2.028 0 .622-.119 1.154-.358 1.596a2.993 2.993 0 0 1-.962 1.066c-.403.274-.852.47-1.35.59v.149c.542.03 1.062.196 1.559.499a3.47 3.47 0 0 1 1.23 1.268c.319.547.478 1.208.478 1.984 0 .79-.192 1.501-.575 2.133-.382.626-.959 1.121-1.73 1.484-.77.363-1.74.544-2.908.544h-6.182zm2.767-2.312h2.975c1.004 0 1.728-.191 2.17-.574.448-.388.671-.885.671-1.491a2.286 2.286 0 0 0-1.29-2.089c-.413-.213-.905-.32-1.476-.32h-3.05v4.474zm0-6.465h2.736c.478 0 .908-.087 1.29-.261.383-.179.684-.43.903-.754.224-.328.335-.715.335-1.163 0-.592-.208-1.079-.626-1.462-.413-.382-1.027-.574-1.842-.574h-2.796v4.214zm18.216 3.96v-6.638h2.7V806h-2.618v-2.036h-.119a3.456 3.456 0 0 1-1.275 1.574c-.587.407-1.31.611-2.171.611-.75 0-1.414-.166-1.991-.499-.571-.339-1.019-.828-1.342-1.47-.323-.646-.485-1.426-.485-2.341v-7.294h2.7v6.876c0 .726.199 1.303.596 1.73.398.428.92.642 1.566.642.398 0 .783-.097 1.156-.291.373-.194.679-.482.918-.865.243-.388.365-.873.365-1.454zm8.175-10.456V806h-2.699v-15.273h2.699zm5.237 11.679-.007-3.259h.432l4.117-4.602h3.154l-5.063 5.638h-.56l-2.073 2.223zM708.548 806v-15.273h2.7V806h-2.7zm7.189 0-3.729-5.213 1.82-1.901 5.138 7.114h-3.229zm10.096 0v-15.273h9.933v2.32h-7.167v4.146h6.652v2.319h-6.652v4.169h7.226V806h-9.992zm12.636 0v-11.455h2.58v1.947h.135a3.034 3.034 0 0 1 1.185-1.536c.552-.373 1.211-.56 1.977-.56.775 0 1.429.189 1.961.567a2.96 2.96 0 0 1 1.133 1.529h.12a3.123 3.123 0 0 1 1.282-1.521c.607-.383 1.325-.575 2.156-.575 1.053 0 1.914.333 2.58 1 .666.666.999 1.638.999 2.915V806h-2.707v-7.271c0-.711-.189-1.23-.567-1.559-.378-.333-.84-.499-1.387-.499-.651 0-1.161.204-1.529.611-.362.403-.544.928-.544 1.574V806h-2.647v-7.383c0-.591-.179-1.064-.537-1.417-.353-.353-.816-.529-1.387-.529-.388 0-.741.099-1.059.298-.318.194-.572.47-.761.828-.189.353-.283.765-.283 1.238V806h-2.7zm22.143.231c-.726 0-1.38-.129-1.961-.388a3.203 3.203 0 0 1-1.373-1.163c-.333-.512-.499-1.143-.499-1.894 0-.646.119-1.181.358-1.603.238-.423.564-.761.977-1.015a4.925 4.925 0 0 1 1.394-.574 11.427 11.427 0 0 1 1.619-.291 60.351 60.351 0 0 0 1.633-.186c.417-.06.721-.149.909-.269.194-.124.291-.315.291-.574v-.045c0-.561-.166-.996-.499-1.305-.333-.308-.813-.462-1.44-.462-.661 0-1.185.144-1.573.433-.383.288-.641.628-.776 1.021l-2.52-.358c.199-.696.527-1.277.984-1.745a4.288 4.288 0 0 1 1.678-1.059 6.432 6.432 0 0 1 2.192-.358c.552 0 1.102.065 1.649.194a4.617 4.617 0 0 1 1.498.642 3.21 3.21 0 0 1 1.089 1.2c.279.507.418 1.141.418 1.902V806h-2.595v-1.574h-.09a3.28 3.28 0 0 1-.693.895 3.337 3.337 0 0 1-1.111.664c-.443.164-.962.246-1.559.246zm.701-1.983c.542 0 1.012-.107 1.409-.321.398-.219.704-.507.918-.865a2.21 2.21 0 0 0 .328-1.171v-1.35c-.085.07-.229.134-.433.194a6.08 6.08 0 0 1-.671.157c-.248.044-.495.084-.738.119-.244.035-.455.065-.634.089a4.735 4.735 0 0 0-1.081.269c-.319.124-.57.298-.754.522-.184.219-.276.502-.276.85 0 .497.182.873.545 1.126.363.254.825.381 1.387.381zm8.061 1.752v-11.455h2.7V806h-2.7zm1.358-13.08c-.428 0-.796-.142-1.104-.425a1.372 1.372 0 0 1-.462-1.037c0-.408.154-.753.462-1.036a1.557 1.557 0 0 1 1.104-.433c.432 0 .8.144 1.103.433.309.283.463.628.463 1.036 0 .403-.154.748-.463 1.037a1.558 1.558 0 0 1-1.103.425zm6.818-2.193V806h-2.7v-15.273h2.7zM568.17 721v-7.614l20.199-19.801c1.932-1.951 3.542-3.683 4.83-5.199 1.288-1.515 2.254-2.983 2.898-4.403.644-1.421.965-2.936.965-4.545 0-1.838-.416-3.41-1.25-4.716-.833-1.326-1.979-2.349-3.437-3.069-1.458-.719-3.116-1.079-4.972-1.079-1.912 0-3.589.398-5.028 1.193a8.217 8.217 0 0 0-3.352 3.324c-.777 1.439-1.165 3.153-1.165 5.142H567.83c0-3.693.842-6.903 2.528-9.631 1.686-2.727 4.006-4.839 6.96-6.335 2.974-1.496 6.383-2.244 10.227-2.244 3.902 0 7.33.729 10.285 2.187 2.954 1.459 5.246 3.457 6.875 5.995 1.647 2.537 2.471 5.435 2.471 8.693 0 2.178-.417 4.318-1.25 6.42-.833 2.102-2.301 4.432-4.403 6.989-2.084 2.557-5.01 5.653-8.779 9.29l-10.028 10.198v.398h25.341V721H568.17zm50.256 0v-58.182h22.273c4.204 0 7.699.663 10.483 1.989 2.803 1.307 4.896 3.096 6.278 5.369 1.402 2.273 2.102 4.849 2.102 7.727 0 2.368-.454 4.394-1.363 6.08a11.46 11.46 0 0 1-3.665 4.062c-1.534 1.042-3.248 1.79-5.142 2.245v.568c2.064.114 4.044.748 5.938 1.903 1.912 1.137 3.475 2.747 4.687 4.83 1.212 2.083 1.818 4.602 1.818 7.557 0 3.011-.729 5.719-2.187 8.125-1.459 2.386-3.656 4.271-6.591 5.653-2.936 1.383-6.629 2.074-11.08 2.074h-23.551zm10.54-8.807h11.335c3.826 0 6.582-.729 8.267-2.187 1.705-1.478 2.557-3.372 2.557-5.682 0-1.724-.426-3.277-1.278-4.659-.853-1.402-2.065-2.5-3.637-3.296-1.572-.814-3.447-1.221-5.625-1.221h-11.619v17.045zm0-24.631h10.426c1.818 0 3.456-.331 4.915-.994 1.458-.682 2.604-1.638 3.437-2.869.853-1.25 1.279-2.727 1.279-4.432 0-2.254-.796-4.11-2.387-5.568-1.572-1.458-3.911-2.188-7.017-2.188h-10.653v16.051zM670.55 721v-43.636h10.284V721H670.55zm5.17-49.83c-1.629 0-3.03-.539-4.204-1.619-1.175-1.098-1.762-2.415-1.762-3.949 0-1.553.587-2.869 1.762-3.949 1.174-1.098 2.575-1.647 4.204-1.647 1.648 0 3.049.549 4.205 1.647 1.174 1.08 1.761 2.396 1.761 3.949 0 1.534-.587 2.851-1.761 3.949-1.156 1.08-2.557 1.619-4.205 1.619zm25.973-8.352V721h-10.284v-58.182h10.284zm20.86 0V721h-10.285v-58.182h10.285zM733.128 721v-43.636h10.284V721h-10.284zm5.17-49.83c-1.628 0-3.03-.539-4.204-1.619-1.174-1.098-1.762-2.415-1.762-3.949 0-1.553.588-2.869 1.762-3.949 1.174-1.098 2.576-1.647 4.204-1.647 1.648 0 3.05.549 4.205 1.647 1.174 1.08 1.761 2.396 1.761 3.949 0 1.534-.587 2.851-1.761 3.949-1.155 1.08-2.557 1.619-4.205 1.619zm34.723 50.682c-4.261 0-7.954-.937-11.079-2.812-3.125-1.875-5.549-4.498-7.273-7.87-1.705-3.371-2.557-7.31-2.557-11.818 0-4.507.852-8.456 2.557-11.846 1.724-3.39 4.148-6.023 7.273-7.898s6.818-2.813 11.079-2.813c4.262 0 7.955.938 11.08 2.813 3.125 1.875 5.54 4.508 7.244 7.898 1.724 3.39 2.585 7.339 2.585 11.846 0 4.508-.861 8.447-2.585 11.818-1.704 3.372-4.119 5.995-7.244 7.87s-6.818 2.812-11.08 2.812zm.057-8.238c2.311 0 4.243-.635 5.796-1.904 1.553-1.288 2.708-3.011 3.465-5.17.777-2.159 1.165-4.565 1.165-7.216 0-2.671-.388-5.085-1.165-7.244-.757-2.178-1.912-3.911-3.465-5.199-1.553-1.288-3.485-1.932-5.796-1.932-2.367 0-4.337.644-5.909 1.932-1.553 1.288-2.718 3.021-3.494 5.199-.758 2.159-1.137 4.573-1.137 7.244 0 2.651.379 5.057 1.137 7.216.776 2.159 1.941 3.882 3.494 5.17 1.572 1.269 3.542 1.904 5.909 1.904zm39.865-18.182V721h-10.284v-43.636h9.83v7.414H813c1.004-2.443 2.604-4.384 4.801-5.823 2.216-1.44 4.953-2.16 8.21-2.16 3.012 0 5.635.644 7.87 1.932 2.253 1.288 3.996 3.154 5.227 5.597 1.25 2.443 1.865 5.407 1.847 8.892V721H830.67v-26.193c0-2.917-.757-5.199-2.272-6.847-1.496-1.648-3.57-2.471-6.222-2.471-1.799 0-3.399.397-4.801 1.193-1.383.776-2.472 1.903-3.267 3.38-.777 1.478-1.165 3.268-1.165 5.37zM564.833 939v-21.091h8.321c1.6 0 2.963.306 4.089.917 1.125.604 1.984 1.445 2.574 2.523.597 1.071.896 2.307.896 3.707 0 1.401-.302 2.636-.906 3.707-.604 1.072-1.48 1.906-2.626 2.503-1.14.597-2.52.896-4.14.896h-5.304v-3.574h4.583c.858 0 1.565-.147 2.121-.442a2.942 2.942 0 0 0 1.257-1.246c.281-.536.422-1.15.422-1.844 0-.7-.141-1.311-.422-1.833a2.818 2.818 0 0 0-1.257-1.225c-.563-.296-1.277-.443-2.142-.443h-3.007V939h-4.459zm18.694 0v-15.818h4.253v2.76h.165c.288-.982.772-1.723 1.452-2.225.68-.508 1.462-.762 2.348-.762.22 0 .457.014.711.041.254.028.477.066.669.114v3.892a5.846 5.846 0 0 0-.855-.164 7.691 7.691 0 0 0-.999-.072c-.645 0-1.222.14-1.73.422a3.104 3.104 0 0 0-1.194 1.153c-.289.495-.433 1.064-.433 1.71V939h-4.387zm18.339.309c-1.627 0-3.028-.33-4.202-.989a6.773 6.773 0 0 1-2.698-2.821c-.632-1.222-.948-2.668-.948-4.336 0-1.627.316-3.055.948-4.284.632-1.229 1.521-2.187 2.667-2.873 1.154-.687 2.506-1.03 4.058-1.03a8.26 8.26 0 0 1 2.914.504c.906.33 1.696.828 2.369 1.494.679.666 1.208 1.503 1.586 2.513.377 1.002.566 2.176.566 3.522v1.204h-13.357v-2.718h9.227c0-.632-.137-1.191-.411-1.679a2.957 2.957 0 0 0-1.144-1.143c-.48-.282-1.04-.422-1.678-.422-.666 0-1.257.154-1.772.463a3.245 3.245 0 0 0-1.194 1.226 3.465 3.465 0 0 0-.443 1.699v2.585c0 .782.144 1.459.433 2.028.295.57.71 1.01 1.246 1.319.535.309 1.17.463 1.905.463a4.16 4.16 0 0 0 1.339-.206 2.775 2.775 0 0 0 1.04-.618c.288-.274.508-.611.659-1.009l4.057.268a5.545 5.545 0 0 1-1.266 2.554c-.632.721-1.449 1.284-2.451 1.689-.996.398-2.146.597-3.45.597zm10.123-.309v-15.818h4.181v2.791h.185c.33-.927.879-1.658 1.648-2.194.769-.535 1.689-.803 2.76-.803 1.085 0 2.008.271 2.77.813a3.836 3.836 0 0 1 1.525 2.184h.164c.323-.907.907-1.631 1.751-2.173.851-.55 1.857-.824 3.017-.824 1.477 0 2.675.47 3.595 1.411.926.933 1.39 2.258 1.39 3.975V939h-4.377v-9.773c0-.879-.233-1.538-.7-1.977-.467-.44-1.051-.659-1.751-.659-.796 0-1.418.254-1.864.762-.446.501-.669 1.163-.669 1.987V939h-4.254v-9.866c0-.776-.223-1.393-.669-1.853-.439-.46-1.019-.69-1.74-.69a2.42 2.42 0 0 0-1.319.37c-.384.241-.69.58-.916 1.02-.227.432-.34.94-.34 1.524V939h-4.387zm26.451 0v-15.818h4.387V939h-4.387zm2.204-17.857a2.388 2.388 0 0 1-1.679-.649c-.46-.439-.69-.965-.69-1.576 0-.604.23-1.122.69-1.555a2.366 2.366 0 0 1 1.679-.659c.652 0 1.208.22 1.668.659.467.433.701.951.701 1.555 0 .611-.234 1.137-.701 1.576a2.35 2.35 0 0 1-1.668.649zm15.841 11.122v-9.083h4.387V939h-4.212v-2.873h-.164a4.67 4.67 0 0 1-1.782 2.235c-.824.562-1.83.844-3.017.844-1.058 0-1.988-.24-2.791-.721-.803-.481-1.432-1.164-1.885-2.049-.446-.886-.673-1.947-.679-3.182v-10.072h4.387v9.289c.006.934.257 1.672.751 2.214.495.542 1.157.814 1.988.814.529 0 1.023-.121 1.483-.361.46-.247.831-.611 1.112-1.091.288-.481.429-1.075.422-1.782zm7.897 6.735v-15.818h4.181v2.791h.185c.33-.927.879-1.658 1.648-2.194.769-.535 1.689-.803 2.76-.803 1.084 0 2.008.271 2.77.813.762.536 1.27 1.264 1.524 2.184h.165c.323-.907.906-1.631 1.751-2.173.851-.55 1.857-.824 3.017-.824 1.476 0 2.674.47 3.594 1.411.927.933 1.39 2.258 1.39 3.975V939h-4.376v-9.773c0-.879-.234-1.538-.701-1.977-.467-.44-1.05-.659-1.75-.659-.797 0-1.418.254-1.864.762-.447.501-.67 1.163-.67 1.987V939h-4.253v-9.866c0-.776-.223-1.393-.669-1.853-.44-.46-1.02-.69-1.741-.69-.487 0-.927.123-1.318.37-.384.241-.69.58-.917 1.02-.226.432-.339.94-.339 1.524V939h-4.387zm189.698-3v-21.091h8.074c1.524 0 2.791.24 3.8.721 1.016.474 1.775 1.122 2.276 1.946.508.824.762 1.758.762 2.801 0 .859-.165 1.593-.494 2.204a4.17 4.17 0 0 1-1.329 1.473 5.615 5.615 0 0 1-1.864.814v.206a4.576 4.576 0 0 1 2.153.689c.693.412 1.26.996 1.699 1.751.439.755.659 1.669.659 2.74 0 1.091-.264 2.073-.793 2.945-.529.865-1.325 1.548-2.389 2.049-1.064.501-2.403.752-4.016.752h-8.538zm3.821-3.192h4.109c1.387 0 2.386-.265 2.997-.793.618-.536.927-1.223.927-2.06a3.153 3.153 0 0 0-1.782-2.884c-.57-.295-1.25-.442-2.039-.442h-4.212v6.179zm0-8.929h3.779c.659 0 1.253-.12 1.782-.361a2.991 2.991 0 0 0 1.246-1.04c.309-.453.464-.988.464-1.606 0-.817-.289-1.49-.866-2.019-.569-.528-1.417-.793-2.543-.793h-3.862v5.819zm25.156 5.468v-9.165h3.728V936h-3.615v-2.811h-.164a4.76 4.76 0 0 1-1.761 2.173c-.811.562-1.809.844-2.997.844-1.037 0-1.953-.23-2.75-.69-.789-.467-1.407-1.143-1.854-2.029-.446-.892-.669-1.97-.669-3.233v-10.072h3.728v9.495c0 1.002.275 1.799.824 2.389.549.59 1.27.886 2.163.886.549 0 1.081-.134 1.596-.402a3.24 3.24 0 0 0 1.266-1.195c.337-.535.505-1.204.505-2.008zm9.879 12.585c-.508 0-.979-.041-1.411-.124a5.184 5.184 0 0 1-1.02-.268l.865-2.904c.543.158 1.027.234 1.452.227.426-.007.8-.141 1.123-.402.33-.254.608-.679.834-1.277l.319-.854-5.736-16.148h3.955l3.645 11.946h.165l3.656-11.946h3.965l-6.334 17.733c-.295.838-.686 1.556-1.174 2.153a4.77 4.77 0 0 1-1.791 1.38c-.701.322-1.538.484-2.513.484zm25.313-15.2V936h-3.728v-15.818h3.563v2.688h.186a4.511 4.511 0 0 1 1.74-2.111c.803-.522 1.795-.783 2.976-.783 1.092 0 2.043.233 2.853.7.817.467 1.448 1.143 1.895 2.029.453.886.676 1.96.669 3.223V936h-3.728v-9.495c0-1.057-.275-1.885-.824-2.482-.542-.597-1.294-.896-2.255-.896-.652 0-1.232.144-1.741.433-.501.281-.895.69-1.184 1.225-.281.536-.422 1.184-.422 1.947zm20.844 9.577c-1.545 0-2.884-.34-4.017-1.02-1.132-.679-2.011-1.63-2.636-2.852-.618-1.222-.927-2.65-.927-4.284s.309-3.066.927-4.295c.625-1.229 1.504-2.183 2.636-2.863 1.133-.679 2.472-1.019 4.017-1.019 1.544 0 2.883.34 4.016 1.019 1.133.68 2.008 1.634 2.626 2.863.625 1.229.937 2.661.937 4.295s-.312 3.062-.937 4.284c-.618 1.222-1.493 2.173-2.626 2.852-1.133.68-2.472 1.02-4.016 1.02zm.02-2.987c.838 0 1.538-.23 2.101-.69.563-.466.982-1.091 1.257-1.874.281-.783.422-1.654.422-2.616 0-.968-.141-1.843-.422-2.626-.275-.789-.694-1.417-1.257-1.884-.563-.467-1.263-.701-2.101-.701-.858 0-1.572.234-2.142.701-.563.467-.985 1.095-1.266 1.884-.275.783-.412 1.658-.412 2.626 0 .962.137 1.833.412 2.616.281.783.703 1.408 1.266 1.874.57.46 1.284.69 2.142.69zM952.648 936l-4.47-15.818h3.8l2.781 11.122h.144l2.842-11.122h3.759l2.843 11.06h.154l2.74-11.06h3.81L966.571 936h-3.882l-2.966-10.69h-.217L956.541 936h-3.893z"/><path fill="#AEF900" d="M852 941.767h119.751v1.977H852v-1.977z"/><g clip-path="url(#e)"><g clip-path="url(#f)"><path fill="url(#g)" d="m591.462 100-23.259-15.57 20.701-12.78 24.887 14.175L591.462 100z"/><path fill="#B1FC03" d="m591.927 44 21.399 13.012-45.123 27.42V59.335L591.927 44z"/></g></g><path fill="#AEF900" d="M563 868h409v1H563zm4.185-467.685 2.584-10.832 5.701 9.404 11.254 2.883-9.826 5.402-2.162 11.13-6.123-9.702-11.068-1.802 9.64-6.483zm97-206 2.584-10.832 5.701 9.404 11.254 2.883-9.826 5.402-2.162 11.13-6.123-9.702-11.068-1.802 9.64-6.483z"/><path stroke="#AEF900" stroke-linecap="round" stroke-linejoin="round" stroke-width="3" d="m746.5 226-33 56.5m33-56.5 91 53m-91-53 18.727 51m-51.727 5.5L804 335m-90.5-52.5 51.727-5.5M804 335l33.5-56M804 335l-19-47.444M837.5 279l-52.5 8.556m0 0L770 290l-4.773-13m-10.061 101.632-36.026 31.676m36.026-31.676 51.052 57.919m-51.052-57.919 1.233 39.812m-37.259-8.136 50.821 57.455m-50.821-57.455 37.259 8.136m13.562 49.319 36.257-31.212m-36.257 31.212-2.246-37.402m38.503 6.19-38.503-6.19m0 0-11.001-1.768-.315-10.149m211.408 121.335-67.105 56.982m67.105-56.982 91.843 107.889m-91.843-107.889 1.004 73.09m-68.109-16.108 91.432 107.031m-91.432-107.031 68.109 16.108m23.323 90.923 67.516-56.124m-67.516 56.124-2.938-68.699m70.454 12.575-70.454-12.575m0 0-20.13-3.593-.255-18.631"/><path stroke="#AEF900" stroke-linecap="round" stroke-width="3" d="M1224.33 615.904c-45.91-8.067-112.93 22.131-280.832-243.329m0 0c4.724 8.039 10.901 28.809-2.186 47.578m2.186-47.578c3.868 7.229 18.174 20.505 44.453 15.777M795.5 464c26.167 39.333 86.7 130.2 119.5 179 41 61 107 118.5 168.5 119.5m125.5-27c-61.5-1-127.5-58.5-168.5-119.5-32.8-48.8-93.333-139.667-119.5-179-22-33-71.1-102.7-91.5-117.5"/><path fill="#B1FC03" d="M690.307 307.043c-2.867-20.545-8.845-39.117-13.806-50.543-15.6-32.799-41.5-46.666-52.5-49.5C589 200 566.167 232.334 562 250.501c-3.538 9.762-6.398 33.102-.455 62.173 29.848-10.473 78.76-19.056 128.762-5.631z"/><path fill="#B1FC03" d="M690.729 310.27c-49.915-13.753-98.937-5.107-128.553 5.36a182.87 182.87 0 0 0 9.825 30.87c6.835 16.346 16.453 30.395 27.383 40.783 14.762 1.998 32.028 5.972 52.788 17.516 10.107-3.119 19.543-10.582 27.329-23.299 12.611-20.599 14.178-47.07 11.228-71.23z"/><path fill="#B1FC03" d="M603.442 390.921c13.994 11.807 29.748 17.668 44.416 14.941-17.09-9.084-31.614-12.906-44.416-14.941z"/><path fill="#AEF900" d="M647.859 405.862c1.45-.27 2.889-.623 4.314-1.063a185.038 185.038 0 0 1 11.085 6.694c41.75 27.196 96.878 85.125 173.474 211.958-1.823-10.203-1.017-23.557 8.063-35.842a1.5 1.5 0 1 1 2.413 1.783c-12.746 17.245-8.025 36.847-3.77 45.172.146.261.281.516.405.765l-2.631 1.438-1.374-2.309c-4.861-7.057-17.959-17.483-41.112-13.975a1.5 1.5 0 1 1-.449-2.966c16.175-2.451 27.881 1.57 35.526 6.888-76.33-126.287-131.065-183.614-172.183-210.398a179.697 179.697 0 0 0-13.761-8.145zm42.872-95.591c16.106 4.437 32.306 11.208 47.976 21.002 36.557 22.848 74.838 65.121 107.886 108.82 33.023 43.665 60.709 88.603 76.094 116.63a1.501 1.501 0 0 0 2.63-1.444c-15.448-28.14-43.212-73.202-76.331-116.996-33.094-43.759-71.646-86.403-108.689-109.554-16.334-10.209-33.222-17.185-49.988-21.686.149 1.071.29 2.147.422 3.228z"/></g><path fill="#243" d="M1050 1h485v996h-485z"/><path fill="#AEF900" d="M1172.66 67.435h-3.19c-.09-.523-.25-.986-.5-1.39a3.734 3.734 0 0 0-.91-1.04 3.8 3.8 0 0 0-1.24-.638 4.882 4.882 0 0 0-1.5-.222c-.94 0-1.79.239-2.52.716-.73.471-1.31 1.165-1.72 2.08-.42.908-.62 2.02-.62 3.332 0 1.335.2 2.46.62 3.375.42.909.99 1.596 1.72 2.062.73.46 1.57.69 2.52.69.52 0 1.01-.068 1.46-.204.46-.142.87-.35 1.24-.622.37-.273.68-.608.93-1.006.25-.397.43-.852.52-1.364l3.19.018c-.12.83-.38 1.608-.77 2.335a6.99 6.99 0 0 1-1.55 1.926c-.63.551-1.38.983-2.23 1.295-.85.307-1.8.46-2.84.46-1.53 0-2.9-.355-4.11-1.065-1.2-.71-2.15-1.736-2.84-3.076-.69-1.341-1.04-2.95-1.04-4.824 0-1.881.35-3.489 1.05-4.824.7-1.341 1.65-2.367 2.85-3.077 1.21-.71 2.57-1.065 4.09-1.065.97 0 1.88.136 2.71.409a6.99 6.99 0 0 1 2.24 1.202 6.436 6.436 0 0 1 1.61 1.926c.42.755.7 1.62.83 2.59zm8.47 11.82c-1.28 0-2.38-.28-3.32-.843a5.663 5.663 0 0 1-2.18-2.36c-.52-1.012-.77-2.194-.77-3.546 0-1.353.25-2.537.77-3.554a5.652 5.652 0 0 1 2.18-2.37c.94-.562 2.04-.843 3.32-.843 1.28 0 2.39.28 3.33.843a5.694 5.694 0 0 1 2.17 2.37c.52 1.017.77 2.201.77 3.554 0 1.352-.25 2.534-.77 3.545a5.706 5.706 0 0 1-2.17 2.36c-.94.563-2.05.845-3.33.845zm.02-2.47c.69 0 1.27-.191 1.74-.572.46-.386.81-.903 1.04-1.551.23-.648.35-1.37.35-2.165a6.46 6.46 0 0 0-.35-2.173c-.23-.653-.58-1.173-1.04-1.56-.47-.386-1.05-.58-1.74-.58-.71 0-1.3.194-1.77.58-.47.387-.82.907-1.05 1.56-.23.648-.34 1.372-.34 2.173 0 .796.11 1.517.34 2.165.23.648.58 1.165 1.05 1.551.47.38 1.06.571 1.77.571zm13.73 2.445c-1.03 0-1.95-.264-2.76-.793-.81-.528-1.46-1.295-1.93-2.3-.47-1.006-.7-2.228-.7-3.665 0-1.455.23-2.682.71-3.682.48-1.006 1.14-1.764 1.95-2.276a5.024 5.024 0 0 1 2.74-.775c.77 0 1.4.13 1.89.392.5.255.89.565 1.18.929.29.358.51.696.67 1.014h.13v-6.529h3.09V79h-3.03v-2.063h-.19c-.16.319-.39.657-.69 1.015-.3.352-.7.653-1.19.903-.5.25-1.12.375-1.87.375zm.86-2.531c.65 0 1.21-.176 1.67-.528.46-.359.81-.856 1.05-1.492s.36-1.378.36-2.225c0-.846-.12-1.582-.36-2.207-.23-.625-.58-1.11-1.04-1.457-.45-.347-1.01-.52-1.68-.52-.69 0-1.26.179-1.72.537-.46.358-.81.852-1.04 1.483-.23.63-.35 1.352-.35 2.164 0 .819.12 1.549.35 2.19.24.637.59 1.14 1.05 1.51.46.363 1.04.545 1.71.545zm9.4 2.301V65.91h3.09V79h-3.09zm1.55-14.949c-.49 0-.91-.162-1.26-.486-.35-.33-.53-.724-.53-1.184 0-.466.18-.861.53-1.185.35-.33.77-.494 1.26-.494.5 0 .92.165 1.26.494.35.324.53.719.53 1.185 0 .46-.18.855-.53 1.184-.34.324-.76.486-1.26.486zm11.34 1.858v2.386h-7.74V65.91h7.74zM1212.22 79V64.673c0-.88.19-1.613.55-2.199.37-.585.86-1.022 1.48-1.312.62-.29 1.31-.435 2.07-.435.53 0 1 .043 1.42.128.41.085.72.162.92.23l-.61 2.387c-.14-.04-.3-.08-.5-.12-.2-.045-.42-.068-.66-.068-.58 0-.98.14-1.22.418-.24.272-.35.665-.35 1.176V79h-3.1zm10.14 4.91c-.42 0-.81-.035-1.17-.103a4.312 4.312 0 0 1-.84-.222l.72-2.403c.45.13.85.193 1.2.187.35-.005.66-.116.93-.332.27-.21.5-.563.69-1.057l.26-.707-4.75-13.364h3.28l3.01 9.886h.14l3.03-9.886h3.28l-5.24 14.676c-.25.693-.57 1.287-.98 1.782-.4.5-.89.88-1.48 1.141-.58.268-1.27.401-2.08.401zM1095.2 783v-3.236l8.58-8.415c.82-.829 1.51-1.566 2.05-2.21.55-.644.96-1.268 1.24-1.871.27-.604.41-1.248.41-1.932 0-.781-.18-1.449-.53-2.004a3.59 3.59 0 0 0-1.47-1.304c-.62-.306-1.32-.459-2.11-.459-.81 0-1.52.169-2.14.507a3.5 3.5 0 0 0-1.42 1.413c-.33.611-.5 1.34-.5 2.185h-4.26c0-1.57.36-2.934 1.08-4.093.71-1.159 1.7-2.057 2.96-2.693 1.26-.635 2.71-.953 4.34-.953 1.66 0 3.12.31 4.37.929 1.26.62 2.23 1.469 2.92 2.548.7 1.079 1.05 2.31 1.05 3.695 0 .925-.17 1.835-.53 2.728-.35.894-.97 1.884-1.87 2.97-.88 1.087-2.13 2.403-3.73 3.949l-4.26 4.334v.169h10.77V783h-16.95zm30.25.471c-1.98 0-3.69-.503-5.11-1.509-1.42-1.015-2.51-2.475-3.28-4.383-.75-1.916-1.13-4.222-1.13-6.918.01-2.697.39-4.991 1.15-6.883.76-1.899 1.85-3.348 3.27-4.346 1.42-.998 3.12-1.497 5.1-1.497 1.98 0 3.69.499 5.11 1.497 1.43.998 2.52 2.447 3.27 4.346.77 1.9 1.15 4.194 1.15 6.883 0 2.704-.38 5.014-1.15 6.93-.75 1.908-1.84 3.364-3.27 4.371-1.41 1.006-3.12 1.509-5.11 1.509zm0-3.779c1.55 0 2.77-.761 3.66-2.282.9-1.53 1.36-3.779 1.36-6.749 0-1.965-.21-3.615-.62-4.951-.41-1.336-.99-2.342-1.74-3.018a3.806 3.806 0 0 0-2.66-1.027c-1.53 0-2.75.765-3.64 2.295-.9 1.521-1.35 3.754-1.35 6.701-.01 1.972.19 3.63.59 4.974.41 1.344.99 2.358 1.74 3.043.74.676 1.63 1.014 2.66 1.014zm26.76-1.328v-1.304c0-.958.2-1.84.61-2.645a4.87 4.87 0 0 1 1.78-1.943c.78-.491 1.73-.737 2.84-.737 1.14 0 2.1.246 2.87.737a4.665 4.665 0 0 1 1.76 1.931c.4.805.6 1.691.6 2.657v1.304c0 .957-.2 1.839-.6 2.644-.41.805-1 1.453-1.78 1.944-.77.491-1.72.736-2.85.736-1.13 0-2.08-.245-2.86-.736a4.866 4.866 0 0 1-1.78-1.944 5.988 5.988 0 0 1-.59-2.644zm3.15-1.304v1.304c0 .636.16 1.219.46 1.75.31.532.85.797 1.62.797.78 0 1.32-.261 1.61-.785.29-.531.44-1.118.44-1.762v-1.304c0-.644-.14-1.232-.42-1.763-.28-.539-.82-.809-1.63-.809-.76 0-1.29.27-1.6.809a3.351 3.351 0 0 0-.48 1.763zm-15.72-12.847v-1.304c0-.966.21-1.851.62-2.656a4.808 4.808 0 0 1 1.79-1.932c.78-.491 1.72-.736 2.83-.736 1.14 0 2.09.245 2.87.736a4.667 4.667 0 0 1 1.76 1.932c.39.805.59 1.69.59 2.656v1.304c0 .966-.2 1.851-.6 2.656a4.71 4.71 0 0 1-1.77 1.92c-.78.483-1.73.724-2.85.724-1.13 0-2.09-.241-2.87-.724a4.735 4.735 0 0 1-1.76-1.932 5.864 5.864 0 0 1-.61-2.644zm3.18-1.304v1.304c0 .644.15 1.232.45 1.763.3.523.84.785 1.61.785.78 0 1.31-.262 1.6-.785.3-.531.44-1.119.44-1.763v-1.304c0-.644-.14-1.231-.42-1.763-.28-.539-.82-.809-1.62-.809-.76 0-1.3.27-1.6.809-.31.54-.46 1.127-.46 1.763zm-1.8 20.091 17-24.727h3.02l-17 24.727h-3.02zm51.9-16.831a6.477 6.477 0 0 0-.83-1.751c-.35-.523-.77-.97-1.26-1.34a5.081 5.081 0 0 0-1.66-.833 7.02 7.02 0 0 0-2.06-.29c-1.33 0-2.51.334-3.55 1.002-1.04.668-1.85 1.65-2.45 2.946-.59 1.288-.88 2.858-.88 4.709 0 1.868.29 3.449.88 4.745.59 1.296 1.41 2.282 2.45 2.958 1.05.668 2.26 1.002 3.65 1.002 1.26 0 2.34-.241 3.26-.724a5.15 5.15 0 0 0 2.14-2.053c.5-.893.74-1.939.74-3.139l1.02.157h-6.71v-3.501h10.03v2.97c0 2.117-.45 3.948-1.35 5.494a9.218 9.218 0 0 1-3.72 3.573c-1.58.83-3.39 1.244-5.43 1.244-2.28 0-4.28-.511-6.01-1.533-1.71-1.031-3.05-2.492-4.02-4.383-.95-1.9-1.43-4.154-1.43-6.761 0-1.997.28-3.78.84-5.349.57-1.57 1.37-2.902 2.39-3.997a10.22 10.22 0 0 1 3.6-2.511c1.38-.58 2.87-.869 4.49-.869 1.37 0 2.65.201 3.83.603 1.18.395 2.23.958 3.15 1.691a9.236 9.236 0 0 1 2.28 2.608c.6 1.006.99 2.117 1.17 3.332h-4.56zm8.91 16.831v-18.545h4.24v3.09h.19c.34-1.07.92-1.895 1.74-2.475.83-.587 1.77-.881 2.83-.881.25 0 .52.012.81.036.31.016.56.044.76.085v4.02c-.18-.064-.47-.12-.88-.169a8.018 8.018 0 0 0-1.14-.084c-.8 0-1.52.173-2.15.519-.63.338-1.13.809-1.49 1.413-.36.603-.54 1.299-.54 2.088V783h-4.37zm20.8.362c-1.81 0-3.38-.398-4.7-1.195-1.33-.797-2.36-1.912-3.1-3.345-.72-1.432-1.08-3.107-1.08-5.022 0-1.916.36-3.594 1.08-5.035.74-1.441 1.77-2.56 3.1-3.357 1.32-.796 2.89-1.195 4.7-1.195 1.82 0 3.38.399 4.71 1.195 1.33.797 2.36 1.916 3.08 3.357.73 1.441 1.1 3.119 1.1 5.035 0 1.915-.37 3.59-1.1 5.022-.72 1.433-1.75 2.548-3.08 3.345-1.33.797-2.89 1.195-4.71 1.195zm.03-3.501c.98 0 1.8-.27 2.46-.809.66-.548 1.15-1.28 1.47-2.198.33-.917.5-1.939.5-3.066 0-1.135-.17-2.162-.5-3.079-.32-.926-.81-1.662-1.47-2.21-.66-.547-1.48-.821-2.46-.821-1.01 0-1.85.274-2.51.821-.66.548-1.16 1.284-1.49 2.21-.32.917-.48 1.944-.48 3.079 0 1.127.16 2.149.48 3.066.33.918.83 1.65 1.49 2.198.66.539 1.5.809 2.51.809zm15.87 3.139-5.24-18.545h4.45l3.26 13.039h.17l3.33-13.039h4.41l3.33 12.967h.18l3.21-12.967h4.47L1254.85 783h-4.55l-3.48-12.533h-.25L1243.09 783h-4.56zm33.88-18.545v3.38h-10.66v-3.38h10.66zm-8.02-4.444h4.37v17.411c0 .587.08 1.038.26 1.352.19.306.43.515.73.628.29.113.62.169.99.169.27 0 .52-.02.74-.06.24-.041.42-.077.54-.109l.73 3.417c-.23.08-.56.169-1 .266-.43.096-.95.152-1.57.169-1.09.032-2.08-.133-2.96-.495a4.673 4.673 0 0 1-2.09-1.715c-.5-.773-.75-1.739-.74-2.898v-18.135zm16.45 12.123V783h-4.37v-24.727h4.27v9.333h.22a5.335 5.335 0 0 1 2.02-2.475c.91-.612 2.08-.918 3.5-.918 1.29 0 2.41.27 3.37.809.95.539 1.69 1.328 2.22 2.366.53 1.039.79 2.307.79 3.804V783h-4.37v-11.132c0-1.248-.32-2.218-.96-2.91-.64-.7-1.53-1.05-2.68-1.05-.78 0-1.47.169-2.08.507-.6.33-1.08.809-1.42 1.437-.34.627-.51 1.388-.51 2.282zM1095.44 829v-24.727h15.84v3.755h-11.36v6.713h10.27v3.755h-10.27V829h-4.48zm19.46 0v-18.545h4.24v3.09h.19c.34-1.07.92-1.895 1.74-2.475.83-.587 1.78-.881 2.84-.881.24 0 .51.012.81.036.3.016.56.044.76.085v4.02c-.19-.064-.48-.12-.88-.169-.4-.056-.78-.084-1.15-.084-.8 0-1.51.173-2.15.519-.63.338-1.12.809-1.48 1.413-.37.603-.55 1.299-.55 2.088V829h-4.37zm20.81.362c-1.81 0-3.38-.398-4.71-1.195s-2.36-1.912-3.09-3.345c-.73-1.432-1.09-3.107-1.09-5.022 0-1.916.36-3.594 1.09-5.035.73-1.441 1.76-2.56 3.09-3.357 1.33-.796 2.9-1.195 4.71-1.195s3.38.399 4.71 1.195c1.33.797 2.35 1.916 3.08 3.357.73 1.441 1.09 3.119 1.09 5.035 0 1.915-.36 3.59-1.09 5.022-.73 1.433-1.75 2.548-3.08 3.345-1.33.797-2.9 1.195-4.71 1.195zm.02-3.501c.98 0 1.81-.27 2.47-.809.66-.548 1.15-1.28 1.47-2.198.33-.917.49-1.939.49-3.066 0-1.135-.16-2.162-.49-3.079-.32-.926-.81-1.662-1.47-2.21-.66-.547-1.49-.821-2.47-.821-1 0-1.84.274-2.51.821-.66.548-1.15 1.284-1.48 2.21-.33.917-.49 1.944-.49 3.079 0 1.127.16 2.149.49 3.066.33.918.82 1.65 1.48 2.198.67.539 1.51.809 2.51.809zM1148.3 829v-18.545h4.18v3.151h.22c.39-1.063 1.03-1.892 1.92-2.487.89-.604 1.96-.906 3.2-.906 1.25 0 2.31.306 3.17.918.87.603 1.49 1.428 1.84 2.475h.19c.41-1.03 1.11-1.852 2.08-2.463.98-.62 2.14-.93 3.49-.93 1.7 0 3.1.539 4.18 1.618 1.07 1.079 1.61 2.652 1.61 4.721V829H1170v-11.772c0-1.151-.3-1.992-.92-2.523-.61-.54-1.36-.809-2.24-.809-1.06 0-1.88.33-2.48.99-.59.652-.88 1.501-.88 2.547V829h-4.29v-11.953c0-.958-.28-1.723-.86-2.294-.58-.572-1.32-.857-2.25-.857-.63 0-1.2.161-1.71.483-.52.313-.93.76-1.24 1.34-.3.571-.45 1.239-.45 2.004V829h-4.38zm39.14 0v-24.727h4.48v20.972h10.89V829h-15.37zm24.41.374c-1.18 0-2.24-.209-3.18-.628a5.21 5.21 0 0 1-2.22-1.883c-.54-.829-.81-1.851-.81-3.067 0-1.046.19-1.912.58-2.596a4.5 4.5 0 0 1 1.58-1.642c.67-.41 1.42-.72 2.26-.929.84-.218 1.72-.375 2.62-.471 1.09-.113 1.97-.214 2.64-.302.68-.097 1.17-.242 1.48-.435.31-.201.47-.511.47-.93v-.072c0-.91-.27-1.614-.81-2.113-.54-.499-1.32-.748-2.33-.748-1.07 0-1.92.233-2.55.7-.62.467-1.04 1.018-1.26 1.654l-4.08-.58c.33-1.127.86-2.068 1.6-2.825.74-.765 1.64-1.336 2.71-1.714 1.07-.387 2.26-.58 3.55-.58.9 0 1.79.105 2.67.314.89.209 1.7.555 2.43 1.038a5.208 5.208 0 0 1 1.76 1.944c.45.821.68 1.848.68 3.079V829h-4.2v-2.548h-.15c-.26.516-.64.999-1.12 1.449-.48.443-1.08.801-1.8 1.075-.72.265-1.56.398-2.52.398zm1.13-3.211c.88 0 1.64-.173 2.28-.52a3.84 3.84 0 0 0 1.49-1.4c.35-.58.53-1.212.53-1.896v-2.185c-.14.113-.37.217-.7.314-.32.096-.69.181-1.09.253-.4.073-.8.137-1.19.194l-1.03.144c-.65.089-1.23.234-1.75.435-.52.201-.92.483-1.22.845-.3.354-.45.813-.45 1.377 0 .805.3 1.412.89 1.823.58.41 1.33.616 2.24.616zm27.71-10.806-3.98.434a3.212 3.212 0 0 0-.6-1.135c-.27-.354-.64-.64-1.11-.857-.46-.217-1.03-.326-1.71-.326-.91 0-1.68.197-2.29.592-.62.394-.92.905-.91 1.533-.01.539.19.978.59 1.316.41.338 1.09.616 2.03.833l3.16.676c1.76.379 3.06.978 3.91 1.799.87.821 1.3 1.896 1.31 3.224-.01 1.167-.35 2.197-1.03 3.091-.67.885-1.6 1.578-2.79 2.077-1.19.499-2.56.748-4.1.748-2.27 0-4.1-.475-5.48-1.424-1.39-.958-2.21-2.291-2.48-3.997l4.26-.41c.2.837.61 1.469 1.24 1.895.62.427 1.44.64 2.45.64 1.03 0 1.87-.213 2.5-.64.63-.426.95-.954.95-1.582 0-.531-.21-.969-.62-1.316-.4-.346-1.03-.611-1.88-.796l-3.16-.665c-1.78-.37-3.1-.994-3.95-1.871-.85-.885-1.28-2.004-1.27-3.357-.01-1.143.3-2.133.93-2.97.64-.845 1.52-1.497 2.64-1.956 1.14-.467 2.45-.7 3.93-.7 2.17 0 3.88.463 5.13 1.389 1.26.925 2.03 2.177 2.33 3.755zm13.26-4.902v3.38h-10.66v-3.38h10.66zm-8.03-4.444h4.38v17.411c0 .587.08 1.038.26 1.352.19.306.43.515.73.628.29.113.62.169.99.169.27 0 .52-.02.74-.06.24-.041.41-.077.54-.109l.73 3.417a10 10 0 0 1-1 .266c-.43.096-.95.152-1.57.169-1.09.032-2.08-.133-2.96-.495a4.62 4.62 0 0 1-2.09-1.715c-.5-.773-.75-1.739-.75-2.898v-18.135zm18.63-1.738h5.05l6.05 10.939h.24l6.05-10.939h5.06l-8.99 15.503V829h-4.47v-9.224l-8.99-15.503zm30.19 25.089c-1.86 0-3.47-.386-4.82-1.159a7.84 7.84 0 0 1-3.1-3.308c-.73-1.433-1.09-3.119-1.09-5.059 0-1.908.36-3.582 1.09-5.023.73-1.449 1.75-2.576 3.07-3.38 1.31-.813 2.85-1.22 4.62-1.22 1.14 0 2.22.185 3.24.555 1.02.363 1.92.926 2.7 1.691.79.764 1.41 1.738 1.86 2.922.45 1.175.68 2.575.68 4.201v1.341h-15.21v-2.946h11.02c-.01-.838-.19-1.582-.55-2.234a3.956 3.956 0 0 0-1.48-1.558c-.63-.378-1.36-.567-2.2-.567-.89 0-1.68.217-2.35.652-.68.426-1.21.99-1.59 1.69a4.768 4.768 0 0 0-.56 2.282v2.572c0 1.079.19 2.004.59 2.777.39.765.94 1.352 1.65 1.763.71.402 1.54.603 2.49.603.64 0 1.21-.088 1.73-.265.51-.185.96-.455 1.34-.809.37-.354.66-.793.85-1.316l4.08.459a6.23 6.23 0 0 1-1.47 2.825c-.71.797-1.63 1.417-2.75 1.859-1.12.435-2.4.652-3.84.652zm17.28.012c-1.18 0-2.23-.209-3.18-.628a5.21 5.21 0 0 1-2.22-1.883c-.54-.829-.81-1.851-.81-3.067 0-1.046.2-1.912.58-2.596.39-.684.92-1.231 1.59-1.642.66-.41 1.42-.72 2.25-.929.85-.218 1.72-.375 2.62-.471a108.4 108.4 0 0 0 2.65-.302c.67-.097 1.16-.242 1.47-.435.31-.201.47-.511.47-.93v-.072c0-.91-.27-1.614-.81-2.113-.54-.499-1.31-.748-2.33-.748-1.07 0-1.92.233-2.55.7-.62.467-1.03 1.018-1.25 1.654l-4.08-.58c.32-1.127.85-2.068 1.59-2.825.74-.765 1.65-1.336 2.72-1.714 1.07-.387 2.25-.58 3.55-.58.89 0 1.78.105 2.67.314a7.49 7.49 0 0 1 2.42 1.038c.74.475 1.32 1.123 1.77 1.944.45.821.67 1.848.67 3.079V829h-4.2v-2.548h-.14c-.27.516-.64.999-1.13 1.449-.47.443-1.07.801-1.8 1.075-.71.265-1.55.398-2.52.398zm1.13-3.211c.88 0 1.64-.173 2.29-.52.64-.354 1.14-.821 1.48-1.4.36-.58.53-1.212.53-1.896v-2.185c-.13.113-.37.217-.7.314a9.84 9.84 0 0 1-1.08.253c-.41.073-.8.137-1.2.194-.39.056-.74.104-1.03.144-.65.089-1.23.234-1.75.435-.51.201-.92.483-1.22.845-.29.354-.44.813-.44 1.377 0 .805.29 1.412.88 1.823.59.41 1.34.616 2.24.616zm13.06 2.837v-18.545h4.23v3.09h.2c.34-1.07.92-1.895 1.74-2.475.83-.587 1.77-.881 2.83-.881.25 0 .51.012.81.036.31.016.56.044.76.085v4.02c-.18-.064-.48-.12-.88-.169a8.05 8.05 0 0 0-1.15-.084c-.79 0-1.51.173-2.14.519-.63.338-1.13.809-1.49 1.413-.36.603-.54 1.299-.54 2.088V829h-4.37zm21.86 0v-3.236l8.59-8.415c.82-.829 1.5-1.566 2.05-2.21.55-.644.96-1.268 1.23-1.871.27-.604.41-1.248.41-1.932 0-.781-.18-1.449-.53-2.004a3.5 3.5 0 0 0-1.46-1.304c-.62-.306-1.32-.459-2.11-.459-.82 0-1.53.169-2.14.507-.61.33-1.09.801-1.43 1.413-.33.611-.49 1.34-.49 2.185h-4.26c0-1.57.36-2.934 1.07-4.093a7.255 7.255 0 0 1 2.96-2.693c1.26-.635 2.71-.953 4.35-.953 1.65 0 3.11.31 4.37.929 1.25.62 2.23 1.469 2.92 2.548.7 1.079 1.05 2.31 1.05 3.695 0 .925-.18 1.835-.53 2.728-.36.894-.98 1.884-1.87 2.97-.89 1.087-2.13 2.403-3.73 3.949l-4.27 4.334v.169h10.77V829h-16.95zm30.26.471c-1.99 0-3.7-.503-5.12-1.509-1.42-1.015-2.51-2.475-3.27-4.383-.76-1.916-1.14-4.222-1.14-6.918.01-2.697.39-4.991 1.15-6.883.76-1.899 1.86-3.348 3.27-4.346 1.43-.998 3.13-1.497 5.11-1.497 1.98 0 3.68.499 5.11 1.497 1.42.998 2.51 2.447 3.27 4.346.76 1.9 1.15 4.194 1.15 6.883 0 2.704-.39 5.014-1.15 6.93-.76 1.908-1.85 3.364-3.27 4.371-1.42 1.006-3.12 1.509-5.11 1.509zm0-3.779c1.55 0 2.76-.761 3.66-2.282.9-1.53 1.35-3.779 1.35-6.749 0-1.965-.21-3.615-.62-4.951-.41-1.336-.99-2.342-1.73-3.018a3.823 3.823 0 0 0-2.66-1.027c-1.54 0-2.75.765-3.65 2.295-.89 1.521-1.34 3.754-1.35 6.701-.01 1.972.19 3.63.59 4.974.41 1.344.99 2.358 1.74 3.043.75.676 1.64 1.014 2.67 1.014zm13.54 3.308v-3.236l8.58-8.415c.82-.829 1.51-1.566 2.05-2.21.55-.644.96-1.268 1.24-1.871.27-.604.41-1.248.41-1.932 0-.781-.18-1.449-.53-2.004a3.59 3.59 0 0 0-1.47-1.304c-.62-.306-1.32-.459-2.11-.459-.81 0-1.52.169-2.14.507a3.5 3.5 0 0 0-1.42 1.413c-.33.611-.5 1.34-.5 2.185h-4.26c0-1.57.36-2.934 1.08-4.093.71-1.159 1.7-2.057 2.96-2.693 1.26-.635 2.71-.953 4.34-.953 1.66 0 3.12.31 4.37.929 1.26.62 2.23 1.469 2.92 2.548.7 1.079 1.05 2.31 1.05 3.695 0 .925-.17 1.835-.53 2.728-.35.894-.97 1.884-1.87 2.97-.88 1.087-2.13 2.403-3.73 3.949l-4.26 4.334v.169h10.77V829h-16.95zm21.11 0v-3.236l8.59-8.415c.82-.829 1.5-1.566 2.05-2.21.55-.644.96-1.268 1.23-1.871a4.53 4.53 0 0 0 .41-1.932c0-.781-.17-1.449-.53-2.004a3.5 3.5 0 0 0-1.46-1.304c-.62-.306-1.32-.459-2.11-.459-.81 0-1.53.169-2.14.507a3.44 3.44 0 0 0-1.42 1.413c-.33.611-.5 1.34-.5 2.185h-4.26c0-1.57.36-2.934 1.07-4.093.72-1.159 1.71-2.057 2.96-2.693 1.27-.635 2.71-.953 4.35-.953 1.66 0 3.11.31 4.37.929 1.26.62 2.23 1.469 2.92 2.548.7 1.079 1.05 2.31 1.05 3.695 0 .925-.18 1.835-.53 2.728-.35.894-.98 1.884-1.87 2.97-.89 1.087-2.13 2.403-3.73 3.949l-4.26 4.334v.169h10.77V829h-16.96zm-323.15 110v-21.091h8.32c1.6 0 2.97.306 4.09.917 1.13.604 1.99 1.445 2.58 2.523.59 1.071.89 2.307.89 3.707 0 1.401-.3 2.636-.9 3.707-.61 1.072-1.48 1.906-2.63 2.503-1.14.597-2.52.896-4.14.896h-5.3v-3.574h4.58c.86 0 1.57-.147 2.12-.442.56-.302.98-.718 1.26-1.246.28-.536.42-1.15.42-1.844 0-.7-.14-1.311-.42-1.833-.28-.529-.7-.937-1.26-1.225-.56-.296-1.28-.443-2.14-.443h-3.01V939h-4.46zm18.7 0v-15.818h4.25v2.76h.17c.28-.982.77-1.723 1.45-2.225.68-.508 1.46-.762 2.35-.762.21 0 .45.014.71.041.25.028.47.066.67.114v3.892c-.21-.061-.5-.116-.86-.164s-.7-.072-1-.072c-.64 0-1.22.14-1.73.422-.5.274-.9.659-1.19 1.153-.29.495-.44 1.064-.44 1.71V939h-4.38zm18.34.309c-1.63 0-3.03-.33-4.21-.989a6.786 6.786 0 0 1-2.69-2.821c-.64-1.222-.95-2.668-.95-4.336 0-1.627.31-3.055.95-4.284.63-1.229 1.52-2.187 2.66-2.873 1.16-.687 2.51-1.03 4.06-1.03 1.04 0 2.02.168 2.92.504.9.33 1.69.828 2.36 1.494.68.666 1.21 1.503 1.59 2.513.38 1.002.57 2.176.57 3.522v1.204h-13.36v-2.718h9.23c0-.632-.14-1.191-.42-1.679a2.901 2.901 0 0 0-1.14-1.143c-.48-.282-1.04-.422-1.68-.422-.66 0-1.25.154-1.77.463-.51.302-.9.711-1.19 1.226a3.48 3.48 0 0 0-.45 1.699v2.585c0 .782.15 1.459.44 2.028.29.57.71 1.01 1.24 1.319.54.309 1.17.463 1.91.463.49 0 .93-.069 1.34-.206.4-.137.75-.343 1.04-.618.29-.274.5-.611.66-1.009l4.05.268a5.46 5.46 0 0 1-1.26 2.554c-.63.721-1.45 1.284-2.45 1.689-1 .398-2.15.597-3.45.597zm10.12-.309v-15.818h4.18v2.791h.19c.33-.927.87-1.658 1.64-2.194.77-.535 1.69-.803 2.76-.803 1.09 0 2.01.271 2.77.813.77.536 1.27 1.264 1.53 2.184h.16c.32-.907.91-1.631 1.75-2.173.85-.55 1.86-.824 3.02-.824 1.48 0 2.67.47 3.59 1.411.93.933 1.39 2.258 1.39 3.975V939h-4.37v-9.773c0-.879-.24-1.538-.7-1.977-.47-.44-1.05-.659-1.75-.659-.8 0-1.42.254-1.87.762-.44.501-.67 1.163-.67 1.987V939h-4.25v-9.866c0-.776-.22-1.393-.67-1.853-.44-.46-1.02-.69-1.74-.69-.49 0-.93.123-1.32.37-.38.241-.69.58-.91 1.02-.23.432-.34.94-.34 1.524V939h-4.39zm26.45 0v-15.818h4.39V939h-4.39zm2.2-17.857c-.65 0-1.21-.217-1.67-.649-.46-.439-.69-.965-.69-1.576 0-.604.23-1.122.69-1.555a2.337 2.337 0 0 1 1.67-.659c.66 0 1.21.22 1.67.659.47.433.7.951.7 1.555 0 .611-.23 1.137-.7 1.576-.46.432-1.01.649-1.67.649zm15.85 11.122v-9.083h4.38V939h-4.21v-2.873h-.16a4.71 4.71 0 0 1-1.79 2.235c-.82.562-1.83.844-3.01.844-1.06 0-1.99-.24-2.79-.721-.81-.481-1.44-1.164-1.89-2.049-.45-.886-.67-1.947-.68-3.182v-10.072h4.39v9.289c.01.934.26 1.672.75 2.214s1.16.814 1.99.814c.53 0 1.02-.121 1.48-.361.46-.247.83-.611 1.11-1.091.29-.481.43-1.075.43-1.782zm7.89 6.735v-15.818h4.18v2.791h.19c.33-.927.88-1.658 1.65-2.194.76-.535 1.68-.803 2.76-.803 1.08 0 2 .271 2.77.813a3.819 3.819 0 0 1 1.52 2.184h.16c.33-.907.91-1.631 1.76-2.173.85-.55 1.85-.824 3.01-.824 1.48 0 2.68.47 3.6 1.411.92.933 1.39 2.258 1.39 3.975V939h-4.38v-9.773c0-.879-.23-1.538-.7-1.977-.47-.44-1.05-.659-1.75-.659-.8 0-1.42.254-1.86.762-.45.501-.67 1.163-.67 1.987V939h-4.26v-9.866c0-.776-.22-1.393-.67-1.853-.44-.46-1.02-.69-1.74-.69-.48 0-.92.123-1.31.37-.39.241-.69.58-.92 1.02-.23.432-.34.94-.34 1.524V939h-4.39zm189.7-3v-21.091h8.07c1.53 0 2.79.24 3.8.721 1.02.474 1.78 1.122 2.28 1.946.51.824.76 1.758.76 2.801 0 .859-.16 1.593-.49 2.204a4.135 4.135 0 0 1-1.33 1.473c-.56.378-1.18.649-1.86.814v.206c.74.041 1.46.271 2.15.689.69.412 1.26.996 1.7 1.751.44.755.66 1.669.66 2.74 0 1.091-.27 2.073-.8 2.945-.53.865-1.32 1.548-2.39 2.049-1.06.501-2.4.752-4.01.752h-8.54zm3.82-3.192h4.11c1.39 0 2.39-.265 3-.793.61-.536.92-1.223.92-2.06a3.14 3.14 0 0 0-.46-1.689 3.2 3.2 0 0 0-1.32-1.195c-.57-.295-1.25-.442-2.04-.442h-4.21v6.179zm0-8.929h3.78c.66 0 1.25-.12 1.78-.361.53-.247.95-.593 1.25-1.04.31-.453.46-.988.46-1.606 0-.817-.29-1.49-.86-2.019-.57-.528-1.42-.793-2.55-.793h-3.86v5.819zm25.16 5.468v-9.165h3.73V936h-3.62v-2.811h-.16a4.78 4.78 0 0 1-1.77 2.173c-.81.562-1.8.844-2.99.844-1.04 0-1.96-.23-2.75-.69-.79-.467-1.41-1.143-1.86-2.029-.44-.892-.66-1.97-.66-3.233v-10.072h3.72v9.495c0 1.002.28 1.799.83 2.389.55.59 1.27.886 2.16.886.55 0 1.08-.134 1.6-.402.51-.268.93-.666 1.26-1.195.34-.535.51-1.204.51-2.008zm9.88 12.585c-.51 0-.98-.041-1.42-.124a5.099 5.099 0 0 1-1.01-.268l.86-2.904c.54.158 1.03.234 1.45.227.43-.007.8-.141 1.12-.402.33-.254.61-.679.84-1.277l.32-.854-5.74-16.148h3.96l3.64 11.946h.17l3.65-11.946h3.97l-6.34 17.733c-.29.838-.68 1.556-1.17 2.153a4.767 4.767 0 0 1-1.79 1.38c-.7.322-1.54.484-2.51.484zm25.31-15.2V936h-3.73v-15.818h3.56v2.688h.19a4.47 4.47 0 0 1 1.74-2.111c.8-.522 1.8-.783 2.98-.783 1.09 0 2.04.233 2.85.7.82.467 1.45 1.143 1.89 2.029.46.886.68 1.96.67 3.223V936h-3.72v-9.495c0-1.057-.28-1.885-.83-2.482-.54-.597-1.29-.896-2.25-.896-.66 0-1.24.144-1.74.433-.51.281-.9.69-1.19 1.225-.28.536-.42 1.184-.42 1.947zm20.84 9.577c-1.54 0-2.88-.34-4.01-1.02-1.14-.679-2.02-1.63-2.64-2.852-.62-1.222-.93-2.65-.93-4.284s.31-3.066.93-4.295c.62-1.229 1.5-2.183 2.64-2.863 1.13-.679 2.47-1.019 4.01-1.019 1.55 0 2.89.34 4.02 1.019 1.13.68 2.01 1.634 2.63 2.863.62 1.229.93 2.661.93 4.295s-.31 3.062-.93 4.284c-.62 1.222-1.5 2.173-2.63 2.852-1.13.68-2.47 1.02-4.02 1.02zm.02-2.987c.84 0 1.54-.23 2.1-.69.57-.466.99-1.091 1.26-1.874.28-.783.42-1.654.42-2.616 0-.968-.14-1.843-.42-2.626-.27-.789-.69-1.417-1.26-1.884-.56-.467-1.26-.701-2.1-.701-.85 0-1.57.234-2.14.701-.56.467-.98 1.095-1.27 1.884-.27.783-.41 1.658-.41 2.626 0 .962.14 1.833.41 2.616.29.783.71 1.408 1.27 1.874.57.46 1.29.69 2.14.69zm13.54 2.678-4.47-15.818h3.8l2.78 11.122h.14l2.85-11.122h3.75l2.85 11.06h.15l2.74-11.06h3.81L1491.57 936h-3.88l-2.97-10.69h-.21l-2.97 10.69h-3.89z"/><path fill="#AEF900" d="M1377 941.767h119.75v1.977H1377v-1.977z"/><g clip-path="url(#h)"><g clip-path="url(#i)"><path fill="url(#j)" d="m1116.46 100-23.26-15.57 20.7-12.78 24.89 14.175L1116.46 100z"/><path fill="#B1FC03" d="m1116.93 44 21.4 13.012-45.13 27.42V59.335L1116.93 44z"/></g></g><path fill="#AEF900" d="M1088 868h409v1h-409zm0-141h409v1h-409zm66.95-372.979c13.88 0 26.05 3.598 36.5 10.794v-.257l84.55 56.026v40.606l-58.59-40.092c-.35 18.676-6.26 33.924-17.74 45.746-11.65 11.651-26.55 17.476-44.72 17.476-18.33 0-33.32-5.996-44.97-17.99-11.65-12.164-17.48-27.841-17.48-47.031 0-19.36 5.83-35.037 17.48-47.031 11.48-12.164 26.47-18.247 44.97-18.247zm0 95.09c8.91 0 16.02-2.827 21.34-8.481 5.31-5.825 7.96-12.935 7.96-21.331 0-8.738-2.65-15.934-7.96-21.588-5.32-5.654-12.43-8.481-21.34-8.481-8.9 0-15.93 2.827-21.07 8.481-5.31 5.654-7.97 12.85-7.97 21.588 0 8.396 2.66 15.506 7.97 21.331 5.31 5.654 12.34 8.481 21.07 8.481zm27.5 100.323c9.94-16.62 24.42-24.929 43.44-24.929 16.62 0 29.72 5.825 39.32 17.476 9.59 11.479 14.39 27.156 14.39 47.031 0 20.046-4.8 35.808-14.39 47.288-9.6 11.479-22.7 17.219-39.32 17.219-19.02 0-33.5-8.224-43.44-24.672-9.08 12.507-21.5 18.761-37.26 18.761-16.62 0-29.56-5.569-38.81-16.705-9.25-11.308-13.88-25.272-13.88-41.891 0-16.62 4.63-30.498 13.88-41.634 9.25-11.137 22.19-16.705 38.81-16.705 15.93 0 28.35 6.253 37.26 18.761zm-50.88 22.873c-3.77 4.283-5.66 9.851-5.66 16.705 0 6.853 1.89 12.421 5.66 16.705 3.77 4.283 8.91 6.425 15.42 6.425s11.73-2.142 15.67-6.425c3.77-4.284 5.66-9.852 5.66-16.705 0-6.854-1.89-12.422-5.66-16.705-3.94-4.284-9.16-6.425-15.67-6.425s-11.65 2.141-15.42 6.425zm108.19 38.036c4.29-5.483 6.43-12.593 6.43-21.331s-2.14-15.763-6.43-21.074c-4.45-5.483-10.62-8.224-18.5-8.224-7.71 0-13.71 2.741-17.99 8.224-4.45 5.311-6.68 12.336-6.68 21.074 0 8.738 2.23 15.848 6.68 21.331 4.28 5.311 10.28 7.967 17.99 7.967 7.88 0 14.05-2.656 18.5-7.967z"/><defs><clipPath id="a"><path fill="#fff" d="M38 43h56v56H38z"/></clipPath><clipPath id="b"><path fill="#fff" d="M38 43h56v56H38z"/></clipPath><clipPath id="d"><path fill="#fff" d="M525 1h485v996H525z"/></clipPath><clipPath id="e"><path fill="#fff" d="M563 44h56v56h-56z"/></clipPath><clipPath id="f"><path fill="#fff" d="M563 44h56v56h-56z"/></clipPath><clipPath id="h"><path fill="#fff" d="M1088 44h56v56h-56z"/></clipPath><clipPath id="i"><path fill="#fff" d="M1088 44h56v56h-56z"/></clipPath><linearGradient id="c" x1="65.997" x2="27.467" y1="115.498" y2="91.449" gradientUnits="userSpaceOnUse"><stop stop-color="#B1FC03"/><stop offset="1" stop-color="#B1FC03" stop-opacity="0"/></linearGradient><linearGradient id="g" x1="590.997" x2="552.467" y1="116.498" y2="92.449" gradientUnits="userSpaceOnUse"><stop stop-color="#B1FC03"/><stop offset="1" stop-color="#B1FC03" stop-opacity="0"/></linearGradient><linearGradient id="j" x1="1116" x2="1077.47" y1="116.498" y2="92.449" gradientUnits="userSpaceOnUse"><stop stop-color="#B1FC03"/><stop offset="1" stop-color="#B1FC03" stop-opacity="0"/></linearGradient></defs></svg>