<?xml version="1.0" encoding="UTF-8"?>
<!-- Generator: visioncortex VTracer 0.6.3 -->
<svg version="1.1" xmlns="http://www.w3.org/2000/svg" width="1280" height="1280">
<path d="M0 0 C422.4 0 844.8 0 1280 0 C1280 422.4 1280 844.8 1280 1280 C857.6 1280 435.2 1280 0 1280 C0 857.6 0 435.2 0 0 Z " fill="#FCFCFC" transform="translate(0,0)"/>
<path d="M0 0 C1.43 -0 1.43 -0 2.88 -0.01 C4.47 -0 4.47 -0 6.08 0 C7.2 -0 8.32 -0 9.47 -0 C13.26 -0.01 17.06 -0 20.85 0 C23.57 0 26.29 0 29.01 0 C34.96 -0 40.91 0 46.86 0 C55.82 0.01 64.78 0.01 73.74 0.01 C88.75 0.01 103.76 0.01 118.77 0.02 C139.07 0.03 159.37 0.03 179.67 0.03 C228.49 0.03 277.32 0.05 326.14 0.06 C435.16 0.08 544.19 0.1 656.51 0.12 C656.51 422.52 656.51 844.92 656.51 1280.12 C39.51 1280.12 39.51 1280.12 33.51 1277.12 C31.2 1276.52 31.2 1276.52 28.95 1276.28 C28.13 1276.17 27.32 1276.06 26.48 1275.94 C24.79 1275.73 23.1 1275.52 21.41 1275.31 C16.67 1274.65 13.58 1273.77 9.51 1271.12 C5.96 1270.02 2.39 1269.11 -1.21 1268.19 C-4.32 1267.18 -5.97 1266.12 -8.49 1264.12 C-10.76 1263.27 -13.04 1262.63 -15.37 1261.97 C-17.71 1261.03 -18.74 1259.9 -20.49 1258.12 C-22.35 1257.31 -22.35 1257.31 -24.36 1256.75 C-28.46 1255.31 -30.44 1253.25 -33.49 1250.12 C-35.3 1248.93 -37.14 1247.76 -38.99 1246.62 C-43.04 1244.11 -46.27 1241.68 -49.49 1238.12 C-50.98 1236.62 -52.48 1235.12 -53.99 1233.62 C-54.77 1232.84 -55.55 1232.05 -56.36 1231.25 C-57.9 1229.71 -59.47 1228.19 -61.05 1226.69 C-65.87 1221.62 -70.48 1216.21 -73.86 1210.06 C-75.17 1207.05 -75.17 1207.05 -77.49 1206.12 C-78.49 1204.13 -78.49 1204.13 -79.49 1201.69 C-80.63 1198.9 -81.33 1197.28 -83.49 1195.12 C-83.96 1194.01 -84.44 1192.9 -84.92 1191.75 C-86.24 1188.26 -86.24 1188.26 -88.05 1186.19 C-89.74 1183.76 -90.21 1181.46 -90.83 1178.6 C-91.61 1175.66 -92.74 1172.95 -93.86 1170.12 C-101.21 1149.47 -101.88 1126.85 -100.49 1105.12 C-100.16 1104.79 -99.83 1104.46 -99.49 1104.12 C-98.94 1101.56 -98.45 1099.01 -97.99 1096.44 C-97.86 1095.73 -97.73 1095.02 -97.59 1094.29 C-97.02 1091.13 -96.46 1087.98 -95.95 1084.81 C-95.38 1081.48 -94.47 1078.35 -93.49 1075.12 C-93.32 1074.51 -93.15 1073.9 -92.97 1073.28 C-91.32 1067.79 -88.98 1062.67 -86.55 1057.5 C-86.21 1056.78 -85.88 1056.07 -85.53 1055.33 C-79.77 1043.24 -79.77 1043.24 -75.92 1039 C-73.75 1036.43 -72.15 1034.04 -70.49 1031.12 C-69.71 1029.78 -68.91 1028.45 -68.11 1027.12 C-67.73 1026.48 -67.35 1025.85 -66.96 1025.19 C-65.06 1022.53 -62.83 1020.4 -60.49 1018.12 C-59.65 1017.26 -58.81 1016.4 -57.94 1015.51 C-41.61 998.84 -41.61 998.84 -31.3 994.12 C-29.33 993.22 -29.33 993.22 -28.17 991.12 C-25.76 988.26 -23.04 988.08 -19.49 987.12 C-19.02 986.65 -18.56 986.18 -18.08 985.69 C-16.06 983.71 -14.14 983.04 -11.49 982.06 C-8.46 980.94 -6.2 979.93 -3.49 978.12 C-1.19 977.41 1.13 976.75 3.45 976.12 C8.08 974.94 8.08 974.94 12.47 973.11 C14.58 972.09 16.32 971.67 18.63 971.31 C19.4 971.18 20.17 971.06 20.97 970.93 C22.17 970.75 22.17 970.75 23.39 970.56 C24.18 970.44 24.97 970.31 25.78 970.18 C27.33 969.94 28.87 969.69 30.42 969.45 C32.2 969.17 33.98 968.87 35.76 968.57 C39.24 968.01 42.73 967.71 46.24 967.41 C48.67 967.18 48.67 967.18 51.51 966.12 C53.03 966.03 54.55 965.99 56.08 966 C56.86 966 57.65 965.99 58.45 965.99 C60.51 966.12 60.51 966.12 62.51 967.12 C65.39 967.45 68.26 967.74 71.14 968 C82.64 969.14 93.88 970.4 104.51 975.12 C106.62 975.75 106.62 975.75 108.51 976.12 C111.18 976.79 113.85 977.46 116.51 978.12 C116.51 978.78 116.51 979.44 116.51 980.12 C117.08 980.29 117.65 980.46 118.24 980.64 C123.47 982.28 127.82 984.29 132.51 987.12 C133.46 987.58 134.41 988.04 135.39 988.52 C140.51 991.15 144.93 994.67 149.51 998.12 C150.67 998.97 150.67 998.97 151.85 999.83 C163.28 1008.48 174.98 1019.14 182.1 1031.7 C184.05 1035.04 186.45 1037.91 188.94 1040.86 C190.97 1043.77 192.16 1046.84 193.51 1050.12 C194.61 1052.26 195.71 1054.38 196.83 1056.5 C199.57 1061.87 201.89 1067.33 203.95 1073 C204.21 1073.69 204.47 1074.38 204.74 1075.09 C206.44 1079.94 206.75 1083.99 206.51 1089.12 C209.77 1091.05 212.2 1091.38 215.96 1091.39 C217.03 1091.39 218.09 1091.4 219.19 1091.4 C220.33 1091.39 221.47 1091.38 222.64 1091.37 C223.81 1091.37 224.98 1091.36 226.19 1091.35 C242.63 1091.15 263.55 1090.6 278.51 1083.12 C279.6 1082.94 279.6 1082.94 280.7 1082.75 C283.69 1082.18 283.69 1082.18 287.01 1080.62 C289.99 1079.35 292.38 1078.75 295.51 1078.12 C297.88 1077.17 300.19 1076.17 302.51 1075.12 C303.67 1074.62 303.67 1074.62 304.86 1074.11 C308.29 1072.61 311.38 1071.21 314.51 1069.12 C315.84 1068.79 317.17 1068.5 318.51 1068.25 C322.31 1067.38 323.24 1066.29 325.51 1063.12 C327.83 1062.41 330.17 1061.74 332.51 1061.12 C333.88 1060.17 335.22 1059.17 336.51 1058.12 C338.51 1057.12 340.51 1056.12 342.51 1055.12 C343.86 1054.14 345.2 1053.14 346.51 1052.12 C347.36 1051.63 348.2 1051.13 349.08 1050.62 C351.48 1049.28 351.48 1049.28 353.01 1047.62 C354.96 1045.68 357.15 1044.54 359.51 1043.12 C379.45 1029.62 399.32 1010.92 411.51 990.12 C405.88 987.31 398.4 988.08 392.25 988.24 C377.94 988.59 366.75 987.55 355.21 978.22 C353.51 976.12 353.51 976.12 353.26 973.37 C353.34 972.63 353.43 971.89 353.51 971.12 C352.85 971.12 352.19 971.12 351.51 971.12 C349.11 966.15 348.14 962.55 348.14 956.94 C348.13 955.9 348.13 955.9 348.12 954.84 C348.11 952.53 348.12 950.22 348.13 947.9 C348.13 946.23 348.12 944.55 348.12 942.87 C348.11 938.27 348.11 933.66 348.12 929.06 C348.13 924.09 348.12 919.13 348.11 914.16 C348.1 904.43 348.1 894.71 348.11 884.98 C348.11 877.08 348.12 869.17 348.11 861.27 C348.11 860.14 348.11 859.02 348.11 857.86 C348.11 855.58 348.11 853.29 348.11 851.01 C348.1 829.59 348.11 808.17 348.12 786.75 C348.14 768.36 348.14 749.97 348.12 731.58 C348.11 710.23 348.1 688.88 348.11 667.54 C348.11 665.26 348.11 662.99 348.11 660.71 C348.11 659.59 348.11 658.47 348.11 657.32 C348.12 649.42 348.11 641.53 348.1 633.63 C348.1 624.01 348.1 614.39 348.11 604.77 C348.12 599.86 348.13 594.95 348.12 590.04 C348.11 585.55 348.11 581.06 348.13 576.57 C348.13 574.94 348.13 573.31 348.12 571.68 C348.11 569.47 348.12 567.27 348.14 565.06 C348.14 563.83 348.14 562.61 348.14 561.34 C348.55 557.82 349.55 556.03 351.51 553.12 C352.19 550.79 352.86 548.46 353.51 546.12 C354.89 543.06 354.89 543.06 356.51 540.12 C357.09 539.07 357.67 538.02 358.26 536.94 C361.01 533.51 363.43 532.61 367.51 531.12 C368.5 530.46 369.49 529.8 370.51 529.12 C372.85 529.08 375.18 529.08 377.51 529.12 C378.5 528.79 379.49 528.46 380.51 528.12 C382.79 528.05 385.06 528.04 387.33 528.06 C387.99 528.07 388.65 528.07 389.33 528.07 C391.43 528.09 393.54 528.1 395.64 528.12 C398.41 528.15 401.19 528.17 403.96 528.19 C405.81 528.2 405.81 528.2 407.69 528.22 C410.42 528.45 410.42 528.45 411.51 527.12 C411.61 524.78 411.65 522.46 411.64 520.11 C411.64 519.38 411.65 518.64 411.65 517.88 C411.65 515.43 411.65 512.97 411.65 510.51 C411.65 508.79 411.65 507.06 411.65 505.34 C411.65 501.69 411.65 498.05 411.64 494.41 C411.64 489.83 411.64 485.24 411.65 480.66 C411.87 442.14 411.87 442.14 409.08 403.75 C408.89 402.01 408.89 402.01 408.71 400.24 C408.11 394.89 407.25 390.22 405.51 385.12 C405.03 381.76 404.64 378.42 404.3 375.05 C403.83 370.82 402.94 367.12 401.51 363.12 C401.19 361.65 400.9 360.17 400.64 358.69 C398.56 348.01 395.59 337.78 391.62 327.67 C390 323.54 388.71 319.39 387.51 315.12 C386.81 313.42 386.1 311.72 385.35 310.04 C384.44 307.94 383.64 305.82 382.83 303.69 C380.13 296.9 376.76 290.46 373.44 283.96 C372.24 281.59 371.06 279.2 369.89 276.81 C367.67 272.36 365.27 268.02 362.86 263.67 C361.73 261.53 360.77 259.43 359.89 257.19 C358.72 254.09 358.72 254.09 356.51 252.12 C354.35 249.96 353.54 247.95 352.43 245.14 C350.51 240.92 347.76 235.25 343.51 233.12 C342.71 231.42 342.71 231.42 341.89 229.69 C339.24 224.18 335.41 219.78 331.51 215.12 C330.01 213.29 328.51 211.46 327.01 209.62 C326.26 208.71 325.5 207.79 324.72 206.84 C322.67 204.31 320.65 201.75 318.64 199.19 C314.73 194.28 310.52 189.67 306.25 185.08 C303.72 182.37 301.27 179.59 298.83 176.81 C295.63 173.25 292.33 170.05 288.67 166.97 C286.08 164.75 283.58 162.44 281.08 160.12 C277.09 156.49 273.04 153.08 268.74 149.83 C266.37 148.02 264.07 146.14 261.76 144.25 C255.4 139.14 248.7 134.38 241.79 130.04 C240.33 129.12 238.92 128.13 237.51 127.12 C237.51 126.46 237.51 125.8 237.51 125.12 C236.63 124.88 235.74 124.63 234.83 124.37 C231.36 123.07 229.35 121.46 226.51 119.12 C224.52 118.11 222.52 117.11 220.51 116.12 C219.81 115.59 219.11 115.05 218.39 114.5 C216.41 113.05 214.91 112.55 212.51 112.12 C212.51 111.46 212.51 110.8 212.51 110.12 C211.68 109.89 211.68 109.89 210.83 109.64 C205.85 108.12 201.89 106.21 197.57 103.32 C194.63 101.61 191.56 100.71 188.3 99.8 C186.51 99.12 186.51 99.12 185.51 97.12 C183.87 96.66 183.87 96.66 182.2 96.19 C178.51 95.12 178.51 95.12 176.58 93.62 C174.09 91.82 171.68 91.38 168.72 90.72 C165.58 89.87 162.75 88.5 159.81 87.14 C156.82 85.82 153.77 84.82 150.65 83.84 C148.51 83.12 148.51 83.12 146.13 82.13 C142.27 80.64 138.28 79.83 134.26 78.91 C131.51 78.12 131.51 78.12 128.51 76.12 C126.42 75.58 124.32 75.11 122.2 74.69 C120.95 74.43 119.69 74.18 118.4 73.91 C116.48 73.52 116.48 73.52 114.51 73.12 C111.13 72.38 107.74 71.63 104.35 70.87 C98.77 69.78 93.14 68.97 87.51 68.12 C86.4 67.95 85.28 67.78 84.13 67.61 C69.94 65.44 55.88 63.34 41.51 63.12 C40.28 63.1 39.04 63.08 37.77 63.06 C-0.36 61.58 -0.36 61.58 -37.49 68.12 C-39.78 68.44 -42.07 68.73 -44.36 69 C-51.53 69.9 -58.48 71.36 -65.49 73.12 C-66.26 73.31 -67.03 73.5 -67.83 73.69 C-75.47 75.51 -75.47 75.51 -82.86 78.12 C-85.96 79.31 -89.05 79.93 -92.3 80.56 C-94.58 81.15 -96.39 82.06 -98.49 83.12 C-100.08 83.63 -101.69 84.11 -103.3 84.56 C-106.33 85.44 -109.08 86.38 -111.99 87.62 C-114.77 88.82 -117.28 89.65 -120.17 90.44 C-126.35 92.24 -131.8 95.16 -137.49 98.12 C-140.11 99.45 -142.73 100.75 -145.36 102.06 C-146.72 102.74 -148.08 103.42 -149.44 104.1 C-152.1 105.43 -154.77 106.76 -157.44 108.09 C-158.07 108.4 -158.7 108.71 -159.35 109.03 C-161.06 109.88 -162.78 110.73 -164.5 111.58 C-169.57 114.07 -169.57 114.07 -173.86 117.62 C-176.34 119.91 -179.41 120.81 -182.49 122.12 C-182.82 122.78 -183.15 123.44 -183.49 124.12 C-184.62 124.6 -185.76 125.07 -186.92 125.56 C-190.68 126.83 -190.68 126.83 -192.49 130.12 C-194.15 130.81 -195.81 131.47 -197.49 132.12 C-197.96 132.6 -198.44 133.07 -198.92 133.56 C-200.49 135.12 -200.49 135.12 -203.49 136.56 C-206.6 138.18 -207.5 139.36 -209.49 142.12 C-211.15 143.14 -212.81 144.13 -214.49 145.12 C-217.91 147.68 -221.18 150.42 -224.49 153.12 C-225.92 154.3 -225.92 154.3 -227.38 155.5 C-235.15 161.92 -242.41 168.74 -249.51 175.89 C-251.24 177.63 -252.99 179.36 -254.73 181.1 C-261.44 187.8 -267.63 194.66 -273.49 202.12 C-274.88 203.85 -276.28 205.58 -277.67 207.31 C-281.03 211.52 -284.28 215.8 -287.49 220.12 C-288.51 221.48 -289.53 222.83 -290.55 224.19 C-295.54 230.8 -295.54 230.8 -300.05 237.75 C-301.49 240.12 -301.49 240.12 -303.39 242.39 C-306.22 246.08 -307.97 250.08 -309.92 254.28 C-311.49 257.12 -313.2 258.86 -315.49 261.12 C-315.82 262.32 -316.15 263.52 -316.49 264.75 C-316.82 265.86 -317.15 266.98 -317.49 268.12 C-318.15 268.42 -318.8 268.72 -319.48 269.02 C-321.73 269.95 -321.73 269.95 -322.21 272.44 C-322.38 273.77 -322.38 273.77 -322.55 275.12 C-322.9 277.81 -322.9 277.81 -323.49 280.12 C-324.48 280.78 -325.47 281.44 -326.49 282.12 C-327.14 284.15 -327.14 284.15 -327.42 286.44 C-328.24 290.71 -329.7 292.75 -332.49 296.12 C-333.37 298.34 -334.07 300.58 -334.77 302.86 C-335.49 305.12 -335.49 305.12 -337.05 308.75 C-338.58 312.14 -338.58 312.14 -339.55 315.94 C-340.49 319.12 -340.49 319.12 -342.49 321.12 C-342.96 322.97 -343.43 324.81 -343.86 326.67 C-344.57 329.44 -345.48 332.11 -346.42 334.81 C-348.28 340.25 -349.61 345.69 -350.78 351.31 C-351.49 354.12 -351.49 354.12 -352.51 356.15 C-353.74 358.64 -354.11 360.94 -354.55 363.69 C-354.8 365.26 -354.8 365.26 -355.06 366.87 C-355.58 370.86 -355.86 374.83 -356.05 378.85 C-356.49 381.12 -356.49 381.12 -357.98 382.47 C-360.36 385.09 -360.02 388.19 -360.11 391.56 C-360.41 398.83 -360.41 398.83 -360.95 400.93 C-367.17 426.52 -364.93 455.71 -364.81 481.81 C-364.8 485.8 -364.8 489.8 -364.81 493.79 C-364.81 497.66 -364.8 501.53 -364.79 505.4 C-364.79 507.23 -364.79 509.07 -364.79 510.9 C-364.79 513.43 -364.78 515.95 -364.76 518.48 C-364.76 519.23 -364.77 519.98 -364.77 520.75 C-364.86 524.89 -364.86 524.89 -362.49 528.12 C-359.26 528.35 -359.26 528.35 -355.46 528.21 C-354.01 528.19 -352.56 528.17 -351.12 528.15 C-348.85 528.11 -346.58 528.06 -344.31 528.01 C-320.89 527.48 -320.89 527.48 -312.49 535.12 C-301.79 549.04 -301.34 563.29 -301.35 580.17 C-301.34 581.82 -301.34 583.47 -301.34 585.11 C-301.33 589.63 -301.33 594.14 -301.33 598.65 C-301.32 603.53 -301.32 608.4 -301.31 613.27 C-301.3 623.92 -301.29 634.56 -301.29 645.21 C-301.28 651.86 -301.28 658.51 -301.28 665.15 C-301.26 683.56 -301.25 701.97 -301.25 720.38 C-301.25 721.56 -301.25 722.74 -301.25 723.95 C-301.25 725.13 -301.25 726.31 -301.25 727.53 C-301.25 729.92 -301.25 732.31 -301.25 734.7 C-301.25 735.89 -301.25 737.08 -301.25 738.3 C-301.24 757.53 -301.22 776.77 -301.2 796 C-301.18 815.76 -301.16 835.51 -301.16 855.26 C-301.16 866.35 -301.16 877.44 -301.14 888.52 C-301.12 897.96 -301.12 907.4 -301.13 916.84 C-301.13 921.66 -301.13 926.47 -301.12 931.29 C-301.1 935.7 -301.1 940.11 -301.12 944.52 C-301.12 946.11 -301.12 947.7 -301.11 949.3 C-301.05 961.1 -301.83 970.47 -309.84 979.68 C-321.33 991.06 -339.74 988.71 -354.51 988.66 C-357.07 988.66 -359.62 988.66 -362.18 988.67 C-367.53 988.67 -372.88 988.66 -378.23 988.65 C-383.66 988.63 -389.09 988.63 -394.52 988.65 C-469.46 988.91 -469.46 988.91 -492.49 978.12 C-494.26 977.38 -494.26 977.38 -496.06 976.62 C-511.96 969.69 -532.73 957.52 -541.49 942.12 C-542.23 941.38 -542.23 941.38 -542.99 940.62 C-544.49 939.12 -544.49 939.12 -545.99 936.56 C-547.4 933.88 -547.4 933.88 -550.49 932.12 C-551.19 930.47 -551.85 928.8 -552.49 927.12 C-553.45 925.42 -554.42 923.71 -555.41 922.01 C-558.56 916.49 -560.81 911.28 -562.49 905.12 C-562.96 904.07 -563.44 903.02 -563.92 901.94 C-567.08 894.78 -569 887.09 -568.4 879.26 C-568.38 876.99 -568.38 876.99 -569.48 874.54 C-570.71 870.36 -570.74 866.71 -570.7 862.39 C-570.69 861.09 -570.69 861.09 -570.69 859.76 C-570.68 856.86 -570.66 853.96 -570.64 851.06 C-570.63 848.98 -570.62 846.9 -570.61 844.82 C-570.59 839.17 -570.56 833.52 -570.52 827.87 C-570.48 821.95 -570.46 816.03 -570.43 810.11 C-570.38 800.16 -570.33 790.22 -570.27 780.27 C-570.2 768.79 -570.14 757.31 -570.08 745.82 C-570.02 733.58 -569.96 721.35 -569.89 709.11 C-569.87 705.59 -569.86 702.07 -569.84 698.55 C-569.81 693.01 -569.78 687.46 -569.74 681.92 C-569.73 679.89 -569.72 677.86 -569.71 675.84 C-569.62 657.2 -569.62 657.2 -568.68 649.28 C-568.47 646.9 -568.53 644.6 -568.64 642.21 C-568.71 636.07 -566.89 630.61 -565.05 624.81 C-564.4 622.71 -563.76 620.61 -563.12 618.51 C-562.83 617.6 -562.54 616.68 -562.24 615.74 C-561.44 613.13 -561.44 613.13 -561.01 610.44 C-560.49 608.12 -560.49 608.12 -558.55 605.75 C-556.26 603.18 -556.26 603.18 -555.49 599.62 C-554.41 595.86 -553.03 594.05 -550.49 591.12 C-548.88 588.61 -547.52 586.21 -546.36 583.46 C-543.88 579.04 -540.64 575.74 -537.11 572.12 C-535.79 570.75 -534.47 569.38 -533.15 568 C-532.21 567.02 -532.21 567.02 -531.24 566.01 C-529.66 564.31 -528.17 562.57 -526.71 560.76 C-524.26 557.86 -521.66 556.17 -518.49 554.12 C-517.83 553.13 -517.17 552.14 -516.49 551.12 C-513.86 549.69 -511.17 548.44 -508.46 547.19 C-504.11 545.12 -504.11 545.12 -500.49 542 C-498.06 539.72 -495.86 539.35 -492.66 538.68 C-490.41 538.1 -488.57 537.28 -486.49 536.25 C-473.55 530.35 -460.03 529.42 -446.05 528.94 C-443.53 528.84 -441.01 528.73 -438.49 528.62 C-436.93 528.55 -435.38 528.49 -433.83 528.44 C-430.37 528.6 -430.37 528.6 -427.49 527.12 C-427.37 524.14 -427.31 521.18 -427.3 518.2 C-427.29 517.26 -427.28 516.32 -427.27 515.35 C-427.25 513.3 -427.24 511.25 -427.23 509.2 C-427.21 505.94 -427.18 502.67 -427.15 499.4 C-427.09 492.44 -427.04 485.47 -426.99 478.5 C-426.93 470.49 -426.86 462.49 -426.79 454.49 C-426.77 451.31 -426.75 448.13 -426.73 444.95 C-426.65 434.88 -426.46 424.82 -426.06 414.75 C-426.02 413.83 -425.99 412.91 -425.95 411.97 C-425.57 403.43 -424.32 395.1 -422.9 386.69 C-422.15 382.03 -421.51 377.36 -420.86 372.69 C-418.96 359.01 -418.96 359.01 -416.86 355.06 C-415.34 351.82 -415.52 351.34 -416.49 348.12 C-416.18 347.53 -415.87 346.93 -415.55 346.32 C-414 343.13 -414.09 340.06 -413.93 336.56 C-413.41 333.7 -412.31 332.35 -410.49 330.12 C-409.86 327.85 -409.86 327.85 -409.49 325.12 C-408.65 320.48 -407.64 316.22 -405.61 311.94 C-403.21 306.86 -401.84 301.58 -400.42 296.16 C-399.49 293.12 -399.49 293.12 -397.49 290.12 C-397.01 288.83 -396.58 287.51 -396.17 286.19 C-393.09 276.69 -388.9 267.8 -384.37 258.94 C-382.07 254.4 -380.07 249.84 -378.37 245.04 C-377.49 243.12 -377.49 243.12 -376.01 241.74 C-373.89 239.49 -373.44 237.04 -372.49 234.12 C-371.38 232.24 -370.21 230.38 -368.99 228.56 C-366.7 225.15 -364.93 221.97 -363.49 218.12 C-361.68 214.74 -360.73 213.29 -357.49 211.12 C-357.18 210.18 -356.87 209.23 -356.55 208.25 C-355.38 204.8 -354.1 203.57 -351.49 201.12 C-350.47 199.47 -349.48 197.8 -348.49 196.12 C-347.54 194.84 -346.58 193.57 -345.61 192.31 C-343.65 189.74 -341.87 187.17 -340.24 184.37 C-337.31 179.58 -333.65 175.4 -330.02 171.12 C-327.83 168.53 -325.71 165.91 -323.61 163.25 C-314.59 151.95 -305.05 141.36 -294.8 131.17 C-292.91 129.3 -291.05 127.42 -289.18 125.54 C-282.25 118.61 -275.2 112.18 -267.49 106.12 C-266.39 105.21 -265.3 104.3 -264.21 103.37 C-260.64 100.43 -256.96 97.65 -253.25 94.87 C-250.61 92.87 -248.2 90.83 -245.86 88.47 C-243.65 86.28 -241.8 84.97 -239.05 83.56 C-232.27 80.24 -232.27 80.24 -227.11 75 C-225.17 72.76 -224.2 72.67 -221.36 72.06 C-220.08 71.75 -218.8 71.44 -217.49 71.12 C-217.16 70.13 -216.83 69.14 -216.49 68.12 C-215.7 68.04 -214.92 67.96 -214.11 67.87 C-213.25 67.63 -212.38 67.38 -211.49 67.12 C-211.05 66.16 -211.05 66.16 -210.6 65.17 C-209.49 63.12 -209.49 63.12 -207.43 62.22 C-206.25 61.92 -206.25 61.92 -205.05 61.62 C-201.08 60.47 -199.88 59.49 -197.49 56.12 C-195.17 55.41 -192.83 54.74 -190.49 54.12 C-189.15 53.13 -187.82 52.13 -186.49 51.12 C-184.47 50.33 -182.45 49.63 -180.39 48.97 C-178.41 48.23 -178.41 48.23 -177.02 46.62 C-174.63 44.29 -171.8 43.85 -168.64 42.97 C-166.42 42.26 -166.42 42.26 -164.92 40.56 C-162.62 38.25 -159.64 38.57 -156.49 38.12 C-155.47 37.14 -154.47 36.14 -153.49 35.12 C-151.49 34.4 -149.49 33.7 -147.46 33.07 C-143.71 31.88 -140.01 30.57 -136.3 29.25 C-135.19 28.86 -135.19 28.86 -134.06 28.46 C-130.68 27.26 -127.31 26.06 -123.94 24.84 C-96.89 15 -96.89 15 -84.83 13.55 C-82.38 13.1 -80.71 12.24 -78.49 11.12 C-76.69 10.71 -74.87 10.36 -73.05 10.06 C-69.51 9.47 -66 8.84 -62.49 8.12 C-61.64 7.96 -60.79 7.79 -59.92 7.62 C-58.65 7.38 -58.65 7.38 -57.36 7.12 C-56.51 6.96 -55.67 6.79 -54.79 6.62 C-52.34 6.14 -52.34 6.14 -49.49 5.12 C-47.89 4.92 -46.28 4.76 -44.67 4.62 C-43.74 4.54 -42.81 4.46 -41.86 4.37 C-39.9 4.21 -37.94 4.04 -35.98 3.87 C-35.05 3.79 -34.13 3.71 -33.17 3.62 C-32.32 3.55 -31.47 3.48 -30.59 3.41 C-28.43 3.23 -28.43 3.23 -26.49 2.12 C-24.37 2.12 -22.26 2.13 -20.14 2.15 C-13.22 2.08 -6.68 -0 0 0 Z " fill="#000102" transform="translate(623.4867483377457,-0.12419849634170532)"/>
<path d="M0 0 C198.33 0 396.66 0 601 0 C601 422.4 601 844.8 601 1280 C408.28 1280 215.56 1280 17 1280 C16.67 1279.34 16.34 1278.68 16 1278 C28.88 1275.2 28.88 1275.2 34.16 1274.2 C34.84 1274.07 35.51 1273.95 36.2 1273.81 C38.11 1273.45 40.01 1273.1 41.92 1272.75 C45.14 1272.15 45.14 1272.15 48 1270 C51.14 1269.12 54.29 1268.33 57.46 1267.59 C61.32 1266.63 63.95 1265.52 67 1263 C69 1262.16 69 1262.16 71 1261.5 C74.15 1260.39 76.38 1259.08 79 1257 C79.8 1256.69 80.61 1256.38 81.44 1256.06 C84.45 1254.81 86.49 1253.07 89 1251 C90.11 1250.35 90.11 1250.35 91.25 1249.69 C102.71 1242.66 116 1232.02 123.31 1220.62 C125 1218 125 1218 128 1216 C128.7 1214.35 129.36 1212.68 130 1211 C130.97 1209.65 131.97 1208.31 133 1207 C133.5 1206.13 133.99 1205.27 134.5 1204.38 C136 1202 136 1202 139 1200 C139.22 1198 139.44 1195.99 139.5 1193.97 C140 1192 140 1192 141.91 1190.69 C144.97 1188.21 145.18 1185.66 146.06 1181.88 C147.11 1177.56 148.16 1173.3 149.69 1169.12 C151.01 1165.38 151.46 1161.81 151.69 1157.85 C152 1156 152 1156 154 1154 C156.77 1153.81 159.48 1153.73 162.25 1153.69 C191.61 1152.71 223.15 1148.54 250.61 1137.81 C252.94 1137.02 254.99 1136.66 257.44 1136.44 C260.91 1136.31 260.91 1136.31 262.85 1134.6 C266.24 1132.08 270.12 1131.26 274.12 1130.06 C276.92 1129.03 278.66 1127.78 281 1126 C282.67 1125.81 282.67 1125.81 284.38 1125.62 C288.86 1124.85 290.58 1122.92 294 1120 C296.32 1119.3 298.66 1118.63 301 1118 C301.66 1117.01 302.32 1116.02 303 1115 C305.07 1114.59 307.02 1114.56 309.12 1114.5 C309.74 1114.34 310.36 1114.17 311 1114 C311.69 1112.68 312.36 1111.35 313 1110 C314.88 1108.69 314.88 1108.69 317.12 1107.56 C317.94 1107.14 318.75 1106.71 319.58 1106.27 C320.38 1105.85 321.18 1105.43 322 1105 C328.19 1101.46 333.76 1097.19 339.36 1092.79 C342 1091 342 1091 345 1091 C345.26 1090.39 345.53 1089.78 345.8 1089.16 C347.09 1086.83 348.07 1085.98 350.25 1084.5 C354.41 1081.51 358.3 1078.27 362.19 1074.94 C362.78 1074.43 363.38 1073.92 363.99 1073.4 C367.48 1070.4 370.77 1067.29 374 1064 C375.17 1062.85 376.35 1061.7 377.52 1060.55 C384.18 1054.01 390.5 1047.56 396 1040 C397.41 1038.18 398.82 1036.37 400.25 1034.56 C401.22 1033.33 401.22 1033.33 402.2 1032.07 C404 1030 404 1030 407 1028 C407.71 1026.35 408.37 1024.68 409 1023 C409.93 1021.39 410.91 1019.8 411.94 1018.25 C412.44 1017.47 412.95 1016.69 413.46 1015.89 C415 1014 415 1014 418 1013 C418.41 1011.4 418.82 1009.79 419.2 1008.18 C420.9 1003.53 424.48 997.26 429 995 C429.45 994.09 429.91 993.18 430.38 992.25 C433.33 986.33 433.33 986.33 436 984 C438.79 983.48 441.5 983.31 444.34 983.17 C447.49 982.97 450.03 982.05 453 981 C454.64 980.71 456.29 980.44 457.94 980.19 C465.22 978.93 472.05 976.46 479 974 C480.08 973.63 481.15 973.27 482.26 972.89 C486.74 971.33 490.24 969.93 494 967 C494.78 966.71 495.57 966.42 496.38 966.12 C499.13 964.95 501.02 963.39 503.26 961.42 C505.28 959.77 507.42 958.4 509.62 957 C513.16 954.69 515.52 952.45 518 949 C518.78 948.26 519.57 947.51 520.38 946.75 C523.8 943.16 526.35 939.19 529 935 C529.52 934.2 530.03 933.39 530.56 932.56 C537.22 920.7 542.91 908.64 544.14 894.99 C544.22 894.16 544.3 893.33 544.38 892.48 C545.11 884.54 545.45 876.6 545.62 868.63 C545.64 867.84 545.65 867.05 545.67 866.24 C546.3 838.8 546.15 811.33 546.13 783.88 C546.12 778.48 546.13 773.08 546.13 767.68 C549.38 700.82 549.38 700.82 539.22 635.76 C538.35 633.09 537.61 630.52 536.96 627.8 C536.21 624.82 535.42 622.31 534.12 619.56 C533.77 618.81 533.42 618.05 533.06 617.28 C532.71 616.53 532.36 615.77 532 615 C531.37 613.54 530.75 612.08 530.12 610.62 C527.73 605.24 524.87 600.14 522 595 C521.58 594.21 521.15 593.43 520.71 592.62 C516 583.92 510.77 576.46 503.95 569.26 C502 567 502 567 501.03 564.96 C497.41 558.06 487.43 552.76 481.19 548.12 C480.57 547.66 479.94 547.2 479.3 546.72 C474.91 543.5 470.49 540.95 465.38 539 C463 538 463 538 461.25 536.5 C458.31 534.54 455.47 534.08 452.02 533.43 C450 533 450 533 448 532 C446.64 531.79 445.27 531.63 443.89 531.5 C443.08 531.42 442.26 531.34 441.41 531.25 C440.55 531.17 439.7 531.09 438.81 531 C422.61 529.41 422.61 529.41 419 527 C418.62 525.07 418.62 525.07 418.61 522.65 C418.61 521.74 418.6 520.83 418.59 519.88 C418.59 518.88 418.59 517.87 418.6 516.84 C418.59 515.78 418.59 514.72 418.58 513.63 C418.56 510.12 418.56 506.6 418.56 503.09 C418.55 500.64 418.53 498.19 418.52 495.74 C418.48 489.28 418.46 482.81 418.45 476.34 C418.42 466.04 418.38 455.73 418.33 445.43 C418.31 441.85 418.31 438.27 418.3 434.69 C418.26 420.53 417.78 406.87 414.42 393.05 C413.62 389.14 413.47 385.16 413.19 381.19 C412.36 371.29 410.28 362.09 407.67 352.54 C406.76 349.07 405.96 345.58 405.17 342.09 C403.19 333.41 400.87 324.93 398.05 316.48 C396.81 312.73 395.78 309.08 395.01 305.2 C394.29 301.75 393.3 299.72 391 297 C390.19 294.74 390.19 294.74 389.56 292.31 C388.36 288.01 386.79 284.08 384.91 280.03 C384 278 384 278 382.94 274.75 C382.09 271.96 382.09 271.96 380.5 269.5 C379 267 379 267 378.21 264.43 C376.61 259.91 374.4 255.84 372.12 251.62 C367.78 243.49 363.5 235.43 360.03 226.88 C359.01 224.67 359.01 224.67 356 223 C355.19 221.2 355.19 221.2 354.56 219.12 C353.31 215.49 351.83 213.65 349 211 C347.98 209.01 346.98 207.01 346 205 C342.29 199.01 338.11 193.34 333.93 187.68 C332.61 185.85 331.34 183.99 330.12 182.09 C327.7 178.56 325.01 175.4 322.19 172.19 C318.25 167.66 314.43 163.08 310.78 158.32 C310.19 157.55 309.61 156.79 309 156 C308.43 155.26 307.87 154.52 307.29 153.76 C300.7 145.43 293.29 137.99 285.77 130.51 C283.56 128.31 281.37 126.11 279.17 123.9 C272.09 116.81 265.06 109.98 257 104 C255.52 102.86 254.04 101.71 252.56 100.56 C251.83 100 251.1 99.43 250.34 98.85 C247.72 96.78 245.18 94.64 242.62 92.5 C238.16 88.82 233.56 85.71 228.63 82.7 C226.03 81.02 223.66 79.2 221.25 77.25 C218.58 75.1 216.2 73.5 213 72.25 C212.01 71.84 211.02 71.42 210 71 C209.67 70.01 209.34 69.02 209 68 C206.77 66.96 206.77 66.96 204 66 C201.74 64.86 199.49 63.69 197.25 62.5 C196.1 61.89 194.95 61.28 193.77 60.66 C191 59 191 59 190 57 C189.11 56.71 188.23 56.42 187.31 56.12 C183.71 54.9 181.15 53.1 178 51 C176.99 50.67 175.98 50.34 174.94 50 C172 49 172 49 169.5 46.94 C166.62 44.7 164.59 44.33 161 44 C161 43.34 161 42.68 161 42 C157.81 40.14 154.58 39.41 151.01 38.56 C148.13 37.76 145.64 36.38 143 35 C141.02 34.21 139.03 33.47 137.03 32.75 C133.91 31.6 130.84 30.35 127.78 29.07 C121.94 26.65 116.04 24.72 109.98 22.93 C107.25 22.08 104.65 21.06 102 20 C100.67 19.65 99.34 19.32 98 19 C95.79 18.36 93.58 17.71 91.38 17.06 C86.27 15.59 81.21 14.33 75.99 13.39 C74 13 74 13 71 12 C67.79 11.34 64.58 10.72 61.36 10.11 C56.21 9.1 56.21 9.1 54 8 C52.61 8.03 52.61 8.03 51.19 8.06 C48 8 48 8 45.65 7.03 C42.78 5.92 40.43 5.62 37.37 5.4 C36.31 5.32 35.26 5.24 34.18 5.16 C32.54 5.05 32.54 5.05 30.88 4.94 C28.71 4.78 26.54 4.63 24.37 4.46 C22.93 4.37 22.93 4.37 21.46 4.27 C19 4 19 4 16 3 C12.39 2.73 8.77 2.55 5.15 2.38 C2 2 2 2 0 0 Z " fill="#FCFCFC" transform="translate(679,0)"/>
<path d="M0 0 C0.95 -0 1.9 -0.01 2.87 -0.01 C7.87 -0.02 12.88 -0.03 17.88 -0.04 C23.05 -0.04 28.22 -0.07 33.39 -0.1 C37.36 -0.11 41.34 -0.12 45.32 -0.12 C47.23 -0.12 49.14 -0.13 51.04 -0.14 C53.7 -0.16 56.35 -0.16 59.01 -0.15 C59.8 -0.16 60.59 -0.17 61.4 -0.18 C63.59 -0.16 63.59 -0.16 67.06 0.2 C69.32 3.59 69.31 4.73 69.31 8.7 C69.32 9.85 69.32 11 69.33 12.19 C69.33 13.46 69.32 14.73 69.32 16.03 C69.32 17.39 69.32 18.75 69.33 20.11 C69.33 23.84 69.33 27.58 69.32 31.32 C69.32 35.35 69.33 39.38 69.33 43.41 C69.34 51.3 69.34 59.2 69.33 67.09 C69.33 73.51 69.33 79.92 69.33 86.34 C69.33 87.25 69.33 88.16 69.33 89.1 C69.33 90.95 69.33 92.81 69.33 94.66 C69.34 112.04 69.33 129.42 69.32 146.8 C69.31 161.73 69.31 176.65 69.32 191.58 C69.33 208.9 69.34 226.21 69.33 243.53 C69.33 245.38 69.33 247.22 69.33 249.07 C69.33 250.43 69.33 250.43 69.33 251.82 C69.33 258.23 69.33 264.64 69.34 271.05 C69.34 278.86 69.34 286.66 69.33 294.47 C69.32 298.46 69.32 302.44 69.33 306.43 C69.33 310.07 69.33 313.72 69.32 317.37 C69.32 319.32 69.32 321.27 69.33 323.22 C69.32 324.94 69.32 324.94 69.31 326.7 C69.31 327.7 69.31 328.7 69.31 329.72 C69.06 332.2 69.06 332.2 67.06 335.2 C64.4 335.5 61.97 335.6 59.3 335.58 C58.5 335.58 57.7 335.58 56.87 335.59 C54.21 335.59 51.54 335.58 48.88 335.57 C47.02 335.57 45.17 335.57 43.32 335.57 C39.42 335.57 35.52 335.56 31.63 335.54 C26.66 335.52 21.69 335.52 16.72 335.52 C12.88 335.53 9.05 335.52 5.21 335.51 C3.38 335.51 1.55 335.5 -0.28 335.51 C-12.73 335.51 -24.32 335.19 -35.94 330.2 C-37.54 329.59 -37.54 329.59 -39.17 328.96 C-43.56 327.07 -47.21 324.34 -51 321.45 C-51.68 320.95 -52.36 320.45 -53.06 319.94 C-59.34 315.21 -64.21 309.88 -68.19 303.08 C-68.91 301.87 -68.91 301.87 -69.64 300.63 C-71.98 296.25 -73.35 291.9 -74.5 287.08 C-75.23 284.06 -75.96 281.14 -76.94 278.2 C-76.61 277.54 -76.28 276.88 -75.94 276.2 C-75.84 273.73 -75.8 271.28 -75.81 268.81 C-75.81 268.04 -75.81 267.27 -75.81 266.47 C-75.8 263.87 -75.8 261.28 -75.81 258.68 C-75.81 256.82 -75.8 254.96 -75.8 253.1 C-75.8 248.05 -75.8 242.99 -75.8 237.93 C-75.81 232.64 -75.8 227.35 -75.8 222.06 C-75.8 213.16 -75.8 204.27 -75.81 195.37 C-75.81 185.1 -75.81 174.82 -75.81 164.55 C-75.8 155.73 -75.8 146.91 -75.8 138.08 C-75.8 132.82 -75.8 127.55 -75.8 122.28 C-75.8 117.32 -75.8 112.36 -75.81 107.4 C-75.81 105.58 -75.81 103.77 -75.8 101.95 C-75.8 99.46 -75.81 96.97 -75.81 94.49 C-75.81 93.77 -75.81 93.06 -75.8 92.33 C-75.82 87.93 -76.16 83.65 -76.72 79.29 C-77.08 75.81 -76.91 72.38 -76.69 68.89 C-76.64 68.16 -76.6 67.43 -76.55 66.67 C-76.08 60.3 -74.81 54.32 -72.94 48.2 C-72.61 46.99 -72.28 45.77 -71.94 44.52 C-71.61 43.75 -71.28 42.99 -70.94 42.2 C-69.45 41.71 -69.45 41.71 -67.94 41.2 C-67.91 40.59 -67.89 39.97 -67.86 39.34 C-67.39 32.61 -67.39 32.61 -65.06 30.52 C-64.36 30.08 -63.66 29.65 -62.94 29.2 C-62.51 28.3 -62.08 27.41 -61.64 26.48 C-59.76 22.87 -57.44 20.26 -54.56 17.45 C-54.09 16.97 -53.62 16.49 -53.14 16 C-50.25 13.13 -47.74 11.57 -43.94 10.2 C-43.53 9.52 -43.11 8.84 -42.69 8.14 C-40.49 5.7 -39.57 5.91 -36.38 5.7 C-35.59 5.69 -34.8 5.68 -34 5.67 C-32.98 5.44 -32.98 5.44 -31.94 5.2 C-31.65 4.55 -31.35 3.89 -31.05 3.22 C-30.68 2.55 -30.32 1.89 -29.94 1.2 C-20.22 -0.64 -9.87 0.02 0 0 Z " fill="#FCFCFC" transform="translate(191.9375,590.796875)"/>
<path d="M0 0 C1 -0.01 1 -0.01 2.02 -0.02 C4.23 -0.03 6.44 -0.02 8.65 -0.01 C10.19 -0.01 11.73 -0.02 13.27 -0.02 C16.51 -0.02 19.74 -0.02 22.98 -0 C27.1 0.01 31.22 0 35.35 -0.01 C38.53 -0.02 41.72 -0.02 44.91 -0.01 C46.43 -0.01 47.94 -0.01 49.46 -0.02 C65.54 -0.08 76.21 3.19 88.14 14.06 C98.39 24.65 98.39 24.65 98.39 29.39 C99.32 29.75 99.32 29.75 100.26 30.12 C102.9 31.69 103.36 32.87 104.45 35.7 C105.52 38.32 106.52 40.6 108.02 43.01 C109.39 45.39 109.39 45.39 110.39 48.95 C111.11 52.29 111.11 52.29 112.82 54.05 C115.16 57.54 115.75 61.18 116.55 65.27 C116.72 66.16 116.9 67.04 117.08 67.95 C118.9 78.05 118.92 88.03 118.85 98.26 C118.85 100.36 118.85 102.47 118.85 104.57 C118.85 110.23 118.83 115.88 118.8 121.53 C118.77 127.46 118.77 133.4 118.77 139.33 C118.75 150.55 118.72 161.76 118.68 172.97 C118.64 185.74 118.61 198.5 118.59 211.27 C118.55 235.67 118.49 260.08 118.41 284.49 C118.4 287.46 118.39 290.42 118.39 293.39 C117.73 294.72 117.06 296.06 116.39 297.39 C116.13 298.76 115.9 300.13 115.7 301.51 C113.54 311.62 105.42 319.41 97.39 325.39 C85.87 332.48 69.63 335.53 56.29 335.5 C55.6 335.5 54.92 335.5 54.21 335.5 C51.97 335.5 49.73 335.49 47.49 335.49 C45.93 335.48 44.37 335.48 42.81 335.48 C38.72 335.48 34.62 335.47 30.53 335.46 C26.35 335.45 22.17 335.44 17.98 335.44 C9.79 335.43 1.59 335.41 -6.61 335.39 C-7.1 333.9 -7.1 333.9 -7.61 332.39 C-8.27 332.39 -8.93 332.39 -9.61 332.39 C-9.68 290.53 -9.73 248.67 -9.76 206.8 C-9.76 201.87 -9.77 196.93 -9.77 191.99 C-9.77 191.01 -9.77 190.02 -9.77 189.01 C-9.79 173.08 -9.81 157.14 -9.84 141.21 C-9.87 124.86 -9.88 108.52 -9.89 92.18 C-9.89 82.09 -9.91 72 -9.93 61.91 C-9.95 55 -9.95 48.09 -9.95 41.18 C-9.95 37.19 -9.95 33.19 -9.97 29.2 C-9.98 25.55 -9.98 21.9 -9.97 18.25 C-9.97 16.29 -9.98 14.34 -9.99 12.39 C-9.99 11.23 -9.98 10.08 -9.98 8.9 C-9.98 7.9 -9.98 6.9 -9.98 5.87 C-9.61 3.39 -9.61 3.39 -8.27 1.57 C-5.62 -0.31 -3.21 0.01 0 0 Z " fill="#FCFCFC" transform="translate(1044.607666015625,590.61181640625)"/>
<path d="M0 0 C1.86 -0.02 1.86 -0.02 3.75 -0.05 C13.74 -0.05 22.37 1.59 31.62 5.31 C33.36 5.78 33.36 5.78 35.12 6.25 C38.47 7.27 40.68 8.49 43.62 10.31 C44.57 10.84 45.52 11.38 46.49 11.93 C54.57 16.49 60.97 20.91 66.62 28.31 C67.24 28.91 67.86 29.51 68.5 30.12 C71.56 33.27 74.06 36.76 76.62 40.31 C77.11 40.95 77.6 41.58 78.1 42.23 C83.41 49.54 86.44 57.93 89.62 66.31 C90.16 67.71 90.16 67.71 90.7 69.13 C94.05 78.53 93.81 88.06 93.81 97.94 C93.82 99.23 93.84 100.53 93.85 101.87 C93.85 103.12 93.85 104.37 93.86 105.66 C93.86 106.8 93.86 107.93 93.87 109.1 C93.62 112.31 93.62 112.31 92.55 115.54 C91.3 118.35 91.3 118.35 92.62 121.31 C92.15 121.71 91.67 122.11 91.18 122.53 C88.87 125.17 88.83 127.86 88.35 131.25 C87.62 133.31 87.62 133.31 85.62 134.31 C83.42 135.13 83.42 135.13 82.9 137.41 C82.79 138.2 82.68 138.99 82.56 139.81 C82.21 142.22 82.21 142.22 81.62 144.31 C80.63 144.97 79.64 145.63 78.62 146.31 C78.21 147.01 77.8 147.71 77.38 148.44 C73.17 155.35 67.14 161.52 60.62 166.31 C59.97 166.31 59.31 166.31 58.62 166.31 C58.41 166.9 58.2 167.49 57.98 168.09 C56.14 171.1 54.01 172.12 50.94 173.81 C49.85 174.42 48.76 175.02 47.64 175.64 C46.64 176.19 45.65 176.75 44.62 177.31 C43.5 178.04 42.37 178.77 41.25 179.5 C35.89 182.58 29.55 183.74 23.62 185.31 C21.95 185.84 21.95 185.84 20.25 186.38 C16.02 187.47 12.03 187.85 7.69 188.06 C6.86 188.1 6.04 188.14 5.19 188.19 C-5.09 188.57 -15.13 188.16 -24.38 183.31 C-26.47 182.77 -26.47 182.77 -28.5 182.5 C-36.71 180.84 -43.98 176.59 -50.38 171.31 C-52.08 170.1 -53.79 168.89 -55.5 167.69 C-63.9 161.58 -71.67 155.28 -77.11 146.33 C-78.29 144.44 -79.56 142.89 -81.06 141.25 C-83.41 138.27 -84.5 135.86 -85.7 132.32 C-87.1 128.17 -88.92 124.19 -90.94 120.31 C-98.05 103.46 -95.41 79.95 -89.38 63.31 C-88.62 60.9 -87.86 58.48 -87.12 56.06 C-86.38 54.31 -86.38 54.31 -84.38 53.31 C-83.5 51.5 -83.5 51.5 -82.69 49.31 C-78.01 38.43 -68.6 28.54 -59.38 21.31 C-58.17 20.08 -58.17 20.08 -56.94 18.81 C-53.13 15.1 -49.78 12.71 -44.62 11.25 C-41.11 10.62 -41.11 10.62 -39.38 7.31 C-36.91 6.43 -36.91 6.43 -34 5.75 C-30.13 4.85 -30.13 4.85 -26.48 3.33 C-18.4 -0.59 -8.75 -0.02 0 0 Z " fill="#FCFCFC" transform="translate(679.375,1028.6875)"/>
<path d="M0 0 C0.33 0 0.66 0 1 0 C1.83 5.05 2.14 9.94 2.12 15.05 C2.12 15.84 2.12 16.62 2.12 17.42 C2.12 20.03 2.12 22.63 2.11 25.24 C2.11 27.11 2.11 28.98 2.11 30.85 C2.11 35.93 2.11 41 2.1 46.08 C2.1 51.38 2.09 56.69 2.09 62 C2.09 72.04 2.08 82.08 2.07 92.13 C2.06 103.56 2.06 115 2.05 126.44 C2.04 149.96 2.02 173.48 2 197 C1.01 196.67 0.02 196.34 -1 196 C-1.02 170.74 -1.04 145.48 -1.05 120.22 C-1.06 108.49 -1.06 96.76 -1.08 85.04 C-1.09 74.82 -1.09 64.6 -1.09 54.38 C-1.1 48.97 -1.1 43.55 -1.11 38.14 C-1.11 33.05 -1.11 27.96 -1.11 22.87 C-1.11 21 -1.12 19.12 -1.12 17.25 C-1.12 14.7 -1.12 12.15 -1.12 9.61 C-1.12 8.86 -1.13 8.11 -1.13 7.34 C-1.11 2.23 -1.11 2.23 0 0 Z " fill="#515254" transform="translate(115,670)"/>
<path d="M0 0 C0.66 0 1.32 0 2 0 C2 45.54 2 91.08 2 138 C1.01 137.67 0.02 137.34 -1 137 C-1.02 119.29 -1.04 101.57 -1.05 83.86 C-1.06 75.63 -1.06 67.41 -1.08 59.18 C-1.09 52.01 -1.09 44.85 -1.09 37.68 C-1.1 33.89 -1.1 30.09 -1.11 26.29 C-1.11 22.72 -1.11 19.15 -1.11 15.58 C-1.11 13.64 -1.12 11.7 -1.12 9.76 C-1.12 8.61 -1.12 7.46 -1.12 6.28 C-1.12 5.28 -1.12 4.28 -1.12 3.25 C-1 1 -1 1 0 0 Z " fill="#515254" transform="translate(1224,708)"/>
<path d="M0 0 C0.66 0 1.32 0 2 0 C2.16 8.52 2.3 17.04 2.44 25.56 C2.51 29.52 2.58 33.48 2.65 37.44 C2.96 54.32 3.26 71.14 2 88 C1.34 87.67 0.68 87.34 0 87 C0 58.29 0 29.58 0 0 Z " fill="#D5D5D6" transform="translate(258,439)"/>
<path d="M0 0 C2.4 3.61 2.24 5.15 2.19 9.44 C2.18 10.08 2.17 10.72 2.17 11.38 C2.03 20.26 1.5 29.13 1 38 C0.34 37.67 -0.32 37.34 -1 37 C-1.02 31.89 -1.04 26.78 -1.05 21.67 C-1.06 19.93 -1.07 18.2 -1.08 16.46 C-1.09 13.96 -1.09 11.47 -1.1 8.97 C-1.1 8.19 -1.11 7.41 -1.11 6.6 C-1.11 4.73 -1.06 2.87 -1 1 C-0.67 0.67 -0.34 0.34 0 0 Z " fill="#BFC0C2" transform="translate(259,489)"/>
<path d="M0 0 C3.77 3.07 7.18 6.09 10.31 9.81 C13.76 13.88 17.62 17.3 21.62 20.81 C24.73 23.67 27.35 26.72 30 30 C27.03 28.66 24.86 27.15 22.5 24.91 C21.84 24.3 21.19 23.68 20.52 23.05 C19.83 22.39 19.14 21.74 18.44 21.06 C17.73 20.4 17.03 19.73 16.3 19.04 C10.43 13.46 4.67 7.78 -1 2 C-0.67 1.34 -0.34 0.68 0 0 Z " fill="#AEAFB1" transform="translate(958,115)"/>
<path d="M0 0 C0 3.96 0 7.92 0 12 C-0.99 11.67 -1.98 11.34 -3 11 C-3 7.7 -3 4.4 -3 1 C-1 0 -1 0 0 0 Z " fill="#4C4D4F" transform="translate(1165,870)"/>
<path d="M0 0 C0 0.66 0 1.32 0 2 C-3.82 3.42 -6.91 4.24 -11 4 C-11.33 3.34 -11.66 2.68 -12 2 C-7.88 0.71 -4.33 -0.26 0 0 Z " fill="#C9CACB" transform="translate(707,1276)"/>
</svg>
